# 3ds Max Wavefront OBJ Exporter v0.99 - (c)2007 guruware
# File Created: 02.05.2022 15:56:43

#
# object Object001
#

v  0.1122 0.1450 -0.0408
v  0.0324 0.1666 -0.1121
v  -0.0430 0.2231 0.0160
v  0.0500 0.1554 0.0706
v  0.1681 -0.0468 -0.0345
v  -0.0523 -0.0218 0.1323
v  -0.1500 -0.0029 -0.0554
v  -0.1236 0.1713 -0.0359
v  -0.0739 0.1624 -0.0867
v  -0.1681 -0.0786 -0.1126
v  -0.0034 -0.2231 -0.1323
v  -0.0358 0.1602 -0.1152
# 12 vertices

vn 0.0000 -0.0000 -16839046917003010816081920.0000
vn 0.2690 0.4611 -0.8456
vn 0.7180 0.6825 -0.1371
vn 0.9489 -0.3150 -0.0172
vn 0.4330 0.5629 0.7041
vn -0.1671 0.9380 0.3036
vn -0.2641 -0.2538 0.9305
vn 0.1203 -0.8361 -0.5352
vn -0.8289 -0.2906 -0.4780
vn -0.2794 0.5274 -0.8023
vn -0.9459 0.0339 0.3226
# 11 vertex normals

vt 0.5039 0.6133 0.0000
vt 0.4961 0.6133 0.0000
vt 0.4979 0.6016 0.0000
vt 0.5039 0.6016 0.0000
vt 0.4983 0.5989 0.0000
vt 0.4900 0.5989 0.0000
vt 0.4888 0.5769 0.0000
vt 0.4860 0.5989 0.0000
vt 0.4782 0.5989 0.0000
vt 0.4782 0.5857 0.0000
vt 0.5102 0.5813 0.0000
vt 0.5093 0.5989 0.0000
vt 0.5050 0.5989 0.0000
vt 0.5075 0.5769 0.0000
vt 0.4963 0.5769 0.0000
vt 0.5019 0.5989 0.0000
vt 0.5179 0.5989 0.0000
vt 0.5179 0.5769 0.0000
vt 0.4645 0.5818 0.0000
vt 0.4534 0.5892 0.0000
vt 0.4535 0.5725 0.0000
vt 0.4645 0.5892 0.0000
vt 0.4922 0.6133 0.0000
vt 0.4922 0.6016 0.0000
vt 0.4922 0.6086 0.0000
# 25 texture coords

o Object001
g Object001
s 2
f 1/1/1 2/2/1 3/3/1 4/4/1 
s 8
f 2/5/2 1/6/3 5/7/4 
s 16
f 4/8/5 3/9/6 6/10/7 
s 32
f 7/11/1 8/12/1 9/13/1 10/14/1 
s 64
f 5/7/1 11/15/1 12/16/1 2/5/1 
s 32
f 10/14/1 9/13/1 12/16/1 11/15/1 
s 16
f 3/17/1 8/12/1 7/11/1 6/18/1 
s 8
f 1/6/3 4/8/5 5/7/4 
s off
f 6/19/7 11/20/8 5/21/4 
f 6/19/7 10/22/9 11/20/8 
s 2
f 2/2/2 12/23/10 3/3/6 
f 8/24/1 3/3/1 12/23/1 9/25/1 
s 8
f 4/8/5 6/10/7 5/7/4 
s off
f 6/18/7 7/11/11 10/14/9 
# 6 polygons - 8 triangles

