# 3ds Max Wavefront OBJ Exporter v0.99 - (c)2007 guruware
# File Created: 19.04.2022 20:47:02

#
# object Cylinder014
#

v  0.6149 0.0000 -0.0000
v  0.4396 0.0000 -0.3834
v  0.0164 0.0000 -0.5423
v  -0.4069 0.0000 -0.3834
v  -0.5822 0.0000 0.0000
v  -0.4069 0.0000 0.3834
v  0.0164 0.0000 0.5423
v  0.4396 0.0000 0.3834
v  0.8071 0.3321 -0.0000
v  0.6696 0.4115 -0.3834
v  0.3375 0.6033 -0.5423
v  0.0055 0.7950 -0.3834
v  -0.1321 0.8744 0.0000
v  0.0055 0.7950 0.3834
v  0.3375 0.6033 0.5423
v  0.6696 0.4115 0.3834
v  0.8721 0.3791 -0.0000
v  0.7263 0.4633 -0.4066
v  0.3741 0.6666 -0.5750
v  0.0220 0.8699 -0.4066
v  -0.1239 0.9541 0.0000
v  0.0220 0.8699 0.4066
v  0.3741 0.6666 0.5750
v  0.7263 0.4633 0.4066
v  0.9344 0.4763 -0.0000
v  0.7872 0.5613 -0.4104
v  0.4318 0.7665 -0.5803
v  0.0764 0.9717 -0.4104
v  -0.0708 1.0567 0.0000
v  0.0764 0.9717 0.4104
v  0.4318 0.7665 0.5803
v  0.7872 0.5613 0.4104
v  0.9497 0.7733 -0.0000
v  0.8368 0.8384 -0.3148
v  0.5642 0.9958 -0.4451
v  0.2916 1.1532 -0.3148
v  0.1787 1.2184 0.0000
v  0.2916 1.1532 0.3148
v  0.5642 0.9958 0.4451
v  0.8368 0.8384 0.3148
v  1.0709 0.9831 -0.0000
v  0.9580 1.0483 -0.3148
v  0.6854 1.2057 -0.4451
v  0.4128 1.3631 -0.3148
v  0.2999 1.4283 0.0000
v  0.4128 1.3631 0.3148
v  0.6854 1.2057 0.4451
v  0.9580 1.0483 0.3148
v  1.2770 1.1851 -0.0000
v  1.1444 1.2616 -0.3696
v  0.8243 1.4464 -0.5227
v  0.5043 1.6312 -0.3696
v  0.3717 1.7077 0.0000
v  0.5043 1.6312 0.3696
v  0.8243 1.4464 0.5227
v  1.1444 1.2616 0.3696
v  1.4324 1.4543 -0.0000
v  1.2998 1.5309 -0.3696
v  0.9798 1.7157 -0.5227
v  0.6597 1.9004 -0.3696
v  0.5271 1.9770 0.0000
v  0.6597 1.9004 0.3696
v  0.9798 1.7157 0.5227
v  1.2998 1.5309 0.3696
v  1.3712 1.5493 -0.0000
v  1.2641 1.6112 -0.2985
v  1.0056 1.7604 -0.4222
v  0.7471 1.9097 -0.2985
v  0.6400 1.9715 0.0000
v  0.7471 1.9097 0.2985
v  1.0056 1.7604 0.4222
v  1.2641 1.6112 0.2985
v  1.5612 1.8783 -0.0000
v  1.4541 1.9401 -0.2985
v  1.1956 2.0894 -0.4222
v  0.9370 2.2386 -0.2985
v  0.8300 2.3005 0.0000
v  0.9370 2.2386 0.2985
v  1.1956 2.0894 0.4222
v  1.4541 1.9401 0.2985
# 80 vertices

vn 0.4895 -0.5315 -0.6913
vn 0.7343 -0.6789 0.0000
vn 0.8655 -0.5009 0.0000
vn 0.5732 -0.3203 -0.7542
vn -0.1137 -0.1889 -0.9754
vn 0.4895 -0.5315 -0.6913
vn 0.5732 -0.3203 -0.7542
vn -0.1080 0.0575 -0.9925
vn -0.7153 0.1406 -0.6845
vn -0.1137 -0.1889 -0.9754
vn -0.1080 0.0575 -0.9925
vn -0.6864 0.3560 -0.6342
vn -0.9617 0.2741 0.0000
vn -0.7153 0.1406 -0.6845
vn -0.6864 0.3560 -0.6342
vn -0.8891 0.4577 0.0000
vn -0.7153 0.1406 0.6846
vn -0.9617 0.2741 0.0000
vn -0.8891 0.4577 0.0000
vn -0.6864 0.3560 0.6342
vn -0.1137 -0.1889 0.9754
vn -0.7153 0.1406 0.6846
vn -0.6864 0.3560 0.6342
vn -0.1080 0.0575 0.9925
vn 0.4895 -0.5315 0.6913
vn -0.1137 -0.1889 0.9754
vn -0.1080 0.0575 0.9925
vn 0.5732 -0.3203 0.7542
vn 0.7343 -0.6789 0.0000
vn 0.4895 -0.5315 0.6913
vn 0.5732 -0.3203 0.7542
vn 0.8655 -0.5009 0.0000
vn 0.9875 0.1576 -0.0000
vn 0.7906 0.2712 -0.5490
vn 0.3151 0.5458 -0.7764
vn -0.1603 0.8203 -0.5490
vn -0.3572 0.9340 0.0000
vn -0.1603 0.8203 0.5490
vn 0.3151 0.5459 0.7763
vn 0.7906 0.2713 0.5490
vn 0.4862 -0.5369 -0.6895
vn 0.7335 -0.6797 0.0000
vn 0.7343 -0.6789 0.0000
vn 0.4895 -0.5315 -0.6913
vn -0.1109 -0.1921 -0.9751
vn 0.4862 -0.5369 -0.6895
vn 0.4895 -0.5315 -0.6913
vn -0.1137 -0.1889 -0.9754
vn -0.7080 0.1526 -0.6895
vn -0.1109 -0.1921 -0.9751
vn -0.1137 -0.1889 -0.9754
vn -0.7153 0.1406 -0.6845
vn -0.9554 0.2954 0.0000
vn -0.7080 0.1526 -0.6895
vn -0.7153 0.1406 -0.6845
vn -0.9617 0.2741 0.0000
vn -0.7080 0.1526 0.6895
vn -0.9554 0.2954 0.0000
vn -0.9617 0.2741 0.0000
vn -0.7153 0.1406 0.6846
vn -0.1109 -0.1921 0.9751
vn -0.7080 0.1526 0.6895
vn -0.7153 0.1406 0.6846
vn -0.1137 -0.1889 0.9754
vn 0.4862 -0.5369 0.6895
vn -0.1109 -0.1921 0.9751
vn -0.1137 -0.1889 0.9754
vn 0.4895 -0.5315 0.6913
vn 0.7335 -0.6797 0.0000
vn 0.4862 -0.5369 0.6895
vn 0.4895 -0.5315 0.6913
vn 0.7343 -0.6789 0.0000
vn 0.6998 -0.1736 -0.6929
vn 0.9484 -0.3171 -0.0000
vn 0.7335 -0.6797 0.0000
vn 0.4862 -0.5369 -0.6895
vn 0.0998 0.1728 -0.9799
vn 0.6998 -0.1736 -0.6929
vn 0.4862 -0.5369 -0.6895
vn -0.1109 -0.1921 -0.9751
vn -0.5003 0.5193 -0.6929
vn 0.0998 0.1728 -0.9799
vn -0.1109 -0.1921 -0.9751
vn -0.7080 0.1526 -0.6895
vn -0.7488 0.6628 0.0000
vn -0.5003 0.5193 -0.6929
vn -0.7080 0.1526 -0.6895
vn -0.9554 0.2954 0.0000
vn -0.5003 0.5193 0.6929
vn -0.7488 0.6628 0.0000
vn -0.9554 0.2954 0.0000
vn -0.7080 0.1526 0.6895
vn 0.0998 0.1728 0.9799
vn -0.5003 0.5193 0.6929
vn -0.7080 0.1526 0.6895
vn -0.1109 -0.1921 0.9751
vn 0.6998 -0.1736 0.6929
vn 0.0998 0.1728 0.9799
vn -0.1109 -0.1921 0.9751
vn 0.4862 -0.5369 0.6895
vn 0.9484 -0.3171 -0.0000
vn 0.6998 -0.1736 0.6929
vn 0.4862 -0.5369 0.6895
vn 0.7335 -0.6797 0.0000
vn 0.7172 -0.1278 -0.6850
vn 0.9630 -0.2696 0.0000
vn 0.9484 -0.3171 -0.0000
vn 0.6998 -0.1736 -0.6929
vn 0.1240 0.2147 -0.9688
vn 0.7172 -0.1278 -0.6850
vn 0.6998 -0.1736 -0.6929
vn 0.0998 0.1728 -0.9799
vn -0.4693 0.5572 -0.6850
vn 0.1240 0.2147 -0.9688
vn 0.0998 0.1728 -0.9799
vn -0.5003 0.5193 -0.6929
vn -0.7150 0.6991 0.0000
vn -0.4693 0.5572 -0.6850
vn -0.5003 0.5193 -0.6929
vn -0.7488 0.6628 0.0000
vn -0.4693 0.5572 0.6850
vn -0.7150 0.6991 0.0000
vn -0.7488 0.6628 0.0000
vn -0.5003 0.5193 0.6929
vn 0.1240 0.2147 0.9688
vn -0.4693 0.5572 0.6850
vn -0.5003 0.5193 0.6929
vn 0.0998 0.1728 0.9799
vn 0.7172 -0.1278 0.6850
vn 0.1240 0.2147 0.9688
vn 0.0998 0.1728 0.9799
vn 0.6998 -0.1736 0.6929
vn 0.9630 -0.2696 0.0000
vn 0.7172 -0.1278 0.6850
vn 0.6998 -0.1736 0.6929
vn 0.9484 -0.3171 -0.0000
vn 0.5362 -0.4715 -0.7001
vn 0.7873 -0.6165 0.0000
vn 0.9630 -0.2696 0.0000
vn 0.7172 -0.1278 -0.6850
vn -0.0701 -0.1215 -0.9901
vn 0.5362 -0.4715 -0.7001
vn 0.7172 -0.1278 -0.6850
vn 0.1240 0.2147 -0.9688
vn -0.6764 0.2286 -0.7001
vn -0.0701 -0.1215 -0.9901
vn 0.1240 0.2147 -0.9688
vn -0.4693 0.5572 -0.6850
vn -0.9276 0.3736 0.0000
vn -0.6764 0.2286 -0.7001
vn -0.4693 0.5572 -0.6850
vn -0.7150 0.6991 0.0000
vn -0.6764 0.2286 0.7001
vn -0.9276 0.3736 0.0000
vn -0.7150 0.6991 0.0000
vn -0.4693 0.5572 0.6850
vn -0.0701 -0.1215 0.9901
vn -0.6764 0.2286 0.7001
vn -0.4693 0.5572 0.6850
vn 0.1240 0.2147 0.9688
vn 0.5362 -0.4715 0.7001
vn -0.0701 -0.1215 0.9901
vn 0.1240 0.2147 0.9688
vn 0.7172 -0.1278 0.6850
vn 0.7873 -0.6165 0.0000
vn 0.5362 -0.4715 0.7001
vn 0.7172 -0.1278 0.6850
vn 0.9630 -0.2696 0.0000
vn 0.5414 -0.4642 -0.7010
vn 0.7928 -0.6094 -0.0000
vn 0.7873 -0.6165 0.0000
vn 0.5362 -0.4715 -0.7001
vn -0.0657 -0.1137 -0.9913
vn 0.5414 -0.4642 -0.7010
vn 0.5362 -0.4715 -0.7001
vn -0.0701 -0.1215 -0.9901
vn -0.6727 0.2367 -0.7010
vn -0.0657 -0.1137 -0.9913
vn -0.0701 -0.1215 -0.9901
vn -0.6764 0.2286 -0.7001
vn -0.9242 0.3819 0.0000
vn -0.6727 0.2367 -0.7010
vn -0.6764 0.2286 -0.7001
vn -0.9276 0.3736 0.0000
vn -0.6727 0.2367 0.7010
vn -0.9242 0.3819 0.0000
vn -0.9276 0.3736 0.0000
vn -0.6764 0.2286 0.7001
vn -0.0657 -0.1137 0.9913
vn -0.6727 0.2367 0.7010
vn -0.6764 0.2286 0.7001
vn -0.0701 -0.1215 0.9901
vn 0.5414 -0.4642 0.7010
vn -0.0657 -0.1137 0.9913
vn -0.0701 -0.1215 0.9901
vn 0.5362 -0.4715 0.7001
vn 0.7928 -0.6094 -0.0000
vn 0.5414 -0.4642 0.7010
vn 0.5362 -0.4715 0.7001
vn 0.7873 -0.6165 0.0000
vn 0.7757 0.0962 -0.6237
vn 0.9995 -0.0329 0.0000
vn 0.7928 -0.6094 -0.0000
vn 0.5414 -0.4642 -0.7010
vn 0.2356 0.4080 -0.8820
vn 0.7757 0.0962 -0.6237
vn 0.5414 -0.4642 -0.7010
vn -0.0657 -0.1137 -0.9913
vn -0.3045 0.7200 -0.6237
vn 0.2356 0.4080 -0.8820
vn -0.0657 -0.1137 -0.9913
vn -0.6727 0.2367 -0.7010
vn -0.5283 0.8491 0.0000
vn -0.3045 0.7200 -0.6237
vn -0.6727 0.2367 -0.7010
vn -0.9242 0.3819 0.0000
vn -0.3045 0.7199 0.6237
vn -0.5283 0.8491 0.0000
vn -0.9242 0.3819 0.0000
vn -0.6727 0.2367 0.7010
vn 0.2356 0.4081 0.8820
vn -0.3045 0.7199 0.6237
vn -0.6727 0.2367 0.7010
vn -0.0657 -0.1137 0.9913
vn 0.7757 0.0962 0.6237
vn 0.2356 0.4081 0.8820
vn -0.0657 -0.1137 0.9913
vn 0.5414 -0.4642 0.7010
vn 0.9995 -0.0329 0.0000
vn 0.7757 0.0962 0.6237
vn 0.5414 -0.4642 0.7010
vn 0.7928 -0.6094 -0.0000
vn 0.7893 0.2218 -0.5726
vn 0.9947 0.1032 -0.0000
vn 0.9995 -0.0329 0.0000
vn 0.7757 0.0962 -0.6237
vn 0.2933 0.5081 -0.8098
vn 0.7893 0.2218 -0.5726
vn 0.7757 0.0962 -0.6237
vn 0.2356 0.4080 -0.8820
vn -0.2026 0.7944 -0.5726
vn 0.2933 0.5081 -0.8098
vn 0.2356 0.4080 -0.8820
vn -0.3045 0.7200 -0.6237
vn -0.4080 0.9130 0.0000
vn -0.2026 0.7944 -0.5726
vn -0.3045 0.7200 -0.6237
vn -0.5283 0.8491 0.0000
vn -0.2026 0.7944 0.5727
vn -0.4080 0.9130 0.0000
vn -0.5283 0.8491 0.0000
vn -0.3045 0.7199 0.6237
vn 0.2933 0.5081 0.8098
vn -0.2026 0.7944 0.5727
vn -0.3045 0.7199 0.6237
vn 0.2356 0.4081 0.8820
vn 0.7892 0.2218 0.5726
vn 0.2933 0.5081 0.8098
vn 0.2356 0.4081 0.8820
vn 0.7757 0.0962 0.6237
vn 0.9947 0.1032 -0.0000
vn 0.7892 0.2218 0.5726
vn 0.7757 0.0962 0.6237
vn 0.9995 -0.0329 0.0000
vn 0.7906 0.2712 -0.5490
vn 0.9875 0.1576 -0.0000
vn 0.9947 0.1032 -0.0000
vn 0.7893 0.2218 -0.5726
vn 0.3151 0.5458 -0.7764
vn 0.7906 0.2712 -0.5490
vn 0.7893 0.2218 -0.5726
vn 0.2933 0.5081 -0.8098
vn -0.1603 0.8203 -0.5490
vn 0.3151 0.5458 -0.7764
vn 0.2933 0.5081 -0.8098
vn -0.2026 0.7944 -0.5726
vn -0.3572 0.9340 0.0000
vn -0.1603 0.8203 -0.5490
vn -0.2026 0.7944 -0.5726
vn -0.4080 0.9130 0.0000
vn -0.1603 0.8203 0.5490
vn -0.3572 0.9340 0.0000
vn -0.4080 0.9130 0.0000
vn -0.2026 0.7944 0.5727
vn 0.3151 0.5459 0.7763
vn -0.1603 0.8203 0.5490
vn -0.2026 0.7944 0.5727
vn 0.2933 0.5081 0.8098
vn 0.7906 0.2713 0.5490
vn 0.3151 0.5459 0.7763
vn 0.2933 0.5081 0.8098
vn 0.7892 0.2218 0.5726
vn 0.9875 0.1576 -0.0000
vn 0.7906 0.2713 0.5490
vn 0.7892 0.2218 0.5726
vn 0.9947 0.1032 -0.0000
# 296 vertex normals

vt 0.3652 0.2336 0.0000
vt 0.2695 0.2336 0.0000
vt 0.2695 0.0625 0.0000
vt 0.3652 0.0625 0.0000
vt 0.4610 0.2336 0.0000
vt 0.4610 0.0625 0.0000
vt 0.5567 0.2336 0.0000
vt 0.5567 0.0625 0.0000
vt 0.6524 0.2336 0.0000
vt 0.6524 0.0625 0.0000
vt 0.7480 0.2336 0.0000
vt 0.7480 0.0625 0.0000
vt 0.8438 0.2336 0.0000
vt 0.8438 0.0625 0.0000
vt 0.1739 0.2336 0.0000
vt 0.0781 0.2336 0.0000
vt 0.0781 0.0625 0.0000
vt 0.1739 0.0625 0.0000
vt 0.2239 0.8146 0.0000
vt 0.2344 0.8944 0.0000
vt 0.1854 0.9582 0.0000
vt 0.1056 0.9688 0.0000
vt 0.0418 0.9198 0.0000
vt 0.0313 0.8400 0.0000
vt 0.0802 0.7761 0.0000
vt 0.1600 0.7656 0.0000
vt 0.3652 0.2534 0.0000
vt 0.2695 0.2534 0.0000
vt 0.4610 0.2534 0.0000
vt 0.5567 0.2534 0.0000
vt 0.6524 0.2534 0.0000
vt 0.7480 0.2534 0.0000
vt 0.8438 0.2534 0.0000
vt 0.1739 0.2534 0.0000
vt 0.0781 0.2534 0.0000
vt 0.3652 0.2823 0.0000
vt 0.2695 0.2823 0.0000
vt 0.4610 0.2823 0.0000
vt 0.5567 0.2823 0.0000
vt 0.6524 0.2823 0.0000
vt 0.7480 0.2823 0.0000
vt 0.8438 0.2823 0.0000
vt 0.1739 0.2823 0.0000
vt 0.0781 0.2823 0.0000
vt 0.3652 0.3555 0.0000
vt 0.2695 0.3555 0.0000
vt 0.4610 0.3555 0.0000
vt 0.5567 0.3555 0.0000
vt 0.6524 0.3555 0.0000
vt 0.7480 0.3555 0.0000
vt 0.8438 0.3555 0.0000
vt 0.1739 0.3555 0.0000
vt 0.0781 0.3555 0.0000
vt 0.3652 0.4162 0.0000
vt 0.2695 0.4162 0.0000
vt 0.4610 0.4162 0.0000
vt 0.5567 0.4162 0.0000
vt 0.6524 0.4162 0.0000
vt 0.7480 0.4162 0.0000
vt 0.8438 0.4162 0.0000
vt 0.1739 0.4162 0.0000
vt 0.0781 0.4162 0.0000
vt 0.3652 0.4880 0.0000
vt 0.2695 0.4880 0.0000
vt 0.4610 0.4880 0.0000
vt 0.5567 0.4880 0.0000
vt 0.6524 0.4880 0.0000
vt 0.7480 0.4880 0.0000
vt 0.8438 0.4880 0.0000
vt 0.1739 0.4880 0.0000
vt 0.0781 0.4880 0.0000
vt 0.3652 0.5658 0.0000
vt 0.2695 0.5658 0.0000
vt 0.4610 0.5658 0.0000
vt 0.5567 0.5658 0.0000
vt 0.6524 0.5658 0.0000
vt 0.7480 0.5658 0.0000
vt 0.8438 0.5658 0.0000
vt 0.1739 0.5658 0.0000
vt 0.0781 0.5658 0.0000
vt 0.3652 0.5924 0.0000
vt 0.2695 0.5924 0.0000
vt 0.4610 0.5924 0.0000
vt 0.5567 0.5924 0.0000
vt 0.6524 0.5924 0.0000
vt 0.7480 0.5924 0.0000
vt 0.8438 0.5924 0.0000
vt 0.1739 0.5924 0.0000
vt 0.0781 0.5924 0.0000
vt 0.3652 0.6875 0.0000
vt 0.2695 0.6875 0.0000
vt 0.4610 0.6875 0.0000
vt 0.5567 0.6875 0.0000
vt 0.6524 0.6875 0.0000
vt 0.7480 0.6875 0.0000
vt 0.8438 0.6875 0.0000
vt 0.1739 0.6875 0.0000
vt 0.0781 0.6875 0.0000
# 98 texture coords

o Cylinder014
g Cylinder014
s 8
f 10/1/1 9/2/2 1/3/3 2/4/4 
f 11/5/5 10/1/6 2/4/7 3/6/8 
f 12/7/9 11/5/10 3/6/11 4/8/12 
f 13/9/13 12/7/14 4/8/15 5/10/16 
f 14/11/17 13/9/18 5/10/19 6/12/20 
f 15/13/21 14/11/22 6/12/23 7/14/24 
f 16/15/25 15/16/26 7/17/27 8/18/28 
f 9/2/29 16/15/30 8/18/31 1/3/32 
s 1
f 73/19/33 74/20/34 75/21/35 76/22/36 77/23/37 78/24/38 79/25/39 80/26/40 
s off
f 18/27/41 17/28/42 9/2/43 10/1/44 
f 19/29/45 18/27/46 10/1/47 11/5/48 
f 20/30/49 19/29/50 11/5/51 12/7/52 
f 21/31/53 20/30/54 12/7/55 13/9/56 
f 22/32/57 21/31/58 13/9/59 14/11/60 
f 23/33/61 22/32/62 14/11/63 15/13/64 
f 24/34/65 23/35/66 15/16/67 16/15/68 
f 17/28/69 24/34/70 16/15/71 9/2/72 
f 26/36/73 25/37/74 17/28/75 18/27/76 
f 27/38/77 26/36/78 18/27/79 19/29/80 
f 28/39/81 27/38/82 19/29/83 20/30/84 
f 29/40/85 28/39/86 20/30/87 21/31/88 
f 30/41/89 29/40/90 21/31/91 22/32/92 
f 31/42/93 30/41/94 22/32/95 23/33/96 
f 32/43/97 31/44/98 23/35/99 24/34/100 
f 25/37/101 32/43/102 24/34/103 17/28/104 
f 34/45/105 33/46/106 25/37/107 26/36/108 
f 35/47/109 34/45/110 26/36/111 27/38/112 
f 36/48/113 35/47/114 27/38/115 28/39/116 
f 37/49/117 36/48/118 28/39/119 29/40/120 
f 38/50/121 37/49/122 29/40/123 30/41/124 
f 39/51/125 38/50/126 30/41/127 31/42/128 
f 40/52/129 39/53/130 31/44/131 32/43/132 
f 33/46/133 40/52/134 32/43/135 25/37/136 
f 42/54/137 41/55/138 33/46/139 34/45/140 
f 43/56/141 42/54/142 34/45/143 35/47/144 
f 44/57/145 43/56/146 35/47/147 36/48/148 
f 45/58/149 44/57/150 36/48/151 37/49/152 
f 46/59/153 45/58/154 37/49/155 38/50/156 
f 47/60/157 46/59/158 38/50/159 39/51/160 
f 48/61/161 47/62/162 39/53/163 40/52/164 
f 41/55/165 48/61/166 40/52/167 33/46/168 
f 50/63/169 49/64/170 41/55/171 42/54/172 
f 51/65/173 50/63/174 42/54/175 43/56/176 
f 52/66/177 51/65/178 43/56/179 44/57/180 
f 53/67/181 52/66/182 44/57/183 45/58/184 
f 54/68/185 53/67/186 45/58/187 46/59/188 
f 55/69/189 54/68/190 46/59/191 47/60/192 
f 56/70/193 55/71/194 47/62/195 48/61/196 
f 49/64/197 56/70/198 48/61/199 41/55/200 
f 58/72/201 57/73/202 49/64/203 50/63/204 
f 59/74/205 58/72/206 50/63/207 51/65/208 
f 60/75/209 59/74/210 51/65/211 52/66/212 
f 61/76/213 60/75/214 52/66/215 53/67/216 
f 62/77/217 61/76/218 53/67/219 54/68/220 
f 63/78/221 62/77/222 54/68/223 55/69/224 
f 64/79/225 63/80/226 55/71/227 56/70/228 
f 57/73/229 64/79/230 56/70/231 49/64/232 
f 66/81/233 65/82/234 57/73/235 58/72/236 
f 67/83/237 66/81/238 58/72/239 59/74/240 
f 68/84/241 67/83/242 59/74/243 60/75/244 
f 69/85/245 68/84/246 60/75/247 61/76/248 
f 70/86/249 69/85/250 61/76/251 62/77/252 
f 71/87/253 70/86/254 62/77/255 63/78/256 
f 72/88/257 71/89/258 63/80/259 64/79/260 
f 65/82/261 72/88/262 64/79/263 57/73/264 
f 74/90/265 73/91/266 65/82/267 66/81/268 
f 75/92/269 74/90/270 66/81/271 67/83/272 
f 76/93/273 75/92/274 67/83/275 68/84/276 
f 77/94/277 76/93/278 68/84/279 69/85/280 
f 78/95/281 77/94/282 69/85/283 70/86/284 
f 79/96/285 78/95/286 70/86/287 71/87/288 
f 80/97/289 79/98/290 71/89/291 72/88/292 
f 73/91/293 80/97/294 72/88/295 65/82/296 
# 73 polygons

