# 3ds Max Wavefront OBJ Exporter v0.99 - (c)2007 guruware
# File Created: 18.04.2022 21:18:18

#
# object Box060
#

v  0.0000 0.0000 -0.4072
v  0.0000 0.0000 0.4072
v  0.0000 2.7137 0.4072
v  0.0000 2.7137 -0.4072
v  0.0000 2.7137 0.6373
v  0.0000 2.7137 -0.6373
v  0.0000 3.0559 0.6373
v  0.0000 3.0559 -0.6373
v  0.0000 3.0559 0.4311
v  0.0000 3.0559 -0.4311
v  0.0000 3.5912 0.4311
v  0.0000 3.5912 -0.4311
v  -2.2091 0.0000 -0.4072
v  -2.2091 2.7137 -0.4072
v  -2.2091 2.7137 -0.6373
v  -2.2091 3.0559 -0.6373
v  -2.2091 3.0559 -0.4311
v  -2.2091 3.5912 -0.4311
v  -2.2091 3.5912 0.4311
v  -2.2091 3.0559 0.4311
v  -2.2091 3.0559 0.6373
v  -2.2091 2.7137 0.6373
v  -2.2091 2.7137 0.4072
v  -2.2091 0.0000 0.4072
# 24 vertices

vn 0.0000 0.0000 -1.0000
vn 0.0000 0.0000 -1.0000
vn 0.0000 0.0000 -1.0000
vn 0.0000 0.0000 -1.0000
vn 0.0000 0.0000 -1.0000
vn 0.0000 0.7071 -0.7071
vn 0.0000 0.7071 -0.7071
vn 0.0000 0.0000 -1.0000
vn 0.0000 0.7071 -0.7071
vn 0.0000 0.7071 -0.7071
vn 0.0000 0.7071 -0.7071
vn 0.0000 0.7071 -0.7071
vn 0.0000 0.7071 -0.7071
vn 0.0000 0.7071 -0.7071
vn 0.0000 0.7071 -0.7071
vn 0.0000 0.7071 -0.7071
vn 0.0000 0.7071 0.7071
vn 0.0000 0.7071 -0.7071
vn 0.0000 0.7071 -0.7071
vn 0.0000 0.7071 0.7071
vn 0.0000 0.0000 1.0000
vn 0.0000 0.0000 1.0000
vn 0.0000 0.0000 1.0000
vn 0.0000 0.0000 1.0000
vn 0.0000 0.0000 1.0000
vn 0.0000 0.7071 0.7071
vn 0.0000 0.7071 0.7071
vn 0.0000 0.0000 1.0000
vn 0.0000 0.7071 0.7071
vn 0.0000 0.7071 0.7071
vn 0.0000 0.7071 0.7071
vn 0.0000 0.7071 0.7071
vn 0.0000 0.7071 0.7071
vn 0.0000 0.7071 0.7071
vn 0.0000 0.7071 0.7071
vn 0.0000 0.7071 0.7071
# 36 vertex normals

vt 0.4766 0.9219 0.0000
vt 0.4766 0.5781 0.0000
vt 0.7500 0.5781 0.0000
vt 0.7500 0.9219 0.0000
vt 0.0625 0.4766 0.0000
vt 0.0625 0.4297 0.0000
vt 0.3438 0.4297 0.0000
vt 0.3438 0.4766 0.0000
vt 0.0625 0.3984 0.0000
vt 0.3438 0.3984 0.0000
vt 0.0625 0.3281 0.0000
vt 0.3438 0.3281 0.0000
vt 0.3438 0.2188 0.0000
vt 0.0625 0.2188 0.0000
vt 0.7500 0.0781 0.0000
vt 0.7500 0.4219 0.0000
vt 0.4766 0.4219 0.0000
vt 0.4766 0.0781 0.0000
vt 0.3438 0.0781 0.0000
vt 0.3438 0.1250 0.0000
vt 0.0625 0.1250 0.0000
vt 0.0625 0.0781 0.0000
vt 0.3438 0.1484 0.0000
vt 0.0625 0.1484 0.0000
# 24 texture coords

o Box060
g Box060
s 32
f 13/1/1 14/2/2 4/3/3 1/4/4 
s off
f 15/5/5 16/6/6 8/7/7 6/8/8 
f 16/6/9 17/9/10 10/10/11 8/7/12 
f 17/9/13 18/11/14 12/12/15 10/10/16 
s 4
f 11/13/17 12/12/18 18/11/19 19/14/20 
s 8
f 2/15/21 3/16/22 23/17/23 24/18/24 
s off
f 5/19/25 7/20/26 21/21/27 22/22/28 
f 7/20/29 9/23/30 20/24/31 21/21/32 
f 9/23/33 11/13/34 19/14/35 20/24/36 
# 9 polygons

