# 3ds Max Wavefront OBJ Exporter v0.99 - (c)2007 guruware
# File Created: 24.03.2022 17:17:50

#
# object Box002
#

v  -0.1122 -0.0242 0.4126
v  0.1116 -0.0242 0.4121
v  -0.2007 -0.0242 -0.0398
v  0.1517 -0.0242 -0.0522
v  -0.1763 0.2702 0.4074
v  0.1752 0.2715 0.4109
v  -0.2111 0.2338 -0.0522
v  0.2123 0.2361 -0.0076
v  -0.0075 -0.0242 -0.0875
v  0.0001 -0.0242 0.4269
v  -0.0012 0.3525 0.4234
v  -0.0064 0.3147 -0.0690
v  0.2147 0.1495 0.4940
v  -0.2135 0.1525 0.4969
v  0.2129 0.1378 -0.1075
v  -0.2763 0.1355 -0.0714
v  0.0017 0.1968 0.5397
v  0.0149 0.2122 -0.1901
v  -0.2490 -0.0242 0.1668
v  0.2490 -0.0242 0.1680
v  0.2523 0.3038 0.1748
v  -0.2431 0.2963 0.1754
v  -0.0016 0.4216 0.1663
v  0.3588 0.1251 0.1773
v  -0.3664 0.1285 0.1778
# 25 vertices

vn -0.0085 0.8455 0.5339
vn -0.0181 0.9965 -0.0810
vn -0.6544 0.7561 -0.0096
vn -0.5803 0.6921 0.4292
vn 0.0018 -0.4547 0.8907
vn 0.0103 0.1415 0.9899
vn -0.6129 -0.0038 0.7901
vn -0.4147 -0.5747 0.7055
vn 0.4106 -0.5766 0.7063
vn 0.8042 -0.5935 0.0323
vn 0.9982 -0.0583 -0.0120
vn 0.6270 -0.0239 0.7787
vn -0.0243 -0.3962 -0.9179
vn 0.0453 0.2887 -0.9563
vn 0.6607 0.0198 -0.7504
vn 0.5496 -0.4481 -0.7051
vn -0.5984 -0.4183 -0.6833
vn -0.7833 -0.6108 0.1161
vn -0.9983 -0.0254 0.0518
vn -0.7508 0.0365 -0.6595
vn 0.5553 0.6835 0.4738
vn 0.6746 0.7372 -0.0392
vn -0.0181 0.9965 -0.0810
vn -0.0085 0.8455 0.5339
vn 0.0018 -0.4547 0.8907
vn 0.4106 -0.5766 0.7063
vn 0.6270 -0.0239 0.7787
vn 0.0103 0.1415 0.9899
vn -0.0243 -0.3962 -0.9179
vn -0.5984 -0.4183 -0.6833
vn -0.7508 0.0365 -0.6595
vn 0.0453 0.2887 -0.9563
vn 0.0103 0.1415 0.9899
vn -0.0085 0.8455 0.5339
vn -0.5803 0.6921 0.4292
vn -0.6129 -0.0038 0.7901
vn 0.6592 0.6004 -0.4528
vn 0.6746 0.7372 -0.0392
vn 0.9982 -0.0583 -0.0120
vn 0.6607 0.0198 -0.7504
vn 0.0453 0.2887 -0.9563
vn 0.0138 0.8480 -0.5298
vn 0.6592 0.6004 -0.4528
vn 0.6607 0.0198 -0.7504
vn -0.5803 0.6921 0.4292
vn -0.6544 0.7561 -0.0096
vn -0.9983 -0.0254 0.0518
vn -0.6129 -0.0038 0.7901
vn 0.5553 0.6835 0.4738
vn -0.0085 0.8455 0.5339
vn 0.0103 0.1415 0.9899
vn 0.6270 -0.0239 0.7787
vn -0.4824 0.6208 -0.6179
vn 0.0138 0.8480 -0.5298
vn 0.0453 0.2887 -0.9563
vn -0.7508 0.0365 -0.6595
vn 0.0138 0.8480 -0.5298
vn -0.4824 0.6208 -0.6179
vn -0.6544 0.7561 -0.0096
vn -0.0181 0.9965 -0.0810
vn 0.5496 -0.4481 -0.7051
vn 0.6607 0.0198 -0.7504
vn 0.9982 -0.0583 -0.0120
vn 0.8042 -0.5935 0.0323
vn -0.4147 -0.5747 0.7055
vn -0.6129 -0.0038 0.7901
vn -0.9983 -0.0254 0.0518
vn -0.7833 -0.6108 0.1161
vn 0.6592 0.6004 -0.4528
vn 0.0138 0.8480 -0.5298
vn -0.0181 0.9965 -0.0810
vn 0.6746 0.7372 -0.0392
vn 0.5553 0.6835 0.4738
vn 0.6270 -0.0239 0.7787
vn 0.9982 -0.0583 -0.0120
vn 0.6746 0.7372 -0.0392
vn -0.4824 0.6208 -0.6179
vn -0.7508 0.0365 -0.6595
vn -0.9983 -0.0254 0.0518
vn -0.6544 0.7561 -0.0096
# 80 vertex normals

vt 0.6719 0.6719 0.0000
vt 0.6094 0.6719 0.0000
vt 0.6094 0.6094 0.0000
vt 0.6719 0.6094 0.0000
vt 0.3438 0.7656 0.0000
vt 0.3438 0.8096 0.0000
vt 0.2969 0.8096 0.0000
vt 0.2969 0.7656 0.0000
vt 0.3906 0.7656 0.0000
vt 0.4531 0.7656 0.0000
vt 0.4531 0.8096 0.0000
vt 0.3906 0.8096 0.0000
vt 0.5781 0.7656 0.0000
vt 0.5781 0.8096 0.0000
vt 0.5313 0.8096 0.0000
vt 0.5313 0.7656 0.0000
vt 0.1563 0.7656 0.0000
vt 0.2188 0.7656 0.0000
vt 0.2188 0.8096 0.0000
vt 0.1563 0.8096 0.0000
vt 0.6719 0.7344 0.0000
vt 0.6094 0.7344 0.0000
vt 0.0938 0.7656 0.0000
vt 0.0938 0.8096 0.0000
vt 0.3438 0.8438 0.0000
vt 0.2969 0.8438 0.0000
vt 0.5313 0.8438 0.0000
vt 0.4531 0.8438 0.0000
vt 0.5781 0.8438 0.0000
vt 0.2188 0.8438 0.0000
vt 0.3906 0.8438 0.0000
vt 0.1563 0.8438 0.0000
vt 0.0938 0.8438 0.0000
vt 0.5469 0.6719 0.0000
vt 0.5469 0.6094 0.0000
vt 0.5469 0.7344 0.0000
# 36 texture coords

o Box002
g Box002
s 4
f 11/1/1 23/2/2 22/3/3 5/4/4 
s 8
f 10/5/5 17/6/6 14/7/7 1/8/8 
s 16
f 2/9/9 20/10/10 24/11/11 13/12/12 
s 32
f 9/13/13 18/14/14 15/15/15 4/16/16 
s 64
f 3/17/17 19/18/18 25/19/19 16/20/20 
s 4
f 6/21/21 21/22/22 23/2/23 11/1/24 
s 8
f 10/5/25 2/9/26 13/12/27 17/6/28 
s 32
f 9/23/29 3/17/30 16/20/31 18/24/32 
s 8
f 17/6/33 11/25/34 5/26/35 14/7/36 
s 16
f 8/27/37 21/28/38 24/11/39 15/15/40 
s 32
f 18/14/41 12/29/42 8/27/43 15/15/44 
s 64
f 5/26/45 22/30/46 25/19/47 14/7/48 
s 8
f 6/31/49 11/25/50 17/6/51 13/12/52 
s 32
f 7/32/53 12/33/54 18/24/55 16/20/56 
s 4
f 12/34/57 7/35/58 22/3/59 23/2/60 
s 16
f 4/16/61 15/15/62 24/11/63 20/10/64 
s 64
f 1/8/65 14/7/66 25/19/67 19/18/68 
s 4
f 8/36/69 12/34/70 23/2/71 21/22/72 
s 16
f 6/31/73 13/12/74 24/11/75 21/28/76 
s 64
f 7/32/77 16/20/78 25/19/79 22/30/80 
# 20 polygons

