# 3ds Max Wavefront OBJ Exporter v0.99 - (c)2007 guruware
# File Created: 25.03.2022 11:14:40

#
# object Banc
#

v  -0.5758 0.0000 0.2083
v  -0.5124 0.0000 0.2083
v  -0.5758 0.0000 -0.2011
v  -0.5124 0.0000 -0.2011
v  -0.5758 0.1921 0.0718
v  -0.5758 0.1921 -0.0646
v  -0.5124 0.1921 -0.0646
v  -0.5124 0.1921 0.0718
v  -0.5758 0.0000 0.3009
v  -0.5124 0.0000 0.3009
v  -0.5124 0.3037 0.1819
v  -0.5758 0.3037 0.1819
v  -0.5124 0.0000 -0.2937
v  -0.5758 0.0000 -0.2937
v  -0.5758 0.3037 -0.1747
v  -0.5124 0.3037 -0.1747
v  -0.5075 0.4215 -0.2223
v  -0.5807 0.4215 -0.2223
v  -0.5807 0.4215 0.2295
v  -0.5075 0.4215 0.2295
v  0.5755 0.1921 0.0718
v  0.5755 0.1921 -0.0646
v  0.5121 0.1921 -0.0646
v  0.5121 0.1921 0.0718
v  0.5755 0.0000 0.3009
v  0.5121 0.0000 0.3009
v  0.5121 0.3037 0.1819
v  0.5755 0.3037 0.1819
v  0.5121 0.3037 -0.1747
v  0.5121 0.0000 -0.2937
v  0.5755 0.0000 -0.2937
v  0.5755 0.3037 -0.1747
v  0.5755 0.0000 -0.2011
v  0.5121 0.0000 -0.2011
v  0.5121 0.0000 0.2083
v  0.5755 0.0000 0.2083
v  0.5804 0.4215 -0.2223
v  0.5072 0.4215 -0.2223
v  0.5804 0.4215 0.2295
v  0.5072 0.4215 0.2295
v  -0.5469 0.4215 -0.2654
v  -0.6259 0.4215 -0.2654
v  -0.6259 0.4215 0.2726
v  -0.5469 0.4215 0.2726
v  0.5466 0.4215 0.2726
v  0.6255 0.4215 0.2726
v  0.6255 0.4215 -0.2654
v  0.5466 0.4215 -0.2654
v  -0.6259 0.4632 -0.2654
v  -0.5469 0.4632 -0.2654
v  0.5466 0.4632 -0.2654
v  0.6255 0.4632 -0.2654
v  0.6255 0.4632 0.2726
v  0.5466 0.4632 0.2726
v  -0.5469 0.4632 0.2726
v  -0.6259 0.4632 0.2726
v  -0.6259 0.4632 -0.1154
v  -0.6259 0.4215 -0.1154
v  -0.5807 0.4215 -0.0964
v  -0.5758 0.3455 -0.0753
v  0.5755 0.3455 -0.0753
v  0.5804 0.4215 -0.0964
v  0.6255 0.4215 -0.1154
v  0.6255 0.4632 -0.1154
v  0.5466 0.4632 -0.1154
v  -0.5469 0.4632 -0.1154
v  -0.6259 0.4215 0.1101
v  -0.6259 0.4632 0.1101
v  -0.5469 0.4632 0.1101
v  0.5466 0.4632 0.1101
v  0.6255 0.4632 0.1101
v  0.6255 0.4215 0.1101
v  0.5804 0.4215 0.0931
v  0.5755 0.3455 0.0742
v  -0.5758 0.3455 0.0742
v  -0.5807 0.4215 0.0931
v  0.5466 0.4681 0.2726
v  0.6255 0.4681 0.2726
v  0.6255 0.4681 0.1101
v  0.5466 0.4681 0.1101
v  -0.5469 0.4681 0.1101
v  -0.6259 0.4681 0.1101
v  -0.6259 0.4681 0.2726
v  -0.5469 0.4681 0.2726
v  -0.5469 0.4742 -0.2654
v  -0.6259 0.4742 -0.2654
v  -0.6259 0.4742 -0.1154
v  -0.5469 0.4742 -0.1154
v  0.5466 0.4742 -0.1154
v  0.6255 0.4742 -0.1154
v  0.6255 0.4742 -0.2654
v  0.5466 0.4742 -0.2654
v  -0.6336 0.4215 -0.1154
v  -0.6336 0.4215 0.1101
v  -0.6336 0.4632 0.1101
v  -0.6336 0.4632 -0.1154
v  0.6456 0.4632 0.2726
v  0.6456 0.4215 0.2726
v  0.6456 0.4215 0.1101
v  0.6456 0.4632 0.1101
v  0.6456 0.4681 0.1101
v  0.6456 0.4681 0.2726
# 102 vertices

vn 0.0000 0.3649 0.9310
vn 0.0000 0.3649 0.9310
vn 0.0000 0.3649 0.9310
vn 0.0000 0.3649 0.9310
vn 0.9999 -0.0143 -0.0000
vn 0.9999 -0.0143 -0.0000
vn 1.0000 0.0000 -0.0000
vn 1.0000 0.0000 -0.0000
vn 0.0000 0.3649 -0.9310
vn 0.0000 0.3649 -0.9310
vn 0.0000 0.3649 -0.9310
vn 0.0000 0.3649 -0.9310
vn -1.0000 -0.0084 -0.0015
vn -1.0000 -0.0082 0.0015
vn -1.0000 -0.0025 0.0011
vn -1.0000 -0.0028 -0.0011
vn 0.0000 -0.5791 0.8153
vn 0.0000 -0.5791 0.8153
vn 0.0000 -0.5791 0.8153
vn 0.0000 -0.5791 0.8153
vn 0.0000 -0.5791 -0.8153
vn 0.0000 -0.5791 -0.8153
vn 0.0000 -0.5791 -0.8153
vn 0.0000 -0.5791 -0.8153
vn 0.0000 -0.3746 -0.9272
vn 0.0000 -0.3746 -0.9272
vn 0.0000 -0.3746 -0.9272
vn 0.0000 -0.3746 -0.9272
vn -1.0000 -0.0025 0.0011
vn -1.0000 -0.0082 0.0015
vn -0.9979 -0.0644 -0.0000
vn -0.9991 -0.0416 -0.0000
vn 0.0000 -0.3746 0.9272
vn 0.0000 -0.3746 0.9272
vn 0.0000 -0.3746 0.9272
vn 0.0000 -0.3746 0.9272
vn 0.9991 -0.0416 -0.0000
vn 0.9991 -0.0416 -0.0000
vn 0.9999 -0.0143 -0.0000
vn 0.9999 -0.0143 -0.0000
vn 1.0000 0.0000 -0.0000
vn 0.9999 -0.0143 -0.0000
vn 1.0000 0.0000 -0.0000
vn 1.0000 0.0000 -0.0000
vn -1.0000 0.0000 -0.0000
vn -1.0000 0.0000 -0.0000
vn -1.0000 0.0000 -0.0000
vn -1.0000 -0.0025 0.0011
vn -1.0000 0.0000 -0.0000
vn -1.0000 -0.0028 -0.0011
vn -1.0000 0.0000 -0.0000
vn -1.0000 0.0000 -0.0000
vn 1.0000 0.0000 -0.0000
vn 1.0000 0.0000 -0.0000
vn 1.0000 0.0000 -0.0000
vn 0.9999 -0.0143 -0.0000
vn 0.0000 0.0000 -1.0000
vn 0.0000 0.0000 -1.0000
vn 0.0000 0.0000 -1.0000
vn 0.0000 0.0000 -1.0000
vn -1.0000 -0.0000 -0.0000
vn -1.0000 -0.0000 -0.0000
vn -1.0000 0.0000 -0.0000
vn -1.0000 0.0000 -0.0000
vn 0.0000 0.0000 1.0000
vn 0.0000 0.0000 1.0000
vn 0.0000 0.0000 1.0000
vn 0.0000 0.0000 1.0000
vn 0.0000 0.0000 1.0000
vn 0.0000 0.0000 1.0000
vn 0.0000 0.0000 1.0000
vn 0.0000 0.0000 1.0000
vn 0.0000 0.3649 0.9310
vn 0.0000 0.3649 0.9310
vn 0.0000 0.3649 0.9310
vn 0.0000 0.3649 0.9310
vn -0.9999 -0.0143 -0.0000
vn -0.9999 -0.0143 -0.0000
vn -1.0000 0.0000 -0.0000
vn -1.0000 0.0000 -0.0000
vn 0.0000 0.3649 -0.9310
vn 0.0000 0.3649 -0.9310
vn 0.0000 0.3649 -0.9310
vn 0.0000 0.3649 -0.9310
vn 1.0000 -0.0025 0.0011
vn 1.0000 -0.0082 0.0015
vn 1.0000 -0.0084 -0.0015
vn 1.0000 -0.0028 -0.0011
vn 0.0000 -0.5791 0.8153
vn 0.0000 -0.5791 0.8153
vn 0.0000 -0.5791 0.8153
vn 0.0000 -0.5791 0.8153
vn 0.0000 -0.5791 -0.8153
vn 0.0000 -0.5791 -0.8153
vn 0.0000 -0.5791 -0.8153
vn 0.0000 -0.5791 -0.8153
vn 0.0000 -0.3746 -0.9272
vn 0.0000 -0.3746 -0.9272
vn 0.0000 -0.3746 -0.9272
vn 0.0000 -0.3746 -0.9272
vn 1.0000 -0.0025 0.0011
vn 0.9991 -0.0416 -0.0000
vn 0.9979 -0.0644 -0.0000
vn 1.0000 -0.0082 0.0015
vn 0.0000 -0.3746 0.9272
vn 0.0000 -0.3746 0.9272
vn 0.0000 -0.3746 0.9272
vn 0.0000 -0.3746 0.9272
vn -0.9991 -0.0416 -0.0000
vn -0.9991 -0.0416 -0.0000
vn -0.9999 -0.0143 -0.0000
vn -0.9999 -0.0143 -0.0000
vn -1.0000 0.0000 -0.0000
vn -0.9999 -0.0143 -0.0000
vn -1.0000 0.0000 -0.0000
vn -1.0000 0.0000 -0.0000
vn 1.0000 0.0000 -0.0000
vn 1.0000 0.0000 -0.0000
vn 1.0000 0.0000 -0.0000
vn 1.0000 -0.0025 0.0011
vn 1.0000 0.0000 -0.0000
vn 1.0000 -0.0028 -0.0011
vn 1.0000 0.0000 -0.0000
vn 1.0000 0.0000 -0.0000
vn -1.0000 0.0000 -0.0000
vn -1.0000 0.0000 -0.0000
vn -1.0000 0.0000 -0.0000
vn -0.9999 -0.0143 -0.0000
vn 0.0000 0.0000 -1.0000
vn 0.0000 0.0000 -1.0000
vn 0.0000 0.0000 -1.0000
vn 0.0000 0.0000 -1.0000
vn 1.0000 0.0000 -0.0000
vn 1.0000 0.0000 -0.0000
vn 1.0000 0.0000 -0.0000
vn 1.0000 0.0000 -0.0000
vn 0.0000 0.0000 1.0000
vn 0.0000 0.0000 1.0000
vn 0.0000 0.0000 1.0000
vn 0.0000 0.0000 1.0000
vn 0.0000 0.0000 -1.0000
vn 0.0000 0.0000 -1.0000
vn 0.0000 0.0000 -1.0000
vn 0.0000 0.0000 -1.0000
vn 0.0000 1.0000 -0.0000
vn 0.0000 1.0000 -0.0000
vn 0.0000 1.0000 -0.0000
vn 0.0000 1.0000 -0.0000
vn 0.0000 1.0000 -0.0000
vn 0.0000 1.0000 -0.0000
vn 0.0000 1.0000 -0.0000
vn 0.0000 1.0000 -0.0000
vn 0.0000 1.0000 -0.0000
vn 0.0000 1.0000 -0.0000
vn 0.0000 1.0000 -0.0000
vn 0.0000 1.0000 -0.0000
vn -1.0000 -0.0082 0.0015
vn -1.0000 -0.0084 -0.0015
vn -0.9979 -0.0644 -0.0000
vn -0.9979 -0.0644 -0.0000
vn -1.0000 0.0000 -0.0000
vn -1.0000 0.0000 -0.0000
vn -1.0000 0.0000 -0.0000
vn -1.0000 0.0000 -0.0000
vn 0.9979 -0.0644 -0.0000
vn 1.0000 -0.0084 -0.0015
vn 1.0000 -0.0082 0.0015
vn 0.9979 -0.0644 -0.0000
vn 1.0000 0.0000 -0.0000
vn 1.0000 0.0000 -0.0000
vn 1.0000 0.0000 -0.0000
vn 1.0000 0.0000 -0.0000
vn 0.0000 1.0000 -0.0000
vn 0.0000 1.0000 -0.0000
vn 0.0000 1.0000 -0.0000
vn 0.0000 1.0000 -0.0000
vn 0.0000 1.0000 -0.0000
vn 0.0000 1.0000 -0.0000
vn 0.0000 1.0000 -0.0000
vn 0.0000 1.0000 -0.0000
vn 0.0000 1.0000 -0.0000
vn 0.0000 1.0000 -0.0000
vn 0.0000 1.0000 -0.0000
vn 0.0000 1.0000 -0.0000
vn 0.0000 1.0000 -0.0000
vn 0.0000 1.0000 -0.0000
vn 0.0000 1.0000 -0.0000
vn 0.0000 1.0000 -0.0000
vn 0.0000 1.0000 -0.0000
vn 0.0000 1.0000 -0.0000
vn 0.0000 1.0000 -0.0000
vn 0.0000 1.0000 -0.0000
vn -1.0000 -0.0028 -0.0011
vn -0.9991 -0.0416 -0.0000
vn -0.9979 -0.0644 -0.0000
vn -1.0000 -0.0084 -0.0015
vn -1.0000 -0.0000 -0.0000
vn -1.0000 -0.0000 -0.0000
vn -1.0000 0.0000 -0.0000
vn -1.0000 0.0000 -0.0000
vn 0.9979 -0.0644 -0.0000
vn 0.9991 -0.0416 -0.0000
vn 1.0000 -0.0028 -0.0011
vn 1.0000 -0.0084 -0.0015
vn 1.0000 0.0000 -0.0000
vn 1.0000 0.0000 -0.0000
vn 1.0000 0.0000 -0.0000
vn 1.0000 0.0000 -0.0000
vn 0.0000 1.0000 -0.0000
vn 0.0000 1.0000 -0.0000
vn 0.0000 1.0000 -0.0000
vn 0.0000 1.0000 -0.0000
vn 0.0000 0.0000 1.0000
vn 0.0000 0.0000 1.0000
vn 0.0000 0.0000 1.0000
vn 0.0000 0.0000 1.0000
vn 1.0000 0.0000 -0.0000
vn 1.0000 0.0000 -0.0000
vn 1.0000 0.0000 -0.0000
vn 1.0000 0.0000 -0.0000
vn 0.0000 0.0000 -1.0000
vn 0.0000 0.0000 -1.0000
vn 0.0000 0.0000 -1.0000
vn 0.0000 0.0000 -1.0000
vn 0.0000 0.0000 -1.0000
vn 0.0000 0.0000 -1.0000
vn 0.0000 0.0000 -1.0000
vn 0.0000 0.0000 -1.0000
vn 0.0000 0.0000 -1.0000
vn 0.0000 0.0000 -1.0000
vn 0.0000 0.0000 -1.0000
vn 0.0000 0.0000 -1.0000
vn -1.0000 -0.0000 -0.0000
vn -1.0000 -0.0000 -0.0000
vn -1.0000 -0.0000 -0.0000
vn -1.0000 -0.0000 -0.0000
vn 0.0000 0.0000 1.0000
vn 0.0000 0.0000 1.0000
vn 0.0000 0.0000 1.0000
vn 0.0000 0.0000 1.0000
vn 0.0000 0.0000 1.0000
vn 0.0000 0.0000 1.0000
vn 0.0000 0.0000 1.0000
vn 0.0000 0.0000 1.0000
vn 0.0000 0.0000 -1.0000
vn 0.0000 0.0000 -1.0000
vn 0.0000 0.0000 -1.0000
vn 0.0000 0.0000 -1.0000
vn -1.0000 -0.0000 -0.0000
vn -1.0000 -0.0000 -0.0000
vn -1.0000 -0.0000 -0.0000
vn -1.0000 -0.0000 -0.0000
vn 0.0000 0.0000 1.0000
vn 0.0000 0.0000 1.0000
vn 0.0000 0.0000 1.0000
vn 0.0000 0.0000 1.0000
vn 0.0000 0.0000 1.0000
vn 0.0000 0.0000 1.0000
vn 0.0000 0.0000 1.0000
vn 0.0000 0.0000 1.0000
vn 0.0000 0.0000 1.0000
vn 0.0000 0.0000 1.0000
vn 0.0000 0.0000 1.0000
vn 0.0000 0.0000 1.0000
vn 1.0000 0.0000 -0.0000
vn 1.0000 0.0000 -0.0000
vn 1.0000 0.0000 -0.0000
vn 1.0000 0.0000 -0.0000
vn 0.0000 0.0000 -1.0000
vn 0.0000 0.0000 -1.0000
vn 0.0000 0.0000 -1.0000
vn 0.0000 0.0000 -1.0000
vn 0.0000 0.0000 -1.0000
vn 0.0000 0.0000 -1.0000
vn 0.0000 0.0000 -1.0000
vn 0.0000 0.0000 -1.0000
vn 0.0000 0.0000 1.0000
vn 0.0000 0.0000 1.0000
vn 0.0000 0.0000 1.0000
vn 0.0000 0.0000 1.0000
vn 0.0000 1.0000 -0.0000
vn 0.0000 1.0000 -0.0000
vn 0.0000 1.0000 -0.0000
vn 0.0000 1.0000 -0.0000
vn 0.0000 0.0000 -1.0000
vn 0.0000 0.0000 -1.0000
vn 0.0000 0.0000 -1.0000
vn 0.0000 0.0000 -1.0000
vn 0.0000 0.0000 1.0000
vn 0.0000 0.0000 1.0000
vn 0.0000 0.0000 1.0000
vn 0.0000 0.0000 1.0000
vn 0.0000 0.0000 -1.0000
vn 0.0000 0.0000 -1.0000
vn 0.0000 0.0000 -1.0000
vn 0.0000 0.0000 -1.0000
vn 0.0000 0.0000 -1.0000
vn 0.0000 0.0000 -1.0000
vn 0.0000 0.0000 -1.0000
vn 0.0000 0.0000 -1.0000
vn 0.0000 1.0000 -0.0000
vn 0.0000 1.0000 -0.0000
vn 0.0000 1.0000 -0.0000
vn 0.0000 1.0000 -0.0000
vn 0.0000 0.0000 1.0000
vn 0.0000 0.0000 1.0000
vn 0.0000 0.0000 1.0000
vn 0.0000 0.0000 1.0000
vn -1.0000 0.0000 -0.0000
vn -1.0000 -0.0028 -0.0011
vn -1.0000 -0.0025 0.0011
vn -1.0000 0.0000 -0.0000
vn 1.0000 0.0000 -0.0000
vn 1.0000 -0.0025 0.0011
vn 1.0000 -0.0028 -0.0011
vn 1.0000 0.0000 -0.0000
# 316 vertex normals

vt 0.5938 0.3438 0.0000
vt 0.5938 0.1875 0.0000
vt 0.6250 0.1875 0.0000
vt 0.6250 0.3438 0.0000
vt 0.2188 0.0625 0.0000
vt 0.3438 0.0625 0.0000
vt 0.3438 0.1250 0.0000
vt 0.2188 0.1250 0.0000
vt 0.6250 0.6563 0.0000
vt 0.6250 0.5000 0.0000
vt 0.6563 0.5000 0.0000
vt 0.6563 0.6563 0.0000
vt 0.8103 0.8041 0.0000
vt 0.7303 0.8046 0.0000
vt 0.6875 0.7813 0.0000
vt 0.8750 0.7813 0.0000
vt 0.5313 0.6563 0.0000
vt 0.5313 0.5000 0.0000
vt 0.5625 0.5000 0.0000
vt 0.5625 0.6563 0.0000
vt 0.6875 0.3438 0.0000
vt 0.6875 0.1875 0.0000
vt 0.7188 0.1875 0.0000
vt 0.7188 0.3438 0.0000
vt 0.6875 0.8438 0.0000
vt 0.6563 0.8438 0.0000
vt 0.6563 0.7813 0.0000
vt 0.7223 0.8438 0.0000
vt 0.9063 0.7813 0.0000
vt 0.9063 0.8438 0.0000
vt 0.8750 0.8438 0.0000
vt 0.4688 0.8438 0.0000
vt 0.4688 0.7813 0.0000
vt 0.7188 0.5000 0.0000
vt 0.7188 0.6563 0.0000
vt 0.5313 0.3438 0.0000
vt 0.5313 0.1875 0.0000
vt 0.8438 0.0625 0.0000
vt 0.8685 0.0625 0.0000
vt 0.8685 0.1020 0.0000
vt 0.8438 0.1020 0.0000
vt 0.1563 0.1120 0.0000
vt 0.0625 0.1120 0.0000
vt 0.0625 0.0625 0.0000
vt 0.1563 0.0625 0.0000
vt 0.8750 0.1013 0.0000
vt 0.8470 0.1013 0.0000
vt 0.8470 0.0625 0.0000
vt 0.8750 0.0625 0.0000
vt 0.8750 0.6388 0.0000
vt 0.8470 0.6388 0.0000
vt 0.6250 0.3438 0.0000
vt 0.5938 0.3438 0.0000
vt 0.5938 0.1875 0.0000
vt 0.6250 0.1875 0.0000
vt 0.2188 0.0625 0.0000
vt 0.3438 0.0625 0.0000
vt 0.3438 0.1250 0.0000
vt 0.2188 0.1250 0.0000
vt 0.6563 0.6563 0.0000
vt 0.6250 0.6563 0.0000
vt 0.6250 0.5000 0.0000
vt 0.6563 0.5000 0.0000
vt 0.8750 0.8750 0.0000
vt 0.8174 0.8968 0.0000
vt 0.7382 0.8979 0.0000
vt 0.6875 0.8750 0.0000
vt 0.5625 0.6563 0.0000
vt 0.5313 0.6563 0.0000
vt 0.5313 0.5000 0.0000
vt 0.5625 0.5000 0.0000
vt 0.7188 0.3438 0.0000
vt 0.6875 0.3438 0.0000
vt 0.6875 0.1875 0.0000
vt 0.7188 0.1875 0.0000
vt 0.9063 0.9375 0.0000
vt 0.8750 0.9375 0.0000
vt 0.9063 0.8750 0.0000
vt 0.8225 0.9375 0.0000
vt 0.6875 0.9375 0.0000
vt 0.6563 0.9375 0.0000
vt 0.6563 0.8750 0.0000
vt 0.4688 0.9375 0.0000
vt 0.4688 0.8768 0.0000
vt 0.7188 0.6563 0.0000
vt 0.7188 0.5000 0.0000
vt 0.5313 0.3438 0.0000
vt 0.5313 0.1875 0.0000
vt 0.8685 0.6481 0.0000
vt 0.8685 0.6875 0.0000
vt 0.8438 0.6875 0.0000
vt 0.8438 0.6481 0.0000
vt 0.0625 0.1120 0.0000
vt 0.0625 0.0625 0.0000
vt 0.1563 0.0625 0.0000
vt 0.1563 0.1120 0.0000
vt 0.8470 0.6776 0.0000
vt 0.8750 0.6776 0.0000
vt 0.4063 0.2576 0.0000
vt 0.4063 0.7951 0.0000
vt 0.3125 0.7951 0.0000
vt 0.3125 0.2576 0.0000
vt 0.4063 0.8339 0.0000
vt 0.3125 0.8339 0.0000
vt 0.2813 0.2188 0.0000
vt 0.2813 0.2562 0.0000
vt 0.1875 0.2562 0.0000
vt 0.1875 0.2188 0.0000
vt 0.8163 0.8438 0.0000
vt 0.1563 0.1250 0.0000
vt 0.0625 0.1250 0.0000
vt 0.0625 0.0625 0.0000
vt 0.1563 0.0625 0.0000
vt 0.7332 0.9375 0.0000
vt 0.0625 0.0625 0.0000
vt 0.1563 0.0625 0.0000
vt 0.1563 0.1250 0.0000
vt 0.0625 0.1250 0.0000
vt 0.1875 0.7751 0.0000
vt 0.2813 0.7751 0.0000
vt 0.2813 0.8125 0.0000
vt 0.1875 0.8125 0.0000
vt 0.1563 0.2596 0.0000
vt 0.0313 0.2596 0.0000
vt 0.0313 0.2224 0.0000
vt 0.1563 0.2224 0.0000
vt 0.0313 0.7753 0.0000
vt 0.1563 0.7753 0.0000
vt 0.1563 0.8125 0.0000
vt 0.0313 0.8125 0.0000
vt 0.1563 0.1184 0.0000
vt 0.0625 0.1184 0.0000
vt 0.0625 0.0625 0.0000
vt 0.1563 0.0625 0.0000
vt 0.1563 0.1250 0.0000
vt 0.0625 0.1250 0.0000
vt 0.0625 0.0691 0.0000
vt 0.1563 0.0691 0.0000
vt 0.3125 0.2188 0.0000
vt 0.4063 0.2188 0.0000
vt 0.8438 0.6776 0.0000
vt 0.8438 0.6388 0.0000
vt 0.0625 0.0625 0.0000
vt 0.1563 0.0625 0.0000
vt 0.8717 0.6388 0.0000
vt 0.8750 0.6388 0.0000
vt 0.8750 0.6776 0.0000
vt 0.8717 0.6776 0.0000
vt 0.8717 0.1013 0.0000
vt 0.8750 0.1013 0.0000
vt 0.8717 0.0625 0.0000
vt 0.8750 0.0625 0.0000
vt 0.1563 0.1250 0.0000
vt 0.0625 0.1250 0.0000
vt 0.8438 0.1013 0.0000
vt 0.8438 0.0625 0.0000
vt 0.8750 0.0625 0.0000
vt 0.8750 0.1020 0.0000
vt 0.1563 0.1250 0.0000
vt 0.0625 0.1250 0.0000
vt 0.8750 0.1020 0.0000
vt 0.8438 0.1020 0.0000
vt 0.8438 0.0625 0.0000
vt 0.8750 0.0625 0.0000
vt 0.8750 0.6481 0.0000
vt 0.8438 0.6481 0.0000
vt 0.8750 0.6875 0.0000
vt 0.8438 0.6875 0.0000
vt 0.1563 0.1250 0.0000
vt 0.0625 0.1250 0.0000
vt 0.8750 0.6481 0.0000
vt 0.8750 0.6875 0.0000
vt 0.1250 0.1250 0.0000
vt 0.1250 0.0938 0.0000
vt 0.1563 0.0938 0.0000
vt 0.1563 0.1250 0.0000
vt 0.0313 0.2188 0.0000
vt 0.1563 0.2188 0.0000
vt 0.1563 0.0938 0.0000
vt 0.1563 0.1250 0.0000
vt 0.1250 0.1250 0.0000
vt 0.1250 0.0938 0.0000
vt 0.8750 0.6875 0.0000
vt 0.8470 0.6875 0.0000
vt 0.8717 0.6875 0.0000
vt 0.8438 0.6875 0.0000
vt 0.8438 0.6776 0.0000
vt 0.8750 0.6875 0.0000
vt 0.4063 0.8438 0.0000
vt 0.3125 0.8438 0.0000
vt 0.8438 0.6875 0.0000
vt 0.2188 0.1250 0.0000
vt 0.2188 0.0625 0.0000
vt 0.3438 0.0625 0.0000
vt 0.3438 0.1250 0.0000
vt 0.2188 0.1250 0.0000
vt 0.2188 0.0625 0.0000
vt 0.3438 0.0625 0.0000
vt 0.3438 0.1250 0.0000
# 199 texture coords

o Banc
g Banc
s 1
f 10/1/1 11/2/2 12/3/3 9/4/4 
s 2
f 16/5/5 11/6/6 8/7/7 7/8/8 
s 1
f 14/9/9 15/10/10 16/11/11 13/12/12 
s 2
f 75/13/13 60/14/14 15/15/15 12/16/16 
s 4
f 4/17/17 7/18/18 6/19/19 3/20/20 
f 1/21/21 5/22/22 8/23/23 2/24/24 
s 1
f 15/15/25 18/25/26 17/26/27 16/27/28 
s 2
f 15/15/29 60/14/30 59/28/31 18/25/32 
s 1
f 11/29/33 20/30/34 19/31/35 12/16/36 
s 2
f 17/26/37 20/32/38 11/33/39 16/27/40 
f 13/12/41 16/11/42 7/34/43 4/35/44 
f 14/9/45 3/20/46 6/19/47 15/10/48 
f 9/4/49 12/3/50 5/22/51 1/21/52 
f 10/1/53 2/36/54 8/37/55 11/2/56 
s 1
f 42/38/57 49/39/58 50/40/59 41/41/60 
s 2
f 57/42/61 49/43/62 42/44/63 58/45/64 
s 1
f 44/46/65 55/47/66 56/48/67 43/49/68 
f 44/46/69 45/50/70 54/51/71 55/47/72 
f 28/52/73 27/53/74 26/54/75 25/55/76 
s 2
f 27/56/77 29/57/78 23/58/79 24/59/80 
s 1
f 29/60/81 32/61/82 31/62/83 30/63/84 
s 2
f 32/64/85 61/65/86 74/66/87 28/67/88 
s 4
f 22/68/89 23/69/90 34/70/91 33/71/92 
f 24/72/93 21/73/94 36/74/95 35/75/96 
s 1
f 38/76/97 37/77/98 32/64/99 29/78/100 
s 2
f 32/64/101 37/77/102 62/79/103 61/65/104 
s 1
f 39/80/105 40/81/106 27/82/107 28/67/108 
s 2
f 40/81/109 38/83/110 29/84/111 27/82/112 
f 23/85/113 29/60/114 30/63/115 34/86/116 
f 22/68/117 33/71/118 31/62/119 32/61/120 
f 21/73/121 28/52/122 25/55/123 36/74/124 
f 24/87/125 35/88/126 26/54/127 27/53/128 
s 1
f 51/89/129 52/90/130 47/91/131 48/92/132 
s 2
f 64/93/133 63/94/134 47/95/135 52/96/136 
s 1
f 53/97/137 54/51/138 45/50/139 46/98/140 
f 48/92/141 41/41/142 50/40/143 51/89/144 
s 2
f 84/99/145 77/100/146 80/101/147 81/102/148 
f 80/101/149 77/100/150 78/103/151 79/104/152 
s 4
f 87/105/153 88/106/154 85/107/155 86/108/156 
s 2
f 60/14/157 75/13/158 76/109/159 59/28/160 
s 1
f 95/110/161 96/111/162 93/112/163 94/113/164 
s 2
f 73/114/165 74/66/166 61/65/167 62/79/168 
f 72/115/169 63/116/170 64/117/171 71/118/172 
s 4
f 92/119/173 85/107/174 88/106/175 89/120/176 
f 92/119/177 89/120/178 90/121/179 91/122/180 
f 69/123/181 66/124/182 57/125/183 68/126/184 
f 65/127/185 66/124/186 69/123/187 70/128/188 
f 65/127/189 70/128/190 71/129/191 64/130/192 
s 2
f 12/16/193 19/31/194 76/109/195 75/13/196 
s 8
f 56/131/197 68/132/198 67/133/199 43/134/200 
s 2
f 73/114/201 39/80/202 28/67/203 74/66/204 
s 8
f 98/135/205 99/136/206 100/137/207 97/138/208 
s 2
f 84/99/209 81/102/210 82/139/211 83/140/212 
s 1
f 53/97/213 78/141/214 77/142/215 54/51/216 
s 8
f 100/137/217 101/143/218 102/144/219 97/138/220 
s 1
f 70/145/221 80/146/222 79/147/223 71/148/224 
f 80/146/225 70/145/226 69/149/227 81/150/228 
f 68/151/229 82/152/230 81/150/231 69/149/232 
s 8
f 56/131/233 83/153/234 82/154/235 68/132/236 
s 1
f 55/47/237 84/155/238 83/156/239 56/48/240 
f 84/155/241 55/47/242 54/51/243 77/142/244 
f 49/39/245 86/157/246 85/158/247 50/40/248 
s 2
f 57/42/249 87/159/250 86/160/251 49/43/252 
s 1
f 66/161/253 88/162/254 87/163/255 57/164/256 
f 88/162/257 66/161/258 65/165/259 89/166/260 
f 64/167/261 90/168/262 89/166/263 65/165/264 
s 2
f 52/96/265 91/169/266 90/170/267 64/93/268 
s 1
f 51/89/269 92/171/270 91/172/271 52/90/272 
f 92/171/273 51/89/274 50/40/275 85/158/276 
s 2
f 68/173/277 95/174/278 94/175/279 67/176/280 
s 4
f 57/125/281 96/177/282 95/178/283 68/126/284 
s 8
f 58/179/285 93/180/286 96/181/287 57/182/288 
s 1
f 46/98/289 98/183/290 97/184/291 53/97/292 
f 71/148/293 100/185/294 99/186/295 72/187/296 
f 101/188/297 100/185/298 71/148/299 79/147/300 
s 2
f 78/103/301 102/189/302 101/190/303 79/104/304 
s 1
f 97/184/305 102/191/306 78/141/307 53/97/308 
s 2
f 5/192/309 12/193/310 15/194/311 6/195/312 
f 22/196/313 32/197/314 28/198/315 21/199/316 
# 79 polygons

