# 3ds Max Wavefront OBJ Exporter v0.99 - (c)2007 guruware
# File Created: 25.03.2022 14:49:23

#
# object Fish_B
#

v  0.0082 -0.0890 0.3785
v  0.0540 -0.1220 -0.4701
v  0.0082 0.0329 0.3785
v  0.0540 0.0340 -0.4589
v  0.0000 0.0471 0.3785
v  0.0000 0.0152 -0.5293
v  0.0540 -0.1104 0.2251
v  0.0540 0.0730 0.1239
v  0.0000 0.1848 -0.0674
v  0.0540 0.1399 -0.0773
v  0.0540 -0.2212 -0.0694
v  0.0000 -0.2662 -0.0734
v  0.0540 0.0983 -0.3404
v  0.0540 -0.1765 -0.3576
v  0.0540 -0.0547 -0.4925
v  0.1258 -0.0371 -0.3325
v  0.1258 -0.0521 -0.0430
v  0.0540 -0.0375 0.2251
v  0.0082 -0.0357 0.3785
v  0.0313 -0.1233 0.4732
v  0.0313 -0.0400 0.4820
v  0.0313 0.0743 0.4732
v  0.0000 -0.0482 0.5107
v  0.0000 -0.2112 -0.4286
v  0.0000 0.2149 0.5947
v  0.1817 -0.0872 -0.1334
v  0.1817 -0.2197 -0.1898
v  0.0695 -0.0627 -0.2577
v  0.0695 -0.1311 -0.2869
v  0.0832 -0.2840 0.1812
v  0.0350 -0.1737 0.1040
v  0.0446 -0.1585 0.2127
v  0.0211 -0.1203 0.1362
v  -0.0082 -0.0357 0.3785
v  -0.0082 -0.0890 0.3785
v  -0.0540 -0.1104 0.2251
v  -0.0540 -0.0375 0.2251
v  0.0000 -0.0610 -0.5947
v  -0.0540 -0.0547 -0.4925
v  -0.0540 -0.1220 -0.4701
v  0.0000 -0.1387 -0.5724
v  -0.0540 -0.1765 -0.3576
v  0.0000 0.0925 0.1882
v  -0.0082 0.0329 0.3785
v  -0.0540 0.0730 0.1239
v  0.0000 -0.2522 0.5947
v  -0.0313 -0.1233 0.4732
v  -0.0313 -0.0400 0.4820
v  -0.1258 -0.0521 -0.0430
v  -0.0540 -0.2212 -0.0694
v  0.0000 -0.1297 0.2894
v  0.0000 -0.1030 0.3785
v  -0.0540 0.1399 -0.0773
v  -0.1258 -0.0371 -0.3325
v  -0.0540 0.0983 -0.3404
v  0.0000 0.1378 -0.3980
v  -0.0540 0.0340 -0.4589
v  -0.0313 0.0743 0.4732
v  -0.0695 -0.1311 -0.2869
v  -0.0695 -0.0627 -0.2577
v  -0.1817 -0.0872 -0.1334
v  -0.1817 -0.2197 -0.1898
v  -0.0211 -0.1203 0.1362
v  -0.0446 -0.1585 0.2127
v  -0.0832 -0.2840 0.1812
v  -0.0350 -0.1737 0.1040
v  0.0000 0.2612 -0.0658
v  0.0000 0.1575 -0.0330
v  0.0000 0.2840 -0.3129
v  0.0000 0.1323 -0.3666
v  0.0000 0.1435 0.2406
v  0.0000 0.0712 0.2412
v  0.0000 0.1939 0.0689
v  0.0000 0.1425 -0.0018
v  0.0000 0.2612 -0.0658
v  0.0000 0.1575 -0.0330
v  0.0000 0.1323 -0.3666
v  0.0000 0.2840 -0.3129
v  0.0000 0.1435 0.2406
v  0.0000 0.0712 0.2412
v  0.0000 0.1425 -0.0018
v  0.0000 0.1939 0.0689
# 82 vertices

vn 0.9721 -0.2346 0.0029
vn 0.9027 -0.3809 0.2000
vn 0.9605 0.1244 0.2491
vn 0.9995 0.0000 0.0323
vn 0.9104 0.0122 -0.4135
vn 0.9328 -0.2915 -0.2118
vn 0.0000 -0.5831 -0.8124
vn 0.0000 0.1661 -0.9861
vn 0.0000 -0.9411 -0.3381
vn 0.0000 -0.5831 -0.8124
vn 0.9328 -0.2915 -0.2118
vn 0.7915 -0.5947 -0.1411
vn 0.0000 0.9712 0.2382
vn 0.0000 0.9644 -0.2644
vn 0.9731 0.2244 -0.0523
vn 0.8916 0.4301 0.1418
vn 0.0000 0.1096 0.9940
vn 0.0000 -0.7361 0.6769
vn 0.9599 -0.2496 -0.1279
vn 0.9496 0.0001 0.3134
vn 0.9912 -0.0307 0.1286
vn 0.9605 0.1244 0.2491
vn 0.9027 -0.3809 0.2000
vn 0.7820 -0.6200 0.0632
vn 0.0000 -0.9601 0.2797
vn 0.9027 -0.3809 0.2000
vn 0.9721 -0.2346 0.0029
vn 0.0000 -0.9808 -0.1951
vn 0.8916 0.4301 0.1418
vn 0.7996 0.5996 0.0332
vn 0.0000 0.9943 0.1062
vn 0.0000 0.9712 0.2382
vn 0.0000 -0.9969 0.0789
vn 0.7820 -0.6200 0.0632
vn 0.9027 -0.3809 0.2000
vn 0.0000 -0.9601 0.2797
vn 0.9845 0.0303 -0.1727
vn 0.9912 -0.0307 0.1286
vn 0.7820 -0.6200 0.0632
vn 0.7915 -0.5947 -0.1411
vn 0.0000 0.9943 0.1062
vn 0.7996 0.5996 0.0332
vn 0.7924 0.5902 -0.1542
vn 0.0000 0.8829 -0.4695
vn 0.7915 -0.5947 -0.1411
vn 0.7820 -0.6200 0.0632
vn 0.0000 -0.9969 0.0789
vn 0.0000 -0.9411 -0.3381
vn 0.9845 0.0303 -0.1727
vn 0.7915 -0.5947 -0.1411
vn 0.9328 -0.2915 -0.2118
vn 0.9104 0.0122 -0.4135
vn 0.0000 0.8829 -0.4695
vn 0.7924 0.5902 -0.1542
vn 0.8062 0.4836 -0.3408
vn 0.0000 0.7049 -0.7093
vn 0.9605 0.1244 0.2491
vn 0.8916 0.4301 0.1418
vn 0.9731 0.2244 -0.0523
vn 0.9995 0.0000 0.0323
vn 0.9104 0.0122 -0.4135
vn 0.0000 0.1661 -0.9861
vn 0.0000 0.7049 -0.7093
vn 0.8062 0.4836 -0.3408
vn 0.0000 0.1096 0.9940
vn 0.9496 0.0001 0.3134
vn 0.9603 0.2438 -0.1356
vn 0.0000 0.7766 0.6300
vn 0.8916 0.4301 0.1418
vn 0.9605 0.1244 0.2491
vn 0.9912 -0.0307 0.1286
vn 0.7996 0.5996 0.0332
vn 0.9845 0.0303 -0.1727
vn 0.7924 0.5902 -0.1542
vn 0.7996 0.5996 0.0332
vn 0.9912 -0.0307 0.1286
vn 0.9845 0.0303 -0.1727
vn 0.9104 0.0122 -0.4135
vn 0.8062 0.4836 -0.3408
vn 0.7924 0.5902 -0.1542
vn 0.9599 -0.2496 -0.1279
vn 0.0000 -0.7361 0.6769
vn 0.0000 -0.9808 -0.1951
vn 0.9721 -0.2346 0.0029
vn 0.9496 0.0001 0.3134
vn 0.9599 -0.2496 -0.1279
vn 0.9721 -0.2346 0.0029
vn 0.9995 0.0000 0.0323
vn 0.9496 0.0001 0.3134
vn 0.9995 0.0000 0.0323
vn 0.9731 0.2244 -0.0523
vn 0.9603 0.2438 -0.1356
vn 0.9603 0.2438 -0.1356
vn 0.9731 0.2244 -0.0523
vn 0.0000 0.9644 -0.2644
vn 0.0000 0.7766 0.6300
vn 0.7660 0.2717 -0.5826
vn 0.7660 0.2717 -0.5826
vn 0.7660 0.2717 -0.5826
vn 0.7660 0.2717 -0.5826
vn 0.9397 0.3214 -0.1170
vn 0.9397 0.3214 -0.1170
vn 0.9397 0.3214 -0.1170
vn 0.9397 0.3214 -0.1170
vn -0.9605 0.1244 0.2491
vn -0.9027 -0.3809 0.2000
vn -0.9721 -0.2346 0.0029
vn -0.9995 0.0000 0.0323
vn 0.0000 -0.5831 -0.8124
vn -0.9328 -0.2915 -0.2118
vn -0.9104 0.0122 -0.4135
vn 0.0000 0.1661 -0.9861
vn 0.0000 -0.9411 -0.3381
vn -0.7915 -0.5947 -0.1411
vn -0.9328 -0.2915 -0.2118
vn 0.0000 -0.5831 -0.8124
vn 0.0000 0.9712 0.2382
vn -0.8916 0.4301 0.1418
vn -0.9731 0.2244 -0.0523
vn 0.0000 0.9644 -0.2644
vn 0.0000 0.1096 0.9940
vn -0.9496 0.0001 0.3134
vn -0.9599 -0.2496 -0.1279
vn 0.0000 -0.7361 0.6769
vn -0.9912 -0.0307 0.1286
vn -0.7820 -0.6200 0.0632
vn -0.9027 -0.3809 0.2000
vn -0.9605 0.1244 0.2491
vn 0.0000 -0.9601 0.2797
vn 0.0000 -0.9808 -0.1951
vn -0.9721 -0.2346 0.0029
vn -0.9027 -0.3809 0.2000
vn 0.0000 0.9943 0.1062
vn -0.7996 0.5996 0.0332
vn -0.8916 0.4301 0.1418
vn 0.0000 0.9712 0.2382
vn 0.0000 -0.9969 0.0789
vn 0.0000 -0.9601 0.2797
vn -0.9027 -0.3809 0.2000
vn -0.7820 -0.6200 0.0632
vn -0.9845 0.0303 -0.1727
vn -0.7915 -0.5947 -0.1411
vn -0.7820 -0.6200 0.0632
vn -0.9912 -0.0307 0.1286
vn 0.0000 0.9943 0.1062
vn 0.0000 0.8829 -0.4695
vn -0.7924 0.5902 -0.1542
vn -0.7996 0.5996 0.0332
vn 0.0000 -0.9969 0.0789
vn -0.7820 -0.6200 0.0632
vn -0.7915 -0.5947 -0.1411
vn 0.0000 -0.9411 -0.3381
vn -0.9845 0.0303 -0.1727
vn -0.9104 0.0122 -0.4135
vn -0.9328 -0.2915 -0.2118
vn -0.7915 -0.5947 -0.1411
vn 0.0000 0.8829 -0.4695
vn 0.0000 0.7049 -0.7093
vn -0.8062 0.4836 -0.3408
vn -0.7924 0.5902 -0.1542
vn -0.9731 0.2244 -0.0523
vn -0.8916 0.4301 0.1418
vn -0.9605 0.1244 0.2491
vn -0.9995 0.0000 0.0323
vn -0.9104 0.0122 -0.4135
vn -0.8062 0.4836 -0.3408
vn 0.0000 0.7049 -0.7093
vn 0.0000 0.1661 -0.9861
vn 0.0000 0.1096 0.9940
vn 0.0000 0.7766 0.6300
vn -0.9603 0.2438 -0.1356
vn -0.9496 0.0001 0.3134
vn -0.8916 0.4301 0.1418
vn -0.7996 0.5996 0.0332
vn -0.9912 -0.0307 0.1286
vn -0.9605 0.1244 0.2491
vn -0.7996 0.5996 0.0332
vn -0.7924 0.5902 -0.1542
vn -0.9845 0.0303 -0.1727
vn -0.9912 -0.0307 0.1286
vn -0.9845 0.0303 -0.1727
vn -0.7924 0.5902 -0.1542
vn -0.8062 0.4836 -0.3408
vn -0.9104 0.0122 -0.4135
vn -0.9599 -0.2496 -0.1279
vn -0.9721 -0.2346 0.0029
vn 0.0000 -0.9808 -0.1951
vn 0.0000 -0.7361 0.6769
vn -0.9496 0.0001 0.3134
vn -0.9995 0.0000 0.0323
vn -0.9721 -0.2346 0.0029
vn -0.9599 -0.2496 -0.1279
vn -0.9731 0.2244 -0.0523
vn -0.9995 0.0000 0.0323
vn -0.9496 0.0001 0.3134
vn -0.9603 0.2438 -0.1356
vn 0.0000 0.9644 -0.2644
vn -0.9731 0.2244 -0.0523
vn -0.9603 0.2438 -0.1356
vn 0.0000 0.7766 0.6300
vn -0.7660 0.2717 -0.5826
vn -0.7660 0.2717 -0.5826
vn -0.7660 0.2717 -0.5826
vn -0.7660 0.2717 -0.5826
vn -0.9397 0.3214 -0.1170
vn -0.9397 0.3214 -0.1170
vn -0.9397 0.3214 -0.1170
vn -0.9397 0.3214 -0.1170
vn 1.0000 -0.0000 -0.0000
vn 1.0000 -0.0000 -0.0000
vn 1.0000 -0.0000 -0.0000
vn 1.0000 -0.0000 -0.0000
vn 1.0000 0.0000 0.0000
vn 1.0000 0.0000 0.0000
vn 1.0000 0.0000 0.0000
vn 1.0000 0.0000 0.0000
vn -1.0000 0.0000 0.0000
vn -1.0000 0.0000 0.0000
vn -1.0000 0.0000 0.0000
vn -1.0000 0.0000 0.0000
vn -1.0000 -0.0000 -0.0000
vn -1.0000 -0.0000 -0.0000
vn -1.0000 -0.0000 -0.0000
vn -1.0000 -0.0000 -0.0000
# 224 vertex normals

vt 0.1880 0.7273 0.0000
vt 0.1617 0.7268 0.0000
vt 0.1551 0.6444 0.0000
vt 0.1897 0.6453 0.0000
vt 0.1760 0.2188 0.0000
vt 0.1798 0.2767 0.0000
vt 0.1461 0.2879 0.0000
vt 0.1387 0.2297 0.0000
vt 0.0923 0.3063 0.0000
vt 0.1290 0.2318 0.0000
vt 0.1183 0.3461 0.0000
vt 0.2631 0.6319 0.0000
vt 0.2297 0.7283 0.0000
vt 0.2217 0.7281 0.0000
vt 0.2440 0.5942 0.0000
vt 0.1807 0.8019 0.0000
vt 0.0824 0.8385 0.0000
vt 0.1461 0.7774 0.0000
vt 0.1850 0.7811 0.0000
vt 0.1830 0.5061 0.0000
vt 0.0963 0.4947 0.0000
vt 0.1363 0.6823 0.0000
vt 0.1537 0.7267 0.0000
vt 0.2790 0.4904 0.0000
vt 0.3125 0.4965 0.0000
vt 0.0625 0.4945 0.0000
vt 0.1889 0.3619 0.0000
vt 0.2582 0.3543 0.0000
vt 0.2863 0.3213 0.0000
vt 0.2249 0.2930 0.0000
vt 0.2292 0.2482 0.0000
vt 0.2161 0.2483 0.0000
vt 0.2384 0.7795 0.0000
vt 0.3042 0.8438 0.0000
vt 0.0776 0.8347 0.0000
vt 0.3097 0.8396 0.0000
vt 0.6563 0.1250 0.0000
vt 0.6250 0.1250 0.0000
vt 0.6250 0.0313 0.0000
vt 0.6563 0.0313 0.0000
vt 0.7500 0.0000 0.0000
vt 0.7500 0.0625 0.0000
vt 0.7188 0.0625 0.0000
vt 0.7188 0.0000 0.0000
vt 0.1880 0.7273 0.0000
vt 0.1897 0.6453 0.0000
vt 0.1551 0.6444 0.0000
vt 0.1617 0.7268 0.0000
vt 0.1760 0.2188 0.0000
vt 0.1387 0.2297 0.0000
vt 0.1461 0.2879 0.0000
vt 0.1798 0.2767 0.0000
vt 0.0923 0.3063 0.0000
vt 0.1183 0.3461 0.0000
vt 0.1290 0.2318 0.0000
vt 0.2631 0.6319 0.0000
vt 0.2440 0.5942 0.0000
vt 0.2217 0.7281 0.0000
vt 0.2297 0.7283 0.0000
vt 0.1807 0.8019 0.0000
vt 0.1850 0.7811 0.0000
vt 0.1461 0.7774 0.0000
vt 0.0824 0.8385 0.0000
vt 0.1830 0.5061 0.0000
vt 0.0963 0.4947 0.0000
vt 0.1363 0.6823 0.0000
vt 0.1537 0.7267 0.0000
vt 0.3125 0.4965 0.0000
vt 0.2790 0.4904 0.0000
vt 0.0625 0.4945 0.0000
vt 0.1889 0.3619 0.0000
vt 0.2863 0.3213 0.0000
vt 0.2582 0.3543 0.0000
vt 0.2292 0.2482 0.0000
vt 0.2249 0.2930 0.0000
vt 0.2161 0.2483 0.0000
vt 0.3042 0.8438 0.0000
vt 0.2384 0.7795 0.0000
vt 0.0776 0.8347 0.0000
vt 0.3097 0.8396 0.0000
vt 0.6563 0.1250 0.0000
vt 0.6563 0.0313 0.0000
vt 0.6250 0.0313 0.0000
vt 0.6250 0.1250 0.0000
vt 0.7500 0.0000 0.0000
vt 0.7188 0.0000 0.0000
vt 0.7188 0.0625 0.0000
vt 0.7500 0.0625 0.0000
vt 0.4375 0.0625 0.0000
vt 0.5000 0.0625 0.0000
vt 0.5000 0.2188 0.0000
vt 0.4375 0.2188 0.0000
vt 0.5938 0.1563 0.0000
vt 0.5313 0.1563 0.0000
vt 0.5313 0.0625 0.0000
vt 0.5938 0.0625 0.0000
vt 0.5000 0.2188 0.0000
vt 0.4375 0.2188 0.0000
vt 0.4375 0.0625 0.0000
vt 0.5000 0.0625 0.0000
vt 0.5313 0.0625 0.0000
vt 0.5938 0.0625 0.0000
vt 0.5938 0.1563 0.0000
vt 0.5313 0.1563 0.0000
# 104 texture coords

o Fish_B
g Fish_B
s 16
f 1/2/1 7/3/2 18/4/3 19/1/4 
s 32
f 15/6/5 2/7/6 41/8/7 38/5/8 
s 2
f 24/9/9 41/10/10 2/7/11 14/11/12 
s 4
f 43/12/13 5/13/14 3/14/15 8/15/16 
s 8
f 23/16/17 46/17/18 20/18/19 21/19/20 
s 16
f 17/20/21 18/4/22 7/3/23 11/21/24 
s 2
f 51/22/25 7/3/26 1/2/27 52/23/28 
s 4
f 8/15/29 10/24/30 9/25/31 43/12/32 
s 2
f 12/26/33 11/21/34 7/3/35 51/22/36 
s 16
f 16/27/37 17/20/38 11/21/39 14/11/40 
s 4
f 9/25/41 10/24/42 13/28/43 56/29/44 
s 2
f 14/11/45 11/21/46 12/26/47 24/9/48 
s 16
f 16/27/49 14/11/50 2/7/51 15/6/52 
s 4
f 56/29/53 13/28/54 4/30/55 6/31/56 
s 16
f 18/4/57 8/15/58 3/14/59 19/1/60 
s 32
f 15/6/61 38/5/62 6/32/63 4/30/64 
s 8
f 23/16/65 21/19/66 22/33/67 25/34/68 
s 16
f 8/15/69 18/4/70 17/20/71 10/24/72 
f 16/27/73 13/28/74 10/24/75 17/20/76 
f 16/27/77 15/6/78 4/30/79 13/28/80 
s off
f 20/18/81 46/35/82 52/23/83 1/2/84 
f 21/19/85 20/18/86 1/2/87 19/1/88 
f 21/19/89 19/1/90 3/14/91 22/33/92 
f 22/33/93 3/14/94 5/13/95 25/36/96 
s 1
f 29/37/97 28/38/98 26/39/99 27/40/100 
f 32/42/101 30/43/102 31/44/103 33/41/104 
s 16
f 37/46/105 36/47/106 35/48/107 34/45/108 
s 32
f 41/50/109 40/51/110 39/52/111 38/49/112 
s 2
f 24/53/113 42/54/114 40/51/115 41/55/116 
s 4
f 43/56/117 45/57/118 44/58/119 5/59/120 
s 8
f 23/60/121 48/61/122 47/62/123 46/63/124 
s 16
f 49/64/125 50/65/126 36/47/127 37/46/128 
s 2
f 51/66/129 52/67/130 35/48/131 36/47/132 
s 4
f 9/68/133 53/69/134 45/57/135 43/56/136 
s 2
f 12/70/137 51/66/138 36/47/139 50/65/140 
s 16
f 54/71/141 42/54/142 50/65/143 49/64/144 
s 4
f 9/68/145 56/72/146 55/73/147 53/69/148 
s 2
f 12/70/149 50/65/150 42/54/151 24/53/152 
s 16
f 54/71/153 39/52/154 40/51/155 42/54/156 
s 4
f 56/72/157 6/74/158 57/75/159 55/73/160 
s 16
f 44/58/161 45/57/162 37/46/163 34/45/164 
s 32
f 39/52/165 57/75/166 6/76/167 38/49/168 
s 8
f 23/60/169 25/77/170 58/78/171 48/61/172 
s 16
f 45/57/173 53/69/174 49/64/175 37/46/176 
f 53/69/177 55/73/178 54/71/179 49/64/180 
f 54/71/181 55/73/182 57/75/183 39/52/184 
s off
f 47/62/185 35/48/186 52/67/187 46/79/188 
f 48/61/189 34/45/190 35/48/191 47/62/192 
f 44/58/193 34/45/194 48/61/195 58/78/196 
f 5/59/197 44/58/198 58/78/199 25/80/200 
s 1
f 59/81/201 62/82/202 61/83/203 60/84/204 
f 66/86/205 65/87/206 64/88/207 63/85/208 
f 69/90/209 67/91/210 68/92/211 70/89/212 
f 73/94/213 71/95/214 72/96/215 74/93/216 
f 76/98/217 75/97/218 78/100/219 77/99/220 
f 80/102/221 79/101/222 82/104/223 81/103/224 
# 56 polygons

