# 3ds Max Wavefront OBJ Exporter v0.99 - (c)2007 guruware
# File Created: 06.04.2022 13:23:19

#
# object Object016
#

v  -0.3475 2.1555 0.3265
v  -0.4202 2.7402 0.3265
v  -0.3475 2.1555 0.2441
v  -0.4202 2.7402 0.2441
v  -1.6573 2.0409 0.3265
v  -1.6573 2.0409 0.2441
v  -1.6387 2.3249 0.3225
v  -0.4284 2.4280 0.3250
v  -1.6387 2.3249 0.2482
v  -0.3555 2.2468 0.2441
v  -1.6653 2.1088 0.3258
v  -0.3555 2.2328 0.3257
v  -1.6653 2.1095 0.2441
v  -1.7300 2.6256 0.2441
v  -1.7300 2.6256 0.3265
v  -1.7197 2.5076 0.3265
v  -0.4098 2.6222 0.3265
v  -0.4098 2.6222 0.2441
v  -1.7197 2.5076 0.2441
v  -1.6551 2.4926 0.3225
v  -1.6551 2.4926 0.2482
v  -0.4743 2.6159 0.2482
v  -0.4743 2.6159 0.3225
v  -0.4578 2.4282 0.3225
v  -0.4578 2.4282 0.2482
v  -0.4284 2.4280 0.2457
v  -1.7138 2.3057 0.3258
v  -1.7138 2.3057 0.2449
v  -0.4110 2.2358 0.3258
v  -0.4110 2.2474 0.2552
v  -1.6969 2.1233 0.2449
v  -1.6969 2.1233 0.3258
v  -0.2259 -0.0000 0.1348
v  0.1937 0.0000 0.1348
v  -0.2259 -0.0000 -0.1348
v  0.1937 0.0000 -0.1348
v  -0.1592 2.4404 0.1348
v  0.1592 2.4404 0.1348
v  -0.1592 2.4404 -0.1348
v  0.1592 2.4404 -0.1348
v  -0.0178 1.2202 0.1148
v  -0.3751 1.2202 0.1148
v  -0.0178 1.2202 -0.1148
v  -0.3751 1.2202 -0.1148
v  0.0426 3.4229 0.0927
v  0.2615 3.4229 0.0927
v  0.0426 3.4229 -0.0927
v  0.2615 3.4229 -0.0927
v  -0.5854 2.9823 0.1529
v  -0.5594 2.9760 0.1529
v  -0.5836 2.9891 0.2290
v  -0.5576 2.9828 0.2290
v  -0.6570 2.6857 0.1811
v  -0.6310 2.6795 0.1810
v  -0.6551 2.6925 0.2572
v  -0.6292 2.6863 0.2571
v  -1.4196 2.8026 0.1529
v  -1.3939 2.8101 0.1529
v  -1.4214 2.8093 0.2290
v  -1.3958 2.8168 0.2290
v  -1.3333 2.5099 0.1807
v  -1.3076 2.5175 0.1806
v  -1.3351 2.5166 0.2568
v  -1.3094 2.5242 0.2568
v  0.2236 3.1022 0.2441
v  0.1914 3.2848 0.2441
v  0.2236 3.1022 0.1001
v  0.1914 3.2848 0.1001
v  -1.7808 2.7225 0.2789
v  -1.8385 3.1061 0.2789
v  -1.7808 2.7225 0.0653
v  -1.8385 3.1061 0.0653
# 72 vertices

vn 0.9933 0.1155 0.0000
vn 0.9933 0.1155 0.0000
vn 0.9933 0.1155 0.0000
vn 0.9933 0.1155 0.0000
vn -0.9933 -0.1155 -0.0000
vn -0.9933 -0.1155 -0.0000
vn -0.9933 -0.1155 -0.0000
vn -0.9933 -0.1155 -0.0000
vn -0.0000 0.0000 1.0000
vn -0.0000 0.0000 1.0000
vn -0.0000 0.0000 1.0000
vn -0.0000 0.0000 1.0000
vn -0.0657 0.9978 -0.0000
vn -0.0657 0.9978 -0.0000
vn -0.0657 0.9978 -0.0000
vn -0.0657 0.9978 -0.0000
vn 0.0000 -0.0000 -1.0000
vn 0.0000 -0.0000 -1.0000
vn 0.0000 -0.0000 -1.0000
vn 0.0000 -0.0000 -1.0000
vn 0.9933 0.1155 0.0000
vn 0.9933 0.1155 0.0000
vn 0.9933 0.1155 0.0000
vn 0.9933 0.1155 0.0000
vn -0.9933 -0.1155 -0.0000
vn -0.9933 -0.1155 -0.0000
vn -0.9933 -0.1155 -0.0000
vn -0.9933 -0.1155 -0.0000
vn -0.0000 0.0000 1.0000
vn -0.0000 0.0000 1.0000
vn -0.0000 0.0000 1.0000
vn -0.0000 0.0000 1.0000
vn 0.0000 -0.0000 -1.0000
vn 0.0000 -0.0000 -1.0000
vn 0.0000 -0.0000 -1.0000
vn 0.0000 -0.0000 -1.0000
vn 0.9933 0.1155 0.0000
vn 0.9933 0.1155 0.0000
vn 0.9933 0.1155 0.0000
vn 0.9933 0.1155 0.0000
vn -0.9933 -0.1155 -0.0000
vn -0.9933 -0.1155 -0.0000
vn -0.9933 -0.1155 -0.0000
vn -0.9933 -0.1155 -0.0000
vn -0.0000 0.0000 1.0000
vn -0.0000 0.0000 1.0000
vn -0.0000 0.0000 1.0000
vn -0.0000 0.0000 1.0000
vn 0.0000 -0.0000 -1.0000
vn 0.0000 -0.0000 -1.0000
vn 0.0000 -0.0000 -1.0000
vn 0.0000 -0.0000 -1.0000
vn 0.9933 0.1155 0.0000
vn 0.9933 0.1155 0.0000
vn 0.9933 0.1155 0.0000
vn 0.9933 0.1155 0.0000
vn -0.9933 -0.1155 -0.0000
vn -0.9933 -0.1155 -0.0000
vn -0.9933 -0.1155 -0.0000
vn -0.9933 -0.1155 -0.0000
vn -0.0000 0.0000 1.0000
vn -0.0000 0.0000 1.0000
vn -0.0000 0.0000 1.0000
vn -0.0000 0.0000 1.0000
vn 0.0000 -0.0000 -1.0000
vn 0.0000 -0.0000 -1.0000
vn 0.0000 -0.0000 -1.0000
vn 0.0000 -0.0000 -1.0000
vn 0.0283 -0.4305 -0.9021
vn 0.0283 -0.4305 -0.9021
vn 0.0283 -0.4305 -0.9021
vn 0.0283 -0.4305 -0.9021
vn 0.0283 -0.4305 0.9021
vn 0.0283 -0.4305 0.9021
vn 0.0283 -0.4305 0.9021
vn 0.0283 -0.4305 0.9021
vn 0.0530 0.9986 0.0000
vn 0.0530 0.9986 0.0000
vn 0.0530 0.9986 0.0000
vn 0.0530 0.9986 0.0000
vn -0.0283 0.4305 -0.9021
vn -0.0283 0.4305 -0.9021
vn -0.0283 0.4305 -0.9021
vn -0.0283 0.4305 0.9021
vn -0.0283 0.4305 0.9021
vn -0.0283 0.4305 0.9021
vn -0.0075 1.0000 -0.0000
vn -0.0075 1.0000 -0.0000
vn -0.0075 1.0000 -0.0000
vn -0.0075 1.0000 -0.0000
vn -0.0295 0.4488 0.8932
vn -0.0295 0.4488 0.8932
vn -0.0295 0.4488 0.8932
vn -0.1478 0.9890 -0.0000
vn -0.1478 0.9890 -0.0000
vn -0.1478 0.9890 -0.0000
vn -0.1478 0.9890 -0.0000
vn 0.0000 0.0005 1.0000
vn 0.0000 0.0199 0.9998
vn 0.0000 0.0199 0.9998
vn 0.0000 0.0002 1.0000
vn 0.9998 0.0179 -0.0000
vn 0.9745 0.2244 -0.0000
vn 0.9745 0.2244 -0.0000
vn 0.9998 0.0179 -0.0000
vn 0.0000 0.0002 -1.0000
vn 0.0000 0.0199 -0.9998
vn 0.0000 0.0199 -0.9998
vn 0.0000 0.0005 -1.0000
vn -0.9994 0.0349 -0.0000
vn -0.9871 -0.1604 -0.0000
vn -0.9871 -0.1604 -0.0000
vn -0.9994 0.0349 -0.0000
vn 0.0000 0.0005 1.0000
vn 0.0000 0.0002 1.0000
vn 0.0000 -0.0199 0.9998
vn 0.0000 -0.0199 0.9998
vn 0.9998 0.0179 -0.0000
vn 0.9998 0.0179 -0.0000
vn 0.9819 -0.1893 -0.0000
vn 0.9819 -0.1893 -0.0000
vn 0.0000 0.0002 -1.0000
vn 0.0000 0.0005 -1.0000
vn 0.0000 -0.0199 -0.9998
vn 0.0000 -0.0199 -0.9998
vn -0.9994 0.0349 -0.0000
vn -0.9994 0.0349 -0.0000
vn -0.9735 0.2288 -0.0000
vn -0.9735 0.2288 -0.0000
vn 0.0000 0.0521 0.9986
vn 0.0000 0.0521 0.9986
vn 0.0000 0.0521 0.9986
vn 0.0000 0.0521 0.9986
vn 0.9906 -0.1370 -0.0000
vn 0.9906 -0.1370 -0.0000
vn 0.9906 -0.1370 -0.0000
vn 0.9906 -0.1370 -0.0000
vn 0.0000 0.0521 -0.9986
vn 0.0000 0.0521 -0.9986
vn 0.0000 0.0521 -0.9986
vn 0.0000 0.0521 -0.9986
vn -0.9647 0.2633 -0.0000
vn -0.9647 0.2633 -0.0000
vn -0.9647 0.2633 -0.0000
vn -0.9647 0.2633 -0.0000
vn 0.0000 1.0000 -0.0000
vn 0.0000 1.0000 -0.0000
vn 0.0000 1.0000 -0.0000
vn 0.0000 1.0000 -0.0000
vn -0.0215 -0.1076 -0.9940
vn -0.0215 -0.1076 -0.9940
vn -0.0215 -0.1076 -0.9940
vn -0.0215 -0.1076 -0.9940
vn 0.9522 -0.3056 -0.0023
vn 0.9522 -0.3056 -0.0023
vn 0.9522 -0.3056 -0.0023
vn 0.9522 -0.3056 -0.0023
vn 0.0215 0.1076 0.9940
vn 0.0215 0.1076 0.9940
vn 0.0215 0.1076 0.9940
vn 0.0215 0.1076 0.9940
vn -0.9522 0.3056 0.0023
vn -0.9522 0.3056 0.0023
vn -0.9522 0.3056 0.0023
vn -0.9522 0.3056 0.0023
vn 0.0216 -0.1062 -0.9941
vn 0.0216 -0.1062 -0.9941
vn 0.0216 -0.1062 -0.9941
vn 0.0216 -0.1062 -0.9941
vn 0.9311 0.3646 -0.0022
vn 0.9311 0.3646 -0.0022
vn 0.9311 0.3646 -0.0022
vn 0.9311 0.3646 -0.0022
vn -0.0216 0.1062 0.9941
vn -0.0216 0.1062 0.9941
vn -0.0216 0.1062 0.9941
vn -0.0216 0.1062 0.9941
vn -0.9311 -0.3647 0.0022
vn -0.9311 -0.3647 0.0022
vn -0.9311 -0.3646 0.0022
vn -0.9311 -0.3647 0.0022
vn 0.9736 0.2281 -0.0000
vn 0.9736 0.2281 -0.0000
vn 0.9736 0.2281 -0.0000
vn 0.9736 0.2281 -0.0000
vn -0.9806 -0.1961 -0.0000
vn -0.9806 -0.1961 -0.0000
vn -0.9806 -0.1961 -0.0000
vn -0.9806 -0.1961 -0.0000
vn 0.0154 0.0033 0.9999
vn 0.0154 0.0033 0.9999
vn 0.0154 0.0033 0.9999
vn 0.0154 0.0033 0.9999
vn -0.0661 0.9978 -0.0000
vn -0.0661 0.9978 -0.0000
vn -0.0661 0.9978 -0.0000
vn -0.0661 0.9978 -0.0000
vn 0.0154 0.0033 -0.9999
vn 0.0154 0.0033 -0.9999
vn 0.0154 0.0033 -0.9999
vn 0.0154 0.0033 -0.9999
vn -0.0378 0.5393 -0.8413
vn -0.0378 0.5393 -0.8413
vn -0.0378 0.5393 -0.8413
vn -0.0378 0.5393 -0.8413
vn 0.0002 -0.0028 1.0000
vn 0.0002 -0.0028 1.0000
vn 0.0002 -0.0028 1.0000
vn 0.0002 -0.0028 1.0000
vn -0.0219 0.3129 0.9495
vn -0.0219 0.3129 0.9495
vn -0.0219 0.3129 0.9495
# 212 vertex normals

vt 0.4297 0.5703 0.0000
vt 0.4296 0.5781 0.0000
vt 0.4219 0.5781 0.0000
vt 0.4219 0.5703 0.0000
vt 0.4219 0.4922 0.0000
vt 0.4297 0.4922 0.0000
vt 0.4297 0.5078 0.0000
vt 0.4220 0.5079 0.0000
vt 0.2266 0.6566 0.0000
vt 0.2266 0.5000 0.0000
vt 0.2344 0.5000 0.0000
vt 0.2344 0.6566 0.0000
vt 0.4063 0.6484 0.0000
vt 0.3984 0.6484 0.0000
vt 0.3984 0.4922 0.0000
vt 0.4063 0.4922 0.0000
vt 0.3216 0.6473 0.0000
vt 0.3203 0.4950 0.0000
vt 0.3342 0.4949 0.0000
vt 0.3354 0.6472 0.0000
vt 0.4297 0.5078 0.0000
vt 0.4219 0.5078 0.0000
vt 0.4219 0.4922 0.0000
vt 0.4297 0.4922 0.0000
vt 0.4219 0.5704 0.0000
vt 0.4297 0.5704 0.0000
vt 0.4297 0.5781 0.0000
vt 0.4219 0.5781 0.0000
vt 0.2813 0.6641 0.0000
vt 0.2813 0.5078 0.0000
vt 0.2969 0.5078 0.0000
vt 0.2969 0.6641 0.0000
vt 0.3379 0.6399 0.0000
vt 0.3347 0.5024 0.0000
vt 0.3568 0.5023 0.0000
vt 0.3576 0.6396 0.0000
vt 0.4297 0.5313 0.0000
vt 0.4219 0.5313 0.0000
vt 0.4219 0.5156 0.0000
vt 0.4297 0.5156 0.0000
vt 0.4219 0.5391 0.0000
vt 0.4297 0.5391 0.0000
vt 0.4297 0.5625 0.0000
vt 0.4219 0.5625 0.0000
vt 0.2592 0.6566 0.0000
vt 0.2585 0.5156 0.0000
vt 0.2797 0.5156 0.0000
vt 0.2800 0.6566 0.0000
vt 0.3592 0.6484 0.0000
vt 0.3572 0.4989 0.0000
vt 0.3785 0.4986 0.0000
vt 0.3806 0.6482 0.0000
vt 0.4297 0.5625 0.0000
vt 0.4219 0.5625 0.0000
vt 0.4219 0.5391 0.0000
vt 0.4297 0.5391 0.0000
vt 0.4220 0.5156 0.0000
vt 0.4297 0.5156 0.0000
vt 0.4297 0.5313 0.0000
vt 0.4220 0.5313 0.0000
vt 0.2364 0.6641 0.0000
vt 0.2352 0.5075 0.0000
vt 0.2578 0.5078 0.0000
vt 0.2578 0.6641 0.0000
vt 0.3825 0.6447 0.0000
vt 0.3799 0.4922 0.0000
vt 0.3906 0.4922 0.0000
vt 0.3906 0.6445 0.0000
vt 0.0781 0.7588 0.0000
vt 0.0781 0.9063 0.0000
vt 0.0391 0.9057 0.0000
vt 0.0391 0.7585 0.0000
vt 0.1797 0.7588 0.0000
vt 0.1797 0.9063 0.0000
vt 0.1484 0.9063 0.0000
vt 0.1484 0.7588 0.0000
vt 0.1094 0.9063 0.0000
vt 0.1094 0.7588 0.0000
vt 0.0391 0.6110 0.0000
vt 0.0781 0.6111 0.0000
vt 0.1484 0.6111 0.0000
vt 0.1797 0.6111 0.0000
vt 0.1094 0.6111 0.0000
vt 0.0391 0.4922 0.0000
vt 0.0781 0.4922 0.0000
vt 0.1484 0.4922 0.0000
vt 0.1797 0.4922 0.0000
vt 0.1094 0.4922 0.0000
vt 0.0938 0.9219 0.0000
vt 0.0938 0.9453 0.0000
vt 0.0781 0.9453 0.0000
vt 0.0781 0.9219 0.0000
vt 0.4375 0.7891 0.0000
vt 0.4375 0.7813 0.0000
vt 0.3984 0.7891 0.0000
vt 0.3984 0.7813 0.0000
vt 0.3984 0.7969 0.0000
vt 0.4375 0.7969 0.0000
vt 0.3984 0.7656 0.0000
vt 0.3984 0.7578 0.0000
vt 0.4375 0.7578 0.0000
vt 0.4375 0.7656 0.0000
vt 0.4375 0.7891 0.0000
vt 0.4375 0.7813 0.0000
vt 0.3984 0.7891 0.0000
vt 0.3984 0.7813 0.0000
vt 0.3984 0.7969 0.0000
vt 0.4375 0.7969 0.0000
vt 0.3984 0.7656 0.0000
vt 0.3986 0.7578 0.0000
vt 0.4375 0.7578 0.0000
vt 0.4375 0.7656 0.0000
vt 0.5625 0.7734 0.0000
vt 0.5469 0.7734 0.0000
vt 0.5469 0.7500 0.0000
vt 0.5625 0.7500 0.0000
vt 0.5703 0.7969 0.0000
vt 0.5703 0.7500 0.0000
vt 0.6016 0.7500 0.0000
vt 0.6016 0.7969 0.0000
vt 0.6328 0.7422 0.0000
vt 0.6016 0.7422 0.0000
vt 0.6016 0.5078 0.0000
vt 0.6328 0.5078 0.0000
vt 0.6563 0.7422 0.0000
vt 0.6563 0.5078 0.0000
vt 0.5781 0.7422 0.0000
vt 0.5469 0.7422 0.0000
vt 0.5469 0.5078 0.0000
vt 0.5781 0.5078 0.0000
# 130 texture coords

o Object016
g Object016
s off
f 12/3/1 1/4/2 3/1/3 10/2/4 
f 6/7/5 5/8/6 11/5/7 13/6/8 
f 5/11/9 1/12/10 12/9/11 11/10/12 
f 14/15/13 15/16/14 2/13/15 4/14/16 
f 14/19/17 4/20/18 18/17/19 19/18/20 
f 17/23/21 18/24/22 4/21/23 2/22/24 
f 19/27/25 16/28/26 15/25/27 14/26/28 
f 16/31/29 17/32/30 2/29/31 15/30/32 
f 21/35/33 22/36/34 25/33/35 9/34/36 
f 24/39/37 25/40/38 22/37/39 23/38/40 
f 9/43/41 7/44/42 20/41/43 21/42/44 
f 7/47/45 24/48/46 23/45/47 20/46/48 
f 28/51/49 26/52/50 30/49/51 31/50/52 
f 29/55/53 30/56/54 26/53/55 8/54/56 
f 31/59/57 32/60/58 27/57/59 28/58/60 
f 32/63/61 29/64/62 8/61/63 27/62/64 
f 13/67/65 10/68/66 3/65/67 6/66/68 
f 22/20/69 21/19/70 19/34/71 18/33/72 
f 20/30/73 23/29/74 17/48/75 16/47/76 
f 25/56/77 24/55/78 8/38/79 26/37/80 
f 26/50/81 9/36/82 25/35/83 
f 7/45/84 8/63/85 24/46/86 
f 28/42/87 27/41/88 7/60/89 9/59/90 
f 9/36/91 26/50/92 28/49/93 
f 30/1/94 29/4/95 12/54/96 10/53/97 
f 42/71/98 33/72/99 34/69/100 41/70/101 
f 41/75/102 34/76/103 36/73/104 43/74/105 
f 43/77/106 36/78/107 35/76/108 44/75/109 
f 44/70/110 35/69/111 33/78/112 42/77/113 
f 42/79/114 41/80/115 38/69/116 37/72/117 
f 41/81/118 43/82/119 40/73/120 38/76/121 
f 43/83/122 44/81/123 39/76/124 40/78/125 
f 44/80/126 42/83/127 37/78/128 39/69/129 
f 46/80/130 45/79/131 37/84/132 38/85/133 
f 48/82/134 46/81/135 38/86/136 40/87/137 
f 47/81/138 48/83/139 40/88/140 39/86/141 
f 45/83/142 47/80/143 39/85/144 37/88/145 
f 48/91/146 47/92/147 45/89/148 46/90/149 
f 54/94/150 53/93/151 49/95/152 50/96/153 
f 56/93/154 54/98/155 50/97/156 52/95/157 
f 55/101/158 56/102/159 52/99/160 51/100/161 
f 53/102/162 55/94/163 51/96/164 49/99/165 
f 62/104/166 61/103/167 57/105/168 58/106/169 
f 64/103/170 62/108/171 58/107/172 60/105/173 
f 63/111/174 64/112/175 60/109/176 59/110/177 
f 61/112/178 63/104/179 59/106/180 57/109/181 
f 68/115/182 66/116/183 65/113/184 67/114/185 
f 72/119/186 71/120/187 69/117/188 70/118/189 
f 70/123/190 69/124/191 65/121/192 66/122/193 
f 72/124/194 70/126/195 66/125/196 68/121/197 
f 71/129/198 72/130/199 68/127/200 67/128/201 
f 30/65/202 10/52/203 13/51/204 31/66/205 
f 29/12/206 32/11/207 11/62/208 12/61/209 
f 8/63/210 7/45/211 27/64/212 
# 50 polygons - 4 triangles

