# 3ds Max Wavefront OBJ Exporter v0.99 - (c)2007 guruware
# File Created: 25.03.2022 16:18:21

#
# object Seau
#

v  0.1762 0.0000 -0.0000
v  0.1525 0.0000 -0.0880
v  0.0880 0.0000 -0.1525
v  0.0000 0.0000 -0.1762
v  -0.0880 0.0000 -0.1525
v  -0.1525 0.0000 -0.0880
v  -0.1762 0.0000 -0.0000
v  -0.1525 0.0000 0.0880
v  -0.0880 0.0000 0.1525
v  0.0000 0.0000 0.1762
v  0.0880 0.0000 0.1525
v  0.1525 0.0000 0.0880
v  0.2405 0.4558 -0.0000
v  0.2083 0.4558 -0.1203
v  0.1203 0.4558 -0.2083
v  0.0000 0.4558 -0.2405
v  -0.1203 0.4558 -0.2083
v  -0.2083 0.4558 -0.1203
v  -0.2405 0.4558 -0.0000
v  -0.2083 0.4558 0.1203
v  -0.1203 0.4558 0.2083
v  0.0000 0.4558 0.2405
v  0.1203 0.4558 0.2083
v  0.2083 0.4558 0.1203
v  0.1622 0.1263 -0.0000
v  0.1405 0.1263 -0.0811
v  0.0811 0.1263 -0.1405
v  0.0000 0.1263 -0.1622
v  -0.0811 0.1263 -0.1405
v  -0.1405 0.1263 -0.0811
v  -0.1622 0.1263 -0.0000
v  -0.1405 0.1263 0.0811
v  -0.0811 0.1263 0.1405
v  0.0000 0.1263 0.1622
v  0.0811 0.1263 0.1405
v  0.1405 0.1263 0.0811
v  0.1181 0.4129 -0.2044
v  0.2044 0.4129 -0.1181
v  0.2360 0.4129 -0.0000
v  0.2044 0.4129 0.1181
v  0.1181 0.4129 0.2044
v  0.0000 0.4129 0.2360
v  -0.1181 0.4129 0.2044
v  -0.2044 0.4129 0.1181
v  -0.2360 0.4129 -0.0000
v  -0.2044 0.4129 -0.1181
v  -0.1181 0.4129 -0.2044
v  0.0000 0.4129 -0.2360
v  0.1147 0.3494 -0.1987
v  0.1987 0.3494 -0.1147
v  0.2296 0.3494 -0.0000
v  0.1987 0.3494 0.1147
v  0.1147 0.3494 0.1987
v  0.0000 0.3494 0.2296
v  -0.1147 0.3494 0.1987
v  -0.1987 0.3494 0.1147
v  -0.2296 0.3494 -0.0000
v  -0.1987 0.3494 -0.1147
v  -0.1147 0.3494 -0.1987
v  0.0000 0.3494 -0.2296
v  0.2268 0.4558 -0.1309
v  0.2620 0.4558 -0.0000
v  0.2268 0.4558 0.1309
v  0.1309 0.4558 0.2268
v  0.0000 0.4558 0.2620
v  -0.1309 0.4558 0.2268
v  -0.2268 0.4558 0.1309
v  -0.2620 0.4558 -0.0000
v  -0.2268 0.4558 -0.1309
v  -0.1309 0.4558 -0.2268
v  0.0000 0.4558 -0.2620
v  0.1309 0.4558 -0.2268
v  0.2572 0.4129 -0.0000
v  0.2226 0.4129 -0.1286
v  0.1286 0.4129 -0.2226
v  0.0000 0.4129 -0.2572
v  0.0000 0.3494 -0.2501
v  -0.1250 0.3494 -0.2165
v  -0.1286 0.4129 -0.2226
v  -0.2226 0.4129 -0.1286
v  -0.2572 0.4129 -0.0000
v  -0.2226 0.4129 0.1286
v  -0.1286 0.4129 0.2226
v  0.0000 0.4129 0.2572
v  0.0000 0.3494 0.2501
v  0.1250 0.3494 0.2165
v  0.1286 0.4129 0.2226
v  0.2226 0.4129 0.1286
v  0.1317 0.2737 0.2451
v  0.1179 0.2714 0.2174
v  0.0922 0.2533 0.2382
v  0.1958 0.1457 0.1873
v  0.1767 0.1563 0.1656
v  0.1559 0.1320 0.1833
v  0.2149 0.0957 0.1298
v  0.1935 0.1121 0.1147
v  0.1739 0.0845 0.1287
v  0.1741 0.0763 -0.1648
v  0.1576 0.0950 -0.1466
v  0.1355 0.0660 -0.1513
v  0.1389 0.1190 -0.2214
v  0.1263 0.1327 -0.1969
v  0.1019 0.1067 -0.2051
v  0.0395 0.2732 -0.2749
v  0.0359 0.2717 -0.2442
v  0.0059 0.2538 -0.2555
v  0.0427 0.4043 0.2490
v  0.0389 0.4035 0.2421
v  0.0321 0.3986 0.2472
v  -0.0455 0.4043 -0.2481
v  -0.0547 0.3986 -0.2427
v  -0.0464 0.4035 -0.2404
v  0.0563 0.4110 0.2592
v  0.0103 0.3859 0.2510
v  0.0410 0.4058 0.2313
v  -0.0762 0.3861 -0.2390
v  -0.0364 0.4109 -0.2623
v  -0.0409 0.4058 -0.2310
v  0.1656 0.0450 -0.0493
v  0.1759 0.0498 0.0251
v  0.2168 0.0601 0.0227
v  0.2054 0.0547 -0.0594
v  0.1953 0.0819 0.0242
v  0.1841 0.0766 -0.0575
# 124 vertices

vn 0.8561 -0.1510 -0.4943
vn 0.8572 -0.1423 -0.4949
vn 0.9898 -0.1423 -0.0000
vn 0.9885 -0.1510 -0.0000
vn 0.4943 -0.1510 -0.8561
vn 0.4949 -0.1423 -0.8572
vn 0.8572 -0.1423 -0.4949
vn 0.8561 -0.1510 -0.4943
vn 0.0000 -0.1510 -0.9885
vn 0.0260 -0.1462 -0.9889
vn 0.4949 -0.1423 -0.8572
vn 0.4943 -0.1510 -0.8561
vn -0.4943 -0.1510 -0.8561
vn -0.5170 -0.1462 -0.8434
vn 0.0260 -0.1462 -0.9889
vn 0.0000 -0.1510 -0.9885
vn -0.8561 -0.1510 -0.4943
vn -0.8572 -0.1423 -0.4949
vn -0.5170 -0.1462 -0.8434
vn -0.4943 -0.1510 -0.8561
vn -0.9885 -0.1510 -0.0000
vn -0.9898 -0.1423 -0.0000
vn -0.8572 -0.1423 -0.4949
vn -0.8561 -0.1510 -0.4943
vn -0.8561 -0.1510 0.4943
vn -0.8572 -0.1423 0.4949
vn -0.9898 -0.1423 -0.0000
vn -0.9885 -0.1510 -0.0000
vn -0.4943 -0.1510 0.8561
vn -0.4949 -0.1423 0.8572
vn -0.8572 -0.1423 0.4949
vn -0.8561 -0.1510 0.4943
vn 0.0000 -0.1510 0.9885
vn -0.0260 -0.1462 0.9889
vn -0.4949 -0.1423 0.8572
vn -0.4943 -0.1510 0.8561
vn 0.4943 -0.1510 0.8561
vn 0.5170 -0.1462 0.8434
vn -0.0260 -0.1462 0.9889
vn 0.0000 -0.1510 0.9885
vn 0.8561 -0.1510 0.4943
vn 0.8572 -0.1423 0.4949
vn 0.5170 -0.1462 0.8434
vn 0.4943 -0.1510 0.8561
vn 0.9885 -0.1510 -0.0000
vn 0.9898 -0.1423 -0.0000
vn 0.8572 -0.1423 0.4949
vn 0.8561 -0.1510 0.4943
vn 0.0000 1.0000 -0.0000
vn 0.0000 1.0000 -0.0000
vn 0.0000 1.0000 -0.0000
vn 0.0000 1.0000 -0.0000
vn 0.0000 1.0000 -0.0000
vn 0.0000 1.0000 -0.0000
vn 0.0000 1.0000 -0.0000
vn 0.0000 1.0000 -0.0000
vn 0.0000 1.0000 -0.0000
vn 0.0000 1.0000 -0.0000
vn 0.0000 1.0000 -0.0000
vn 0.0000 1.0000 -0.0000
vn -0.9730 0.2310 -0.0000
vn -0.8426 0.2310 0.4865
vn -0.8426 0.2310 0.4865
vn -0.9730 0.2310 -0.0000
vn -0.8426 0.2310 0.4865
vn -0.4865 0.2310 0.8426
vn -0.4865 0.2310 0.8426
vn -0.8426 0.2310 0.4865
vn -0.4865 0.2310 0.8426
vn 0.0000 0.2310 0.9730
vn 0.0000 0.2310 0.9730
vn -0.4865 0.2310 0.8426
vn 0.0000 0.2310 0.9730
vn 0.4865 0.2310 0.8426
vn 0.4865 0.2310 0.8426
vn 0.0000 0.2310 0.9730
vn 0.4865 0.2310 0.8426
vn 0.8426 0.2310 0.4865
vn 0.8426 0.2310 0.4865
vn 0.4865 0.2310 0.8426
vn 0.8426 0.2310 0.4865
vn 0.9730 0.2310 -0.0000
vn 0.9730 0.2310 -0.0000
vn 0.8426 0.2310 0.4865
vn 0.9730 0.2310 -0.0000
vn 0.8426 0.2310 -0.4865
vn 0.8426 0.2310 -0.4865
vn 0.9730 0.2310 -0.0000
vn 0.8426 0.2310 -0.4865
vn 0.4865 0.2310 -0.8426
vn 0.4865 0.2310 -0.8426
vn 0.8426 0.2310 -0.4865
vn 0.4865 0.2310 -0.8426
vn 0.0000 0.2310 -0.9730
vn 0.0000 0.2310 -0.9730
vn 0.4865 0.2310 -0.8426
vn 0.0000 0.2310 -0.9730
vn -0.4865 0.2310 -0.8426
vn -0.4865 0.2310 -0.8426
vn 0.0000 0.2310 -0.9730
vn -0.4865 0.2310 -0.8426
vn -0.8426 0.2310 -0.4865
vn -0.8426 0.2310 -0.4865
vn -0.4865 0.2310 -0.8426
vn -0.8426 0.2310 -0.4865
vn -0.9730 0.2310 -0.0000
vn -0.9730 0.2310 -0.0000
vn -0.8426 0.2310 -0.4865
vn 0.8607 -0.1112 -0.4969
vn 0.9938 -0.1112 -0.0000
vn 0.9938 -0.1112 -0.0000
vn 0.8607 -0.1112 -0.4969
vn 0.4969 -0.1112 -0.8607
vn 0.8607 -0.1112 -0.4969
vn 0.8607 -0.1112 -0.4969
vn 0.4969 -0.1112 -0.8607
vn -0.1111 -0.1105 -0.9876
vn 0.4969 -0.1112 -0.8607
vn 0.4969 -0.1112 -0.8607
vn -0.1720 -0.1096 -0.9790
vn -0.3976 -0.1105 -0.9109
vn -0.1111 -0.1105 -0.9876
vn -0.1720 -0.1096 -0.9790
vn -0.3406 -0.1096 -0.9338
vn -0.8607 -0.1112 -0.4969
vn -0.3976 -0.1105 -0.9109
vn -0.3406 -0.1096 -0.9338
vn -0.8607 -0.1112 -0.4969
vn -0.9938 -0.1112 -0.0000
vn -0.8607 -0.1112 -0.4969
vn -0.8607 -0.1112 -0.4969
vn -0.9938 -0.1112 -0.0000
vn -0.8607 -0.1112 0.4969
vn -0.9938 -0.1112 -0.0000
vn -0.9938 -0.1112 -0.0000
vn -0.8607 -0.1112 0.4969
vn -0.4969 -0.1112 0.8607
vn -0.8607 -0.1112 0.4969
vn -0.8607 -0.1112 0.4969
vn -0.4969 -0.1112 0.8607
vn 0.1111 -0.1105 0.9876
vn -0.4969 -0.1112 0.8607
vn -0.4969 -0.1112 0.8607
vn 0.1720 -0.1096 0.9790
vn 0.3976 -0.1105 0.9109
vn 0.1111 -0.1105 0.9876
vn 0.1720 -0.1096 0.9790
vn 0.3406 -0.1096 0.9338
vn 0.8607 -0.1112 0.4969
vn 0.3976 -0.1105 0.9109
vn 0.3406 -0.1096 0.9338
vn 0.8607 -0.1112 0.4969
vn 0.9938 -0.1112 -0.0000
vn 0.8607 -0.1112 0.4969
vn 0.8607 -0.1112 0.4969
vn 0.9938 -0.1112 -0.0000
vn 0.8615 -0.1022 -0.4974
vn 0.9948 -0.1022 -0.0000
vn 0.9898 -0.1423 -0.0000
vn 0.8572 -0.1423 -0.4949
vn 0.4974 -0.1022 -0.8615
vn 0.8615 -0.1022 -0.4974
vn 0.8572 -0.1423 -0.4949
vn 0.4949 -0.1423 -0.8572
vn 0.2576 -0.0988 -0.9612
vn 0.4974 -0.1022 -0.8615
vn 0.4949 -0.1423 -0.8572
vn 0.0260 -0.1462 -0.9889
vn -0.3406 -0.1096 -0.9338
vn -0.1720 -0.1096 -0.9790
vn -0.2573 -0.1075 -0.9603
vn -0.2573 -0.1075 -0.9603
vn -0.8615 -0.1022 -0.4974
vn -0.7036 -0.0988 -0.7036
vn -0.5170 -0.1462 -0.8434
vn -0.8572 -0.1423 -0.4949
vn -0.9948 -0.1022 -0.0000
vn -0.8615 -0.1022 -0.4974
vn -0.8572 -0.1423 -0.4949
vn -0.9898 -0.1423 -0.0000
vn -0.8615 -0.1022 0.4974
vn -0.9948 -0.1022 -0.0000
vn -0.9898 -0.1423 -0.0000
vn -0.8572 -0.1423 0.4949
vn -0.4974 -0.1022 0.8615
vn -0.8615 -0.1022 0.4974
vn -0.8572 -0.1423 0.4949
vn -0.4949 -0.1423 0.8572
vn -0.2576 -0.0988 0.9612
vn -0.4974 -0.1022 0.8615
vn -0.4949 -0.1423 0.8572
vn -0.0260 -0.1462 0.9889
vn 0.3406 -0.1096 0.9338
vn 0.1720 -0.1096 0.9790
vn 0.2573 -0.1075 0.9603
vn 0.2573 -0.1075 0.9603
vn 0.8615 -0.1022 0.4974
vn 0.7036 -0.0988 0.7037
vn 0.5170 -0.1462 0.8434
vn 0.8572 -0.1423 0.4949
vn 0.9948 -0.1022 -0.0000
vn 0.8615 -0.1022 0.4974
vn 0.8572 -0.1423 0.4949
vn 0.9898 -0.1423 -0.0000
vn 0.0000 1.0000 -0.0000
vn 0.0000 1.0000 -0.0000
vn 0.0000 1.0000 -0.0000
vn 0.0000 1.0000 -0.0000
vn 0.0000 1.0000 -0.0000
vn 0.0000 1.0000 -0.0000
vn 0.0000 1.0000 -0.0000
vn 0.0000 1.0000 -0.0000
vn 0.0000 1.0000 -0.0000
vn 0.0000 1.0000 -0.0000
vn 0.0000 1.0000 -0.0000
vn 0.0000 1.0000 -0.0000
vn 0.0000 1.0000 -0.0000
vn 0.0000 1.0000 -0.0000
vn 0.0000 1.0000 -0.0000
vn 0.0000 1.0000 -0.0000
vn 0.0000 1.0000 -0.0000
vn 0.0000 1.0000 -0.0000
vn 0.0000 1.0000 -0.0000
vn 0.0000 1.0000 -0.0000
vn 0.0000 1.0000 -0.0000
vn 0.0000 1.0000 -0.0000
vn 0.0000 1.0000 -0.0000
vn 0.0000 1.0000 -0.0000
vn 0.0000 1.0000 -0.0000
vn 0.0000 1.0000 -0.0000
vn 0.0000 1.0000 -0.0000
vn 0.0000 1.0000 -0.0000
vn 0.0000 1.0000 -0.0000
vn 0.0000 1.0000 -0.0000
vn 0.0000 1.0000 -0.0000
vn 0.0000 1.0000 -0.0000
vn 0.0000 1.0000 -0.0000
vn 0.0000 1.0000 -0.0000
vn 0.0000 1.0000 -0.0000
vn 0.0000 1.0000 -0.0000
vn 0.0000 1.0000 -0.0000
vn 0.0000 1.0000 -0.0000
vn 0.0000 1.0000 -0.0000
vn 0.0000 1.0000 -0.0000
vn 0.0000 1.0000 -0.0000
vn 0.0000 1.0000 -0.0000
vn 0.0000 1.0000 -0.0000
vn 0.0000 1.0000 -0.0000
vn 0.0000 1.0000 -0.0000
vn 0.0000 1.0000 -0.0000
vn 0.0000 1.0000 -0.0000
vn 0.0000 1.0000 -0.0000
vn 1.0000 0.0000 -0.0000
vn 1.0000 0.0000 -0.0000
vn 1.0000 0.0000 -0.0000
vn 1.0000 0.0000 -0.0000
vn -0.8660 0.0000 0.5000
vn -0.8660 0.0000 0.5000
vn -0.8660 0.0000 0.5000
vn -0.8660 0.0000 0.5000
vn -0.0998 -0.6887 0.7181
vn 0.8853 -0.0999 0.4542
vn 0.7200 0.2593 0.6437
vn -0.2632 -0.3284 0.9071
vn 0.6460 0.6260 -0.4368
vn 0.7084 0.4885 -0.5095
vn 0.7084 0.4885 -0.5095
vn 0.6460 0.6260 -0.4368
vn -0.4859 0.4878 -0.7252
vn -0.2818 0.0417 -0.9586
vn -0.2818 0.0417 -0.9586
vn -0.4859 0.4878 -0.7252
vn 0.9282 -0.2531 0.2726
vn 0.8853 -0.0999 0.4542
vn -0.0998 -0.6887 0.7181
vn -0.0570 -0.8419 0.5366
vn 0.6460 0.6260 -0.4368
vn 0.6297 0.6844 -0.3675
vn 0.6296 0.6845 -0.3675
vn 0.6460 0.6260 -0.4368
vn -0.4859 0.4878 -0.7252
vn -0.5390 0.6774 -0.5006
vn -0.5390 0.6774 -0.5006
vn -0.4859 0.4878 -0.7252
vn 0.8975 -0.4036 -0.1780
vn 0.9282 -0.2531 0.2726
vn -0.0570 -0.8419 0.5366
vn -0.0877 -0.9924 0.0860
vn 0.6296 0.6845 -0.3675
vn 0.6297 0.6844 -0.3675
vn 0.6414 0.7419 -0.1957
vn 0.6414 0.7419 -0.1957
vn -0.5009 0.8636 0.0569
vn -0.5009 0.8636 0.0569
vn -0.5390 0.6774 -0.5006
vn -0.5390 0.6774 -0.5006
vn -0.2592 -0.9006 -0.3489
vn 0.7261 -0.3117 -0.6129
vn 0.8975 -0.4036 -0.1780
vn -0.0877 -0.9924 0.0860
vn 0.6414 0.7419 -0.1957
vn 0.6414 0.7419 -0.1957
vn 0.7068 0.7068 -0.0298
vn 0.7068 0.7068 -0.0298
vn -0.2888 0.7500 0.5950
vn -0.5009 0.8636 0.0569
vn -0.5009 0.8636 0.0569
vn -0.2888 0.7500 0.5950
vn 0.6049 -0.1819 -0.7752
vn 0.7261 -0.3117 -0.6129
vn -0.2592 -0.9006 -0.3489
vn -0.3803 -0.7707 -0.5113
vn 0.7068 0.7068 -0.0298
vn 0.7530 0.6573 0.0321
vn 0.7529 0.6573 0.0321
vn 0.7068 0.7068 -0.0298
vn -0.2888 0.7500 0.5950
vn -0.1390 0.5893 0.7959
vn -0.1390 0.5893 0.7959
vn -0.2888 0.7500 0.5950
vn 0.3206 0.2268 -0.9197
vn 0.6049 -0.1819 -0.7752
vn -0.3803 -0.7707 -0.5113
vn -0.6627 -0.3609 -0.6562
vn 0.8617 0.4997 0.0877
vn 0.8610 0.5009 0.0878
vn 0.7529 0.6573 0.0321
vn 0.7530 0.6573 0.0321
vn 0.2132 0.0799 0.9737
vn -0.1390 0.5893 0.7959
vn -0.1390 0.5893 0.7959
vn 0.2132 0.0799 0.9737
vn 0.7004 0.2933 0.6507
vn -0.2812 -0.2933 0.9137
vn -0.2632 -0.3284 0.9071
vn 0.7200 0.2593 0.6437
vn 0.7152 0.4754 -0.5124
vn 0.7084 0.4885 -0.5095
vn 0.7084 0.4885 -0.5095
vn 0.7152 0.4754 -0.5124
vn -0.2818 0.0417 -0.9586
vn -0.2818 0.0417 -0.9586
vn -0.2588 0.0000 -0.9659
vn -0.2588 0.0000 -0.9659
vn -0.6627 -0.3609 -0.6562
vn -0.7004 -0.2933 -0.6507
vn 0.2812 0.2933 -0.9137
vn 0.3206 0.2268 -0.9197
vn 0.2132 0.0799 0.9737
vn 0.2132 0.0799 0.9737
vn 0.2588 0.0000 0.9659
vn 0.2588 0.0000 0.9659
vn 0.8755 0.4754 0.0861
vn 0.8755 0.4754 0.0861
vn 0.8610 0.5009 0.0878
vn 0.8617 0.4997 0.0877
vn -0.4890 0.8661 0.1042
vn -0.4922 0.8649 0.0983
vn -0.4926 0.8646 0.0989
vn -0.4890 0.8659 0.1049
vn -0.4922 0.8649 0.0983
vn -0.4934 0.8625 0.1123
vn -0.4935 0.8625 0.1122
vn -0.4926 0.8646 0.0989
vn -0.4934 0.8625 0.1123
vn -0.4890 0.8661 0.1042
vn -0.4890 0.8659 0.1049
vn -0.4935 0.8625 0.1122
vn -0.4955 0.8651 0.0778
vn -0.4945 0.8662 0.0713
vn -0.4947 0.8662 0.0708
vn -0.4959 0.8649 0.0775
vn -0.4945 0.8662 0.0713
vn -0.5005 0.8631 0.0670
vn -0.5006 0.8631 0.0672
vn -0.4947 0.8662 0.0708
vn -0.5005 0.8631 0.0670
vn -0.4955 0.8651 0.0778
vn -0.4959 0.8649 0.0775
vn -0.5006 0.8631 0.0672
vn 0.8653 -0.0004 -0.5013
vn 0.8653 -0.0004 -0.5013
vn 0.8653 -0.0004 -0.5013
vn 0.8653 -0.0004 -0.5013
vn -1.0000 0.0000 -0.0000
vn -1.0000 0.0000 -0.0000
vn -1.0000 0.0000 -0.0000
vn -1.0000 0.0000 -0.0000
vn 0.2456 -0.9689 0.0294
vn 0.2456 -0.9689 0.0294
vn 0.2456 -0.9689 0.0294
vn 0.2456 -0.9689 0.0294
vn 0.7008 0.6989 -0.1431
vn 0.7008 0.6989 -0.1431
vn 0.7008 0.6989 -0.1431
vn 0.7008 0.6989 -0.1431
vn -0.8516 0.5175 0.0840
vn -0.8516 0.5175 0.0840
vn -0.8516 0.5175 0.0840
vn -0.8516 0.5175 0.0840
# 400 vertex normals

vt 0.8232 0.5000 0.0000
vt 0.8232 0.4063 0.0000
vt 0.8509 0.4063 0.0000
vt 0.8509 0.5000 0.0000
vt 0.8786 0.4063 0.0000
vt 0.8786 0.5000 0.0000
vt 0.9063 0.4063 0.0000
vt 0.9063 0.5000 0.0000
vt 0.5781 0.5000 0.0000
vt 0.5781 0.4063 0.0000
vt 0.6039 0.4063 0.0000
vt 0.6039 0.5000 0.0000
vt 0.6315 0.4063 0.0000
vt 0.6315 0.5000 0.0000
vt 0.6592 0.4063 0.0000
vt 0.6592 0.5000 0.0000
vt 0.6869 0.4063 0.0000
vt 0.6869 0.5000 0.0000
vt 0.7145 0.4063 0.0000
vt 0.7145 0.5000 0.0000
vt 0.7422 0.4063 0.0000
vt 0.7422 0.5000 0.0000
vt 0.7679 0.4063 0.0000
vt 0.7679 0.5000 0.0000
vt 0.7956 0.4063 0.0000
vt 0.7956 0.5000 0.0000
vt 0.5956 0.6665 0.0000
vt 0.6115 0.6802 0.0000
vt 0.6186 0.7000 0.0000
vt 0.6147 0.7207 0.0000
vt 0.6011 0.7365 0.0000
vt 0.5812 0.7436 0.0000
vt 0.5606 0.7397 0.0000
vt 0.5447 0.7261 0.0000
vt 0.5377 0.7063 0.0000
vt 0.5415 0.6857 0.0000
vt 0.5552 0.6697 0.0000
vt 0.5749 0.6627 0.0000
vt 0.8490 0.6563 0.0000
vt 0.8750 0.6563 0.0000
vt 0.8750 0.7500 0.0000
vt 0.8490 0.7500 0.0000
vt 0.8229 0.6563 0.0000
vt 0.8229 0.7500 0.0000
vt 0.7969 0.6563 0.0000
vt 0.7969 0.7500 0.0000
vt 0.7708 0.6563 0.0000
vt 0.7708 0.7500 0.0000
vt 0.7448 0.6563 0.0000
vt 0.7448 0.7500 0.0000
vt 0.7188 0.6563 0.0000
vt 0.7188 0.7500 0.0000
vt 0.6927 0.6563 0.0000
vt 0.6927 0.7500 0.0000
vt 0.6667 0.6563 0.0000
vt 0.6667 0.7500 0.0000
vt 0.6406 0.6563 0.0000
vt 0.6406 0.7500 0.0000
vt 0.9271 0.6563 0.0000
vt 0.9531 0.6563 0.0000
vt 0.9531 0.7500 0.0000
vt 0.9271 0.7500 0.0000
vt 0.9010 0.6563 0.0000
vt 0.9010 0.7500 0.0000
vt 0.6483 0.5655 0.0000
vt 0.6822 0.5655 0.0000
vt 0.6822 0.5781 0.0000
vt 0.6483 0.5781 0.0000
vt 0.7161 0.5655 0.0000
vt 0.7161 0.5781 0.0000
vt 0.7500 0.5655 0.0000
vt 0.7500 0.5781 0.0000
vt 0.7836 0.5655 0.0000
vt 0.7836 0.5781 0.0000
vt 0.8174 0.5655 0.0000
vt 0.8174 0.5781 0.0000
vt 0.8514 0.5655 0.0000
vt 0.8514 0.5781 0.0000
vt 0.8853 0.5655 0.0000
vt 0.8853 0.5781 0.0000
vt 0.9192 0.5655 0.0000
vt 0.9192 0.5781 0.0000
vt 0.9531 0.5655 0.0000
vt 0.9531 0.5781 0.0000
vt 0.5469 0.5655 0.0000
vt 0.5804 0.5655 0.0000
vt 0.5804 0.5781 0.0000
vt 0.5469 0.5781 0.0000
vt 0.6143 0.5655 0.0000
vt 0.6143 0.5781 0.0000
vt 0.8509 0.5156 0.0000
vt 0.8232 0.5156 0.0000
vt 0.8786 0.5156 0.0000
vt 0.9063 0.5156 0.0000
vt 0.7500 0.5469 0.0000
vt 0.7836 0.5469 0.0000
vt 0.6315 0.5156 0.0000
vt 0.6039 0.5156 0.0000
vt 0.6592 0.5156 0.0000
vt 0.6869 0.5156 0.0000
vt 0.7145 0.5156 0.0000
vt 0.7422 0.5156 0.0000
vt 0.5469 0.5469 0.0000
vt 0.5804 0.5469 0.0000
vt 0.7956 0.5156 0.0000
vt 0.7679 0.5156 0.0000
vt 0.6484 0.6094 0.0000
vt 0.6823 0.6094 0.0000
vt 0.6823 0.6250 0.0000
vt 0.6484 0.6250 0.0000
vt 0.6146 0.6094 0.0000
vt 0.6146 0.6250 0.0000
vt 0.5807 0.6094 0.0000
vt 0.5807 0.6250 0.0000
vt 0.5469 0.6094 0.0000
vt 0.5469 0.6250 0.0000
vt 0.9193 0.6094 0.0000
vt 0.9531 0.6094 0.0000
vt 0.9531 0.6250 0.0000
vt 0.9193 0.6250 0.0000
vt 0.8854 0.6094 0.0000
vt 0.8854 0.6250 0.0000
vt 0.8516 0.6094 0.0000
vt 0.8516 0.6250 0.0000
vt 0.8177 0.6094 0.0000
vt 0.8177 0.6250 0.0000
vt 0.7839 0.6094 0.0000
vt 0.7839 0.6250 0.0000
vt 0.7500 0.6094 0.0000
vt 0.7500 0.6250 0.0000
vt 0.7161 0.6094 0.0000
vt 0.7161 0.6250 0.0000
vt 0.8216 0.4448 0.0000
vt 0.8216 0.4539 0.0000
vt 0.8125 0.4539 0.0000
vt 0.8125 0.4448 0.0000
vt 0.8125 0.4448 0.0000
vt 0.8216 0.4448 0.0000
vt 0.8216 0.4539 0.0000
vt 0.8125 0.4539 0.0000
vt 0.8812 0.7846 0.0000
vt 0.8812 0.7969 0.0000
vt 0.8430 0.7969 0.0000
vt 0.8430 0.7846 0.0000
vt 0.8430 0.7761 0.0000
vt 0.8812 0.7761 0.0000
vt 0.8430 0.7656 0.0000
vt 0.8812 0.7656 0.0000
vt 0.8237 0.7969 0.0000
vt 0.8237 0.7846 0.0000
vt 0.8237 0.7761 0.0000
vt 0.8237 0.7656 0.0000
vt 0.7962 0.7969 0.0000
vt 0.7962 0.7846 0.0000
vt 0.7962 0.7761 0.0000
vt 0.7962 0.7656 0.0000
vt 0.7754 0.7846 0.0000
vt 0.7754 0.7969 0.0000
vt 0.7481 0.7969 0.0000
vt 0.7481 0.7846 0.0000
vt 0.7481 0.7761 0.0000
vt 0.7754 0.7761 0.0000
vt 0.7481 0.7656 0.0000
vt 0.7754 0.7656 0.0000
vt 0.7286 0.7969 0.0000
vt 0.7286 0.7846 0.0000
vt 0.7286 0.7761 0.0000
vt 0.7286 0.7656 0.0000
vt 0.6813 0.7969 0.0000
vt 0.6813 0.7846 0.0000
vt 0.6813 0.7761 0.0000
vt 0.6813 0.7656 0.0000
vt 0.9219 0.7846 0.0000
vt 0.9219 0.7969 0.0000
vt 0.9219 0.7761 0.0000
vt 0.9219 0.7656 0.0000
vt 0.6406 0.7846 0.0000
vt 0.6406 0.7969 0.0000
vt 0.6406 0.7761 0.0000
vt 0.6406 0.7656 0.0000
vt -0.3643 0.7555 0.0000
vt -0.3512 0.7577 0.0000
vt -0.3557 0.7589 0.0000
vt -0.3586 0.7583 0.0000
vt -0.3572 0.7630 0.0000
vt -0.3571 0.7603 0.0000
vt -0.3586 0.7656 0.0000
vt -0.3618 0.7529 0.0000
vt -0.3585 0.7582 0.0000
vt -0.3577 0.7612 0.0000
vt -0.3537 0.7593 0.0000
vt -0.3565 0.7597 0.0000
vt 0.8125 0.4448 0.0000
vt 0.8216 0.4448 0.0000
vt 0.8216 0.4539 0.0000
vt 0.8125 0.4539 0.0000
vt 0.8200 0.4494 0.0000
vt 0.8210 0.4375 0.0000
vt 0.8131 0.4493 0.0000
vt 0.8131 0.4613 0.0000
# 200 texture coords

o Seau
g Seau
s 1
f 2/3/1 50/4/2 51/1/3 1/2/4 
f 3/5/5 49/6/6 50/4/7 2/3/8 
f 4/7/9 60/8/10 49/6/11 3/5/12 
f 5/11/13 59/12/14 60/9/15 4/10/16 
f 6/13/17 58/14/18 59/12/19 5/11/20 
f 7/15/21 57/16/22 58/14/23 6/13/24 
f 8/17/25 56/18/26 57/16/27 7/15/28 
f 9/19/29 55/20/30 56/18/31 8/17/32 
f 10/21/33 54/22/34 55/20/35 9/19/36 
f 11/23/37 53/24/38 54/22/39 10/21/40 
f 12/25/41 52/26/42 53/24/43 11/23/44 
f 1/2/45 51/1/46 52/26/47 12/25/48 
f 27/35/49 28/36/50 29/37/51 30/38/52 31/27/53 32/28/54 33/29/55 34/30/56 35/31/57 36/32/58 25/33/59 26/34/60 
s 2
f 13/41/61 14/42/62 26/39/63 25/40/64 
f 14/42/65 15/44/66 27/43/67 26/39/68 
f 15/44/69 16/46/70 28/45/71 27/43/72 
f 16/46/73 17/48/74 29/47/75 28/45/76 
f 17/48/77 18/50/78 30/49/79 29/47/80 
f 18/50/81 19/52/82 31/51/83 30/49/84 
f 19/52/85 20/54/86 32/53/87 31/51/88 
f 20/54/89 21/56/90 33/55/91 32/53/92 
f 21/56/93 22/58/94 34/57/95 33/55/96 
f 22/61/97 23/62/98 35/59/99 34/60/100 
f 23/62/101 24/64/102 36/63/103 35/59/104 
f 24/64/105 13/41/106 25/40/107 36/63/108 
s 1
f 61/67/109 62/68/110 73/65/111 74/66/112 
f 72/70/113 61/67/114 74/66/115 75/69/116 
f 71/72/117 72/70/118 75/69/119 76/71/120 
f 70/74/121 71/72/122 76/71/123 79/73/124 
f 69/76/125 70/74/126 79/73/127 80/75/128 
f 68/78/129 69/76/130 80/75/131 81/77/132 
f 67/80/133 68/78/134 81/77/135 82/79/136 
f 66/82/137 67/80/138 82/79/139 83/81/140 
f 65/84/141 66/82/142 83/81/143 84/83/144 
f 64/87/145 65/88/146 84/85/147 87/86/148 
f 63/90/149 64/87/150 87/86/151 88/89/152 
f 62/68/153 63/90/154 88/89/155 73/65/156 
f 38/91/157 39/92/158 51/1/159 50/4/160 
f 37/93/161 38/91/162 50/4/163 49/6/164 
f 48/94/165 37/93/166 49/6/167 60/8/168 
f 79/73/169 76/71/170 77/95/171 78/96/172 
f 46/97/173 47/98/174 59/12/175 58/14/176 
f 45/99/177 46/97/178 58/14/179 57/16/180 
f 44/100/181 45/99/182 57/16/183 56/18/184 
f 43/101/185 44/100/186 56/18/187 55/20/188 
f 42/102/189 43/101/190 55/20/191 54/22/192 
f 87/86/193 84/85/194 85/103/195 86/104/196 
f 40/105/197 41/106/198 53/24/199 52/26/200 
f 39/92/201 40/105/202 52/26/203 51/1/204 
s 4
f 14/109/205 13/110/206 62/107/207 61/108/208 
f 13/110/209 24/112/210 63/111/211 62/107/212 
f 24/112/213 23/114/214 64/113/215 63/111/216 
f 23/114/217 22/116/218 65/115/219 64/113/220 
f 22/119/221 21/120/222 66/117/223 65/118/224 
f 21/120/225 20/122/226 67/121/227 66/117/228 
f 20/122/229 19/124/230 68/123/231 67/121/232 
f 19/124/233 18/126/234 69/125/235 68/123/236 
f 18/126/237 17/128/238 70/127/239 69/125/240 
f 17/128/241 16/130/242 71/129/243 70/127/244 
f 16/130/245 15/132/246 72/131/247 71/129/248 
f 15/132/249 14/109/250 61/108/251 72/131/252 
s 2
f 77/135/253 76/136/254 48/133/255 60/134/256 
f 78/139/257 59/140/258 47/137/259 79/138/260 
s 1
f 94/143/261 92/144/262 89/141/263 91/142/264 
s 2
f 93/145/265 90/146/266 89/141/267 92/144/268 
s 4
f 94/147/269 91/148/270 90/146/271 93/145/272 
s 1
f 95/150/273 92/144/274 94/143/275 97/149/276 
s 2
f 92/144/277 95/150/278 96/151/279 93/145/280 
s 4
f 93/145/281 96/151/282 97/152/283 94/147/284 
s 1
f 121/154/285 95/150/286 97/149/287 120/153/288 
s 2
f 96/151/289 95/150/290 121/154/291 123/155/292 
s 4
f 123/155/293 120/156/294 97/152/295 96/151/296 
s 1
f 100/159/297 98/160/298 122/157/299 119/158/300 
s 2
f 124/162/301 122/157/302 98/160/303 99/161/304 
s 4
f 100/163/305 119/164/306 124/162/307 99/161/308 
s 1
f 101/166/309 98/160/310 100/159/311 103/165/312 
s 2
f 98/160/313 101/166/314 102/167/315 99/161/316 
s 4
f 99/161/317 102/167/318 103/168/319 100/163/320 
s 1
f 104/170/321 101/166/322 103/165/323 106/169/324 
s 2
f 104/170/325 105/171/326 102/167/327 101/166/328 
s 4
f 106/172/329 103/168/330 102/167/331 105/171/332 
s 1
f 113/173/333 114/174/334 91/142/335 89/141/336 
s 2
f 113/173/337 89/141/338 90/146/339 115/175/340 
s 4
f 90/146/341 91/148/342 114/176/343 115/175/344 
s 1
f 106/169/345 116/178/346 117/177/347 104/170/348 
s 4
f 106/172/349 105/171/350 118/179/351 116/180/352 
s 2
f 117/177/353 118/179/354 105/171/355 104/170/356 
s 8
f 107/183/357 109/184/358 114/181/359 113/182/360 
f 109/184/361 108/186/362 115/185/363 114/181/364 
f 108/186/365 107/183/366 113/182/367 115/185/368 
f 111/189/369 110/190/370 117/187/371 116/188/372 
f 110/190/373 112/192/374 118/191/375 117/187/376 
f 112/192/377 111/189/378 116/188/379 118/191/380 
s 2
f 86/195/381 53/196/382 41/193/383 87/194/384 
f 42/199/385 54/200/386 85/197/387 84/198/388 
s 1
f 122/157/389 121/154/390 120/153/391 119/158/392 
s 2
f 124/162/393 123/155/394 121/154/395 122/157/396 
s 4
f 119/164/397 120/156/398 123/155/399 124/162/400 
# 98 polygons

