# 3ds Max Wavefront OBJ Exporter v0.99 - (c)2007 guruware
# File Created: 25.03.2022 16:51:29

#
# object Tronc_A
#

v  0.5092 0.4757 -2.0724
v  0.3699 0.8122 -2.0724
v  0.0335 0.9515 -2.0724
v  -0.3029 0.8122 -2.0724
v  -0.4422 0.4757 -2.0724
v  -0.3029 0.1393 -2.0724
v  0.0335 0.0000 -2.0724
v  0.3699 0.1393 -2.0724
v  0.5092 0.4757 1.7520
v  0.3699 0.8122 1.7520
v  0.0335 0.9515 1.7520
v  -0.3029 0.8122 1.7520
v  -0.4422 0.4757 1.7520
v  -0.3029 0.1393 1.7520
v  0.0335 0.0000 1.7520
v  0.3699 0.1393 1.7520
v  0.3502 0.7954 -0.1602
v  0.3473 0.7546 0.9053
v  0.3635 0.7858 -1.2257
v  0.4831 0.4745 -0.1602
v  0.5002 0.4557 -1.2257
v  0.4778 0.4395 0.9053
v  0.0293 0.9283 -0.1602
v  0.0323 0.8851 0.9053
v  0.0335 0.9225 -1.2257
v  -0.2916 0.7954 -0.1602
v  -0.2828 0.7546 0.9053
v  -0.2965 0.7858 -1.2257
v  -0.4245 0.4745 -0.1602
v  -0.4133 0.4395 0.9053
v  -0.4332 0.4557 -1.2257
v  -0.2916 0.1536 -0.1602
v  -0.2828 0.1245 0.9053
v  -0.2965 0.1257 -1.2257
v  0.0293 0.0207 -0.1602
v  0.0323 -0.0060 0.9053
v  0.0335 -0.0110 -1.2257
v  0.3502 0.1536 -0.1602
v  0.3473 0.1245 0.9053
v  0.3635 0.1257 -1.2257
v  0.2942 0.2150 1.7520
v  0.4022 0.4757 1.7520
v  0.2942 0.7365 1.7520
v  0.0335 0.8445 1.7520
v  -0.2272 0.7365 1.7520
v  -0.3352 0.4757 1.7520
v  -0.2272 0.2150 1.7520
v  0.0335 0.1070 1.7520
v  0.2942 0.2150 1.6737
v  0.4022 0.4757 1.6737
v  0.2942 0.7365 1.6737
v  0.0335 0.8445 1.6737
v  -0.2272 0.7365 1.6737
v  -0.3352 0.4757 1.6737
v  -0.2272 0.2150 1.6737
v  0.0335 0.1070 1.6737
v  0.3200 0.1892 -2.0724
v  0.0335 0.0706 -2.0724
v  -0.2530 0.1892 -2.0724
v  -0.3717 0.4757 -2.0724
v  -0.2530 0.7623 -2.0724
v  0.0335 0.8809 -2.0724
v  0.3200 0.7623 -2.0724
v  0.4387 0.4757 -2.0724
v  0.3200 0.1892 -2.0185
v  0.0335 0.0706 -2.0185
v  -0.2530 0.1892 -2.0185
v  -0.3717 0.4757 -2.0185
v  -0.2530 0.7623 -2.0185
v  0.0335 0.8809 -2.0185
v  0.3200 0.7623 -2.0185
v  0.4387 0.4757 -2.0185
# 72 vertices

vn 0.0000 0.0000 -1.0000
vn 0.0000 0.0000 -1.0000
vn 0.0000 0.0000 -1.0000
vn 0.0000 0.0000 -1.0000
vn 0.0000 0.0000 -1.0000
vn 0.0000 0.0000 -1.0000
vn 0.0000 0.0000 -1.0000
vn 0.0000 0.0000 -1.0000
vn 0.9238 0.3826 0.0135
vn 0.9238 0.3826 0.0135
vn 0.9238 0.3824 0.0189
vn 0.9238 0.3824 0.0189
vn 0.3827 0.9238 0.0123
vn 0.3827 0.9238 0.0123
vn 0.3824 0.9235 0.0317
vn 0.3824 0.9235 0.0316
vn -0.3824 0.9235 0.0317
vn -0.3827 0.9238 0.0106
vn -0.3827 0.9238 0.0107
vn -0.3824 0.9235 0.0316
vn -0.9238 0.3824 0.0189
vn -0.9239 0.3826 0.0089
vn -0.9239 0.3826 0.0090
vn -0.9238 0.3824 0.0189
vn -0.9239 -0.3826 0.0008
vn -0.9238 -0.3827 0.0076
vn -0.9238 -0.3827 0.0075
vn -0.9239 -0.3826 0.0008
vn -0.3826 -0.9239 -0.0120
vn -0.3827 -0.9238 0.0089
vn -0.3827 -0.9238 0.0089
vn -0.3826 -0.9239 -0.0119
vn 0.3827 -0.9238 0.0105
vn 0.3827 -0.9238 0.0106
vn 0.3826 -0.9239 -0.0120
vn 0.3826 -0.9239 -0.0119
vn 0.9238 -0.3827 0.0122
vn 0.9238 -0.3827 0.0123
vn 0.9239 -0.3826 0.0008
vn 0.9239 -0.3826 0.0008
vn 0.0000 0.0000 1.0000
vn 0.0000 0.0000 1.0000
vn 0.0000 0.0000 1.0000
vn 0.0000 0.0000 1.0000
vn 0.0000 0.0000 1.0000
vn 0.0000 0.0000 1.0000
vn 0.0000 0.0000 1.0000
vn 0.0000 0.0000 1.0000
vn 0.9228 0.3820 -0.0506
vn 0.9239 0.3826 0.0021
vn 0.9239 0.3826 0.0020
vn 0.9228 0.3820 -0.0506
vn 0.3816 0.9215 -0.0729
vn 0.3827 0.9238 -0.0129
vn 0.3827 0.9238 -0.0129
vn 0.3816 0.9215 -0.0728
vn -0.3816 0.9215 -0.0718
vn -0.3816 0.9215 -0.0717
vn -0.3826 0.9238 -0.0113
vn -0.3826 0.9238 -0.0111
vn -0.9229 0.3821 -0.0478
vn -0.9229 0.3821 -0.0479
vn -0.9239 0.3826 -0.0095
vn -0.9239 0.3826 -0.0092
vn -0.9238 -0.3825 -0.0152
vn -0.9238 -0.3825 -0.0152
vn -0.9238 -0.3827 -0.0090
vn -0.9238 -0.3827 -0.0090
vn -0.3826 -0.9239 0.0071
vn -0.3826 -0.9239 0.0071
vn -0.3826 -0.9239 -0.0089
vn -0.3826 -0.9239 -0.0089
vn 0.3826 -0.9239 0.0060
vn 0.3827 -0.9238 -0.0106
vn 0.3827 -0.9238 -0.0106
vn 0.3826 -0.9239 0.0059
vn 0.9238 -0.3825 -0.0180
vn 0.9238 -0.3827 -0.0130
vn 0.9238 -0.3827 -0.0129
vn 0.9238 -0.3825 -0.0179
vn 0.9238 0.3826 0.0135
vn 0.9238 0.3826 0.0126
vn 0.9238 0.3826 0.0126
vn 0.9238 0.3826 0.0135
vn 0.3827 0.9238 0.0123
vn 0.3826 0.9238 0.0161
vn 0.3826 0.9238 0.0162
vn 0.3827 0.9238 0.0123
vn -0.3827 0.9238 0.0106
vn -0.3826 0.9238 0.0157
vn -0.3826 0.9238 0.0156
vn -0.3827 0.9238 0.0107
vn -0.9239 0.3826 0.0090
vn -0.9239 0.3826 0.0089
vn -0.9238 0.3826 0.0114
vn -0.9238 0.3826 0.0113
vn -0.9238 -0.3827 0.0075
vn -0.9238 -0.3827 0.0076
vn -0.9239 -0.3826 0.0058
vn -0.9239 -0.3826 0.0059
vn -0.3827 -0.9238 0.0089
vn -0.3827 -0.9238 0.0089
vn -0.3826 -0.9239 0.0023
vn -0.3826 -0.9239 0.0023
vn 0.3827 -0.9238 0.0105
vn 0.3826 -0.9239 0.0028
vn 0.3826 -0.9239 0.0027
vn 0.3827 -0.9238 0.0106
vn 0.9238 -0.3827 0.0122
vn 0.9239 -0.3826 0.0028
vn 0.9239 -0.3826 0.0027
vn 0.9238 -0.3827 0.0123
vn 0.9239 0.3826 0.0020
vn 0.9239 0.3826 0.0021
vn 0.9238 0.3826 0.0126
vn 0.9238 0.3826 0.0126
vn 0.3827 0.9238 -0.0129
vn 0.3827 0.9238 -0.0129
vn 0.3826 0.9238 0.0162
vn 0.3826 0.9238 0.0161
vn -0.3826 0.9238 -0.0113
vn -0.3826 0.9238 0.0156
vn -0.3826 0.9238 0.0157
vn -0.3826 0.9238 -0.0111
vn -0.9239 0.3826 -0.0095
vn -0.9238 0.3826 0.0113
vn -0.9238 0.3826 0.0114
vn -0.9239 0.3826 -0.0092
vn -0.9238 -0.3827 -0.0090
vn -0.9239 -0.3826 0.0059
vn -0.9239 -0.3826 0.0058
vn -0.9238 -0.3827 -0.0090
vn -0.3826 -0.9239 -0.0089
vn -0.3826 -0.9239 0.0023
vn -0.3826 -0.9239 0.0023
vn -0.3826 -0.9239 -0.0089
vn 0.3827 -0.9238 -0.0106
vn 0.3827 -0.9238 -0.0106
vn 0.3826 -0.9239 0.0027
vn 0.3826 -0.9239 0.0028
vn 0.9238 -0.3827 -0.0129
vn 0.9238 -0.3827 -0.0130
vn 0.9239 -0.3826 0.0027
vn 0.9239 -0.3826 0.0028
vn 0.0000 0.0000 1.0000
vn 0.0000 0.0000 1.0000
vn 0.0000 0.0000 1.0000
vn 0.0000 0.0000 1.0000
vn 0.0000 0.0000 1.0000
vn 0.0000 0.0000 1.0000
vn 0.0000 0.0000 1.0000
vn 0.0000 0.0000 1.0000
vn 0.0000 0.0000 1.0000
vn 0.0000 0.0000 1.0000
vn 0.0000 0.0000 1.0000
vn 0.0000 0.0000 1.0000
vn 0.0000 0.0000 1.0000
vn 0.0000 0.0000 1.0000
vn 0.0000 0.0000 1.0000
vn 0.0000 0.0000 1.0000
vn 0.0000 0.0000 1.0000
vn 0.0000 0.0000 1.0000
vn 0.0000 0.0000 1.0000
vn 0.0000 0.0000 1.0000
vn 0.0000 0.0000 1.0000
vn 0.0000 0.0000 1.0000
vn 0.0000 0.0000 1.0000
vn 0.0000 0.0000 1.0000
vn 0.0000 0.0000 1.0000
vn 0.0000 0.0000 1.0000
vn 0.0000 0.0000 1.0000
vn 0.0000 0.0000 1.0000
vn 0.0000 0.0000 1.0000
vn 0.0000 0.0000 1.0000
vn 0.0000 0.0000 1.0000
vn 0.0000 0.0000 1.0000
vn -0.9239 0.3827 -0.0000
vn -0.9239 0.3827 -0.0000
vn -0.9239 0.3827 -0.0000
vn -0.9239 0.3827 -0.0000
vn -0.9239 -0.3826 -0.0000
vn -0.9239 -0.3826 -0.0000
vn -0.9239 -0.3826 -0.0000
vn -0.9239 -0.3826 -0.0000
vn -0.3827 -0.9239 -0.0000
vn -0.3827 -0.9239 -0.0000
vn -0.3827 -0.9239 -0.0000
vn -0.3827 -0.9239 -0.0000
vn 0.3827 -0.9239 -0.0000
vn 0.3827 -0.9239 -0.0000
vn 0.3827 -0.9239 -0.0000
vn 0.3827 -0.9239 -0.0000
vn 0.9239 -0.3826 -0.0000
vn 0.9239 -0.3826 -0.0000
vn 0.9239 -0.3826 -0.0000
vn 0.9239 -0.3826 -0.0000
vn 0.9239 0.3827 -0.0000
vn 0.9239 0.3827 -0.0000
vn 0.9239 0.3827 -0.0000
vn 0.9239 0.3827 -0.0000
vn 0.3827 0.9239 -0.0000
vn 0.3827 0.9239 -0.0000
vn 0.3827 0.9239 -0.0000
vn 0.3827 0.9239 -0.0000
vn -0.3827 0.9239 -0.0000
vn -0.3827 0.9239 -0.0000
vn -0.3827 0.9239 -0.0000
vn -0.3827 0.9239 -0.0000
vn 0.0000 0.0000 -1.0000
vn 0.0000 0.0000 -1.0000
vn 0.0000 0.0000 -1.0000
vn 0.0000 0.0000 -1.0000
vn 0.0000 0.0000 -1.0000
vn 0.0000 0.0000 -1.0000
vn 0.0000 0.0000 -1.0000
vn 0.0000 0.0000 -1.0000
vn 0.0000 0.0000 -1.0000
vn 0.0000 0.0000 -1.0000
vn 0.0000 0.0000 -1.0000
vn 0.0000 0.0000 -1.0000
vn 0.0000 0.0000 -1.0000
vn 0.0000 0.0000 -1.0000
vn 0.0000 0.0000 -1.0000
vn 0.0000 0.0000 -1.0000
vn 0.0000 0.0000 -1.0000
vn 0.0000 0.0000 -1.0000
vn 0.0000 0.0000 -1.0000
vn 0.0000 0.0000 -1.0000
vn 0.0000 0.0000 -1.0000
vn 0.0000 0.0000 -1.0000
vn 0.0000 0.0000 -1.0000
vn 0.0000 0.0000 -1.0000
vn 0.0000 0.0000 -1.0000
vn 0.0000 0.0000 -1.0000
vn 0.0000 0.0000 -1.0000
vn 0.0000 0.0000 -1.0000
vn 0.0000 0.0000 -1.0000
vn 0.0000 0.0000 -1.0000
vn 0.0000 0.0000 -1.0000
vn 0.0000 0.0000 -1.0000
vn -0.3825 0.9240 -0.0000
vn -0.3825 0.9240 -0.0000
vn -0.3825 0.9240 -0.0000
vn -0.3825 0.9240 -0.0000
vn 0.3825 0.9240 -0.0000
vn 0.3825 0.9240 -0.0000
vn 0.3825 0.9240 -0.0000
vn 0.3825 0.9240 -0.0000
vn 0.9238 0.3828 -0.0000
vn 0.9238 0.3828 -0.0000
vn 0.9238 0.3828 -0.0000
vn 0.9238 0.3828 -0.0000
vn 0.9239 -0.3826 -0.0000
vn 0.9239 -0.3826 -0.0000
vn 0.9239 -0.3826 -0.0000
vn 0.9239 -0.3826 -0.0000
vn 0.3825 -0.9240 -0.0000
vn 0.3825 -0.9240 -0.0000
vn 0.3825 -0.9240 -0.0000
vn 0.3825 -0.9240 -0.0000
vn -0.3825 -0.9240 -0.0000
vn -0.3825 -0.9240 -0.0000
vn -0.3825 -0.9240 -0.0000
vn -0.3825 -0.9240 -0.0000
vn -0.9239 -0.3826 -0.0000
vn -0.9239 -0.3826 -0.0000
vn -0.9239 -0.3826 -0.0000
vn -0.9239 -0.3826 -0.0000
vn -0.9238 0.3828 -0.0000
vn -0.9238 0.3828 -0.0000
vn -0.9238 0.3828 -0.0000
vn -0.9238 0.3828 -0.0000
# 272 vertex normals

vt 0.7816 0.1020 0.0000
vt 0.8364 0.0472 0.0000
vt 0.9139 0.0472 0.0000
vt 0.9687 0.1020 0.0000
vt 0.9688 0.1795 0.0000
vt 0.9139 0.2344 0.0000
vt 0.8364 0.2343 0.0000
vt 0.7816 0.1795 0.0000
vt 0.4707 0.7734 0.0000
vt 0.5586 0.7734 0.0000
vt 0.5586 0.9844 0.0000
vt 0.4707 0.9844 0.0000
vt 0.3828 0.7734 0.0000
vt 0.3828 0.9844 0.0000
vt 0.2949 0.9844 0.0000
vt 0.2949 0.7734 0.0000
vt 0.2070 0.9844 0.0000
vt 0.2070 0.7734 0.0000
vt 0.1191 0.9844 0.0000
vt 0.1191 0.7734 0.0000
vt 0.0313 0.9844 0.0000
vt 0.0313 0.7734 0.0000
vt 0.6465 0.7734 0.0000
vt 0.7344 0.7734 0.0000
vt 0.7344 0.9844 0.0000
vt 0.6465 0.9844 0.0000
vt 0.8397 0.0555 0.0000
vt 0.9103 0.0555 0.0000
vt 0.9602 0.1054 0.0000
vt 0.9602 0.1759 0.0000
vt 0.9103 0.2258 0.0000
vt 0.8397 0.2258 0.0000
vt 0.7898 0.1759 0.0000
vt 0.7898 0.1054 0.0000
vt 0.5586 0.0313 0.0000
vt 0.5586 0.2424 0.0000
vt 0.4707 0.2424 0.0000
vt 0.4707 0.0313 0.0000
vt 0.3828 0.2424 0.0000
vt 0.3828 0.0313 0.0000
vt 0.2949 0.0313 0.0000
vt 0.2949 0.2424 0.0000
vt 0.2070 0.0313 0.0000
vt 0.2070 0.2424 0.0000
vt 0.1191 0.0313 0.0000
vt 0.1191 0.2424 0.0000
vt 0.0313 0.0313 0.0000
vt 0.0313 0.2424 0.0000
vt 0.7344 0.0313 0.0000
vt 0.7344 0.2424 0.0000
vt 0.6465 0.2424 0.0000
vt 0.6465 0.0313 0.0000
vt 0.4707 0.5080 0.0000
vt 0.5586 0.5080 0.0000
vt 0.3828 0.5080 0.0000
vt 0.2949 0.5080 0.0000
vt 0.2070 0.5080 0.0000
vt 0.1191 0.5080 0.0000
vt 0.0313 0.5080 0.0000
vt 0.6465 0.5080 0.0000
vt 0.7344 0.5080 0.0000
vt 0.9063 0.4883 0.0000
vt 0.8906 0.4883 0.0000
vt 0.8906 0.4082 0.0000
vt 0.9063 0.4082 0.0000
vt 0.9063 0.5684 0.0000
vt 0.8906 0.5684 0.0000
vt 0.9063 0.6484 0.0000
vt 0.8906 0.6484 0.0000
vt 0.9063 0.7285 0.0000
vt 0.8906 0.7285 0.0000
vt 0.9063 0.8086 0.0000
vt 0.8906 0.8086 0.0000
vt 0.9063 0.8887 0.0000
vt 0.8906 0.8887 0.0000
vt 0.9063 0.9688 0.0000
vt 0.8906 0.9688 0.0000
vt 0.8906 0.3281 0.0000
vt 0.9063 0.3281 0.0000
vt 0.8125 0.5312 0.0000
vt 0.7969 0.5312 0.0000
vt 0.7969 0.4609 0.0000
vt 0.8125 0.4609 0.0000
vt 0.8125 0.6016 0.0000
vt 0.7969 0.6016 0.0000
vt 0.8125 0.6719 0.0000
vt 0.7969 0.6719 0.0000
vt 0.8125 0.7422 0.0000
vt 0.7969 0.7422 0.0000
vt 0.8125 0.8125 0.0000
vt 0.7969 0.8125 0.0000
vt 0.8125 0.8828 0.0000
vt 0.7969 0.8828 0.0000
vt 0.8125 0.9531 0.0000
vt 0.7969 0.9531 0.0000
vt 0.7969 0.3906 0.0000
vt 0.8125 0.3906 0.0000
vt 0.8906 0.3281 0.0000
vt 0.9063 0.3281 0.0000
vt 0.9063 0.4082 0.0000
vt 0.8906 0.4082 0.0000
vt 0.8906 0.8887 0.0000
vt 0.9063 0.8887 0.0000
vt 0.9063 0.9688 0.0000
vt 0.8906 0.9688 0.0000
vt 0.8906 0.8086 0.0000
vt 0.9063 0.8086 0.0000
vt 0.8906 0.7285 0.0000
vt 0.9063 0.7285 0.0000
vt 0.8906 0.6484 0.0000
vt 0.9063 0.6484 0.0000
vt 0.8906 0.5684 0.0000
vt 0.9063 0.5684 0.0000
vt 0.8906 0.4883 0.0000
vt 0.9063 0.4883 0.0000
vt 0.7969 0.3906 0.0000
vt 0.8125 0.3906 0.0000
vt 0.8125 0.4609 0.0000
vt 0.7969 0.4609 0.0000
vt 0.7969 0.8828 0.0000
vt 0.8125 0.8828 0.0000
vt 0.8125 0.9531 0.0000
vt 0.7969 0.9531 0.0000
vt 0.7969 0.8125 0.0000
vt 0.8125 0.8125 0.0000
vt 0.7969 0.7422 0.0000
vt 0.8125 0.7422 0.0000
vt 0.7969 0.6719 0.0000
vt 0.8125 0.6719 0.0000
vt 0.7969 0.6016 0.0000
vt 0.8125 0.6016 0.0000
vt 0.7969 0.5312 0.0000
vt 0.8125 0.5312 0.0000
# 133 texture coords

o Tronc_A
g Tronc_A
s 1
f 71/1/1 72/2/2 65/3/3 66/4/4 67/5/5 68/6/6 69/7/7 70/8/8 
s 2
f 19/9/9 21/10/10 1/11/11 2/12/12 
s 4
f 25/13/13 19/9/14 2/12/15 3/14/16 
s 2
f 4/15/17 28/16/18 25/13/19 3/14/20 
s 4
f 5/17/21 31/18/22 28/16/23 4/15/24 
s 2
f 6/19/25 34/20/26 31/18/27 5/17/28 
s 4
f 7/21/29 37/22/30 34/20/31 6/19/32 
s 2
f 40/23/33 37/24/34 7/25/35 8/26/36 
s 4
f 21/10/37 40/23/38 8/26/39 1/11/40 
s 1
f 55/27/41 56/28/42 49/29/43 50/30/44 51/31/45 52/32/46 53/33/47 54/34/48 
s 2
f 9/35/49 22/36/50 18/37/51 10/38/52 
s 4
f 10/38/53 18/37/54 24/39/55 11/40/56 
s 2
f 12/41/57 11/40/58 24/39/59 27/42/60 
s 4
f 13/43/61 12/41/62 27/42/63 30/44/64 
s 2
f 14/45/65 13/43/66 30/44/67 33/46/68 
s 4
f 15/47/69 14/45/70 33/46/71 36/48/72 
s 2
f 15/49/73 36/50/74 39/51/75 16/52/76 
s 4
f 16/52/77 39/51/78 22/36/79 9/35/80 
s 2
f 19/9/81 17/53/82 20/54/83 21/10/84 
s 4
f 25/13/85 23/55/86 17/53/87 19/9/88 
s 2
f 28/16/89 26/56/90 23/55/91 25/13/92 
s 4
f 28/16/93 31/18/94 29/57/95 26/56/96 
s 2
f 31/18/97 34/20/98 32/58/99 29/57/100 
s 4
f 34/20/101 37/22/102 35/59/103 32/58/104 
s 2
f 40/23/105 38/60/106 35/61/107 37/24/108 
s 4
f 21/10/109 20/54/110 38/60/111 40/23/112 
s 2
f 18/37/113 22/36/114 20/54/115 17/53/116 
s 4
f 24/39/117 18/37/118 17/53/119 23/55/120 
s 2
f 24/39/121 23/55/122 26/56/123 27/42/124 
s 4
f 27/42/125 26/56/126 29/57/127 30/44/128 
s 2
f 30/44/129 29/57/130 32/58/131 33/46/132 
s 4
f 33/46/133 32/58/134 35/59/135 36/48/136 
s 2
f 39/51/137 36/50/138 35/61/139 38/60/140 
s 4
f 22/36/141 39/51/142 38/60/143 20/54/144 
s off
f 9/62/145 42/63/146 41/64/147 16/65/148 
f 10/66/149 43/67/150 42/63/151 9/62/152 
f 11/68/153 44/69/154 43/67/155 10/66/156 
f 12/70/157 45/71/158 44/69/159 11/68/160 
f 13/72/161 46/73/162 45/71/163 12/70/164 
f 14/74/165 47/75/166 46/73/167 13/72/168 
f 15/76/169 48/77/170 47/75/171 14/74/172 
f 16/65/173 41/64/174 48/78/175 15/79/176 
f 42/80/177 50/81/178 49/82/179 41/83/180 
f 43/84/181 51/85/182 50/81/183 42/80/184 
f 44/86/185 52/87/186 51/85/187 43/84/188 
f 45/88/189 53/89/190 52/87/191 44/86/192 
f 46/90/193 54/91/194 53/89/195 45/88/196 
f 47/92/197 55/93/198 54/91/199 46/90/200 
f 48/94/201 56/95/202 55/93/203 47/92/204 
f 41/83/205 49/82/206 56/96/207 48/97/208 
f 7/98/209 58/99/210 57/100/211 8/101/212 
f 6/102/213 59/103/214 58/104/215 7/105/216 
f 5/106/217 60/107/218 59/103/219 6/102/220 
f 4/108/221 61/109/222 60/107/223 5/106/224 
f 3/110/225 62/111/226 61/109/227 4/108/228 
f 2/112/229 63/113/230 62/111/231 3/110/232 
f 1/114/233 64/115/234 63/113/235 2/112/236 
f 8/101/237 57/100/238 64/115/239 1/114/240 
f 58/116/241 66/117/242 65/118/243 57/119/244 
f 59/120/245 67/121/246 66/122/247 58/123/248 
f 60/124/249 68/125/250 67/121/251 59/120/252 
f 61/126/253 69/127/254 68/125/255 60/124/256 
f 62/128/257 70/129/258 69/127/259 61/126/260 
f 63/130/261 71/131/262 70/129/263 62/128/264 
f 64/132/265 72/133/266 71/131/267 63/130/268 
f 57/119/269 65/118/270 72/133/271 64/132/272 
# 66 polygons

