# 3ds Max Wavefront OBJ Exporter v0.99 - (c)2007 guruware
# File Created: 02.05.2022 10:37:06

#
# object PebblesB
#

v  -0.4487 0.0000 0.0461
v  0.4487 0.0000 0.0461
v  -0.4487 0.0000 -0.0461
v  0.4487 0.0000 -0.0461
v  -0.4487 0.6024 0.0461
v  0.4487 0.6024 0.0461
v  -0.4487 0.6024 -0.0461
v  0.4487 0.6024 -0.0461
v  -0.8484 0.0000 0.0403
v  -0.3812 0.0000 0.0403
v  -0.8484 0.0000 -0.0575
v  -0.3812 0.0000 -0.0575
v  -0.8484 0.0784 0.0403
v  -0.3812 0.0784 0.0403
v  -0.8484 0.0784 -0.0575
v  -0.3812 0.0784 -0.0575
v  -0.4764 0.0000 0.0162
v  -0.3313 0.0000 0.0162
v  -0.4764 0.0000 -0.0838
v  -0.3313 0.0000 -0.0838
v  -0.4764 0.4472 0.0162
v  -0.3313 0.4472 0.0162
v  -0.4764 0.4472 -0.0838
v  -0.3313 0.4472 -0.0838
v  -0.0879 0.0000 -0.0012
v  0.5091 0.0000 -0.0012
v  -0.0879 0.0000 -0.0771
v  0.5091 0.0000 -0.0771
v  -0.0879 0.4381 -0.0012
v  0.5091 0.4381 -0.0012
v  -0.0879 0.4381 -0.0771
v  0.5091 0.4381 -0.0771
v  -0.2649 0.0000 0.0913
v  0.3322 0.0000 0.0913
v  -0.2649 0.0000 0.0154
v  0.3322 0.0000 0.0154
v  -0.2649 0.4381 0.0913
v  0.3322 0.4381 0.0913
v  -0.2649 0.4381 0.0154
v  0.3322 0.4381 0.0154
# 40 vertices

vn 0.0000 1.0000 -0.0000
vn 0.0000 1.0000 -0.0000
vn 0.0000 1.0000 -0.0000
vn 0.0000 1.0000 -0.0000
vn 0.0000 0.0000 1.0000
vn 0.0000 0.0000 1.0000
vn 0.0000 0.0000 1.0000
vn 0.0000 0.0000 1.0000
vn 1.0000 0.0000 -0.0000
vn 1.0000 0.0000 -0.0000
vn 1.0000 0.0000 -0.0000
vn 1.0000 0.0000 -0.0000
vn 0.0000 0.0000 -1.0000
vn 0.0000 0.0000 -1.0000
vn 0.0000 0.0000 -1.0000
vn 0.0000 0.0000 -1.0000
vn -1.0000 0.0000 -0.0000
vn -1.0000 0.0000 -0.0000
vn -1.0000 0.0000 -0.0000
vn -1.0000 0.0000 -0.0000
vn 0.0000 1.0000 -0.0000
vn 0.0000 1.0000 -0.0000
vn 0.0000 1.0000 -0.0000
vn 0.0000 1.0000 -0.0000
vn 0.0000 0.0000 1.0000
vn 0.0000 0.0000 1.0000
vn 0.0000 0.0000 1.0000
vn 0.0000 0.0000 1.0000
vn 0.0000 0.0000 -1.0000
vn 0.0000 0.0000 -1.0000
vn 0.0000 0.0000 -1.0000
vn 0.0000 0.0000 -1.0000
vn -1.0000 0.0000 -0.0000
vn -1.0000 0.0000 -0.0000
vn -1.0000 0.0000 -0.0000
vn -1.0000 0.0000 -0.0000
vn 0.0000 1.0000 -0.0000
vn 0.0000 1.0000 -0.0000
vn 0.0000 1.0000 -0.0000
vn 0.0000 1.0000 -0.0000
vn 0.0000 0.0000 1.0000
vn 0.0000 0.0000 1.0000
vn 0.0000 0.0000 1.0000
vn 0.0000 0.0000 1.0000
vn 1.0000 0.0000 -0.0000
vn 1.0000 0.0000 -0.0000
vn 1.0000 0.0000 -0.0000
vn 1.0000 0.0000 -0.0000
vn 0.0000 0.0000 -1.0000
vn 0.0000 0.0000 -1.0000
vn 0.0000 0.0000 -1.0000
vn 0.0000 0.0000 -1.0000
vn -1.0000 0.0000 -0.0000
vn -1.0000 0.0000 -0.0000
vn -1.0000 0.0000 -0.0000
vn -1.0000 0.0000 -0.0000
vn 0.0000 1.0000 -0.0000
vn 0.0000 1.0000 -0.0000
vn 0.0000 1.0000 -0.0000
vn 0.0000 1.0000 -0.0000
vn 0.0000 0.0000 1.0000
vn 0.0000 0.0000 1.0000
vn 0.0000 0.0000 1.0000
vn 0.0000 0.0000 1.0000
vn 1.0000 0.0000 -0.0000
vn 1.0000 0.0000 -0.0000
vn 1.0000 0.0000 -0.0000
vn 1.0000 0.0000 -0.0000
vn 0.0000 0.0000 -1.0000
vn 0.0000 0.0000 -1.0000
vn 0.0000 0.0000 -1.0000
vn 0.0000 0.0000 -1.0000
vn -1.0000 0.0000 -0.0000
vn -1.0000 0.0000 -0.0000
vn -1.0000 0.0000 -0.0000
vn -1.0000 0.0000 -0.0000
vn 0.0000 1.0000 -0.0000
vn 0.0000 1.0000 -0.0000
vn 0.0000 1.0000 -0.0000
vn 0.0000 1.0000 -0.0000
vn 0.0000 0.0000 1.0000
vn 0.0000 0.0000 1.0000
vn 0.0000 0.0000 1.0000
vn 0.0000 0.0000 1.0000
vn 1.0000 0.0000 -0.0000
vn 1.0000 0.0000 -0.0000
vn 1.0000 0.0000 -0.0000
vn 1.0000 0.0000 -0.0000
vn -1.0000 0.0000 -0.0000
vn -1.0000 0.0000 -0.0000
vn -1.0000 0.0000 -0.0000
vn -1.0000 0.0000 -0.0000
# 92 vertex normals

vt 0.5059 0.2911 0.0000
vt 0.5059 0.1777 0.0000
vt 0.5176 0.1777 0.0000
vt 0.5176 0.2911 0.0000
vt 0.4297 0.2911 0.0000
vt 0.4297 0.1777 0.0000
vt 0.5059 0.1016 0.0000
vt 0.5176 0.1016 0.0000
vt 0.5938 0.1777 0.0000
vt 0.5938 0.2911 0.0000
vt 0.5176 0.3672 0.0000
vt 0.5059 0.3672 0.0000
vt 0.9279 0.4632 0.0000
vt 0.9279 0.5234 0.0000
vt 0.9159 0.5234 0.0000
vt 0.9159 0.4632 0.0000
vt 0.9375 0.4632 0.0000
vt 0.9375 0.5234 0.0000
vt 0.9063 0.5234 0.0000
vt 0.9063 0.4632 0.0000
vt 0.9159 0.4531 0.0000
vt 0.9279 0.4531 0.0000
vt 0.3340 0.8179 0.0000
vt 0.3340 0.7993 0.0000
vt 0.3457 0.7993 0.0000
vt 0.3457 0.8179 0.0000
vt 0.2813 0.8179 0.0000
vt 0.2813 0.7993 0.0000
vt 0.3340 0.7422 0.0000
vt 0.3457 0.7422 0.0000
vt 0.3984 0.7993 0.0000
vt 0.3984 0.8179 0.0000
vt 0.3457 0.8750 0.0000
vt 0.3340 0.8750 0.0000
vt 0.4091 0.5614 0.0000
vt 0.4091 0.4854 0.0000
vt 0.4190 0.4854 0.0000
vt 0.4190 0.5614 0.0000
vt 0.3516 0.5614 0.0000
vt 0.3516 0.4854 0.0000
vt 0.4091 0.4297 0.0000
vt 0.4190 0.4297 0.0000
vt 0.4766 0.4854 0.0000
vt 0.4766 0.5614 0.0000
vt 0.4190 0.6172 0.0000
vt 0.4091 0.6172 0.0000
vt 0.7330 0.1942 0.0000
vt 0.7330 0.1183 0.0000
vt 0.7422 0.1183 0.0000
vt 0.7422 0.1942 0.0000
vt 0.6797 0.1942 0.0000
vt 0.6797 0.1183 0.0000
vt 0.7330 0.0625 0.0000
vt 0.7422 0.0625 0.0000
vt 0.7422 0.2500 0.0000
vt 0.7330 0.2500 0.0000
# 56 texture coords

o PebblesB
g PebblesB
s 4
f 8/3/1 7/4/2 5/1/3 6/2/4 
s 8
f 6/2/5 5/1/6 1/5/7 2/6/8 
s 16
f 8/3/9 6/2/10 2/7/11 4/8/12 
s 32
f 7/4/13 8/3/14 4/9/15 3/10/16 
s 64
f 5/1/17 7/4/18 3/11/19 1/12/20 
s 4
f 16/15/21 15/16/22 13/13/23 14/14/24 
s 8
f 14/14/25 13/13/26 9/17/27 10/18/28 
s 32
f 15/16/29 16/15/30 12/19/31 11/20/32 
s 64
f 13/13/33 15/16/34 11/21/35 9/22/36 
s 4
f 24/25/37 23/26/38 21/23/39 22/24/40 
s 8
f 22/24/41 21/23/42 17/27/43 18/28/44 
s 16
f 24/25/45 22/24/46 18/29/47 20/30/48 
s 32
f 23/26/49 24/25/50 20/31/51 19/32/52 
s 64
f 21/23/53 23/26/54 19/33/55 17/34/56 
s 4
f 32/37/57 31/38/58 29/35/59 30/36/60 
s 8
f 30/36/61 29/35/62 25/39/63 26/40/64 
s 16
f 32/37/65 30/36/66 26/41/67 28/42/68 
s 32
f 31/38/69 32/37/70 28/43/71 27/44/72 
s 64
f 29/35/73 31/38/74 27/45/75 25/46/76 
s 4
f 40/49/77 39/50/78 37/47/79 38/48/80 
s 8
f 38/48/81 37/47/82 33/51/83 34/52/84 
s 16
f 40/49/85 38/48/86 34/53/87 36/54/88 
s 64
f 37/47/89 39/50/90 35/55/91 33/56/92 
# 23 polygons

