# 3ds Max Wavefront OBJ Exporter v0.99 - (c)2007 guruware
# File Created: 02.05.2022 10:37:25

#
# object PebblesD
#

v  -0.2453 0.0000 0.2292
v  0.2453 0.0000 0.2292
v  -0.2453 0.0000 -0.2292
v  0.2453 0.0000 -0.2292
v  -0.2453 0.1752 0.2292
v  0.2453 0.1752 0.2292
v  -0.2453 0.1752 -0.2292
v  0.2453 0.1752 -0.2292
v  -0.6525 0.0000 0.2932
v  -0.3217 0.0000 0.2932
v  -0.6525 0.0000 -0.1071
v  -0.3217 0.0000 -0.1071
v  -0.6525 0.0562 0.2932
v  -0.3217 0.0562 0.2932
v  -0.6525 0.0562 -0.1071
v  -0.3217 0.0562 -0.1071
v  -0.5361 0.0000 -0.1675
v  -0.3217 0.0000 -0.1675
v  -0.5361 0.0000 -0.3851
v  -0.3217 0.0000 -0.3851
v  -0.5361 0.0477 -0.1675
v  -0.3217 0.0477 -0.1675
v  -0.5361 0.0477 -0.3851
v  -0.3217 0.0477 -0.3851
v  -0.1836 0.0000 -0.3262
v  -0.0608 0.0000 -0.3262
v  -0.1836 0.0000 -0.4531
v  -0.0608 0.0000 -0.4531
v  -0.1836 0.0161 -0.3262
v  -0.0608 0.0161 -0.3262
v  -0.1836 0.0161 -0.4531
v  -0.0608 0.0161 -0.4531
v  0.3018 0.0000 -0.0537
v  0.5113 0.0000 -0.0537
v  0.3018 0.0000 -0.2727
v  0.5113 0.0000 -0.2727
v  0.3018 0.0327 -0.0537
v  0.5113 0.0327 -0.0537
v  0.3018 0.0327 -0.2727
v  0.5113 0.0327 -0.2727
v  -0.4451 0.0000 -0.4662
v  -0.2235 0.0000 -0.4662
v  -0.4451 0.0000 -0.7196
v  -0.2235 0.0000 -0.7196
v  -0.4451 0.1005 -0.4662
v  -0.2235 0.1005 -0.4662
v  -0.4451 0.1005 -0.7196
v  -0.2235 0.1005 -0.7196
v  -0.4532 0.0000 -0.8338
v  -0.3222 0.0000 -0.8338
v  -0.4532 0.0000 -0.9628
v  -0.3222 0.0000 -0.9628
v  -0.4532 0.0111 -0.8338
v  -0.3222 0.0111 -0.8338
v  -0.4532 0.0111 -0.9628
v  -0.3222 0.0111 -0.9628
v  -0.7625 0.0000 -0.6302
v  -0.5193 0.0000 -0.6302
v  -0.7625 0.0000 -0.9054
v  -0.5193 0.0000 -0.9054
v  -0.7625 0.0222 -0.6302
v  -0.5193 0.0222 -0.6302
v  -0.7625 0.0222 -0.9054
v  -0.5193 0.0222 -0.9054
v  -0.7122 0.0000 -0.4282
v  -0.6101 0.0000 -0.4282
v  -0.7122 0.0000 -0.5493
v  -0.6101 0.0000 -0.5493
v  -0.7122 0.0113 -0.4282
v  -0.6101 0.0113 -0.4282
v  -0.7122 0.0113 -0.5493
v  -0.6101 0.0113 -0.5493
v  -0.8088 0.0000 -0.1033
v  -0.7224 0.0000 -0.1033
v  -0.8088 0.0000 -0.1966
v  -0.7224 0.0000 -0.1966
v  -0.8088 0.0212 -0.1033
v  -0.7224 0.0212 -0.1033
v  -0.8088 0.0212 -0.1966
v  -0.7224 0.0212 -0.1966
# 80 vertices

vn 0.0000 1.0000 -0.0000
vn 0.0000 1.0000 -0.0000
vn 0.0000 1.0000 -0.0000
vn 0.0000 1.0000 -0.0000
vn 0.0000 0.0000 1.0000
vn 0.0000 0.0000 1.0000
vn 0.0000 0.0000 1.0000
vn 0.0000 0.0000 1.0000
vn 1.0000 0.0000 -0.0000
vn 1.0000 0.0000 -0.0000
vn 1.0000 0.0000 -0.0000
vn 1.0000 0.0000 -0.0000
vn 0.0000 0.0000 -1.0000
vn 0.0000 0.0000 -1.0000
vn 0.0000 0.0000 -1.0000
vn 0.0000 0.0000 -1.0000
vn -1.0000 0.0000 -0.0000
vn -1.0000 0.0000 -0.0000
vn -1.0000 0.0000 -0.0000
vn -1.0000 0.0000 -0.0000
vn 0.0000 1.0000 -0.0000
vn 0.0000 1.0000 -0.0000
vn 0.0000 1.0000 -0.0000
vn 0.0000 1.0000 -0.0000
vn 0.0000 0.0000 1.0000
vn 0.0000 0.0000 1.0000
vn 0.0000 0.0000 1.0000
vn 0.0000 0.0000 1.0000
vn 1.0000 0.0000 -0.0000
vn 1.0000 0.0000 -0.0000
vn 1.0000 0.0000 -0.0000
vn 1.0000 0.0000 -0.0000
vn 0.0000 0.0000 -1.0000
vn 0.0000 0.0000 -1.0000
vn 0.0000 0.0000 -1.0000
vn 0.0000 0.0000 -1.0000
vn -1.0000 0.0000 -0.0000
vn -1.0000 0.0000 -0.0000
vn -1.0000 0.0000 -0.0000
vn -1.0000 0.0000 -0.0000
vn 0.0000 1.0000 -0.0000
vn 0.0000 1.0000 -0.0000
vn 0.0000 1.0000 -0.0000
vn 0.0000 1.0000 -0.0000
vn 0.0000 0.0000 1.0000
vn 0.0000 0.0000 1.0000
vn 0.0000 0.0000 1.0000
vn 0.0000 0.0000 1.0000
vn 1.0000 0.0000 -0.0000
vn 1.0000 0.0000 -0.0000
vn 1.0000 0.0000 -0.0000
vn 1.0000 0.0000 -0.0000
vn 0.0000 0.0000 -1.0000
vn 0.0000 0.0000 -1.0000
vn 0.0000 0.0000 -1.0000
vn 0.0000 0.0000 -1.0000
vn -1.0000 0.0000 -0.0000
vn -1.0000 0.0000 -0.0000
vn -1.0000 0.0000 -0.0000
vn -1.0000 0.0000 -0.0000
vn 0.0000 1.0000 -0.0000
vn 0.0000 1.0000 -0.0000
vn 0.0000 1.0000 -0.0000
vn 0.0000 1.0000 -0.0000
vn 0.0000 0.0000 1.0000
vn 0.0000 0.0000 1.0000
vn 0.0000 0.0000 1.0000
vn 0.0000 0.0000 1.0000
vn 1.0000 0.0000 -0.0000
vn 1.0000 0.0000 -0.0000
vn 1.0000 0.0000 -0.0000
vn 1.0000 0.0000 -0.0000
vn 0.0000 0.0000 -1.0000
vn 0.0000 0.0000 -1.0000
vn 0.0000 0.0000 -1.0000
vn 0.0000 0.0000 -1.0000
vn -1.0000 0.0000 -0.0000
vn -1.0000 0.0000 -0.0000
vn -1.0000 0.0000 -0.0000
vn -1.0000 0.0000 -0.0000
vn 0.0000 1.0000 -0.0000
vn 0.0000 1.0000 -0.0000
vn 0.0000 1.0000 -0.0000
vn 0.0000 1.0000 -0.0000
vn 0.0000 0.0000 1.0000
vn 0.0000 0.0000 1.0000
vn 0.0000 0.0000 1.0000
vn 0.0000 0.0000 1.0000
vn 1.0000 0.0000 -0.0000
vn 1.0000 0.0000 -0.0000
vn 1.0000 0.0000 -0.0000
vn 1.0000 0.0000 -0.0000
vn 0.0000 0.0000 -1.0000
vn 0.0000 0.0000 -1.0000
vn 0.0000 0.0000 -1.0000
vn 0.0000 0.0000 -1.0000
vn -1.0000 0.0000 -0.0000
vn -1.0000 0.0000 -0.0000
vn -1.0000 0.0000 -0.0000
vn -1.0000 0.0000 -0.0000
vn 0.0000 1.0000 -0.0000
vn 0.0000 1.0000 -0.0000
vn 0.0000 1.0000 -0.0000
vn 0.0000 1.0000 -0.0000
vn 0.0000 0.0000 1.0000
vn 0.0000 0.0000 1.0000
vn 0.0000 0.0000 1.0000
vn 0.0000 0.0000 1.0000
vn 1.0000 0.0000 -0.0000
vn 1.0000 0.0000 -0.0000
vn 1.0000 0.0000 -0.0000
vn 1.0000 0.0000 -0.0000
vn 0.0000 0.0000 -1.0000
vn 0.0000 0.0000 -1.0000
vn 0.0000 0.0000 -1.0000
vn 0.0000 0.0000 -1.0000
vn -1.0000 0.0000 -0.0000
vn -1.0000 0.0000 -0.0000
vn -1.0000 0.0000 -0.0000
vn -1.0000 0.0000 -0.0000
vn 0.0000 1.0000 -0.0000
vn 0.0000 1.0000 -0.0000
vn 0.0000 1.0000 -0.0000
vn 0.0000 1.0000 -0.0000
vn 0.0000 0.0000 1.0000
vn 0.0000 0.0000 1.0000
vn 0.0000 0.0000 1.0000
vn 0.0000 0.0000 1.0000
vn 1.0000 0.0000 -0.0000
vn 1.0000 0.0000 -0.0000
vn 1.0000 0.0000 -0.0000
vn 1.0000 0.0000 -0.0000
vn 0.0000 0.0000 -1.0000
vn 0.0000 0.0000 -1.0000
vn 0.0000 0.0000 -1.0000
vn 0.0000 0.0000 -1.0000
vn -1.0000 0.0000 -0.0000
vn -1.0000 0.0000 -0.0000
vn -1.0000 0.0000 -0.0000
vn -1.0000 0.0000 -0.0000
vn 0.0000 1.0000 -0.0000
vn 0.0000 1.0000 -0.0000
vn 0.0000 1.0000 -0.0000
vn 0.0000 1.0000 -0.0000
vn 0.0000 0.0000 1.0000
vn 0.0000 0.0000 1.0000
vn 0.0000 0.0000 1.0000
vn 0.0000 0.0000 1.0000
vn 1.0000 0.0000 -0.0000
vn 1.0000 0.0000 -0.0000
vn 1.0000 0.0000 -0.0000
vn 1.0000 0.0000 -0.0000
vn 0.0000 0.0000 -1.0000
vn 0.0000 0.0000 -1.0000
vn 0.0000 0.0000 -1.0000
vn 0.0000 0.0000 -1.0000
vn -1.0000 0.0000 -0.0000
vn -1.0000 0.0000 -0.0000
vn -1.0000 0.0000 -0.0000
vn -1.0000 0.0000 -0.0000
vn 0.0000 1.0000 -0.0000
vn 0.0000 1.0000 -0.0000
vn 0.0000 1.0000 -0.0000
vn 0.0000 1.0000 -0.0000
vn 0.0000 0.0000 1.0000
vn 0.0000 0.0000 1.0000
vn 0.0000 0.0000 1.0000
vn 0.0000 0.0000 1.0000
vn 1.0000 0.0000 -0.0000
vn 1.0000 0.0000 -0.0000
vn 1.0000 0.0000 -0.0000
vn 1.0000 0.0000 -0.0000
vn 0.0000 0.0000 -1.0000
vn 0.0000 0.0000 -1.0000
vn 0.0000 0.0000 -1.0000
vn 0.0000 0.0000 -1.0000
vn -1.0000 0.0000 -0.0000
vn -1.0000 0.0000 -0.0000
vn -1.0000 0.0000 -0.0000
vn -1.0000 0.0000 -0.0000
vn 0.0000 1.0000 -0.0000
vn 0.0000 1.0000 -0.0000
vn 0.0000 1.0000 -0.0000
vn 0.0000 1.0000 -0.0000
vn 0.0000 0.0000 1.0000
vn 0.0000 0.0000 1.0000
vn 0.0000 0.0000 1.0000
vn 0.0000 0.0000 1.0000
vn 1.0000 0.0000 -0.0000
vn 1.0000 0.0000 -0.0000
vn 1.0000 0.0000 -0.0000
vn 1.0000 0.0000 -0.0000
vn 0.0000 0.0000 -1.0000
vn 0.0000 0.0000 -1.0000
vn 0.0000 0.0000 -1.0000
vn 0.0000 0.0000 -1.0000
vn -1.0000 0.0000 -0.0000
vn -1.0000 0.0000 -0.0000
vn -1.0000 0.0000 -0.0000
vn -1.0000 0.0000 -0.0000
# 200 vertex normals

vt 0.4908 0.7132 0.0000
vt 0.4908 0.6540 0.0000
vt 0.5483 0.6540 0.0000
vt 0.5483 0.7132 0.0000
vt 0.5703 0.6540 0.0000
vt 0.5703 0.7132 0.0000
vt 0.5483 0.7344 0.0000
vt 0.4908 0.7344 0.0000
vt 0.4688 0.7132 0.0000
vt 0.4688 0.6540 0.0000
vt 0.4908 0.6328 0.0000
vt 0.5483 0.6328 0.0000
vt 0.8524 0.6728 0.0000
vt 0.8116 0.6728 0.0000
vt 0.8116 0.6240 0.0000
vt 0.8524 0.6240 0.0000
vt 0.8116 0.6172 0.0000
vt 0.8524 0.6172 0.0000
vt 0.8594 0.6240 0.0000
vt 0.8594 0.6728 0.0000
vt 0.8524 0.6797 0.0000
vt 0.8116 0.6797 0.0000
vt 0.8047 0.6728 0.0000
vt 0.8047 0.6240 0.0000
vt 0.9393 0.5956 0.0000
vt 0.9123 0.5956 0.0000
vt 0.9123 0.5685 0.0000
vt 0.9393 0.5685 0.0000
vt 0.9123 0.5625 0.0000
vt 0.9393 0.5625 0.0000
vt 0.9453 0.5685 0.0000
vt 0.9453 0.5956 0.0000
vt 0.9393 0.6016 0.0000
vt 0.9123 0.6016 0.0000
vt 0.9063 0.5956 0.0000
vt 0.9063 0.5685 0.0000
vt 0.2959 0.3969 0.0000
vt 0.2877 0.3969 0.0000
vt 0.2877 0.3915 0.0000
vt 0.2959 0.3915 0.0000
vt 0.2877 0.3908 0.0000
vt 0.2959 0.3908 0.0000
vt 0.2970 0.3915 0.0000
vt 0.2970 0.3969 0.0000
vt 0.2959 0.3976 0.0000
vt 0.2877 0.3976 0.0000
vt 0.2867 0.3969 0.0000
vt 0.2867 0.3915 0.0000
vt 0.5422 0.9799 0.0000
vt 0.5125 0.9799 0.0000
vt 0.5125 0.9498 0.0000
vt 0.5422 0.9498 0.0000
vt 0.5125 0.9453 0.0000
vt 0.5422 0.9453 0.0000
vt 0.5469 0.9498 0.0000
vt 0.5469 0.9799 0.0000
vt 0.5422 0.9844 0.0000
vt 0.5125 0.9844 0.0000
vt 0.5078 0.9799 0.0000
vt 0.5078 0.9498 0.0000
vt 0.4401 0.0660 0.0000
vt 0.4114 0.0660 0.0000
vt 0.4114 0.0355 0.0000
vt 0.4401 0.0355 0.0000
vt 0.4114 0.0234 0.0000
vt 0.4401 0.0234 0.0000
vt 0.4531 0.0355 0.0000
vt 0.4531 0.0660 0.0000
vt 0.4401 0.0781 0.0000
vt 0.4114 0.0781 0.0000
vt 0.3984 0.0660 0.0000
vt 0.3984 0.0355 0.0000
vt 0.2864 0.3977 0.0000
vt 0.2864 0.3919 0.0000
vt 0.2922 0.3919 0.0000
vt 0.2922 0.3977 0.0000
vt 0.2927 0.3919 0.0000
vt 0.2927 0.3977 0.0000
vt 0.2922 0.3982 0.0000
vt 0.2864 0.3982 0.0000
vt 0.2859 0.3977 0.0000
vt 0.2859 0.3919 0.0000
vt 0.2864 0.3914 0.0000
vt 0.2922 0.3914 0.0000
vt 0.9273 0.7473 0.0000
vt 0.9008 0.7473 0.0000
vt 0.9008 0.7136 0.0000
vt 0.9273 0.7136 0.0000
vt 0.9008 0.7109 0.0000
vt 0.9273 0.7109 0.0000
vt 0.9297 0.7136 0.0000
vt 0.9297 0.7473 0.0000
vt 0.9273 0.7500 0.0000
vt 0.9008 0.7500 0.0000
vt 0.8984 0.7473 0.0000
vt 0.8984 0.7136 0.0000
vt 0.2937 0.3952 0.0000
vt 0.2881 0.3952 0.0000
vt 0.2881 0.3894 0.0000
vt 0.2937 0.3894 0.0000
vt 0.2881 0.3889 0.0000
vt 0.2937 0.3889 0.0000
vt 0.2944 0.3894 0.0000
vt 0.2944 0.3952 0.0000
vt 0.2937 0.3957 0.0000
vt 0.2881 0.3957 0.0000
vt 0.2875 0.3952 0.0000
vt 0.2875 0.3894 0.0000
vt 0.2928 0.3969 0.0000
vt 0.2882 0.3969 0.0000
vt 0.2882 0.3922 0.0000
vt 0.2928 0.3922 0.0000
vt 0.2882 0.3911 0.0000
vt 0.2928 0.3911 0.0000
vt 0.2939 0.3922 0.0000
vt 0.2939 0.3969 0.0000
vt 0.2928 0.3979 0.0000
vt 0.2882 0.3979 0.0000
vt 0.2870 0.3969 0.0000
vt 0.2870 0.3922 0.0000
# 120 texture coords

o PebblesD
g PebblesD
s 4
f 5/3/1 6/4/2 8/1/3 7/2/4 
s 8
f 1/5/5 2/6/6 6/4/7 5/3/8 
s 16
f 2/7/9 4/8/10 8/1/11 6/4/12 
s 32
f 4/9/13 3/10/14 7/2/15 8/1/16 
s 64
f 3/11/17 1/12/18 5/3/19 7/2/20 
s 4
f 13/15/21 14/16/22 16/13/23 15/14/24 
s 8
f 9/17/25 10/18/26 14/16/27 13/15/28 
s 16
f 10/19/29 12/20/30 16/13/31 14/16/32 
s 32
f 12/21/33 11/22/34 15/14/35 16/13/36 
s 64
f 11/23/37 9/24/38 13/15/39 15/14/40 
s 4
f 21/27/41 22/28/42 24/25/43 23/26/44 
s 8
f 17/29/45 18/30/46 22/28/47 21/27/48 
s 16
f 18/31/49 20/32/50 24/25/51 22/28/52 
s 32
f 20/33/53 19/34/54 23/26/55 24/25/56 
s 64
f 19/35/57 17/36/58 21/27/59 23/26/60 
s 4
f 29/39/61 30/40/62 32/37/63 31/38/64 
s 8
f 25/41/65 26/42/66 30/40/67 29/39/68 
s 16
f 26/43/69 28/44/70 32/37/71 30/40/72 
s 32
f 28/45/73 27/46/74 31/38/75 32/37/76 
s 64
f 27/47/77 25/48/78 29/39/79 31/38/80 
s 4
f 37/51/81 38/52/82 40/49/83 39/50/84 
s 8
f 33/53/85 34/54/86 38/52/87 37/51/88 
s 16
f 34/55/89 36/56/90 40/49/91 38/52/92 
s 32
f 36/57/93 35/58/94 39/50/95 40/49/96 
s 64
f 35/59/97 33/60/98 37/51/99 39/50/100 
s 4
f 45/63/101 46/64/102 48/61/103 47/62/104 
s 8
f 41/65/105 42/66/106 46/64/107 45/63/108 
s 16
f 42/67/109 44/68/110 48/61/111 46/64/112 
s 32
f 44/69/113 43/70/114 47/62/115 48/61/116 
s 64
f 43/71/117 41/72/118 45/63/119 47/62/120 
s 4
f 53/75/121 54/76/122 56/73/123 55/74/124 
s 8
f 49/77/125 50/78/126 54/76/127 53/75/128 
s 16
f 50/79/129 52/80/130 56/73/131 54/76/132 
s 32
f 52/81/133 51/82/134 55/74/135 56/73/136 
s 64
f 51/83/137 49/84/138 53/75/139 55/74/140 
s 4
f 61/87/141 62/88/142 64/85/143 63/86/144 
s 8
f 57/89/145 58/90/146 62/88/147 61/87/148 
s 16
f 58/91/149 60/92/150 64/85/151 62/88/152 
s 32
f 60/93/153 59/94/154 63/86/155 64/85/156 
s 64
f 59/95/157 57/96/158 61/87/159 63/86/160 
s 4
f 69/99/161 70/100/162 72/97/163 71/98/164 
s 8
f 65/101/165 66/102/166 70/100/167 69/99/168 
s 16
f 66/103/169 68/104/170 72/97/171 70/100/172 
s 32
f 68/105/173 67/106/174 71/98/175 72/97/176 
s 64
f 67/107/177 65/108/178 69/99/179 71/98/180 
s 4
f 77/111/181 78/112/182 80/109/183 79/110/184 
s 8
f 73/113/185 74/114/186 78/112/187 77/111/188 
s 16
f 74/115/189 76/116/190 80/109/191 78/112/192 
s 32
f 76/117/193 75/118/194 79/110/195 80/109/196 
s 64
f 75/119/197 73/120/198 77/111/199 79/110/200 
# 50 polygons

