# 3ds Max Wavefront OBJ Exporter v0.99 - (c)2007 guruware
# File Created: 28.05.2022 16:12:24

#
# object Box001
#

v  -0.1205 2.5561 0.2187
v  0.2329 2.5561 0.1549
v  -0.0546 2.6450 -0.1973
v  0.2975 2.7074 -0.2682
v  -0.0342 3.4044 0.1230
v  0.1895 3.4044 0.1230
v  0.1610 3.4044 -0.1508
v  -0.0056 3.4044 -0.1508
v  -0.2557 0.4780 -0.3984
v  -0.2557 0.4780 0.3946
v  0.3138 0.4780 0.3946
v  0.3138 0.4780 -0.3984
v  0.2946 1.6652 0.1747
v  -0.1443 1.6652 0.2611
v  -0.0867 2.4627 -0.2638
v  0.2946 2.4627 -0.2638
v  -0.3243 0.0000 -0.4940
v  -0.3243 0.0000 0.4902
v  0.3824 0.0000 0.4902
v  0.3824 0.0000 -0.4940
v  0.2587 2.0772 0.1894
v  0.3018 2.5194 -0.2449
v  -0.0970 2.5449 -0.2521
v  -0.1501 1.9059 0.2437
v  0.6079 0.0000 -0.0285
v  0.4898 0.4780 -0.0233
v  0.4568 2.0855 -0.0564
v  0.4341 2.3102 -0.0395
v  0.4092 2.6358 -0.0681
v  0.2502 3.4044 -0.0213
v  -0.0829 3.4044 -0.0213
v  -0.1976 2.6030 -0.0005
v  -0.2601 2.2427 -0.0176
v  -0.2461 2.0855 -0.0155
v  -0.4898 0.4780 -0.0233
v  -0.6079 0.0000 -0.0285
v  -0.0106 0.0000 -0.5723
v  -0.0029 0.4780 -0.4611
v  0.0825 2.4627 -0.3046
v  0.0800 2.5336 -0.2873
v  0.1017 2.6727 -0.2638
v  0.0683 3.4044 -0.1732
v  0.0650 3.8010 -0.0226
v  0.0651 3.4044 0.1452
v  0.0364 2.5561 0.2236
v  0.0314 1.9820 0.2576
v  0.0505 1.6652 0.2613
v  -0.0029 0.4780 0.4611
v  -0.0106 0.0000 0.5723
v  0.1990 3.6027 -0.0228
v  -0.0464 3.6027 -0.0228
v  0.0627 3.6027 0.0999
v  0.0650 3.6027 -0.1348
v  0.1554 3.5495 0.0755
v  0.1475 3.5548 -0.1214
v  -0.0026 3.5548 -0.1148
v  -0.0082 3.5548 0.0735
# 57 vertices

vn -0.9151 0.2592 0.3090
vn -0.8269 0.2990 0.4763
vn -0.8857 0.1661 0.4336
vn -0.9330 0.1739 0.3151
vn -0.2524 0.1314 0.9587
vn -0.2509 0.1716 0.9527
vn -0.0010 0.1660 0.9861
vn -0.0010 0.1118 0.9937
vn 0.9181 0.0865 0.3867
vn 0.9213 0.0269 0.3880
vn 0.7928 0.0288 0.6087
vn 0.6647 0.1464 0.7326
vn 0.1939 0.0682 -0.9786
vn 0.1939 0.0688 -0.9786
vn 0.1885 0.0692 -0.9796
vn 0.1885 0.0683 -0.9797
vn -0.8434 0.1075 -0.5264
vn -0.8411 0.1301 -0.5250
vn -0.9165 0.1408 -0.3743
vn -0.9019 0.1052 -0.4190
vn -0.0314 0.1152 0.9928
vn -0.0315 0.0931 0.9952
vn -0.2178 0.0972 0.9711
vn -0.2169 0.1313 0.9673
vn 0.7717 0.0633 0.6329
vn 0.7580 0.1179 0.6416
vn 0.9093 0.1650 0.3821
vn 0.9202 0.0616 0.3866
vn -0.0496 0.1564 -0.9864
vn -0.0435 0.1209 -0.9917
vn 0.2328 0.1300 -0.9638
vn 0.2298 0.2052 -0.9514
vn -0.8147 0.0877 -0.5732
vn -0.8150 0.1018 -0.5704
vn -0.8536 0.1090 -0.5094
vn -0.8555 0.0865 -0.5105
vn 0.3289 0.0855 0.9405
vn 0.3296 0.0529 0.9426
vn 0.2658 0.0547 0.9625
vn 0.2542 0.0831 0.9636
vn -0.9381 0.0557 0.3417
vn -0.9237 0.1433 0.3554
vn -0.8482 0.1227 0.5153
vn -0.8913 0.0578 0.4498
vn -0.4058 0.5652 -0.7182
vn -0.4145 0.2136 -0.8846
vn -0.1796 0.1905 -0.9651
vn -0.1345 0.5191 -0.8441
vn 0.8660 -0.0420 -0.4984
vn 0.8767 0.0248 -0.4804
vn 0.8491 0.0185 -0.5280
vn 0.8141 -0.0531 -0.5783
vn -0.8515 0.2177 0.4771
vn -0.8537 0.2058 0.4783
vn -0.8584 0.2070 0.4694
vn -0.8566 0.2167 0.4683
vn 0.2007 0.2198 0.9547
vn 0.2007 0.2189 0.9549
vn 0.1997 0.2189 0.9551
vn 0.1996 0.2197 0.9549
vn 0.8851 0.2102 -0.4153
vn 0.8826 0.2225 -0.4141
vn 0.8777 0.2214 -0.4250
vn 0.8796 0.2115 -0.4260
vn -0.2348 0.2229 -0.9461
vn -0.2348 0.2238 -0.9459
vn -0.2361 0.2238 -0.9456
vn -0.2361 0.2231 -0.9458
vn -0.1054 0.0696 0.9920
vn -0.0010 0.0724 0.9974
vn -0.0010 0.0117 0.9999
vn -0.0795 0.0069 0.9968
vn -0.8100 -0.0178 -0.5861
vn -0.8253 -0.0228 -0.5643
vn -0.7812 -0.0777 -0.6194
vn -0.7695 -0.0769 -0.6340
vn 0.1973 0.2869 -0.9374
vn 0.1808 0.2899 -0.9398
vn 0.1834 0.2396 -0.9534
vn 0.1968 0.2394 -0.9508
vn 0.7706 0.0444 0.6357
vn 0.7772 0.0453 0.6277
vn 0.7886 0.0333 0.6139
vn 0.7778 0.0312 0.6277
vn 0.8063 0.2037 -0.5553
vn 0.8099 0.1814 -0.5578
vn 0.8346 0.1766 -0.5218
vn 0.8219 0.2079 -0.5303
vn 0.9052 0.0099 -0.4248
vn 0.9047 0.0375 -0.4245
vn 0.8259 0.0461 -0.5619
vn 0.7910 0.0037 -0.6117
vn -0.8651 0.1288 0.4847
vn -0.8644 0.1355 0.4843
vn -0.8436 0.1374 0.5190
vn -0.8529 0.1268 0.5064
vn 0.8838 0.2084 -0.4188
vn 0.8816 0.2411 -0.4059
vn 0.7977 0.2488 -0.5493
vn 0.8068 0.2008 -0.5556
vn -0.9241 0.1415 0.3551
vn -0.9255 0.1342 0.3541
vn -0.9392 0.1314 0.3172
vn -0.9378 0.1424 0.3167
vn -0.8142 0.1675 -0.5559
vn -0.7322 0.5385 -0.4170
vn -0.9017 0.4252 -0.0788
vn -0.8997 0.1749 -0.4000
vn 0.7589 0.1143 0.6410
vn 0.7660 0.0872 0.6369
vn 0.7455 0.0878 0.6606
vn 0.7286 0.1149 0.6753
vn -0.8293 0.2105 -0.5177
vn -0.8271 0.2220 -0.5163
vn -0.8329 0.2211 -0.5074
vn -0.8347 0.2117 -0.5084
vn 0.8994 0.2181 0.3788
vn 0.9019 0.2055 0.3799
vn 0.8973 0.2069 0.3900
vn 0.8953 0.2170 0.3892
vn -0.9696 -0.0832 0.2302
vn -0.9370 0.0031 0.3494
vn -0.9184 0.0069 0.3957
vn -0.9516 -0.0807 0.2967
vn 0.8781 0.1232 -0.4624
vn 0.8436 0.0699 -0.5324
vn 0.8645 0.0563 -0.4995
vn 0.8866 0.1228 -0.4459
vn 0.1719 0.2214 0.9599
vn 0.1657 0.3414 0.9252
vn 0.4292 0.3702 0.8239
vn 0.3607 0.2119 0.9083
vn 0.2033 0.1536 0.9670
vn 0.2023 0.1815 0.9624
vn 0.3291 0.1771 0.9275
vn 0.3310 0.1421 0.9329
vn -0.2400 0.0866 -0.9669
vn -0.2400 0.0860 -0.9670
vn -0.2334 0.0855 -0.9686
vn -0.2334 0.0864 -0.9685
vn 0.3291 0.0759 0.9412
vn 0.3296 0.0524 0.9427
vn 0.1761 0.0461 0.9833
vn 0.1756 0.0847 0.9808
vn -0.4041 0.0943 -0.9099
vn -0.4026 0.0818 -0.9117
vn -0.2887 0.0770 -0.9543
vn -0.2879 0.1048 -0.9519
vn -0.0316 0.0593 0.9977
vn -0.0316 0.0398 0.9987
vn -0.0943 0.0425 0.9946
vn -0.1013 0.0596 0.9931
vn -0.0526 0.1738 -0.9834
vn -0.0003 -0.1228 -0.9924
vn 0.1790 -0.1169 -0.9769
vn 0.1941 0.1334 -0.9719
vn -0.2482 0.2233 0.9426
vn -0.2482 0.2241 0.9424
vn -0.2469 0.2240 0.9428
vn -0.2469 0.2233 0.9430
vn 0.1896 0.2196 -0.9570
vn 0.1897 0.2187 -0.9572
vn 0.1907 0.2188 -0.9570
vn 0.1907 0.2195 -0.9568
vn 0.3342 0.0312 0.9420
vn 0.3344 -0.0045 0.9424
vn 0.2907 -0.0088 0.9568
vn 0.2765 0.0280 0.9606
vn -0.2283 0.2235 -0.9476
vn -0.2329 0.1087 -0.9664
vn -0.1865 0.1158 -0.9756
vn -0.1758 0.2279 -0.9577
vn -0.2849 0.1778 -0.9419
vn -0.2819 0.2286 -0.9318
vn -0.4156 0.2195 -0.8827
vn -0.3869 0.1692 -0.9065
vn -0.6894 0.3865 0.6127
vn -0.7516 0.4215 0.5074
vn -0.6007 0.5950 0.5339
vn -0.5590 0.4404 0.7025
vn 0.5880 0.3984 -0.7039
vn 0.6768 0.4582 -0.5762
vn 0.4788 0.6650 -0.5732
vn 0.3924 0.4529 -0.8006
vn 0.6098 0.4114 0.6774
vn 0.4638 0.4617 0.7561
vn 0.5159 0.6367 0.5731
vn 0.6885 0.4648 0.5567
vn -0.6582 0.3705 -0.6554
vn -0.5177 0.4211 -0.7448
vn -0.5787 0.5771 -0.5762
vn -0.7238 0.4073 -0.5570
vn 0.8720 0.3247 0.3664
vn 0.8963 0.2339 0.3766
vn 0.8417 0.2207 0.4928
vn 0.7684 0.3547 0.5327
vn 0.2297 0.2064 -0.9511
vn 0.2305 0.1889 -0.9546
vn 0.2620 0.1879 -0.9466
vn 0.2724 0.2079 -0.9394
vn -0.8504 0.1385 -0.5075
vn -0.8487 0.1522 -0.5065
vn -0.8584 0.1541 -0.4893
vn -0.8662 0.1327 -0.4818
vn -0.2060 0.3372 0.9186
vn -0.2137 0.2150 0.9530
vn -0.4540 0.1930 0.8698
vn -0.5235 0.3460 0.7786
# 208 vertex normals

vt 0.0000 0.0000 0.0000
vt 1.0000 0.0000 0.0000
vt 0.0000 1.0000 0.0000
vt 1.0000 1.0000 0.0000
vt 0.0000 1.0000 0.0000
vt 1.0000 1.0000 0.0000
vt 0.0000 1.0000 0.0000
vt 1.0000 1.0000 0.0000
vt 0.0000 1.0000 0.0000
vt 1.0000 1.0000 0.0000
vt 0.0000 1.0000 0.0000
vt 1.0000 1.0000 0.0000
vt 0.0000 0.0000 0.0000
vt 1.0000 0.0000 0.0000
vt 1.0000 1.0000 0.0000
vt 0.0000 1.0000 0.0000
vt 1.0000 0.0000 0.0000
vt 0.0000 0.0000 0.0000
vt 0.0000 0.0000 0.0000
vt 1.0000 0.0000 0.0000
vt 1.0000 0.0000 0.0000
vt 0.0000 0.0000 0.0000
vt 1.0000 0.0000 0.0000
vt 0.0000 0.0000 0.0000
vt 1.0000 1.0000 0.0000
vt 0.0000 1.0000 0.0000
vt 0.0000 1.0000 0.0000
vt 1.0000 1.0000 0.0000
vt 1.0000 1.0000 0.0000
vt 0.0000 1.0000 0.0000
vt 1.0000 1.0000 0.0000
vt 0.0000 1.0000 0.0000
vt 0.0000 0.0000 0.0000
vt 1.0000 0.0000 0.0000
vt 0.0000 0.0000 0.0000
vt 1.0000 0.0000 0.0000
vt 0.0000 0.0000 0.0000
vt 1.0000 0.0000 0.0000
vt 0.0000 0.0000 0.0000
vt 1.0000 0.0000 0.0000
vt 0.0000 1.0000 0.0000
vt 1.0000 1.0000 0.0000
vt 0.0000 1.0000 0.0000
vt 1.0000 1.0000 0.0000
vt 0.0000 1.0000 0.0000
vt 1.0000 1.0000 0.0000
vt 0.0000 1.0000 0.0000
vt 1.0000 1.0000 0.0000
vt 0.5270 0.0000 0.0000
vt 0.5270 0.0000 0.0000
vt 0.5270 1.0000 0.0000
vt 0.5270 1.0000 0.0000
vt 0.5270 1.0000 0.0000
vt 1.0000 0.5270 0.0000
vt 1.0000 0.5270 0.0000
vt 0.0000 0.5270 0.0000
vt 0.4730 1.0000 0.0000
vt 0.0000 0.5270 0.0000
vt 0.4730 1.0000 0.0000
vt 0.4730 1.0000 0.0000
vt 0.4730 0.0000 0.0000
vt 0.4730 0.0000 0.0000
vt 0.5561 0.0000 0.0000
vt 0.5561 0.0000 0.0000
vt 0.5561 1.0000 0.0000
vt 0.5561 1.0000 0.0000
vt 0.5561 1.0000 0.0000
vt 0.4439 1.0000 0.0000
vt 0.4439 1.0000 0.0000
vt 0.4439 0.5270 0.0000
vt 0.4439 0.0000 0.0000
vt 0.4439 1.0000 0.0000
vt 0.4439 0.0000 0.0000
vt 0.4439 1.0000 0.0000
vt 0.4439 1.0000 0.0000
vt 0.4439 0.0000 0.0000
vt 0.4439 0.0000 0.0000
vt 0.7220 0.5270 0.0000
vt 0.2220 0.5270 0.0000
vt 0.4439 0.2635 0.0000
vt 0.4439 0.7635 0.0000
vt 0.5682 0.3812 0.0000
vt 0.5515 0.6720 0.0000
vt 0.3645 0.6788 0.0000
vt 0.3532 0.3712 0.0000
# 85 texture coords

o Box001
g Box001
s off
f 5/13/1 57/85/2 51/79/3 31/56/4 
f 10/19/5 48/76/6 47/75/7 14/27/8 
f 11/22/9 26/50/10 27/51/11 13/26/12 
f 12/24/13 38/64/14 39/65/15 16/32/16 
f 9/18/17 35/61/18 34/60/19 15/30/20 
f 1/1/21 45/73/22 44/71/23 5/13/24 
f 2/2/25 29/54/26 30/55/27 6/14/28 
f 4/4/29 41/68/30 42/69/31 7/15/32 
f 3/3/33 32/58/34 31/56/35 8/16/36 
f 2/6/37 45/72/38 46/74/39 21/42/40 
f 1/12/41 32/57/42 33/59/43 24/48/44 
f 3/10/45 41/67/46 40/66/47 23/46/48 
f 4/8/49 29/53/50 28/52/51 22/44/52 
f 10/20/53 35/61/54 36/62/55 18/34/56 
f 11/21/57 48/76/58 49/77/59 19/36/60 
f 12/23/61 26/50/62 25/49/63 20/38/64 
f 9/17/65 38/64/66 37/63/67 17/40/68 
f 24/47/69 14/27/70 47/75/71 46/74/72 
f 23/45/73 15/30/74 34/60/75 33/59/76 
f 22/43/77 16/32/78 39/65/79 40/66/80 
f 21/41/81 13/26/82 27/51/83 28/52/84 
f 30/55/85 7/15/86 55/83/87 50/78/88 
f 26/50/89 12/23/90 16/31/91 27/51/92 
f 35/61/93 10/20/94 14/28/95 34/60/96 
f 29/54/97 4/4/98 7/15/99 30/55/100 
f 32/58/101 1/1/102 5/13/103 31/56/104 
f 32/57/105 3/11/106 23/45/107 33/59/108 
f 29/53/109 2/7/110 21/41/111 28/52/112 
f 35/61/113 9/18/114 17/33/115 36/62/116 
f 26/50/117 11/22/118 19/37/119 25/49/120 
f 34/60/121 14/28/122 24/48/123 33/59/124 
f 27/51/125 16/31/126 22/44/127 28/52/128 
f 44/71/129 6/14/130 54/82/131 52/80/132 
f 48/76/133 11/21/134 13/25/135 47/75/136 
f 38/64/137 9/17/138 15/29/139 39/65/140 
f 45/73/141 2/2/142 6/14/143 44/71/144 
f 41/68/145 3/3/146 8/16/147 42/69/148 
f 45/72/149 1/5/150 24/47/151 46/74/152 
f 41/67/153 4/9/154 22/43/155 40/66/156 
f 48/76/157 10/19/158 18/35/159 49/77/160 
f 38/64/161 12/24/162 20/39/163 37/63/164 
f 47/75/165 13/25/166 21/42/167 46/74/168 
f 39/65/169 15/29/170 23/46/171 40/66/172 
f 42/69/173 8/16/174 56/84/175 53/81/176 
f 43/70/177 51/79/178 57/85/179 52/80/180 
f 43/70/181 50/78/182 55/83/183 53/81/184 
f 43/70/185 52/80/186 54/82/187 50/78/188 
f 43/70/189 53/81/190 56/84/191 51/79/192 
f 6/14/193 30/55/194 50/78/195 54/82/196 
f 7/15/197 42/69/198 53/81/199 55/83/200 
f 8/16/201 31/56/202 51/79/203 56/84/204 
f 5/13/205 44/71/206 52/80/207 57/85/208 
# 52 polygons

