# 3ds Max Wavefront OBJ Exporter v0.99 - (c)2007 guruware
# File Created: 09.05.2022 12:12:57

#
# object StraightStair001
#

v  5.0000 4.7500 -7.0000
v  0.0000 4.7500 -6.6500
v  5.0000 4.7500 -6.6500
v  0.0000 4.5000 -6.6500
v  5.0000 4.5000 -6.6500
v  0.0000 4.5000 -6.3000
v  5.0000 4.5000 -6.3000
v  0.0000 4.2500 -6.3000
v  5.0000 4.2500 -6.3000
v  0.0000 4.2500 -5.9500
v  5.0000 4.2500 -5.9500
v  0.0000 4.0000 -5.9500
v  5.0000 4.0000 -5.9500
v  0.0000 4.0000 -5.6000
v  5.0000 4.0000 -5.6000
v  0.0000 3.7500 -5.6000
v  5.0000 3.7500 -5.6000
v  0.0000 3.7500 -5.2500
v  5.0000 3.7500 -5.2500
v  0.0000 3.5000 -5.2500
v  5.0000 3.5000 -5.2500
v  0.0000 3.5000 -4.9000
v  5.0000 3.5000 -4.9000
v  0.0000 3.2500 -4.9000
v  5.0000 3.2500 -4.9000
v  0.0000 3.2500 -4.5500
v  5.0000 3.2500 -4.5500
v  0.0000 3.0000 -4.5500
v  5.0000 3.0000 -4.5500
v  0.0000 3.0000 -4.2000
v  5.0000 3.0000 -4.2000
v  0.0000 2.7500 -4.2000
v  5.0000 2.7500 -4.2000
v  0.0000 2.7500 -3.8500
v  5.0000 2.7500 -3.8500
v  0.0000 2.5000 -3.8500
v  5.0000 2.5000 -3.8500
v  0.0000 2.5000 -3.5000
v  5.0000 2.5000 -3.5000
v  0.0000 2.2500 -3.5000
v  5.0000 2.2500 -3.5000
v  0.0000 2.2500 -3.1500
v  5.0000 2.2500 -3.1500
v  0.0000 2.0000 -3.1500
v  5.0000 2.0000 -3.1500
v  0.0000 2.0000 -2.8000
v  5.0000 2.0000 -2.8000
v  0.0000 1.7500 -2.8000
v  5.0000 1.7500 -2.8000
v  0.0000 1.7500 -2.4500
v  5.0000 1.7500 -2.4500
v  0.0000 1.5000 -2.4500
v  5.0000 1.5000 -2.4500
v  0.0000 1.5000 -2.1000
v  5.0000 1.5000 -2.1000
v  0.0000 1.2500 -2.1000
v  5.0000 1.2500 -2.1000
v  0.0000 1.2500 -1.7500
v  5.0000 1.2500 -1.7500
v  0.0000 1.0000 -1.7500
v  5.0000 1.0000 -1.7500
v  0.0000 1.0000 -1.4000
v  5.0000 1.0000 -1.4000
v  0.0000 0.7500 -1.4000
v  5.0000 0.7500 -1.4000
v  0.0000 0.7500 -1.0500
v  5.0000 0.7500 -1.0500
v  0.0000 0.5000 -1.0500
v  5.0000 0.5000 -1.0500
v  0.0000 0.5000 -0.7000
v  5.0000 0.5000 -0.7000
v  0.0000 0.2500 -0.7000
v  5.0000 0.2500 -0.7000
v  0.0000 0.2500 -0.3500
v  0.0000 0.0000 -0.3500
v  5.0000 0.0000 -0.3500
v  5.3230 4.7500 -6.6500
v  5.3230 0.2500 -0.3500
v  5.0000 0.2500 -0.3500
v  5.3230 4.7500 -7.0000
v  -0.0000 4.7500 -7.0000
v  5.3230 0.0000 -6.6500
v  5.3230 0.0000 -7.0000
v  5.0000 0.2500 -0.3500
v  5.3230 0.0000 -0.3500
v  5.0000 0.0000 -0.3500
v  5.0000 4.7500 -7.0000
v  5.0000 4.7500 -6.6500
v  5.0000 0.0000 -7.0000
v  5.0000 0.0000 -6.6500
v  -0.3230 4.7500 -6.6500
v  -0.3230 0.2500 -0.3500
v  -0.0000 0.2500 -0.3500
v  -0.0000 4.7500 -6.6500
v  -0.0000 4.7500 -7.0000
v  -0.3230 4.7500 -7.0000
v  -0.0000 0.0000 -6.6500
v  -0.0000 0.0000 -7.0000
v  -0.3230 0.0000 -0.3500
v  -0.0000 0.0000 -0.3500
v  -0.3230 0.0000 -7.0000
v  -0.3230 0.0000 -6.6500
# 102 vertices

vn 0.0000 1.0000 -0.0000
vn 0.0000 1.0000 -0.0000
vn 0.0000 1.0000 -0.0000
vn 0.0000 1.0000 -0.0000
vn 0.0000 0.0000 1.0000
vn 0.0000 0.0000 1.0000
vn 0.0000 0.0000 1.0000
vn 0.0000 0.0000 1.0000
vn 0.0000 1.0000 -0.0000
vn 0.0000 1.0000 -0.0000
vn 0.0000 1.0000 -0.0000
vn 0.0000 1.0000 -0.0000
vn 0.0000 -0.0000 1.0000
vn 0.0000 -0.0000 1.0000
vn 0.0000 -0.0000 1.0000
vn 0.0000 -0.0000 1.0000
vn 0.0000 1.0000 -0.0000
vn 0.0000 1.0000 -0.0000
vn 0.0000 1.0000 -0.0000
vn 0.0000 1.0000 -0.0000
vn 0.0000 0.0000 1.0000
vn 0.0000 0.0000 1.0000
vn 0.0000 0.0000 1.0000
vn 0.0000 0.0000 1.0000
vn 0.0000 1.0000 -0.0000
vn 0.0000 1.0000 -0.0000
vn 0.0000 1.0000 -0.0000
vn 0.0000 1.0000 -0.0000
vn 0.0000 0.0000 1.0000
vn 0.0000 0.0000 1.0000
vn 0.0000 0.0000 1.0000
vn 0.0000 0.0000 1.0000
vn 0.0000 1.0000 -0.0000
vn 0.0000 1.0000 -0.0000
vn 0.0000 1.0000 -0.0000
vn 0.0000 1.0000 -0.0000
vn 0.0000 0.0000 1.0000
vn 0.0000 0.0000 1.0000
vn 0.0000 0.0000 1.0000
vn 0.0000 0.0000 1.0000
vn 0.0000 1.0000 -0.0000
vn 0.0000 1.0000 -0.0000
vn 0.0000 1.0000 -0.0000
vn 0.0000 1.0000 -0.0000
vn 0.0000 0.0000 1.0000
vn 0.0000 0.0000 1.0000
vn 0.0000 0.0000 1.0000
vn 0.0000 0.0000 1.0000
vn 0.0000 1.0000 -0.0000
vn 0.0000 1.0000 -0.0000
vn 0.0000 1.0000 -0.0000
vn 0.0000 1.0000 -0.0000
vn 0.0000 -0.0000 1.0000
vn 0.0000 -0.0000 1.0000
vn 0.0000 -0.0000 1.0000
vn 0.0000 -0.0000 1.0000
vn 0.0000 1.0000 -0.0000
vn 0.0000 1.0000 -0.0000
vn 0.0000 1.0000 -0.0000
vn 0.0000 1.0000 -0.0000
vn 0.0000 0.0000 1.0000
vn 0.0000 0.0000 1.0000
vn 0.0000 0.0000 1.0000
vn 0.0000 0.0000 1.0000
vn 0.0000 1.0000 -0.0000
vn 0.0000 1.0000 -0.0000
vn 0.0000 1.0000 -0.0000
vn 0.0000 1.0000 -0.0000
vn 0.0000 0.0000 1.0000
vn 0.0000 0.0000 1.0000
vn 0.0000 0.0000 1.0000
vn 0.0000 0.0000 1.0000
vn 0.0000 1.0000 -0.0000
vn 0.0000 1.0000 -0.0000
vn 0.0000 1.0000 -0.0000
vn 0.0000 1.0000 -0.0000
vn 0.0000 0.0000 1.0000
vn 0.0000 0.0000 1.0000
vn 0.0000 0.0000 1.0000
vn 0.0000 0.0000 1.0000
vn 0.0000 1.0000 -0.0000
vn 0.0000 1.0000 -0.0000
vn 0.0000 1.0000 -0.0000
vn 0.0000 1.0000 -0.0000
vn 0.0000 0.0000 1.0000
vn 0.0000 0.0000 1.0000
vn 0.0000 0.0000 1.0000
vn 0.0000 0.0000 1.0000
vn 0.0000 1.0000 -0.0000
vn 0.0000 1.0000 -0.0000
vn 0.0000 1.0000 -0.0000
vn 0.0000 1.0000 -0.0000
vn 0.0000 0.0000 1.0000
vn 0.0000 0.0000 1.0000
vn 0.0000 0.0000 1.0000
vn 0.0000 0.0000 1.0000
vn 0.0000 1.0000 -0.0000
vn 0.0000 1.0000 -0.0000
vn 0.0000 1.0000 -0.0000
vn 0.0000 1.0000 -0.0000
vn 0.0000 0.0000 1.0000
vn 0.0000 0.0000 1.0000
vn 0.0000 0.0000 1.0000
vn 0.0000 0.0000 1.0000
vn 0.0000 1.0000 -0.0000
vn 0.0000 1.0000 -0.0000
vn 0.0000 1.0000 -0.0000
vn 0.0000 1.0000 -0.0000
vn 0.0000 0.0000 1.0000
vn 0.0000 0.0000 1.0000
vn 0.0000 0.0000 1.0000
vn 0.0000 0.0000 1.0000
vn 0.0000 1.0000 -0.0000
vn 0.0000 1.0000 -0.0000
vn 0.0000 1.0000 -0.0000
vn 0.0000 1.0000 -0.0000
vn 0.0000 -0.0000 1.0000
vn 0.0000 -0.0000 1.0000
vn 0.0000 -0.0000 1.0000
vn 0.0000 -0.0000 1.0000
vn 0.0000 1.0000 -0.0000
vn 0.0000 1.0000 -0.0000
vn 0.0000 1.0000 -0.0000
vn 0.0000 1.0000 -0.0000
vn 0.0000 -0.0000 1.0000
vn 0.0000 -0.0000 1.0000
vn 0.0000 -0.0000 1.0000
vn 0.0000 -0.0000 1.0000
vn 0.0000 1.0000 -0.0000
vn 0.0000 1.0000 -0.0000
vn 0.0000 1.0000 -0.0000
vn 0.0000 1.0000 -0.0000
vn 0.0000 0.0000 1.0000
vn 0.0000 0.0000 1.0000
vn 0.0000 0.0000 1.0000
vn 0.0000 0.0000 1.0000
vn 0.0000 1.0000 -0.0000
vn 0.0000 1.0000 -0.0000
vn 0.0000 1.0000 -0.0000
vn 0.0000 1.0000 -0.0000
vn 0.0000 -0.0000 1.0000
vn 0.0000 -0.0000 1.0000
vn 0.0000 -0.0000 1.0000
vn 0.0000 -0.0000 1.0000
vn 0.0000 1.0000 -0.0000
vn 0.0000 1.0000 -0.0000
vn 0.0000 1.0000 -0.0000
vn 0.0000 1.0000 -0.0000
vn 0.0000 0.0000 1.0000
vn 0.0000 0.0000 1.0000
vn 0.0000 0.0000 1.0000
vn 0.0000 0.0000 1.0000
vn 0.0000 0.8137 0.5812
vn 0.0000 0.8137 0.5812
vn 0.0000 0.8137 0.5812
vn 0.0000 0.8137 0.5812
vn 0.0000 1.0000 -0.0000
vn 0.0000 1.0000 -0.0000
vn 0.0000 1.0000 -0.0000
vn 0.0000 1.0000 -0.0000
vn 1.0000 0.0000 -0.0000
vn 1.0000 0.0000 -0.0000
vn 1.0000 0.0000 -0.0000
vn 1.0000 0.0000 -0.0000
vn 0.0000 0.0000 1.0000
vn 0.0000 0.0000 1.0000
vn 0.0000 0.0000 1.0000
vn 0.0000 0.0000 1.0000
vn 1.0000 0.0000 -0.0000
vn 1.0000 0.0000 -0.0000
vn 1.0000 0.0000 -0.0000
vn 1.0000 0.0000 -0.0000
vn -1.0000 0.0000 -0.0000
vn -1.0000 0.0000 -0.0000
vn -1.0000 0.0000 -0.0000
vn -1.0000 0.0000 -0.0000
vn -1.0000 0.0000 -0.0000
vn -1.0000 0.0000 -0.0000
vn -1.0000 0.0000 -0.0000
vn -1.0000 0.0000 -0.0000
vn 0.0000 0.8137 0.5812
vn 0.0000 0.8137 0.5812
vn 0.0000 0.8137 0.5812
vn 0.0000 0.8137 0.5812
vn 0.0000 1.0000 -0.0000
vn 0.0000 1.0000 -0.0000
vn 0.0000 1.0000 -0.0000
vn 0.0000 1.0000 -0.0000
vn 1.0000 0.0000 -0.0000
vn 1.0000 0.0000 -0.0000
vn 1.0000 0.0000 -0.0000
vn 1.0000 0.0000 -0.0000
vn 0.0000 0.0000 1.0000
vn 0.0000 0.0000 1.0000
vn 0.0000 0.0000 1.0000
vn 0.0000 0.0000 1.0000
vn 1.0000 0.0000 -0.0000
vn 1.0000 0.0000 -0.0000
vn 1.0000 0.0000 -0.0000
vn 1.0000 0.0000 -0.0000
vn -1.0000 0.0000 -0.0000
vn -1.0000 0.0000 -0.0000
vn -1.0000 0.0000 -0.0000
vn -1.0000 0.0000 -0.0000
vn -1.0000 0.0000 -0.0000
vn -1.0000 0.0000 -0.0000
vn -1.0000 0.0000 -0.0000
vn -1.0000 0.0000 -0.0000
# 208 vertex normals

vt 0.6621 0.8770 0.0000
vt 0.6621 0.8660 0.0000
vt 0.8184 0.8660 0.0000
vt 0.8184 0.8770 0.0000
vt 0.6621 0.8581 0.0000
vt 0.8184 0.8581 0.0000
vt 0.6621 0.8472 0.0000
vt 0.8184 0.8472 0.0000
vt 0.6621 0.8393 0.0000
vt 0.8184 0.8393 0.0000
vt 0.6621 0.8284 0.0000
vt 0.8184 0.8284 0.0000
vt 0.6621 0.8205 0.0000
vt 0.8184 0.8205 0.0000
vt 0.6621 0.8095 0.0000
vt 0.8184 0.8095 0.0000
vt 0.6621 0.8017 0.0000
vt 0.8184 0.8017 0.0000
vt 0.6621 0.7907 0.0000
vt 0.8184 0.7907 0.0000
vt 0.6621 0.7829 0.0000
vt 0.8184 0.7829 0.0000
vt 0.6621 0.7719 0.0000
vt 0.8184 0.7719 0.0000
vt 0.6621 0.7641 0.0000
vt 0.8184 0.7641 0.0000
vt 0.6621 0.7531 0.0000
vt 0.8184 0.7531 0.0000
vt 0.6621 0.7453 0.0000
vt 0.8184 0.7453 0.0000
vt 0.6621 0.7343 0.0000
vt 0.8184 0.7343 0.0000
vt 0.6621 0.7265 0.0000
vt 0.8184 0.7265 0.0000
vt 0.6621 0.7155 0.0000
vt 0.8184 0.7155 0.0000
vt 0.6621 0.7076 0.0000
vt 0.8184 0.7076 0.0000
vt 0.6621 0.6967 0.0000
vt 0.8184 0.6967 0.0000
vt 0.6621 0.6888 0.0000
vt 0.8184 0.6888 0.0000
vt 0.6621 0.6779 0.0000
vt 0.8184 0.6779 0.0000
vt 0.6621 0.6700 0.0000
vt 0.8184 0.6700 0.0000
vt 0.6621 0.6591 0.0000
vt 0.8184 0.6591 0.0000
vt 0.6621 0.6512 0.0000
vt 0.8184 0.6512 0.0000
vt 0.6621 0.6402 0.0000
vt 0.8184 0.6402 0.0000
vt 0.6621 0.6324 0.0000
vt 0.8184 0.6324 0.0000
vt 0.6621 0.6214 0.0000
vt 0.8184 0.6214 0.0000
vt 0.6621 0.6136 0.0000
vt 0.8184 0.6136 0.0000
vt 0.6621 0.6026 0.0000
vt 0.8184 0.6026 0.0000
vt 0.6621 0.5948 0.0000
vt 0.8184 0.5948 0.0000
vt 0.6621 0.5838 0.0000
vt 0.8184 0.5838 0.0000
vt 0.6621 0.5760 0.0000
vt 0.8184 0.5760 0.0000
vt 0.6621 0.5650 0.0000
vt 0.8184 0.5650 0.0000
vt 0.6621 0.5572 0.0000
vt 0.8184 0.5572 0.0000
vt 0.6621 0.5462 0.0000
vt 0.8184 0.5462 0.0000
vt 0.6621 0.5383 0.0000
vt 0.8184 0.5383 0.0000
vt 0.6621 0.5274 0.0000
vt 0.8184 0.5274 0.0000
vt 0.6621 0.5195 0.0000
vt 0.8184 0.5195 0.0000
vt 0.5461 0.8739 0.0000
vt 0.5379 0.8739 0.0000
vt 0.5379 0.6939 0.0000
vt 0.5461 0.6939 0.0000
vt 0.5461 0.8828 0.0000
vt 0.5379 0.8828 0.0000
vt 0.6387 0.8739 0.0000
vt 0.6387 0.8828 0.0000
vt 0.5379 0.6875 0.0000
vt 0.5461 0.6875 0.0000
vt 0.6387 0.6939 0.0000
vt 0.4453 0.8828 0.0000
vt 0.4453 0.8739 0.0000
vt 0.4453 0.6939 0.0000
vt 0.5461 0.8739 0.0000
vt 0.5379 0.8739 0.0000
vt 0.5379 0.6939 0.0000
vt 0.5461 0.6939 0.0000
vt 0.5461 0.8828 0.0000
vt 0.5379 0.8828 0.0000
vt 0.6387 0.8739 0.0000
vt 0.6387 0.8828 0.0000
vt 0.5379 0.6875 0.0000
vt 0.5461 0.6875 0.0000
vt 0.6387 0.6939 0.0000
vt 0.4453 0.8828 0.0000
vt 0.4453 0.8739 0.0000
vt 0.4453 0.6939 0.0000
# 106 texture coords

o StraightStair001
g StraightStair001
s 2
f 81/1/1 2/2/2 3/3/3 1/4/4 
s 4
f 2/2/5 4/5/6 5/6/7 3/3/8 
s 2
f 4/5/9 6/7/10 7/8/11 5/6/12 
s 4
f 6/7/13 8/9/14 9/10/15 7/8/16 
s 2
f 8/9/17 10/11/18 11/12/19 9/10/20 
s 4
f 10/11/21 12/13/22 13/14/23 11/12/24 
s 2
f 12/13/25 14/15/26 15/16/27 13/14/28 
s 4
f 14/15/29 16/17/30 17/18/31 15/16/32 
s 2
f 16/17/33 18/19/34 19/20/35 17/18/36 
s 4
f 18/19/37 20/21/38 21/22/39 19/20/40 
s 2
f 20/21/41 22/23/42 23/24/43 21/22/44 
s 4
f 22/23/45 24/25/46 25/26/47 23/24/48 
s 2
f 24/25/49 26/27/50 27/28/51 25/26/52 
s 4
f 26/27/53 28/29/54 29/30/55 27/28/56 
s 2
f 28/29/57 30/31/58 31/32/59 29/30/60 
s 4
f 30/31/61 32/33/62 33/34/63 31/32/64 
s 2
f 32/33/65 34/35/66 35/36/67 33/34/68 
s 4
f 34/35/69 36/37/70 37/38/71 35/36/72 
s 2
f 36/37/73 38/39/74 39/40/75 37/38/76 
s 4
f 38/39/77 40/41/78 41/42/79 39/40/80 
s 2
f 40/41/81 42/43/82 43/44/83 41/42/84 
s 4
f 42/43/85 44/45/86 45/46/87 43/44/88 
s 2
f 44/45/89 46/47/90 47/48/91 45/46/92 
s 4
f 46/47/93 48/49/94 49/50/95 47/48/96 
s 2
f 48/49/97 50/51/98 51/52/99 49/50/100 
s 4
f 50/51/101 52/53/102 53/54/103 51/52/104 
s 2
f 52/53/105 54/55/106 55/56/107 53/54/108 
s 4
f 54/55/109 56/57/110 57/58/111 55/56/112 
s 2
f 56/57/113 58/59/114 59/60/115 57/58/116 
s 4
f 58/59/117 60/61/118 61/62/119 59/60/120 
s 2
f 60/61/121 62/63/122 63/64/123 61/62/124 
s 4
f 62/63/125 64/65/126 65/66/127 63/64/128 
s 2
f 64/65/129 66/67/130 67/68/131 65/66/132 
s 4
f 66/67/133 68/69/134 69/70/135 67/68/136 
s 2
f 68/69/137 70/71/138 71/72/139 69/70/140 
s 4
f 70/71/141 72/73/142 73/74/143 71/72/144 
s 2
f 72/73/145 74/75/146 79/76/147 73/74/148 
s 4
f 74/75/149 75/77/150 76/78/151 79/76/152 
s off
f 77/79/153 88/80/154 84/81/155 78/82/156 
f 80/83/157 87/84/158 88/80/159 77/79/160 
f 82/85/161 83/86/162 80/83/163 77/79/164 
f 86/87/165 85/88/166 78/82/167 84/81/168 
s 1
f 82/85/169 77/79/170 78/82/171 85/89/172 
s off
f 89/90/173 90/91/174 88/80/175 87/84/176 
s 1
f 84/81/177 88/80/178 90/91/179 86/92/180 
s off
f 94/93/181 91/94/182 92/95/183 93/96/184 
f 95/97/185 96/98/186 91/94/187 94/93/188 
f 97/99/189 98/100/190 95/97/191 94/93/192 
f 99/101/193 100/102/194 93/96/195 92/95/196 
s 1
f 97/99/197 94/93/198 93/96/199 100/103/200 
s off
f 101/104/201 102/105/202 91/94/203 96/98/204 
s 1
f 92/95/205 91/94/206 102/105/207 99/106/208 
# 52 polygons

