# 3ds Max Wavefront OBJ Exporter v0.99 - (c)2007 guruware
# File Created: 06.04.2022 11:03:07

#
# object CaisseA
#

v  -0.6941 0.0000 0.6941
v  0.6941 0.0000 0.6941
v  -0.6941 0.0000 -0.6941
v  0.6941 0.0000 -0.6941
v  -0.6941 1.3882 0.6941
v  0.6941 1.3882 0.6941
v  -0.6941 1.3882 -0.6941
v  0.6941 1.3882 -0.6941
v  -0.4685 1.3882 0.4685
v  0.4685 1.3882 0.4685
v  0.4685 1.3882 -0.4685
v  -0.4685 1.3882 -0.4685
v  -0.4685 0.2256 0.6941
v  0.4685 0.2256 0.6941
v  0.4685 1.1627 0.6941
v  -0.4685 1.1627 0.6941
v  0.6941 0.2256 0.4685
v  0.6941 0.2256 -0.4685
v  0.6941 1.1627 -0.4685
v  0.6941 1.1627 0.4685
v  0.4685 0.2256 -0.6941
v  -0.4685 0.2256 -0.6941
v  -0.4685 1.1627 -0.6941
v  0.4685 1.1627 -0.6941
v  -0.6941 0.2256 -0.4685
v  -0.6941 0.2256 0.4685
v  -0.6941 1.1627 0.4685
v  -0.6941 1.1627 -0.4685
v  -0.4685 1.3535 0.4685
v  0.4685 1.3535 0.4685
v  0.4685 1.3535 -0.4685
v  -0.4685 1.3535 -0.4685
v  -0.4685 0.2256 0.6594
v  0.4685 0.2256 0.6594
v  0.4685 1.1627 0.6594
v  -0.4685 1.1627 0.6594
v  0.6594 0.2256 0.4685
v  0.6594 0.2256 -0.4685
v  0.6594 1.1627 -0.4685
v  0.6594 1.1627 0.4685
v  0.4685 0.2256 -0.6594
v  -0.4685 0.2256 -0.6594
v  -0.4685 1.1627 -0.6594
v  0.4685 1.1627 -0.6594
v  -0.6594 0.2256 -0.4685
v  -0.6594 0.2256 0.4685
v  -0.6594 1.1627 0.4685
v  -0.6594 1.1627 -0.4685
# 48 vertices

vn 0.0000 1.0000 -0.0000
vn 0.0000 1.0000 -0.0000
vn 0.0000 1.0000 -0.0000
vn 0.0000 1.0000 -0.0000
vn 0.0000 0.0000 1.0000
vn 0.0000 0.0000 1.0000
vn 0.0000 0.0000 1.0000
vn 0.0000 0.0000 1.0000
vn 1.0000 0.0000 -0.0000
vn 1.0000 0.0000 -0.0000
vn 1.0000 0.0000 -0.0000
vn 1.0000 0.0000 -0.0000
vn 0.0000 0.0000 -1.0000
vn 0.0000 0.0000 -1.0000
vn 0.0000 0.0000 -1.0000
vn 0.0000 0.0000 -1.0000
vn -1.0000 0.0000 -0.0000
vn -1.0000 0.0000 -0.0000
vn -1.0000 0.0000 -0.0000
vn -1.0000 0.0000 -0.0000
vn 0.0000 1.0000 -0.0000
vn 0.0000 1.0000 -0.0000
vn 0.0000 1.0000 -0.0000
vn 0.0000 1.0000 -0.0000
vn 0.0000 1.0000 -0.0000
vn 0.0000 1.0000 -0.0000
vn 0.0000 1.0000 -0.0000
vn 0.0000 1.0000 -0.0000
vn 0.0000 1.0000 -0.0000
vn 0.0000 1.0000 -0.0000
vn 0.0000 1.0000 -0.0000
vn 0.0000 1.0000 -0.0000
vn 0.0000 1.0000 -0.0000
vn 0.0000 1.0000 -0.0000
vn 0.0000 1.0000 -0.0000
vn 0.0000 1.0000 -0.0000
vn 0.0000 0.0000 1.0000
vn 0.0000 0.0000 1.0000
vn 0.0000 0.0000 1.0000
vn 0.0000 0.0000 1.0000
vn 0.0000 0.0000 1.0000
vn 0.0000 0.0000 1.0000
vn 0.0000 0.0000 1.0000
vn 0.0000 0.0000 1.0000
vn 0.0000 0.0000 1.0000
vn 0.0000 0.0000 1.0000
vn 0.0000 0.0000 1.0000
vn 0.0000 0.0000 1.0000
vn 0.0000 0.0000 1.0000
vn 0.0000 0.0000 1.0000
vn 0.0000 0.0000 1.0000
vn 0.0000 0.0000 1.0000
vn 1.0000 0.0000 -0.0000
vn 1.0000 0.0000 -0.0000
vn 1.0000 0.0000 -0.0000
vn 1.0000 0.0000 -0.0000
vn 1.0000 0.0000 -0.0000
vn 1.0000 0.0000 -0.0000
vn 1.0000 0.0000 -0.0000
vn 1.0000 0.0000 -0.0000
vn 1.0000 0.0000 -0.0000
vn 1.0000 0.0000 -0.0000
vn 1.0000 0.0000 -0.0000
vn 1.0000 0.0000 -0.0000
vn 1.0000 0.0000 -0.0000
vn 1.0000 0.0000 -0.0000
vn 1.0000 0.0000 -0.0000
vn 1.0000 0.0000 -0.0000
vn 0.0000 0.0000 -1.0000
vn 0.0000 0.0000 -1.0000
vn 0.0000 0.0000 -1.0000
vn 0.0000 0.0000 -1.0000
vn 0.0000 0.0000 -1.0000
vn 0.0000 0.0000 -1.0000
vn 0.0000 0.0000 -1.0000
vn 0.0000 0.0000 -1.0000
vn 0.0000 0.0000 -1.0000
vn 0.0000 0.0000 -1.0000
vn 0.0000 0.0000 -1.0000
vn 0.0000 0.0000 -1.0000
vn 0.0000 0.0000 -1.0000
vn 0.0000 0.0000 -1.0000
vn 0.0000 0.0000 -1.0000
vn 0.0000 0.0000 -1.0000
vn -1.0000 0.0000 -0.0000
vn -1.0000 0.0000 -0.0000
vn -1.0000 0.0000 -0.0000
vn -1.0000 0.0000 -0.0000
vn -1.0000 0.0000 -0.0000
vn -1.0000 0.0000 -0.0000
vn -1.0000 0.0000 -0.0000
vn -1.0000 0.0000 -0.0000
vn -1.0000 0.0000 -0.0000
vn -1.0000 0.0000 -0.0000
vn -1.0000 0.0000 -0.0000
vn -1.0000 0.0000 -0.0000
vn -1.0000 0.0000 -0.0000
vn -1.0000 0.0000 -0.0000
vn -1.0000 0.0000 -0.0000
vn -1.0000 0.0000 -0.0000
vn 0.0000 0.0000 -1.0000
vn 0.0000 0.0000 -1.0000
vn 0.0000 0.0000 -1.0000
vn 0.0000 0.0000 -1.0000
vn -1.0000 0.0000 -0.0000
vn -1.0000 0.0000 -0.0000
vn -1.0000 0.0000 -0.0000
vn -1.0000 0.0000 -0.0000
vn 0.0000 0.0000 1.0000
vn 0.0000 0.0000 1.0000
vn 0.0000 0.0000 1.0000
vn 0.0000 0.0000 1.0000
vn 1.0000 0.0000 -0.0000
vn 1.0000 0.0000 -0.0000
vn 1.0000 0.0000 -0.0000
vn 1.0000 0.0000 -0.0000
vn 0.0000 1.0000 -0.0000
vn 0.0000 1.0000 -0.0000
vn 0.0000 1.0000 -0.0000
vn 0.0000 1.0000 -0.0000
vn -1.0000 0.0000 -0.0000
vn -1.0000 0.0000 -0.0000
vn -1.0000 0.0000 -0.0000
vn -1.0000 0.0000 -0.0000
vn 1.0000 0.0000 -0.0000
vn 1.0000 0.0000 -0.0000
vn 1.0000 0.0000 -0.0000
vn 1.0000 0.0000 -0.0000
vn 0.0000 1.0000 -0.0000
vn 0.0000 1.0000 -0.0000
vn 0.0000 1.0000 -0.0000
vn 0.0000 1.0000 -0.0000
vn 0.0000 0.0000 1.0000
vn 0.0000 0.0000 1.0000
vn 0.0000 0.0000 1.0000
vn 0.0000 0.0000 1.0000
vn 0.0000 0.0000 -1.0000
vn 0.0000 0.0000 -1.0000
vn 0.0000 0.0000 -1.0000
vn 0.0000 0.0000 -1.0000
vn 0.0000 1.0000 -0.0000
vn 0.0000 1.0000 -0.0000
vn 0.0000 1.0000 -0.0000
vn 0.0000 1.0000 -0.0000
vn 1.0000 0.0000 -0.0000
vn 1.0000 0.0000 -0.0000
vn 1.0000 0.0000 -0.0000
vn 1.0000 0.0000 -0.0000
vn -1.0000 0.0000 -0.0000
vn -1.0000 0.0000 -0.0000
vn -1.0000 0.0000 -0.0000
vn -1.0000 0.0000 -0.0000
vn 0.0000 1.0000 -0.0000
vn 0.0000 1.0000 -0.0000
vn 0.0000 1.0000 -0.0000
vn 0.0000 1.0000 -0.0000
vn 0.0000 0.0000 -1.0000
vn 0.0000 0.0000 -1.0000
vn 0.0000 0.0000 -1.0000
vn 0.0000 0.0000 -1.0000
vn 0.0000 0.0000 1.0000
vn 0.0000 0.0000 1.0000
vn 0.0000 0.0000 1.0000
vn 0.0000 0.0000 1.0000
# 164 vertex normals

vt 0.7031 0.6094 0.0000
vt 0.7031 0.8438 0.0000
vt 0.4844 0.8438 0.0000
vt 0.4844 0.6094 0.0000
vt 0.4844 0.6094 0.0000
vt 0.7031 0.6094 0.0000
vt 0.7031 0.8438 0.0000
vt 0.4844 0.8438 0.0000
vt 0.4844 0.6094 0.0000
vt 0.7031 0.6094 0.0000
vt 0.7031 0.8438 0.0000
vt 0.4844 0.8438 0.0000
vt 0.4844 0.6094 0.0000
vt 0.7031 0.6094 0.0000
vt 0.7031 0.8438 0.0000
vt 0.4844 0.8438 0.0000
vt 0.4844 0.6094 0.0000
vt 0.7031 0.6094 0.0000
vt 0.7031 0.8438 0.0000
vt 0.4844 0.8438 0.0000
vt 0.0625 0.8750 0.0000
vt 0.0625 0.5469 0.0000
vt 0.1250 0.6094 0.0000
vt 0.1250 0.8125 0.0000
vt 0.4063 0.5469 0.0000
vt 0.3438 0.6094 0.0000
vt 0.4063 0.8750 0.0000
vt 0.3438 0.8125 0.0000
vt 0.0625 0.8750 0.0000
vt 0.0625 0.5469 0.0000
vt 0.1250 0.6094 0.0000
vt 0.1250 0.8125 0.0000
vt 0.4063 0.5469 0.0000
vt 0.3438 0.6094 0.0000
vt 0.4063 0.8750 0.0000
vt 0.3438 0.8125 0.0000
vt 0.0625 0.8750 0.0000
vt 0.0625 0.5469 0.0000
vt 0.1250 0.6094 0.0000
vt 0.1250 0.8125 0.0000
vt 0.4063 0.5469 0.0000
vt 0.3438 0.6094 0.0000
vt 0.4063 0.8750 0.0000
vt 0.3438 0.8125 0.0000
vt 0.0625 0.5469 0.0000
vt 0.4063 0.5469 0.0000
vt 0.3438 0.6094 0.0000
vt 0.1250 0.6094 0.0000
vt 0.4063 0.8750 0.0000
vt 0.3438 0.8125 0.0000
vt 0.0625 0.8750 0.0000
vt 0.1250 0.8125 0.0000
vt 0.0625 0.5469 0.0000
vt 0.4063 0.5469 0.0000
vt 0.3438 0.6094 0.0000
vt 0.1250 0.6094 0.0000
vt 0.4063 0.8750 0.0000
vt 0.3438 0.8125 0.0000
vt 0.0625 0.8750 0.0000
vt 0.1250 0.8125 0.0000
vt 0.4540 0.5206 0.0000
vt 0.4836 0.5223 0.0000
vt 0.4844 0.5234 0.0000
vt 0.4531 0.5217 0.0000
vt 0.4835 0.4794 0.0000
vt 0.4844 0.4783 0.0000
vt 0.4539 0.4777 0.0000
vt 0.4531 0.4766 0.0000
vt 0.4688 0.5026 0.0000
vt 0.4688 0.4974 0.0000
vt 0.4844 0.4974 0.0000
vt 0.4844 0.5026 0.0000
vt 0.4688 0.4922 0.0000
vt 0.4844 0.4922 0.0000
vt 0.4688 0.5078 0.0000
vt 0.4844 0.5078 0.0000
vt 0.4688 0.5026 0.0000
vt 0.4688 0.4974 0.0000
vt 0.4844 0.4974 0.0000
vt 0.4844 0.5026 0.0000
vt 0.4688 0.4922 0.0000
vt 0.4844 0.4922 0.0000
vt 0.4688 0.5078 0.0000
vt 0.4844 0.5078 0.0000
vt 0.4688 0.5026 0.0000
vt 0.4688 0.4974 0.0000
vt 0.4844 0.4974 0.0000
vt 0.4844 0.5026 0.0000
vt 0.4688 0.4922 0.0000
vt 0.4844 0.4922 0.0000
vt 0.4688 0.5078 0.0000
vt 0.4844 0.5078 0.0000
vt 0.4688 0.5026 0.0000
vt 0.4688 0.4974 0.0000
vt 0.4844 0.4974 0.0000
vt 0.4844 0.5026 0.0000
vt 0.4688 0.4922 0.0000
vt 0.4844 0.4922 0.0000
vt 0.4688 0.5078 0.0000
vt 0.4844 0.5078 0.0000
# 100 texture coords

o CaisseA
g CaisseA
s 4
f 31/3/1 32/4/2 29/1/3 30/2/4 
s 8
f 35/7/5 36/8/6 33/5/7 34/6/8 
s 16
f 39/11/9 40/12/10 37/9/11 38/10/12 
s 32
f 43/15/13 44/16/14 41/13/15 42/14/16 
s 64
f 47/19/17 48/20/18 45/17/19 46/18/20 
s off
f 10/23/21 9/24/22 5/21/23 6/22/24 
f 11/26/25 10/23/26 6/22/27 8/25/28 
f 12/28/29 11/26/30 8/25/31 7/27/32 
f 9/24/33 12/28/34 7/27/35 5/21/36 
f 14/31/37 13/32/38 1/29/39 2/30/40 
f 15/34/41 14/31/42 2/30/43 6/33/44 
f 16/36/45 15/34/46 6/33/47 5/35/48 
f 13/32/49 16/36/50 5/35/51 1/29/52 
f 18/39/53 17/40/54 2/37/55 4/38/56 
f 19/42/57 18/39/58 4/38/59 8/41/60 
f 20/44/61 19/42/62 8/41/63 6/43/64 
f 17/40/65 20/44/66 6/43/67 2/37/68 
f 22/47/69 21/48/70 4/45/71 3/46/72 
f 23/50/73 22/47/74 3/46/75 7/49/76 
f 24/52/77 23/50/78 7/49/79 8/51/80 
f 21/48/81 24/52/82 8/51/83 4/45/84 
f 26/55/85 25/56/86 3/53/87 1/54/88 
f 27/58/89 26/55/90 1/54/91 5/57/92 
f 28/60/93 27/58/94 5/57/95 7/59/96 
f 25/56/97 28/60/98 7/59/99 3/53/100 
f 30/63/101 29/64/102 9/61/103 10/62/104 
f 31/66/105 30/63/106 10/62/107 11/65/108 
f 32/68/109 31/66/110 11/65/111 12/67/112 
f 29/64/113 32/68/114 12/67/115 9/61/116 
f 34/71/117 33/72/118 13/69/119 14/70/120 
f 35/74/121 34/71/122 14/70/123 15/73/124 
f 33/72/125 36/76/126 16/75/127 13/69/128 
f 38/79/129 37/80/130 17/77/131 18/78/132 
f 39/82/133 38/79/134 18/78/135 19/81/136 
f 37/80/137 40/84/138 20/83/139 17/77/140 
f 42/87/141 41/88/142 21/85/143 22/86/144 
f 43/90/145 42/87/146 22/86/147 23/89/148 
f 41/88/149 44/92/150 24/91/151 21/85/152 
f 46/95/153 45/96/154 25/93/155 26/94/156 
f 47/98/157 46/95/158 26/94/159 27/97/160 
f 45/96/161 48/100/162 28/99/163 25/93/164 
# 41 polygons

