# 3ds Max Wavefront OBJ Exporter v0.99 - (c)2007 guruware
# File Created: 24.03.2022 15:24:41

mtllib SM_Drap2_ROY_2.mtl

#
# object Plane021
#

v  1.3721 2.3454 0.8887
v  1.3157 2.2781 0.6530
v  1.2676 2.2448 0.3994
v  1.2343 2.2457 0.1143
v  1.2222 2.2808 -0.2164
v  1.2378 2.3499 -0.6065
v  1.2875 2.4532 -1.0699
v  0.9411 2.1805 0.8926
v  0.8923 2.0978 0.6407
v  0.8534 2.0551 0.3673
v  0.8259 2.0522 0.0697
v  0.8109 2.0887 -0.2550
v  0.8099 2.1645 -0.6094
v  0.8240 2.2793 -0.9963
v  0.4954 2.0326 0.9280
v  0.4592 1.9063 0.6489
v  0.4322 1.8366 0.3502
v  0.4131 1.8227 0.0345
v  0.4007 1.8637 -0.2956
v  0.3937 1.9584 -0.6373
v  0.3910 2.1061 -0.9882
v  0.0423 1.9088 0.9793
v  0.0211 1.7141 0.6681
v  0.0066 1.6023 0.3426
v  -0.0031 1.5713 0.0067
v  -0.0098 1.6193 -0.3356
v  -0.0154 1.7441 -0.6803
v  -0.0216 1.9437 -1.0236
v  -0.4108 1.8162 1.0306
v  -0.4177 1.5320 0.6887
v  -0.4210 1.3650 0.3391
v  -0.4219 1.3119 -0.0156
v  -0.4219 1.3693 -0.3724
v  -0.4222 1.5338 -0.7284
v  -0.4242 1.8020 -1.0808
v  -0.8565 1.7621 1.0661
v  -0.8527 1.3708 0.7012
v  -0.8478 1.1379 0.3341
v  -0.8423 1.0584 -0.0344
v  -0.8367 1.1274 -0.4033
v  -0.8313 1.3400 -0.7715
v  -0.8267 1.6910 -1.1380
v  -1.2875 1.7535 1.0699
v  -1.2795 1.2411 0.6960
v  -1.2715 0.9338 0.3221
v  -1.2634 0.8247 -0.0518
v  -1.2554 0.9073 -0.4257
v  -1.2474 1.1748 -0.7996
v  -1.2393 1.6207 -1.1734
v  -0.4871 -1.6631 0.8824
v  -0.5053 -1.6669 0.9139
v  -0.4743 -1.6608 0.9325
v  -0.4562 -1.6571 0.9009
v  -1.1805 1.8493 0.8981
v  -1.1986 1.8455 0.9297
v  -1.1677 1.8516 0.9483
v  -1.1495 1.8553 0.9167
v  -0.4871 -1.6631 -0.9875
v  -0.5053 -1.6669 -0.9559
v  -0.4743 -1.6608 -0.9374
v  -0.4562 -1.6571 -0.9689
v  -1.1805 1.8493 -0.9717
v  -1.1986 1.8455 -0.9402
v  -1.1677 1.8516 -0.9216
v  -1.1495 1.8553 -0.9532
# 65 vertices

vn 0.2083 0.9777 -0.0262
vn 0.2751 0.9614 -0.0059
vn 0.2364 0.9716 -0.0040
vn 0.1814 0.9833 -0.0144
vn 0.0698 0.9955 -0.0639
vn 0.2083 0.9777 -0.0262
vn 0.1814 0.9833 -0.0144
vn 0.0548 0.9977 -0.0392
vn -0.0396 0.9955 -0.0864
vn 0.0698 0.9955 -0.0639
vn 0.0548 0.9977 -0.0392
vn -0.0410 0.9976 -0.0557
vn -0.1228 0.9891 -0.0811
vn -0.0396 0.9955 -0.0864
vn -0.0410 0.9976 -0.0557
vn -0.1066 0.9931 -0.0490
vn -0.1905 0.9810 -0.0360
vn -0.1228 0.9891 -0.0811
vn -0.1066 0.9931 -0.0490
vn -0.1534 0.9882 -0.0034
vn -0.2139 0.9768 0.0025
vn -0.1905 0.9810 -0.0360
vn -0.1534 0.9882 -0.0034
vn -0.1711 0.9849 0.0255
vn 0.3051 0.9514 -0.0408
vn 0.3873 0.9219 -0.0079
vn 0.2751 0.9614 -0.0059
vn 0.2083 0.9777 -0.0262
vn 0.1290 0.9867 -0.0986
vn 0.3051 0.9514 -0.0408
vn 0.2083 0.9777 -0.0262
vn 0.0698 0.9955 -0.0639
vn -0.0243 0.9910 -0.1318
vn 0.1290 0.9867 -0.0986
vn 0.0698 0.9955 -0.0639
vn -0.0396 0.9955 -0.0864
vn -0.1550 0.9795 -0.1289
vn -0.0243 0.9910 -0.1318
vn -0.0396 0.9955 -0.0864
vn -0.1228 0.9891 -0.0811
vn -0.2716 0.9590 -0.0812
vn -0.1550 0.9795 -0.1289
vn -0.1228 0.9891 -0.0811
vn -0.1905 0.9810 -0.0360
vn -0.3220 0.9458 -0.0429
vn -0.2716 0.9590 -0.0812
vn -0.1905 0.9810 -0.0360
vn -0.2139 0.9768 0.0025
vn 0.4251 0.9042 -0.0405
vn 0.5218 0.8530 -0.0001
vn 0.3873 0.9219 -0.0079
vn 0.3051 0.9514 -0.0408
vn 0.2097 0.9713 -0.1119
vn 0.4251 0.9042 -0.0405
vn 0.3051 0.9514 -0.0408
vn 0.1290 0.9867 -0.0986
vn -0.0002 0.9884 -0.1519
vn 0.2097 0.9713 -0.1119
vn 0.1290 0.9867 -0.0986
vn -0.0243 0.9910 -0.1318
vn -0.1898 0.9706 -0.1483
vn -0.0002 0.9884 -0.1519
vn -0.0243 0.9910 -0.1318
vn -0.1550 0.9795 -0.1289
vn -0.3584 0.9283 -0.0987
vn -0.1898 0.9706 -0.1483
vn -0.1550 0.9795 -0.1289
vn -0.2716 0.9590 -0.0812
vn -0.4325 0.8995 -0.0616
vn -0.3584 0.9283 -0.0987
vn -0.2716 0.9590 -0.0812
vn -0.3220 0.9458 -0.0429
vn 0.5452 0.8381 -0.0196
vn 0.6469 0.7621 0.0265
vn 0.5218 0.8530 -0.0001
vn 0.4251 0.9042 -0.0405
vn 0.2997 0.9485 -0.1030
vn 0.5452 0.8381 -0.0196
vn 0.4251 0.9042 -0.0405
vn 0.2097 0.9713 -0.1119
vn 0.0267 0.9886 -0.1485
vn 0.2997 0.9485 -0.1030
vn 0.2097 0.9713 -0.1119
vn -0.0002 0.9884 -0.1519
vn -0.2298 0.9631 -0.1402
vn 0.0267 0.9886 -0.1485
vn -0.0002 0.9884 -0.1519
vn -0.1898 0.9706 -0.1483
vn -0.4450 0.8916 -0.0837
vn -0.2298 0.9631 -0.1402
vn -0.1898 0.9706 -0.1483
vn -0.3584 0.9283 -0.0987
vn -0.5345 0.8439 -0.0457
vn -0.4450 0.8916 -0.0837
vn -0.3584 0.9283 -0.0987
vn -0.4325 0.8995 -0.0616
vn 0.6563 0.7540 0.0277
vn 0.7529 0.6532 0.0803
vn 0.6469 0.7621 0.0265
vn 0.5452 0.8381 -0.0196
vn 0.3937 0.9166 -0.0692
vn 0.6563 0.7540 0.0277
vn 0.5452 0.8381 -0.0196
vn 0.2997 0.9485 -0.1030
vn 0.0523 0.9913 -0.1207
vn 0.3937 0.9166 -0.0692
vn 0.2997 0.9485 -0.1030
vn 0.0267 0.9886 -0.1485
vn -0.2806 0.9542 -0.1035
vn 0.0523 0.9913 -0.1207
vn 0.0267 0.9886 -0.1485
vn -0.2298 0.9631 -0.1402
vn -0.5355 0.8439 -0.0322
vn -0.2806 0.9542 -0.1035
vn -0.2298 0.9631 -0.1402
vn -0.4450 0.8916 -0.0837
vn -0.6322 0.7747 0.0104
vn -0.5355 0.8439 -0.0322
vn -0.4450 0.8916 -0.0837
vn -0.5345 0.8439 -0.0457
vn 0.6925 0.7198 0.0495
vn 0.7979 0.5918 0.1145
vn 0.7529 0.6532 0.0803
vn 0.6563 0.7540 0.0277
vn 0.4128 0.9092 -0.0536
vn 0.6925 0.7198 0.0495
vn 0.6563 0.7540 0.0277
vn 0.3937 0.9166 -0.0692
vn 0.0588 0.9930 -0.1022
vn 0.4128 0.9092 -0.0536
vn 0.3937 0.9166 -0.0692
vn 0.0523 0.9913 -0.1207
vn -0.2875 0.9542 -0.0832
vn 0.0588 0.9930 -0.1022
vn 0.0523 0.9913 -0.1207
vn -0.2806 0.9542 -0.1035
vn -0.5637 0.8259 -0.0060
vn -0.2875 0.9542 -0.0832
vn -0.2806 0.9542 -0.1035
vn -0.5355 0.8439 -0.0322
vn -0.6812 0.7303 0.0513
vn -0.5637 0.8259 -0.0060
vn -0.5355 0.8439 -0.0322
vn -0.6322 0.7747 0.0104
vn 0.0000 -1.0000 -0.0000
vn 0.0000 -1.0000 -0.0000
vn 0.0000 -1.0000 -0.0000
vn 0.0000 -1.0000 -0.0000
vn -0.0000 0.0000 -1.0000
vn 1.0000 0.0000 -0.0000
vn 1.0000 0.0000 -0.0000
vn -0.0000 0.0000 -1.0000
vn -1.0000 0.0000 0.0000
vn -0.0000 0.0000 -1.0000
vn -0.0000 0.0000 -1.0000
vn -1.0000 0.0000 0.0000
vn -0.0000 0.0000 1.0000
vn -1.0000 0.0000 0.0000
vn -1.0000 0.0000 0.0000
vn -0.0000 0.0000 1.0000
vn 1.0000 0.0000 -0.0000
vn -0.0000 0.0000 1.0000
vn -0.0000 0.0000 1.0000
vn 1.0000 0.0000 -0.0000
vn 0.0000 1.0000 -0.0000
vn 0.0000 1.0000 -0.0000
vn 0.0000 1.0000 -0.0000
vn 0.0000 1.0000 -0.0000
vn 0.0000 -1.0000 -0.0000
vn 0.0000 -1.0000 -0.0000
vn 0.0000 -1.0000 -0.0000
vn 0.0000 -1.0000 -0.0000
vn -0.0000 0.0000 -1.0000
vn 1.0000 0.0000 -0.0000
vn 1.0000 0.0000 -0.0000
vn -0.0000 0.0000 -1.0000
vn -1.0000 0.0000 0.0000
vn -0.0000 0.0000 -1.0000
vn -0.0000 0.0000 -1.0000
vn -1.0000 0.0000 0.0000
vn -0.0000 0.0000 1.0000
vn -1.0000 0.0000 0.0000
vn -1.0000 0.0000 0.0000
vn -0.0000 0.0000 1.0000
vn 1.0000 0.0000 -0.0000
vn -0.0000 0.0000 1.0000
vn -0.0000 0.0000 1.0000
vn 1.0000 0.0000 -0.0000
vn 0.0000 1.0000 -0.0000
vn 0.0000 1.0000 -0.0000
vn 0.0000 1.0000 -0.0000
vn 0.0000 1.0000 -0.0000
# 192 vertex normals

vt 0.4382 0.5553 0.0000
vt 0.4844 0.5553 0.0000
vt 0.4844 0.6094 0.0000
vt 0.4382 0.6094 0.0000
vt 0.3967 0.5553 0.0000
vt 0.3967 0.6094 0.0000
vt 0.3571 0.5553 0.0000
vt 0.3571 0.6094 0.0000
vt 0.3161 0.5553 0.0000
vt 0.3161 0.6094 0.0000
vt 0.2707 0.5553 0.0000
vt 0.2707 0.6094 0.0000
vt 0.2188 0.5553 0.0000
vt 0.2188 0.6094 0.0000
vt 0.4382 0.5003 0.0000
vt 0.4844 0.5003 0.0000
vt 0.3967 0.5003 0.0000
vt 0.3571 0.5003 0.0000
vt 0.3161 0.5003 0.0000
vt 0.2707 0.5003 0.0000
vt 0.2188 0.5003 0.0000
vt 0.4382 0.4447 0.0000
vt 0.4844 0.4447 0.0000
vt 0.3967 0.4447 0.0000
vt 0.3571 0.4447 0.0000
vt 0.3161 0.4447 0.0000
vt 0.2707 0.4447 0.0000
vt 0.2188 0.4447 0.0000
vt 0.4382 0.3893 0.0000
vt 0.4844 0.3893 0.0000
vt 0.3967 0.3893 0.0000
vt 0.3571 0.3893 0.0000
vt 0.3161 0.3893 0.0000
vt 0.2707 0.3893 0.0000
vt 0.2188 0.3893 0.0000
vt 0.4382 0.3346 0.0000
vt 0.4844 0.3346 0.0000
vt 0.3967 0.3346 0.0000
vt 0.3571 0.3346 0.0000
vt 0.3161 0.3346 0.0000
vt 0.2707 0.3346 0.0000
vt 0.2188 0.3346 0.0000
vt 0.4382 0.2813 0.0000
vt 0.4844 0.2813 0.0000
vt 0.3967 0.2813 0.0000
vt 0.3571 0.2813 0.0000
vt 0.3161 0.2813 0.0000
vt 0.2707 0.2813 0.0000
vt 0.2188 0.2813 0.0000
vt 0.8359 0.7344 0.0000
vt 0.8359 0.7298 0.0000
vt 0.8438 0.7298 0.0000
vt 0.8438 0.7344 0.0000
vt 0.8203 0.2858 0.0000
vt 0.8281 0.2858 0.0000
vt 0.8281 0.7298 0.0000
vt 0.8203 0.7298 0.0000
vt 0.8125 0.2858 0.0000
vt 0.8125 0.7298 0.0000
vt 0.8359 0.2858 0.0000
vt 0.8438 0.2858 0.0000
vt 0.8125 0.2813 0.0000
vt 0.8203 0.2813 0.0000
vt 0.7500 0.7298 0.0000
vt 0.7578 0.7298 0.0000
vt 0.7578 0.7344 0.0000
vt 0.7500 0.7344 0.0000
vt 0.7734 0.2858 0.0000
vt 0.7813 0.2858 0.0000
vt 0.7813 0.7298 0.0000
vt 0.7734 0.7298 0.0000
vt 0.7656 0.2858 0.0000
vt 0.7656 0.7298 0.0000
vt 0.7578 0.2858 0.0000
vt 0.7500 0.2858 0.0000
vt 0.7734 0.2813 0.0000
vt 0.7813 0.2813 0.0000
# 77 texture coords

o Plane021
g Plane021
usemtl wire_061135006
s off
f 9/1/1 8/2/2 1/3/3 2/4/4 
f 10/5/5 9/1/6 2/4/7 3/6/8 
f 11/7/9 10/5/10 3/6/11 4/8/12 
f 12/9/13 11/7/14 4/8/15 5/10/16 
f 13/11/17 12/9/18 5/10/19 6/12/20 
f 14/13/21 13/11/22 6/12/23 7/14/24 
f 16/15/25 15/16/26 8/2/27 9/1/28 
f 17/17/29 16/15/30 9/1/31 10/5/32 
f 18/18/33 17/17/34 10/5/35 11/7/36 
f 19/19/37 18/18/38 11/7/39 12/9/40 
f 20/20/41 19/19/42 12/9/43 13/11/44 
f 21/21/45 20/20/46 13/11/47 14/13/48 
f 23/22/49 22/23/50 15/16/51 16/15/52 
f 24/24/53 23/22/54 16/15/55 17/17/56 
f 25/25/57 24/24/58 17/17/59 18/18/60 
f 26/26/61 25/25/62 18/18/63 19/19/64 
f 27/27/65 26/26/66 19/19/67 20/20/68 
f 28/28/69 27/27/70 20/20/71 21/21/72 
f 30/29/73 29/30/74 22/23/75 23/22/76 
f 31/31/77 30/29/78 23/22/79 24/24/80 
f 32/32/81 31/31/82 24/24/83 25/25/84 
f 33/33/85 32/32/86 25/25/87 26/26/88 
f 34/34/89 33/33/90 26/26/91 27/27/92 
f 35/35/93 34/34/94 27/27/95 28/28/96 
f 37/36/97 36/37/98 29/30/99 30/29/100 
f 38/38/101 37/36/102 30/29/103 31/31/104 
f 39/39/105 38/38/106 31/31/107 32/32/108 
f 40/40/109 39/39/110 32/32/111 33/33/112 
f 41/41/113 40/40/114 33/33/115 34/34/116 
f 42/42/117 41/41/118 34/34/119 35/35/120 
f 44/43/121 43/44/122 36/37/123 37/36/124 
f 45/45/125 44/43/126 37/36/127 38/38/128 
f 46/46/129 45/45/130 38/38/131 39/39/132 
f 47/47/133 46/46/134 39/39/135 40/40/136 
f 48/48/137 47/47/138 40/40/139 41/41/140 
f 49/49/141 48/48/142 41/41/143 42/42/144 
f 50/50/145 53/51/146 52/52/147 51/53/148 
f 55/54/149 54/55/150 50/56/151 51/57/152 
f 56/58/153 55/54/154 51/57/155 52/59/156 
f 57/60/157 56/61/158 52/52/159 53/51/160 
f 54/55/161 57/60/162 53/51/163 50/56/164 
f 56/58/165 57/62/166 54/63/167 55/54/168 
f 58/64/169 61/65/170 60/66/171 59/67/172 
f 63/68/173 62/69/174 58/70/175 59/71/176 
f 64/72/177 63/68/178 59/71/179 60/73/180 
f 65/74/181 64/72/182 60/73/183 61/65/184 
f 62/75/185 65/74/186 61/65/187 58/64/188 
f 64/76/189 65/77/190 62/69/191 63/68/192 
# 48 polygons

