# 3ds Max Wavefront OBJ Exporter v0.99 - (c)2007 guruware
# File Created: 07.03.2022 14:45:54

#
# object Main_L
#

v  0.0000 -0.0968 -0.0203
v  0.0000 -0.0812 -0.1219
v  0.0000 0.0813 0.1219
v  0.0687 0.0969 -0.0201
v  0.0000 -0.0812 0.0813
v  0.1375 0.0000 0.0813
v  0.1719 0.0000 -0.0201
v  0.1375 0.0000 -0.1219
v  0.0687 0.0000 -0.1219
v  0.0000 0.0000 -0.1219
v  0.0000 0.0000 -0.0202
v  0.0000 0.0406 0.1219
v  0.0687 0.0406 0.1219
v  0.0687 0.0813 0.1219
v  0.1719 0.0813 -0.0201
v  0.1375 0.0813 -0.1219
v  0.0687 0.0813 -0.1219
v  0.0000 0.0813 -0.1219
v  0.0000 0.0813 -0.0202
v  0.0000 0.0813 0.0813
v  0.0687 0.1417 0.0813
v  0.0687 0.1417 -0.0406
v  0.0000 0.1417 -0.0406
v  0.0000 0.1417 0.0813
v  0.1375 0.0813 0.0813
v  0.0687 0.0813 0.0813
v  0.0000 0.0000 0.0813
v  0.0687 0.0000 0.0813
v  0.0687 0.0969 0.0406
v  0.0000 0.1417 0.0406
v  0.0000 0.0813 0.0406
v  0.0000 0.0000 0.0406
v  0.0000 -0.0968 0.0406
v  0.1719 0.0813 0.0406
v  0.1719 0.0000 0.0406
v  0.1719 -0.0812 0.0406
v  0.0687 0.1417 0.0403
v  0.1197 0.0969 0.0403
v  0.1351 0.0969 0.0237
v  0.1351 0.0969 -0.0187
v  0.1197 0.0969 -0.0809
v  0.0687 0.1259 -0.0809
v  0.0000 0.1274 -0.0809
v  0.0687 0.0969 -0.0809
v  0.1351 0.0969 -0.0610
v  0.1719 0.0813 -0.0809
v  0.1719 0.0000 -0.0809
v  0.1719 -0.0812 -0.0809
v  0.1197 0.0969 -0.0203
v  0.0687 -0.0812 -0.1217
v  0.1375 -0.0812 -0.1217
v  0.1197 -0.0968 -0.0806
v  0.1351 -0.0968 -0.0640
v  0.1719 -0.0812 -0.0201
v  0.1351 -0.0968 -0.0216
v  0.1351 -0.0968 0.0207
v  0.1375 -0.0812 0.0814
v  0.1197 -0.0968 0.0406
v  0.0687 -0.0812 0.0814
v  0.0687 -0.0968 0.0406
v  0.0687 -0.0968 -0.0201
v  0.1197 -0.0968 -0.0200
v  0.0000 0.0813 -0.0810
v  0.0000 0.0000 -0.0811
v  0.0000 -0.0968 -0.0812
v  0.0687 -0.0968 -0.0809
# 66 vertices

vn -0.5662 -0.3154 0.7615
vn -0.7532 -0.2517 0.6078
vn 0.1114 -0.1862 0.9762
vn 0.5662 -0.3154 0.7615
vn 0.0000 -0.9834 0.1813
vn -0.0014 -0.5651 0.8250
vn -0.5349 -0.4787 0.6962
vn -0.6052 -0.7828 0.1449
vn 0.0000 -1.0000 -0.0000
vn 0.0000 -0.9834 0.1813
vn -0.6052 -0.7828 0.1449
vn -0.6459 -0.7634 -0.0000
vn 0.0009 -0.9835 -0.1811
vn 0.0000 -1.0000 -0.0000
vn -0.6459 -0.7634 -0.0000
vn -0.6053 -0.7828 -0.1447
vn -0.5508 0.7366 0.3924
vn -0.5832 0.2369 0.7770
vn 0.5832 0.2369 0.7770
vn 0.5508 0.7366 0.3924
vn -0.6459 0.7634 -0.0000
vn -0.5508 0.7366 0.3924
vn 0.5508 0.7366 0.3924
vn 0.6459 0.7634 -0.0000
vn -0.6459 0.7634 -0.0000
vn 0.6459 0.7634 -0.0000
vn 0.6043 0.7828 -0.1482
vn -0.6078 0.7826 -0.1348
vn 0.1114 -0.1862 0.9762
vn -0.0014 -0.5651 0.8250
vn 0.2832 -0.5298 0.7995
vn 0.3308 0.0000 0.9437
vn 0.7309 -0.5810 0.3581
vn 0.7687 -0.6396 0.0001
vn 1.0000 0.0000 -0.0000
vn 0.8982 -0.0001 0.4397
vn 0.1114 -0.1862 0.9762
vn 0.3308 0.0000 0.9437
vn 0.2821 0.5318 0.7985
vn 0.8178 0.3261 0.4742
vn 0.8982 -0.0001 0.4397
vn 1.0000 0.0000 -0.0000
vn 0.7687 0.6396 -0.0000
vn 0.7330 0.5784 0.3580
vn -0.5832 0.2369 0.7770
vn -0.5662 -0.3154 0.7615
vn 0.5662 -0.3154 0.7615
vn 0.5832 0.2369 0.7770
vn 0.8991 0.0000 -0.4376
vn 1.0000 0.0000 -0.0000
vn 0.7687 -0.6396 0.0001
vn 0.7332 -0.5786 -0.3572
vn 0.7311 0.5812 -0.3573
vn 0.7687 0.6396 -0.0000
vn 1.0000 0.0000 -0.0000
vn 0.8991 0.0000 -0.4376
vn 0.3324 0.0000 -0.9431
vn 0.2827 -0.5337 -0.7971
vn 0.0014 -0.5692 -0.8222
vn 0.0000 0.0000 -1.0000
vn 0.0014 -0.5692 -0.8222
vn -0.5349 -0.4789 -0.6961
vn -0.6459 0.0000 -0.7634
vn 0.0000 0.0000 -1.0000
vn 0.3324 0.0000 -0.9431
vn 0.0000 0.0000 -1.0000
vn 0.0717 0.4609 -0.8846
vn 0.2836 0.5317 -0.7981
vn 0.0000 0.0000 -1.0000
vn -0.6459 0.0000 -0.7634
vn -0.5713 0.2914 -0.7673
vn 0.0717 0.4609 -0.8846
vn -1.0000 0.0000 -0.0000
vn -1.0000 0.0000 -0.0000
vn -0.6053 -0.7828 -0.1447
vn -0.6459 -0.7634 -0.0000
vn -0.6459 -0.7634 -0.0000
vn -0.6052 -0.7828 0.1449
vn -1.0000 0.0000 -0.0000
vn -1.0000 0.0000 -0.0000
vn -1.0000 0.0000 -0.0000
vn -1.0000 0.0000 -0.0000
vn -1.0000 0.0000 -0.0000
vn -1.0000 0.0000 -0.0000
vn -1.0000 0.0000 -0.0000
vn -1.0000 0.0000 -0.0000
vn -1.0000 0.0000 -0.0000
vn -1.0000 0.0000 -0.0000
vn -0.5662 -0.3154 0.7615
vn -0.5832 0.2369 0.7770
vn -1.0000 0.0000 -0.0000
vn -0.7532 -0.2517 0.6078
vn 0.8178 0.3261 0.4742
vn 0.5508 0.7366 0.3924
vn 0.5832 0.2369 0.7770
vn 0.6459 0.7634 -0.0000
vn 0.6931 0.7088 0.1315
vn 0.6459 0.7634 -0.0000
vn 0.6043 0.7828 -0.1482
vn -0.6078 0.7826 -0.1348
vn -1.0000 0.0000 -0.0000
vn -1.0000 0.0000 -0.0000
vn -0.6459 0.7634 -0.0000
vn -0.5832 0.2369 0.7770
vn -0.5508 0.7366 0.3924
vn -1.0000 0.0000 -0.0000
vn 0.8178 0.3261 0.4742
vn 0.5832 0.2369 0.7770
vn 0.5662 -0.3154 0.7615
vn 0.1114 -0.1862 0.9762
vn -0.7532 -0.2517 0.6078
vn -0.5349 -0.4787 0.6962
vn -0.0014 -0.5651 0.8250
vn 0.1114 -0.1862 0.9762
vn 0.6043 0.7828 -0.1482
vn 0.6081 0.6533 -0.4510
vn -0.5916 0.6686 -0.4506
vn -0.6078 0.7826 -0.1348
vn 0.0717 0.4609 -0.8846
vn 0.6081 0.6533 -0.4510
vn 0.6925 0.7095 -0.1304
vn -1.0000 0.0000 -0.0000
vn -0.6078 0.7826 -0.1348
vn -0.5916 0.6686 -0.4506
vn -1.0000 0.0000 -0.0000
vn -0.5349 -0.4787 0.6962
vn -0.7532 -0.2517 0.6078
vn -1.0000 0.0000 -0.0000
vn -0.6052 -0.7828 0.1449
vn -1.0000 0.0000 -0.0000
vn -1.0000 0.0000 -0.0000
vn -1.0000 0.0000 -0.0000
vn -0.7532 -0.2517 0.6078
vn -0.5508 0.7366 0.3924
vn -0.6459 0.7634 -0.0000
vn -1.0000 0.0000 -0.0000
vn -1.0000 0.0000 -0.0000
vn 0.3308 0.0000 0.9437
vn 0.8982 -0.0001 0.4397
vn 0.7330 0.5784 0.3580
vn 0.2821 0.5318 0.7985
vn 0.2832 -0.5298 0.7995
vn 0.7309 -0.5810 0.3581
vn 0.8982 -0.0001 0.4397
vn 0.3308 0.0000 0.9437
vn 0.5508 0.7366 0.3924
vn 0.8178 0.3261 0.4742
vn 0.6931 0.7088 0.1315
vn 0.6459 0.7634 -0.0000
vn 0.2821 0.5318 0.7985
vn 0.0569 0.9804 0.1887
vn 0.6931 0.7088 0.1315
vn 0.8178 0.3261 0.4742
vn 0.1554 0.9842 0.0846
vn 0.0569 0.9804 0.1887
vn 0.2821 0.5318 0.7985
vn 0.7330 0.5784 0.3580
vn 0.7687 0.6396 -0.0000
vn 0.1454 0.9894 -0.0000
vn 0.1554 0.9842 0.0846
vn 0.7330 0.5784 0.3580
vn 0.1540 0.9858 -0.0664
vn 0.1454 0.9894 -0.0000
vn 0.7687 0.6396 -0.0000
vn 0.7311 0.5812 -0.3573
vn 0.0717 0.4609 -0.8846
vn 0.6925 0.7095 -0.1304
vn 0.0661 0.9798 -0.1887
vn 0.2836 0.5317 -0.7981
vn 0.6459 0.7634 -0.0000
vn 0.6931 0.7088 0.1315
vn 0.0569 0.9804 0.1887
vn 0.0000 1.0000 -0.0000
vn -0.5713 0.2914 -0.7673
vn -0.5916 0.6686 -0.4506
vn 0.6081 0.6533 -0.4510
vn 0.0717 0.4609 -0.8846
vn 0.6459 0.7634 -0.0000
vn 0.6925 0.7095 -0.1304
vn 0.6081 0.6533 -0.4510
vn 0.6043 0.7828 -0.1482
vn 0.0000 1.0000 -0.0000
vn 0.0661 0.9798 -0.1887
vn 0.6925 0.7095 -0.1304
vn 0.6459 0.7634 -0.0000
vn 0.3324 0.0000 -0.9431
vn 0.8991 0.0000 -0.4376
vn 0.7332 -0.5786 -0.3572
vn 0.2827 -0.5337 -0.7971
vn 0.2836 0.5317 -0.7981
vn 0.7311 0.5812 -0.3573
vn 0.8991 0.0000 -0.4376
vn 0.3324 0.0000 -0.9431
vn 0.2836 0.5317 -0.7981
vn 0.0661 0.9798 -0.1887
vn 0.1540 0.9858 -0.0664
vn 0.7311 0.5812 -0.3573
vn 0.1554 0.9842 0.0846
vn 0.1454 0.9894 -0.0000
vn 0.0000 1.0000 -0.0000
vn 0.0569 0.9804 0.1887
vn 0.1540 0.9858 -0.0664
vn 0.0661 0.9798 -0.1887
vn 0.0000 1.0000 -0.0000
vn 0.1454 0.9894 -0.0000
vn 0.2827 -0.5337 -0.7971
vn 0.0568 -0.9805 -0.1881
vn 0.0009 -0.9835 -0.1811
vn 0.0014 -0.5692 -0.8222
vn 0.1554 -0.9842 -0.0846
vn 0.0568 -0.9805 -0.1881
vn 0.2827 -0.5337 -0.7971
vn 0.7332 -0.5786 -0.3572
vn 0.7687 -0.6396 0.0001
vn 0.1454 -0.9894 -0.0000
vn 0.1554 -0.9842 -0.0846
vn 0.7332 -0.5786 -0.3572
vn 0.1454 -0.9894 -0.0000
vn 0.7687 -0.6396 0.0001
vn 0.7309 -0.5810 0.3581
vn 0.1540 -0.9858 0.0664
vn -0.0014 -0.5651 0.8250
vn 0.0000 -0.9834 0.1813
vn 0.0663 -0.9797 0.1894
vn 0.2832 -0.5298 0.7995
vn 0.0000 -1.0000 -0.0000
vn 0.0663 -0.9797 0.1894
vn 0.0000 -0.9834 0.1813
vn 0.0000 -1.0000 -0.0000
vn 0.0568 -0.9805 -0.1881
vn 0.0000 -1.0000 -0.0000
vn 0.0000 -1.0000 -0.0000
vn 0.0009 -0.9835 -0.1811
vn 0.2832 -0.5298 0.7995
vn 0.0663 -0.9797 0.1894
vn 0.1540 -0.9858 0.0664
vn 0.7309 -0.5810 0.3581
vn 0.1554 -0.9842 -0.0846
vn 0.1454 -0.9894 -0.0000
vn 0.0000 -1.0000 -0.0000
vn 0.0568 -0.9805 -0.1881
vn 0.1540 -0.9858 0.0664
vn 0.0663 -0.9797 0.1894
vn 0.0000 -1.0000 -0.0000
vn 0.1454 -0.9894 -0.0000
vn -0.5713 0.2914 -0.7673
vn -1.0000 0.0000 -0.0000
vn -0.5916 0.6686 -0.4506
vn -0.6459 0.0000 -0.7634
vn -1.0000 0.0000 -0.0000
vn -1.0000 0.0000 -0.0000
vn -0.5713 0.2914 -0.7673
vn -0.5349 -0.4789 -0.6961
vn -0.6053 -0.7828 -0.1447
vn -1.0000 0.0000 -0.0000
vn -0.6459 0.0000 -0.7634
vn 0.0014 -0.5692 -0.8222
vn 0.0009 -0.9835 -0.1811
vn -0.6053 -0.7828 -0.1447
vn -0.5349 -0.4789 -0.6961
# 260 vertex normals

vt 1.0000 0.6667 0.0000
vt 0.6667 0.6667 0.0000
vt 1.0000 1.0000 0.0000
vt 0.6667 1.0000 0.0000
vt 0.0000 0.0000 0.0000
vt 0.3333 0.0000 0.0000
vt 0.0000 0.1667 0.0000
vt 0.3333 0.1667 0.0000
vt 0.6667 0.1667 0.0000
vt 0.0000 0.6667 0.0000
vt 0.3333 0.6667 0.0000
vt 1.0000 0.6667 0.0000
vt 0.3333 1.0000 0.0000
vt 0.6667 1.0000 0.0000
vt 0.6667 0.5000 0.0000
vt 0.0000 0.6667 0.0000
vt 0.3333 0.6667 0.0000
vt 0.3333 0.9167 0.0000
vt 0.0000 0.9167 0.0000
vt 0.6667 0.0833 0.0000
vt 0.6667 0.5000 0.0000
vt 0.6667 0.9167 0.0000
vt 0.6667 0.0833 0.0000
vt 1.0000 0.0833 0.0000
vt 0.3333 0.0833 0.0000
vt 0.5000 0.3333 0.0000
vt 0.8333 0.3333 0.0000
vt 0.3333 0.5000 0.0000
vt 0.6667 0.5000 0.0000
vt 1.0000 0.5000 0.0000
vt 0.5000 0.6667 0.0000
vt 0.3333 0.9167 0.0000
vt 0.6667 0.9167 0.0000
vt 1.0000 0.9167 0.0000
vt 0.0000 0.0833 0.0000
vt 0.3333 0.0833 0.0000
vt 0.8333 0.0833 0.0000
vt 0.0000 0.5000 0.0000
vt 0.3333 0.5000 0.0000
vt 0.8333 0.5000 0.0000
vt 1.0000 0.6667 0.0000
vt 0.0000 0.9167 0.0000
vt 0.3333 0.9167 0.0000
vt 0.8333 0.9167 0.0000
vt 1.0000 0.9167 0.0000
vt 1.0833 0.1667 0.0000
vt 1.0833 0.5000 0.0000
vt 1.0833 0.5000 0.0000
vt 1.0833 0.8333 0.0000
vt 0.3333 0.1667 0.0000
vt 0.3333 0.6667 0.0000
vt 0.0000 0.6667 0.0000
vt 0.0000 0.1667 0.0000
vt 0.6667 0.0833 0.0000
vt 0.6667 0.9167 0.0000
vt 0.3333 0.9167 0.0000
vt 0.3333 0.5000 0.0000
vt 0.3333 0.0833 0.0000
vt 1.0000 0.1667 0.0000
vt 0.6667 0.1667 0.0000
vt 1.0000 0.1667 0.0000
vt 0.6667 0.1667 0.0000
vt 0.3333 0.3341 0.0000
vt 0.0000 0.3341 0.0000
vt 0.0000 0.3341 0.0000
vt 0.6659 0.9167 0.0000
vt 0.6659 0.5000 0.0000
vt 1.0000 0.3341 0.0000
vt 0.6659 0.0833 0.0000
vt 0.6667 0.3341 0.0000
vt 0.8668 0.9167 0.0000
vt 0.8334 0.3334 0.0000
vt 0.8667 0.5000 0.0000
vt 0.8667 0.5000 0.0000
vt 0.8667 0.1667 0.0000
vt 0.3333 0.3348 0.0000
vt 0.6667 0.1667 0.0000
vt 0.8334 0.3334 0.0000
vt 1.0000 0.6667 0.0000
vt 0.6667 1.0000 0.0000
vt 0.7812 0.4271 0.0000
vt 0.3333 0.8125 0.0000
vt 0.6458 0.5208 0.0000
vt 0.4375 0.7760 0.0000
vt 0.3333 0.8143 0.0000
vt 0.8262 0.8405 0.0000
vt 0.8840 0.8732 0.0000
vt 0.8262 0.8405 0.0000
vt 0.8840 0.5000 0.0000
vt 0.8840 0.5000 0.0000
vt 0.8840 0.1667 0.0000
vt 0.6347 0.6667 0.0000
vt 0.3333 0.5000 0.0000
vt 0.3333 0.3341 0.0000
vt 0.3333 0.1667 0.0000
vt 0.6667 0.1667 0.0000
vt 0.6667 0.1667 0.0000
vt 0.8334 0.3334 0.0000
vt 0.8334 0.3334 0.0000
vt 1.0000 0.5000 0.0000
vt 1.0000 0.5000 0.0000
vt 0.8262 0.8405 0.0000
vt 0.8262 0.8405 0.0000
vt 0.6667 1.0000 0.0000
vt 0.6667 1.0000 0.0000
vt 0.3333 1.0000 0.0000
vt 0.3333 0.8143 0.0000
vt 0.3333 0.5000 0.0000
vt 0.6763 0.5000 0.0000
vt 0.1677 0.9167 0.0000
vt 0.6645 0.9167 0.0000
vt 0.1673 0.5000 0.0000
vt 1.0000 0.8332 0.0000
vt 0.1668 0.0833 0.0000
vt 0.6667 0.8101 0.0000
vt 0.0001 0.6667 0.0000
vt 0.0001 0.5000 0.0000
vt 1.2667 0.5000 0.0000
vt 1.2667 0.5000 0.0000
vt 1.2666 0.9167 0.0000
vt 0.8667 0.1666 0.0000
vt 1.2657 0.1666 0.0000
# 122 texture coords

o Main_L
g Main_L
s 12696
f 12/116/1 27/117/2 28/93/3 13/17/4 
s 142
f 60/70/5 59/62/6 5/61/7 33/68/8 
s 19
f 61/2/9 60/70/10 33/68/11 1/1/12 
s 6
f 66/115/13 61/2/14 1/1/15 65/113/16 
s 283
f 24/53/17 3/5/18 14/6/19 21/50/20 
s 364
f 30/64/21 24/53/22 21/50/23 37/76/24 
s 151
f 30/64/25 37/76/26 22/51/27 23/52/28 
s 45
f 28/57/29 59/58/30 57/54/31 6/15/32 
s 13
f 36/121/33 54/122/34 7/118/35 35/73/36 
s 131
f 28/57/37 6/15/38 25/55/39 26/56/40 
s 7
f 35/74/41 7/119/42 15/120/43 34/71/44 
s 4321
f 3/19/45 12/16/46 13/17/47 14/18/48 
s 5
f 47/89/49 7/21/50 54/20/51 48/91/52 
s 3
f 46/87/53 15/22/54 7/21/55 47/90/56 
s 47
f 8/28/57 51/25/58 50/23/59 9/29/60 
f 50/23/61 2/24/62 10/30/63 9/29/64 
s 110
f 8/28/65 9/29/66 17/33/67 16/32/68 
s 7
f 9/29/69 10/30/70 18/34/71 17/33/72 
s 12
f 11/39/73 64/112/74 65/114/75 1/36/76 
s 25
f 1/36/77 33/69/78 32/67/79 11/39/80 
s 8
f 19/43/81 63/110/82 64/112/83 11/39/84 
f 11/39/85 32/67/86 31/66/87 19/43/88 
s 330
f 12/41/89 3/45/90 20/44/91 27/40/92 
s 18
f 26/8/93 21/50/94 14/6/95 
s 19
f 37/76/96 29/63/97 4/11/98 22/51/99 
s 138
f 23/52/100 19/10/101 31/65/102 30/64/103 
s 10
f 3/5/104 24/53/105 20/7/106 
s 46
f 26/56/107 14/18/108 13/17/109 28/57/110 
s 52969
f 27/59/111 5/61/112 59/62/113 28/60/114 
s 37
f 22/30/115 42/81/116 43/83/117 23/31/118 
s 18
f 17/13/119 42/82/120 44/85/121 
s 40
f 19/43/122 23/52/123 43/84/124 63/111/125 
s 1132
f 5/37/126 27/40/127 32/67/128 33/69/129 
s 8
f 20/44/130 31/66/131 32/67/132 27/40/133 
s 40
f 24/53/134 30/64/135 31/65/136 20/7/137 
s 5
f 6/15/138 35/74/139 34/71/140 25/55/141 
s 17
f 57/54/142 36/75/143 35/73/144 6/15/145 
s 66
f 21/50/146 26/8/147 29/63/148 37/76/149 
s 138
f 25/9/150 38/77/151 29/63/152 26/8/153 
s 12
f 39/78/154 38/77/155 25/9/156 34/72/157 
s 14
f 15/12/158 40/79/159 39/78/160 34/72/161 
s 10
f 45/86/162 40/79/163 15/12/164 46/88/165 
s 42
f 17/13/166 44/85/167 41/80/168 16/14/169 
s 8
f 4/11/170 29/63/171 38/77/172 49/92/173 
s 84
f 18/27/174 43/83/175 42/81/176 17/26/177 
s 3
f 4/11/178 44/85/179 42/82/180 22/51/181 
s 8
f 49/92/182 41/80/183 44/85/184 4/11/185 
s 51
f 8/47/186 47/89/187 48/91/188 51/46/189 
s 89
f 16/49/190 46/87/191 47/90/192 8/48/193 
s 24
f 16/14/194 41/80/195 45/86/196 46/88/197 
s 8
f 39/78/198 40/79/199 49/92/200 38/77/201 
f 45/86/202 41/80/203 49/92/204 40/79/205 
s 11
f 51/96/206 52/97/207 66/94/208 50/95/209 
s 18
f 53/99/210 52/97/211 51/96/212 48/98/213 
s 6
f 54/100/214 55/101/215 53/99/216 48/98/217 
s 14
f 55/101/218 54/100/219 36/102/220 56/103/221 
f 59/106/222 60/107/223 58/105/224 57/104/225 
s 2
f 62/109/226 58/105/227 60/107/228 61/108/229 
f 52/97/230 62/109/231 61/108/232 66/94/233 
s 18
f 57/104/234 58/105/235 56/103/236 36/102/237 
s 2
f 53/99/238 55/101/239 62/109/240 52/97/241 
f 56/103/242 58/105/243 62/109/244 55/101/245 
s 72
f 18/34/246 63/111/247 43/84/248 
s 11
f 10/38/249 64/112/250 63/110/251 18/42/252 
s 27
f 2/35/253 65/114/254 64/112/255 10/38/256 
s 58
f 50/4/257 66/115/258 65/113/259 2/3/260 
# 62 polygons - 4 triangles

