# Blender v2.93.4 OBJ File: ''
# www.blender.org
o Cube_Cube.001
v 0.710710 -5.809267 -0.417792
v 1.464414 -3.975477 -1.000000
v 0.385373 -6.653719 -1.000000
v 2.183256 -2.192554 -1.000000
v 1.883145 -2.228024 -0.385729
v 0.786411 -3.403669 -0.012641
v 1.200898 0.000000 0.418375
v 1.376639 -0.363272 0.585870
v 2.017990 -0.128266 -1.000000
v 2.442307 -0.363226 -1.430390
v 2.027176 -0.363341 -0.198995
v 1.791202 0.000000 -0.186077
v 0.422454 0.000000 0.746844
v 0.495614 -0.363073 1.040107
v -0.734066 -6.159610 -0.417793
v -1.464414 -3.975477 -1.000000
v -0.385373 -6.653719 -1.000000
v -2.183256 -2.192554 -1.000000
v -1.372351 -2.228004 -0.187921
v -0.786411 -3.403669 -0.012641
v -1.200898 0.000000 0.418375
v -1.376639 -0.363272 0.585870
v -2.442307 -0.363226 -1.430390
v -2.128882 -0.363341 -0.059628
v -1.791202 0.000000 -0.186077
v -0.495614 -0.363073 1.040107
v 0.000000 -5.406734 0.079957
v 0.000000 -0.557492 -1.430201
v 0.000000 -7.402903 -1.000000
v 0.000000 -4.116865 0.190254
v 0.000000 0.000000 -0.319241
v 0.690757 0.000000 -0.425173
v 1.051860 0.000000 -0.552208
v -2.017990 -0.128266 -1.000000
v -0.422454 0.000000 0.746844
v -0.690757 0.000000 -0.425173
v -1.051860 0.000000 -0.552208
vt 0.500000 0.765254
vt 0.613346 0.750000
vt 0.613350 0.833333
vt 0.678043 0.562500
vt 0.688572 0.625000
vt 0.651492 0.625000
vt 0.647753 0.500000
vt 0.613340 0.625000
vt 0.613343 0.500000
vt 0.664579 0.699654
vt 0.708333 0.706124
vt 0.664579 0.699654
vt 0.651492 0.625000
vt 0.613340 0.625000
vt 0.613346 0.750000
vt 0.694209 0.649099
vt 0.708333 0.651695
vt 0.750000 0.625000
vt 0.733762 0.656615
vt 0.472810 0.875000
vt 0.708333 0.625000
vt 0.708333 0.651695
vt 0.500000 0.765254
vt 0.613350 0.833333
vt 0.694209 0.649099
vt 0.708333 0.706124
vt 0.613343 0.500000
vt 0.647753 0.500000
vt 0.695501 0.750000
vt 0.708333 0.750000
vt 0.688572 0.625000
vt 0.423634 0.875000
vt 0.407935 0.722058
vt 0.250000 0.625000
vt 0.375647 0.744878
vt 0.339140 0.857042
vt 0.678043 0.562500
vt 0.407935 0.722058
vt 0.482644 0.630486
vt 0.389648 0.734983
vt 0.534734 0.663305
vt 0.375647 0.744878
vt 0.291667 0.625000
vt 0.291667 0.625000
vt 0.482644 0.630486
vt 0.435577 0.500000
vt 0.556109 0.500000
vt 0.534732 0.625000
vt 0.389648 0.734983
vt 0.435577 0.500000
vt 0.556109 0.500000
vn 0.5600 -0.2478 0.7905
vn 0.6148 0.1449 0.7752
vn 0.2321 0.1938 0.9532
vn 0.3294 0.9246 -0.1913
vn -0.0442 0.9710 -0.2348
vn 0.4476 0.8634 0.2328
vn 0.8473 0.2260 0.4806
vn 0.8374 0.5446 0.0455
vn 0.3070 0.8554 0.4172
vn 0.1055 0.8769 0.4689
vn -0.2686 0.8726 0.4078
vn -0.3804 0.9041 0.1943
vn -0.8563 0.1921 0.4793
vn -0.5612 0.1773 0.8084
vn -0.0549 0.9774 -0.2038
vn 0.0000 0.8894 -0.4570
vn 0.0000 0.9779 -0.2091
vn 0.0388 -0.1666 0.9852
vn 0.0549 0.9774 -0.2038
vn -0.5958 -0.2172 0.7732
vn -0.2321 0.1938 0.9532
vn 0.0442 0.9710 -0.2348
vn -0.1055 0.8769 0.4689
vn -0.8544 0.5153 0.0667
vn -0.2774 0.9356 -0.2183
vn 0.0636 -0.2227 0.9728
vn -0.7321 -0.4635 0.4992
vn 0.0279 -0.6907 0.7226
vn 0.7443 -0.3770 0.5512
vn -0.7898 -0.2000 0.5799
vn -0.7359 -0.2429 0.6319
vn -0.8871 -0.4310 -0.1655
vn 0.8882 -0.4379 0.1389
vn 0.7801 -0.2629 0.5677
vn 0.8906 -0.1597 0.4259
vn 0.7237 -0.2012 0.6601
vn -0.7073 -0.0740 0.7030
s 1
f 6/1/1 8/2/2 14/3/3
f 9/4/4 33/5/5 12/6/6
f 9/7/4 12/6/6 11/8/7 10/9/8
f 14/3/3 8/2/2 7/10/9 13/11/10
f 21/12/11 25/13/12 24/14/13 22/15/14
f 33/16/5 32/17/15 13/11/10 7/10/9
f 28/18/16 31/19/17 32/17/15
f 14/3/3 30/20/18 6/1/1
f 28/21/16 36/22/19 31/19/17
f 20/23/20 26/24/21 22/15/14
f 37/25/22 21/12/11 35/26/23 36/22/19
f 23/27/24 24/14/13 25/13/12 34/28/25
f 21/12/11 22/15/14 26/29/21 35/26/23
f 13/11/10 35/26/23 26/24/21 14/30/3
f 32/17/15 31/19/17 13/11/10
f 34/28/25 25/13/12 37/31/22
f 27/32/26 20/23/20 15/33/27
f 30/20/18 26/24/21 20/23/20
f 28/21/16 32/17/15 33/16/5
f 6/1/1 11/8/7 8/2/2
f 29/34/28 1/35/29 27/36/26
f 7/10/9 8/2/2 11/8/7 12/6/6
f 37/31/22 28/21/16 34/37/25
f 14/3/3 26/24/21 30/20/18
f 1/38/29 30/20/18 27/32/26
f 33/16/5 7/10/9 12/6/6
f 16/39/30 15/40/27 20/23/20
f 19/41/31 20/23/20 22/15/14
f 29/34/28 15/42/27 17/43/32
f 36/22/19 35/26/23 31/19/17
f 37/31/22 25/13/12 21/12/11
f 27/32/26 30/20/18 20/23/20
f 28/21/16 37/25/22 36/22/19
f 33/5/5 9/4/4 28/21/16
f 31/19/17 35/26/23 13/11/10
f 15/42/27 29/34/28 27/36/26
f 3/44/33 1/35/29 29/34/28
f 34/28/25 28/21/16 23/27/24
f 9/4/4 10/9/8 28/21/16
s 2
f 3/44/33 2/45/34 1/35/29
s 3
f 2/46/34 4/47/35 5/48/36
f 10/9/8 5/48/36 4/47/35
f 2/45/34 5/48/36 6/1/1
f 10/9/8 11/8/7 5/48/36
f 11/8/7 6/1/1 5/48/36
s 4
f 2/45/34 6/1/1 1/49/29
f 30/20/18 1/38/29 6/1/1
s 5
f 17/43/32 15/42/27 16/39/30
s 6
f 16/50/30 19/41/31 18/51/37
f 16/39/30 20/23/20 19/41/31
s 7
f 19/41/31 23/27/24 18/51/37
f 19/41/31 22/15/14 24/14/13
f 19/41/31 24/14/13 23/27/24
