# 3ds Max Wavefront OBJ Exporter v0.99 - (c)2007 guruware
# File Created: 24.03.2022 16:39:06

#
# object Sphere002
#

v  -0.0707 0.4123 0.0100
v  0.0095 0.3516 -0.2744
v  -0.1561 0.3328 -0.3907
v  -0.2549 0.3520 -0.2776
v  -0.4693 0.2363 0.1177
v  -0.3879 0.1961 0.1890
v  0.0016 0.3155 0.2626
v  0.2498 0.3244 0.2046
v  0.2378 0.3446 -0.0678
v  0.2510 0.3280 -0.2090
v  0.0069 0.1570 -0.3609
v  -0.2356 0.2059 -0.5096
v  -0.4829 0.1111 -0.3326
v  -0.5779 0.1499 0.2195
v  -0.2759 0.0165 0.4020
v  -0.0920 0.0512 0.5115
v  0.3438 0.1073 0.4416
v  0.3418 0.1333 0.1337
v  0.3775 0.1666 -0.2223
v  0.2321 0.1220 -0.3915
v  -0.1408 -0.1373 -0.2021
v  -0.3734 -0.1706 -0.1135
v  -0.4719 -0.1225 -0.1150
v  -0.5101 -0.0960 0.1024
v  -0.2427 -0.2304 0.3464
v  -0.0547 -0.2110 0.4735
v  0.2391 -0.1516 0.4143
v  0.2740 -0.1720 0.0633
v  0.3093 -0.1321 -0.1426
v  0.1080 -0.1047 -0.2672
# 30 vertices

vn -0.0943 0.9876 0.1255
vn 0.2435 0.8030 -0.5440
vn 0.0765 0.7866 -0.6127
vn -0.0943 0.9876 0.1255
vn 0.0765 0.7866 -0.6127
vn -0.4096 0.8706 -0.2726
vn -0.0943 0.9876 0.1255
vn -0.4096 0.8706 -0.2726
vn -0.4779 0.8538 0.2066
vn -0.0943 0.9876 0.1255
vn -0.4779 0.8538 0.2066
vn -0.2749 0.7023 0.6567
vn -0.0943 0.9876 0.1255
vn -0.2749 0.7023 0.6567
vn -0.0796 0.8140 0.5754
vn -0.0943 0.9876 0.1255
vn -0.0796 0.8140 0.5754
vn 0.5484 0.7886 0.2783
vn 0.4061 0.1712 -0.8977
vn 0.1656 -0.0686 -0.9838
vn 0.2435 0.8030 -0.5440
vn 0.4772 0.7365 -0.4795
vn 0.9319 0.1991 -0.3033
vn -0.1184 0.0804 -0.9897
vn 0.0765 0.7866 -0.6127
vn 0.2435 0.8030 -0.5440
vn 0.1656 -0.0686 -0.9838
vn -0.7865 -0.0057 -0.6176
vn -0.4096 0.8706 -0.2726
vn 0.0765 0.7866 -0.6127
vn -0.1184 0.0804 -0.9897
vn -0.8071 0.3282 0.4907
vn -0.4779 0.8538 0.2066
vn -0.4096 0.8706 -0.2726
vn -0.7865 -0.0057 -0.6176
vn -0.5314 0.1032 0.8408
vn -0.2749 0.7023 0.6567
vn -0.4779 0.8538 0.2066
vn -0.8071 0.3282 0.4907
vn -0.2334 0.2872 0.9290
vn -0.0796 0.8140 0.5754
vn -0.2749 0.7023 0.6567
vn -0.5314 0.1032 0.8408
vn 0.7343 0.2044 0.6473
vn 0.5484 0.7886 0.2783
vn -0.0796 0.8140 0.5754
vn -0.2334 0.2872 0.9290
vn 0.9888 0.1427 0.0438
vn 0.5832 0.8123 -0.0078
vn 0.5484 0.7886 0.2783
vn 0.7343 0.2044 0.6473
vn 0.9319 0.1991 -0.3033
vn 0.4772 0.7365 -0.4795
vn 0.5832 0.8123 -0.0078
vn 0.9888 0.1427 0.0438
vn -0.2505 -0.6567 -0.7113
vn -0.1184 0.0804 -0.9897
vn 0.1656 -0.0686 -0.9838
vn -0.2615 -0.3533 -0.8982
vn -0.7560 -0.4650 -0.4607
vn -0.7865 -0.0057 -0.6176
vn -0.1184 0.0804 -0.9897
vn -0.2505 -0.6567 -0.7113
vn -0.9247 -0.3382 0.1748
vn -0.8071 0.3282 0.4907
vn -0.7865 -0.0057 -0.6176
vn -0.7560 -0.4650 -0.4607
vn -0.6187 -0.2509 0.7445
vn -0.5314 0.1032 0.8408
vn -0.8071 0.3282 0.4907
vn -0.9247 -0.3382 0.1748
vn -0.1822 -0.1665 0.9691
vn -0.2334 0.2872 0.9290
vn -0.5314 0.1032 0.8408
vn -0.6187 -0.2509 0.7445
vn 0.6389 -0.3317 0.6941
vn 0.7343 0.2044 0.6473
vn -0.2334 0.2872 0.9290
vn -0.1822 -0.1665 0.9691
vn 0.9639 -0.2403 0.1145
vn 0.9888 0.1427 0.0438
vn 0.7343 0.2044 0.6473
vn 0.6389 -0.3317 0.6941
vn 0.8988 -0.2924 -0.3266
vn 0.9319 0.1991 -0.3033
vn 0.9888 0.1427 0.0438
vn 0.9639 -0.2403 0.1145
vn 0.0392 -0.4971 -0.8668
vn 0.4061 0.1712 -0.8977
vn 0.9319 0.1991 -0.3033
vn 0.8988 -0.2924 -0.3266
vn -0.2615 -0.3533 -0.8982
vn 0.1656 -0.0686 -0.9838
vn 0.4061 0.1712 -0.8977
vn 0.0392 -0.4971 -0.8668
vn 0.2435 0.8030 -0.5440
vn -0.0943 0.9876 0.1255
vn 0.5832 0.8123 -0.0078
vn 0.4772 0.7365 -0.4795
vn -0.0943 0.9876 0.1255
vn 0.5484 0.7886 0.2783
vn 0.5832 0.8123 -0.0078
# 102 vertex normals

vt 0.6207 0.2509 0.0000
vt 0.7188 0.2541 0.0000
vt 0.7188 0.3281 0.0000
vt 0.7031 0.3438 0.0000
vt 0.5469 0.3438 0.0000
vt 0.5313 0.3281 0.0000
vt 0.5313 0.1875 0.0000
vt 0.5469 0.1563 0.0000
vt 0.6879 0.6094 0.0000
vt 0.7344 0.6094 0.0000
vt 0.7344 0.6719 0.0000
vt 0.6650 0.6719 0.0000
vt 0.6650 0.6094 0.0000
vt 0.7813 0.6094 0.0000
vt 0.7813 0.6719 0.0000
vt 0.8431 0.6094 0.0000
vt 0.8431 0.6719 0.0000
vt 0.9688 0.6094 0.0000
vt 0.9688 0.6719 0.0000
vt 0.3281 0.6719 0.0000
vt 0.3281 0.6094 0.0000
vt 0.3750 0.6094 0.0000
vt 0.3750 0.6719 0.0000
vt 0.4688 0.6094 0.0000
vt 0.4688 0.6719 0.0000
vt 0.5469 0.6094 0.0000
vt 0.5469 0.6719 0.0000
vt 0.6066 0.6094 0.0000
vt 0.6066 0.6719 0.0000
vt 0.0156 0.6406 0.0000
vt 0.0938 0.6406 0.0000
vt 0.0938 0.7031 0.0000
vt 0.0156 0.7031 0.0000
vt 0.0938 0.7500 0.0000
vt 0.0156 0.7500 0.0000
vt 0.0938 0.8438 0.0000
vt 0.0156 0.8438 0.0000
vt 0.0156 0.1563 0.0000
vt 0.0938 0.1563 0.0000
vt 0.0938 0.2500 0.0000
vt 0.0156 0.2500 0.0000
vt 0.0938 0.2969 0.0000
vt 0.0156 0.2969 0.0000
vt 0.0938 0.3906 0.0000
vt 0.0156 0.3906 0.0000
vt 0.0938 0.4688 0.0000
vt 0.0156 0.4688 0.0000
vt 0.0938 0.5313 0.0000
vt 0.0156 0.5313 0.0000
vt 0.0938 0.5938 0.0000
vt 0.0156 0.5938 0.0000
vt 0.7031 0.1563 0.0000
vt 0.7188 0.1719 0.0000
# 53 texture coords

o Sphere002
g Sphere002
s 1
f 1/1/1 2/2/2 3/3/3 
f 1/1/4 3/3/5 4/4/6 
f 1/1/7 4/4/8 5/5/9 
f 1/1/10 5/5/11 6/6/12 
f 1/1/13 6/6/14 7/7/15 
f 1/1/16 7/7/17 8/8/18 
f 20/9/19 11/10/20 2/11/21 10/12/22 19/13/23 
f 12/14/24 3/15/25 2/11/26 11/10/27 
f 13/16/28 4/17/29 3/15/30 12/14/31 
f 14/18/32 5/19/33 4/17/34 13/16/35 
f 15/22/36 6/23/37 5/20/38 14/21/39 
f 16/24/40 7/25/41 6/23/42 15/22/43 
f 17/26/44 8/27/45 7/25/46 16/24/47 
f 18/28/48 9/29/49 8/27/50 17/26/51 
f 19/13/52 10/12/53 9/29/54 18/28/55 
f 22/32/56 12/33/57 11/30/58 21/31/59 
f 23/34/60 13/35/61 12/33/62 22/32/63 
f 24/36/64 14/37/65 13/35/66 23/34/67 
f 25/40/68 15/41/69 14/38/70 24/39/71 
f 26/42/72 16/43/73 15/41/74 25/40/75 
f 27/44/76 17/45/77 16/43/78 26/42/79 
f 28/46/80 18/47/81 17/45/82 27/44/83 
f 29/48/84 19/49/85 18/47/86 28/46/87 
f 30/50/88 20/51/89 19/49/90 29/48/91 
f 21/31/92 11/30/93 20/51/94 30/50/95 
f 2/2/96 1/1/97 9/52/98 10/53/99 
f 1/1/100 8/8/101 9/52/102 
# 20 polygons - 7 triangles

