# 3ds Max Wavefront OBJ Exporter v0.99 - (c)2007 guruware
# File Created: 24.03.2022 14:55:07

mtllib SM_Chest_ROY_2.mtl

#
# object Box101
#

v  -0.3558 0.2431 0.4943
v  0.3558 0.2431 0.4943
v  -0.3558 0.2431 -0.4943
v  0.3558 0.2431 -0.4943
v  -0.3558 0.8143 0.4943
v  0.3558 0.8143 0.4943
v  -0.3558 0.8143 -0.4943
v  0.3558 0.8143 -0.4943
v  -0.3558 0.3336 -0.4943
v  0.3558 0.3336 -0.4943
v  0.3558 0.3336 0.4943
v  -0.3558 0.3336 0.4943
v  -0.3558 0.7041 -0.4943
v  0.3558 0.7041 -0.4943
v  0.3558 0.7041 0.4943
v  -0.3558 0.7041 0.4943
v  0.2992 1.0364 0.4943
v  0.3558 0.8666 0.4943
v  0.1293 1.0931 0.4943
v  0.2992 1.0364 -0.4943
v  0.1293 1.0931 -0.4943
v  0.3558 0.8666 -0.4943
v  -0.2992 1.0364 -0.4943
v  -0.3558 0.8666 -0.4943
v  -0.1293 1.0931 -0.4943
v  -0.2992 1.0364 0.4943
v  -0.1293 1.0931 0.4943
v  -0.3558 0.8666 0.4943
v  -0.3994 0.2431 -0.5379
v  -0.3994 0.2431 0.5379
v  0.3994 0.2431 0.5379
v  0.3994 0.2431 -0.5379
v  0.3994 0.3336 0.5379
v  -0.3994 0.3336 0.5379
v  -0.3994 0.3336 -0.5379
v  0.3994 0.3336 -0.5379
v  -0.3994 0.7041 0.5379
v  0.3994 0.7041 0.5379
v  0.3994 0.7041 -0.5379
v  -0.3994 0.7041 -0.5379
v  0.3994 0.8143 0.5379
v  -0.3994 0.8143 0.5379
v  -0.3994 0.8143 -0.5379
v  0.3994 0.8143 -0.5379
# 44 vertices

vn 0.0000 -1.0000 -0.0000
vn 0.0000 -1.0000 -0.0000
vn 0.0000 -1.0000 -0.0000
vn 0.0000 -1.0000 -0.0000
vn 0.1602 0.9871 -0.0000
vn 0.1602 0.9871 -0.0000
vn -0.1602 0.9871 -0.0000
vn -0.1602 0.9871 -0.0000
vn 0.0000 0.0000 1.0000
vn 0.0000 0.0000 1.0000
vn 0.0000 0.0000 1.0000
vn 0.0000 0.0000 1.0000
vn 1.0000 0.0000 -0.0000
vn 1.0000 0.0000 -0.0000
vn 1.0000 0.0000 -0.0000
vn 1.0000 0.0000 -0.0000
vn 0.0000 0.0000 -1.0000
vn 0.0000 0.0000 -1.0000
vn 0.0000 0.0000 -1.0000
vn 0.0000 0.0000 -1.0000
vn -1.0000 0.0000 -0.0000
vn -1.0000 0.0000 -0.0000
vn -1.0000 0.0000 -0.0000
vn -1.0000 0.0000 -0.0000
vn 0.0000 0.0000 1.0000
vn 0.0000 0.0000 1.0000
vn 0.0000 0.0000 1.0000
vn 0.0000 0.0000 1.0000
vn 1.0000 0.0000 -0.0000
vn 1.0000 0.0000 -0.0000
vn 1.0000 0.0000 -0.0000
vn 1.0000 0.0000 -0.0000
vn 0.0000 0.0000 -1.0000
vn 0.0000 0.0000 -1.0000
vn 0.0000 0.0000 -1.0000
vn 0.0000 0.0000 -1.0000
vn -1.0000 0.0000 -0.0000
vn -1.0000 0.0000 -0.0000
vn -1.0000 0.0000 -0.0000
vn -1.0000 0.0000 -0.0000
vn 0.0000 0.0000 1.0000
vn 0.0000 0.0000 1.0000
vn 0.0000 0.0000 1.0000
vn 0.0000 0.0000 1.0000
vn 1.0000 0.0000 -0.0000
vn 1.0000 0.0000 -0.0000
vn 1.0000 0.0000 -0.0000
vn 1.0000 0.0000 -0.0000
vn 0.0000 0.0000 -1.0000
vn 0.0000 0.0000 -1.0000
vn 0.0000 0.0000 -1.0000
vn 0.0000 0.0000 -1.0000
vn -1.0000 0.0000 -0.0000
vn -1.0000 0.0000 -0.0000
vn -1.0000 0.0000 -0.0000
vn -1.0000 0.0000 -0.0000
vn -0.0000 0.0000 1.0000
vn -0.0000 0.0000 1.0000
vn -0.0000 0.0000 1.0000
vn 0.0000 0.0000 1.0000
vn -0.0000 0.0000 1.0000
vn -0.0000 0.0000 1.0000
vn -0.0000 0.0000 1.0000
vn 0.0000 0.0000 1.0000
vn 1.0000 0.0000 -0.0000
vn 0.9871 0.1602 -0.0000
vn 0.9871 0.1602 -0.0000
vn 1.0000 0.0000 -0.0000
vn 0.0000 0.0000 -1.0000
vn 0.0000 0.0000 -1.0000
vn 0.0000 0.0000 -1.0000
vn 0.0000 0.0000 -1.0000
vn 0.0000 0.0000 -1.0000
vn 0.0000 0.0000 -1.0000
vn 0.0000 0.0000 -1.0000
vn 0.0000 0.0000 -1.0000
vn -1.0000 0.0000 -0.0000
vn -0.9871 0.1602 -0.0000
vn -0.9871 0.1602 -0.0000
vn -1.0000 0.0000 -0.0000
vn 0.1602 0.9871 -0.0000
vn 0.1602 0.9871 -0.0000
vn 0.3162 0.9487 -0.0000
vn 0.3162 0.9487 -0.0000
vn -0.1602 0.9871 -0.0000
vn -0.1602 0.9871 -0.0000
vn -0.3162 0.9487 -0.0000
vn -0.3162 0.9487 -0.0000
vn 0.9871 0.1602 -0.0000
vn 0.9871 0.1602 -0.0000
vn 0.9487 0.3162 -0.0000
vn 0.9487 0.3162 -0.0000
vn -0.9871 0.1602 -0.0000
vn -0.9871 0.1602 -0.0000
vn -0.9487 0.3162 -0.0000
vn -0.9487 0.3162 -0.0000
vn 0.0000 -1.0000 -0.0000
vn 0.0000 -1.0000 -0.0000
vn 0.0000 -1.0000 -0.0000
vn 0.0000 -1.0000 -0.0000
vn 0.0000 -1.0000 -0.0000
vn 0.0000 -1.0000 -0.0000
vn 0.0000 -1.0000 -0.0000
vn 0.0000 -1.0000 -0.0000
vn 0.0000 -1.0000 -0.0000
vn 0.0000 -1.0000 -0.0000
vn 0.0000 -1.0000 -0.0000
vn 0.0000 -1.0000 -0.0000
vn 0.0000 -1.0000 -0.0000
vn 0.0000 -1.0000 -0.0000
vn 0.0000 -1.0000 -0.0000
vn 0.0000 -1.0000 -0.0000
vn -0.0000 1.0000 -0.0000
vn -0.0000 1.0000 -0.0000
vn -0.0000 1.0000 -0.0000
vn -0.0000 1.0000 0.0000
vn -0.0000 1.0000 0.0000
vn -0.0000 1.0000 0.0000
vn -0.0000 1.0000 0.0000
vn 0.0000 1.0000 0.0000
vn 0.0000 1.0000 -0.0000
vn 0.0000 1.0000 -0.0000
vn 0.0000 1.0000 -0.0000
vn 0.0000 1.0000 -0.0000
vn 0.0000 1.0000 -0.0000
vn 0.0000 1.0000 -0.0000
vn 0.0000 1.0000 -0.0000
vn 0.0000 1.0000 -0.0000
vn 0.0000 -1.0000 -0.0000
vn 0.0000 -1.0000 -0.0000
vn 0.0000 -1.0000 -0.0000
vn 0.0000 -1.0000 -0.0000
vn 0.0000 -1.0000 -0.0000
vn 0.0000 -1.0000 -0.0000
vn 0.0000 -1.0000 -0.0000
vn 0.0000 -1.0000 -0.0000
vn 0.0000 -1.0000 -0.0000
vn 0.0000 -1.0000 -0.0000
vn 0.0000 -1.0000 -0.0000
vn 0.0000 -1.0000 -0.0000
vn 0.0000 -1.0000 -0.0000
vn 0.0000 -1.0000 -0.0000
vn 0.0000 -1.0000 -0.0000
vn 0.0000 -1.0000 -0.0000
vn 0.0000 1.0000 -0.0000
vn 0.0000 1.0000 -0.0000
vn 0.0000 1.0000 -0.0000
vn 0.0000 1.0000 -0.0000
vn 0.0000 1.0000 -0.0000
vn 0.0000 1.0000 -0.0000
vn 0.0000 1.0000 -0.0000
vn 0.0000 1.0000 -0.0000
vn 0.0000 1.0000 -0.0000
vn 0.0000 1.0000 -0.0000
vn 0.0000 1.0000 -0.0000
vn 0.0000 1.0000 -0.0000
vn 0.0000 1.0000 -0.0000
vn 0.0000 1.0000 -0.0000
vn 0.0000 1.0000 -0.0000
vn 0.0000 1.0000 -0.0000
# 160 vertex normals

vt 0.5313 0.2031 0.0000
vt 0.6563 0.2031 0.0000
vt 0.6563 0.2969 0.0000
vt 0.5313 0.2969 0.0000
vt 0.5313 0.5535 0.0000
vt 0.6563 0.5535 0.0000
vt 0.6563 0.5872 0.0000
vt 0.5313 0.5872 0.0000
vt 0.7321 0.4767 0.0000
vt 0.7321 0.4608 0.0000
vt 0.8281 0.4608 0.0000
vt 0.8281 0.4767 0.0000
vt 0.6016 0.4767 0.0000
vt 0.6016 0.4608 0.0000
vt 0.5056 0.4767 0.0000
vt 0.5056 0.4608 0.0000
vt 0.3750 0.4767 0.0000
vt 0.3750 0.4608 0.0000
vt 0.6016 0.3438 0.0000
vt 0.6898 0.3438 0.0000
vt 0.6898 0.3906 0.0000
vt 0.6016 0.3906 0.0000
vt 0.4789 0.3438 0.0000
vt 0.4789 0.3906 0.0000
vt 0.3906 0.3438 0.0000
vt 0.3906 0.3906 0.0000
vt 0.8125 0.3438 0.0000
vt 0.8125 0.3906 0.0000
vt 0.4710 0.4306 0.0000
vt 0.3750 0.4306 0.0000
vt 0.3750 0.4132 0.0000
vt 0.4710 0.4132 0.0000
vt 0.6016 0.4306 0.0000
vt 0.6016 0.4132 0.0000
vt 0.6976 0.4306 0.0000
vt 0.6976 0.4132 0.0000
vt 0.8281 0.4306 0.0000
vt 0.8281 0.4132 0.0000
vt 0.4844 0.5455 0.0000
vt 0.4907 0.5231 0.0000
vt 0.5098 0.5156 0.0000
vt 0.5156 0.5156 0.0000
vt 0.5156 0.6094 0.0000
vt 0.5098 0.6094 0.0000
vt 0.4907 0.6019 0.0000
vt 0.4844 0.5795 0.0000
vt 0.6563 0.5000 0.0000
vt 0.6563 0.5068 0.0000
vt 0.5313 0.5068 0.0000
vt 0.5313 0.5000 0.0000
vt 0.7031 0.5795 0.0000
vt 0.6968 0.6019 0.0000
vt 0.6777 0.6094 0.0000
vt 0.6719 0.6094 0.0000
vt 0.6719 0.5156 0.0000
vt 0.6777 0.5156 0.0000
vt 0.6968 0.5231 0.0000
vt 0.7031 0.5455 0.0000
vt 0.5313 0.6406 0.0000
vt 0.5313 0.6338 0.0000
vt 0.6563 0.6338 0.0000
vt 0.6563 0.6406 0.0000
vt 0.5313 0.5301 0.0000
vt 0.6563 0.5301 0.0000
vt 0.6563 0.6105 0.0000
vt 0.5313 0.6105 0.0000
vt 0.5056 0.4844 0.0000
vt 0.3750 0.4844 0.0000
vt 0.8281 0.4844 0.0000
vt 0.7321 0.4844 0.0000
vt 0.6016 0.4844 0.0000
vt 0.7321 0.4531 0.0000
vt 0.8281 0.4531 0.0000
vt 0.3750 0.4531 0.0000
vt 0.5056 0.4531 0.0000
vt 0.6016 0.4531 0.0000
vt 0.3750 0.4063 0.0000
vt 0.4710 0.4063 0.0000
vt 0.6016 0.4063 0.0000
vt 0.6976 0.4063 0.0000
vt 0.8281 0.4063 0.0000
vt 0.4710 0.4375 0.0000
vt 0.3750 0.4375 0.0000
vt 0.8281 0.4375 0.0000
vt 0.6976 0.4375 0.0000
vt 0.6016 0.4375 0.0000
# 86 texture coords

o Box101
g Box101
usemtl wire_088199225
s off
f 1/1/1 3/2/2 4/3/3 2/4/4 
f 19/5/5 21/6/6 25/7/7 27/8/8 
f 31/9/9 33/10/10 34/11/11 30/12/12 
f 32/13/13 36/14/14 33/10/15 31/9/16 
f 29/15/17 35/16/18 36/14/19 32/13/20 
f 30/17/21 34/18/22 35/16/23 29/15/24 
f 15/19/25 16/20/26 12/21/27 11/22/28 
f 14/23/29 15/19/30 11/22/31 10/24/32 
f 13/25/33 14/23/34 10/24/35 9/26/36 
f 16/20/37 13/27/38 9/28/39 12/21/40 
f 41/29/41 42/30/42 37/31/43 38/32/44 
f 44/33/45 41/29/46 38/32/47 39/34/48 
f 43/35/49 44/33/50 39/34/51 40/36/52 
f 42/37/53 43/35/54 40/36/55 37/38/56 
f 27/39/57 26/40/58 28/41/59 5/42/60 6/43/61 18/44/62 17/45/63 19/46/64 
f 8/47/65 22/48/66 18/49/67 6/50/68 
f 21/51/69 20/52/70 22/53/71 8/54/72 7/55/73 24/56/74 23/57/75 25/58/76 
f 5/59/77 28/60/78 24/61/79 7/62/80 
f 21/6/81 19/5/82 17/63/83 20/64/84 
f 27/8/85 25/7/86 23/65/87 26/66/88 
f 18/49/89 22/48/90 20/64/91 17/63/92 
f 24/61/93 28/60/94 26/66/95 23/65/96 
f 3/67/97 1/68/98 30/17/99 29/15/100 
f 1/69/101 2/70/102 31/9/103 30/12/104 
f 2/70/105 4/71/106 32/13/107 31/9/108 
f 4/71/109 3/67/110 29/15/111 32/13/112 
f 11/72/113 12/73/114 34/11/115 33/10/116 
f 12/74/117 9/75/118 35/16/119 34/18/120 
f 9/75/121 10/76/122 36/14/123 35/16/124 
f 10/76/125 11/72/126 33/10/127 36/14/128 
f 16/77/129 15/78/130 38/32/131 37/31/132 
f 15/78/133 14/79/134 39/34/135 38/32/136 
f 14/79/137 13/80/138 40/36/139 39/34/140 
f 13/80/141 16/81/142 37/38/143 40/36/144 
f 6/82/145 5/83/146 42/30/147 41/29/148 
f 5/84/149 7/85/150 43/35/151 42/37/152 
f 7/85/153 8/86/154 44/33/155 43/35/156 
f 8/86/157 6/82/158 41/29/159 44/33/160 
# 38 polygons

