# 3ds Max Wavefront OBJ Exporter v0.99 - (c)2007 guruware
# File Created: 02.06.2022 17:25:27

#
# object Box003
#

v  -0.3296 1.5197 0.8471
v  0.3296 1.5197 0.8471
v  -0.3296 1.5197 -0.8471
v  0.3296 1.5197 -0.8471
v  -0.3296 2.2795 0.8471
v  0.3296 2.2795 0.8471
v  -0.3296 2.2795 -0.8471
v  0.3296 2.2795 -0.8471
v  0.3296 2.1866 -0.8471
v  0.3296 2.1866 0.8471
v  -0.3296 2.1866 0.8471
v  -0.3296 2.1866 -0.8471
v  0.3296 1.5962 -0.8471
v  0.3296 1.5962 0.8471
v  -0.3296 1.5962 0.8471
v  -0.3296 1.5962 -0.8471
v  0.3771 1.5197 0.8471
v  0.3771 1.5197 -0.8471
v  0.3771 1.5962 -0.8471
v  0.3771 1.5962 0.8471
v  0.3771 2.2795 -0.8471
v  0.3771 2.2795 0.8471
v  0.3771 2.1866 0.8471
v  0.3771 2.1866 -0.8471
v  -0.3296 0.7598 -0.8471
v  0.3296 0.7598 -0.8471
v  -0.3296 0.7598 0.8471
v  0.3296 0.7598 0.8471
v  -0.3296 1.5197 -0.8471
v  0.3296 1.5197 -0.8471
v  -0.3296 1.5197 0.8471
v  0.3296 1.5197 0.8471
v  0.3296 1.4268 0.8471
v  0.3296 1.4268 -0.8471
v  -0.3296 1.4268 -0.8471
v  -0.3296 1.4268 0.8471
v  0.3296 0.8363 0.8471
v  0.3296 0.8363 -0.8471
v  -0.3296 0.8363 -0.8471
v  -0.3296 0.8363 0.8471
v  0.3771 0.7598 -0.8471
v  0.3771 0.7598 0.8471
v  0.3771 0.8363 0.8471
v  0.3771 0.8363 -0.8471
v  0.3771 1.5197 0.8471
v  0.3771 1.5197 -0.8471
v  0.3771 1.4268 -0.8471
v  0.3771 1.4268 0.8471
v  -0.3296 0.0000 0.8471
v  0.3296 0.0000 0.8471
v  -0.3296 0.0000 -0.8471
v  0.3296 0.0000 -0.8471
v  -0.3296 0.7598 0.8471
v  0.3296 0.7598 0.8471
v  -0.3296 0.7598 -0.8471
v  0.3296 0.7598 -0.8471
v  0.3296 0.6670 -0.8471
v  0.3296 0.6670 0.8471
v  -0.3296 0.6670 0.8471
v  -0.3296 0.6670 -0.8471
v  0.3296 0.0765 -0.8471
v  0.3296 0.0765 0.8471
v  -0.3296 0.0765 0.8471
v  -0.3296 0.0765 -0.8471
v  0.3771 0.0000 0.8471
v  0.3771 0.0000 -0.8471
v  0.3771 0.0765 -0.8471
v  0.3771 0.0765 0.8471
v  0.3771 0.7598 -0.8471
v  0.3771 0.7598 0.8471
v  0.3771 0.6670 0.8471
v  0.3771 0.6670 -0.8471
# 72 vertices

vn 0.0000 -1.0000 -0.0000
vn 0.0000 -1.0000 -0.0000
vn 0.0000 -1.0000 -0.0000
vn 0.0000 -1.0000 -0.0000
vn 0.0000 1.0000 -0.0000
vn 0.0000 1.0000 -0.0000
vn 0.0000 1.0000 -0.0000
vn 0.0000 1.0000 -0.0000
vn 0.0000 0.0000 1.0000
vn 0.0000 0.0000 1.0000
vn 0.0000 -0.0000 1.0000
vn 0.0000 -0.0000 1.0000
vn 1.0000 0.0000 -0.0000
vn 1.0000 0.0000 -0.0000
vn 1.0000 0.0000 -0.0000
vn 1.0000 0.0000 -0.0000
vn 0.0000 0.0000 -1.0000
vn 0.0000 0.0000 -1.0000
vn 0.0000 0.0000 -1.0000
vn 0.0000 0.0000 -1.0000
vn -1.0000 0.0000 -0.0000
vn -1.0000 0.0000 -0.0000
vn -1.0000 0.0000 -0.0000
vn -1.0000 0.0000 -0.0000
vn 0.0000 0.0000 1.0000
vn 0.0000 0.0000 1.0000
vn 0.0000 0.0000 1.0000
vn 0.0000 0.0000 1.0000
vn 1.0000 0.0000 -0.0000
vn 1.0000 0.0000 -0.0000
vn 1.0000 0.0000 -0.0000
vn 1.0000 0.0000 -0.0000
vn 0.0000 0.0000 -1.0000
vn 0.0000 0.0000 -1.0000
vn 0.0000 0.0000 -1.0000
vn 0.0000 0.0000 -1.0000
vn -1.0000 0.0000 -0.0000
vn -1.0000 0.0000 -0.0000
vn -1.0000 0.0000 -0.0000
vn -1.0000 0.0000 -0.0000
vn 0.0000 0.0000 1.0000
vn 0.0000 0.0000 1.0000
vn 0.0000 -0.0000 1.0000
vn 0.0000 0.0000 1.0000
vn 1.0000 0.0000 -0.0000
vn 1.0000 0.0000 -0.0000
vn 1.0000 0.0000 -0.0000
vn 1.0000 0.0000 -0.0000
vn 0.0000 0.0000 -1.0000
vn 0.0000 0.0000 -1.0000
vn 0.0000 0.0000 -1.0000
vn 0.0000 0.0000 -1.0000
vn -1.0000 0.0000 -0.0000
vn -1.0000 0.0000 -0.0000
vn -1.0000 0.0000 -0.0000
vn -1.0000 0.0000 -0.0000
vn 0.0000 -1.0000 -0.0000
vn 0.0000 -1.0000 -0.0000
vn 0.0000 -1.0000 -0.0000
vn 0.0000 -1.0000 -0.0000
vn 0.0000 0.0000 -1.0000
vn 0.0000 0.0000 -1.0000
vn 0.0000 0.0000 -1.0000
vn 0.0000 0.0000 -1.0000
vn 0.0000 1.0000 -0.0000
vn 0.0000 1.0000 -0.0000
vn 0.0000 1.0000 -0.0000
vn 0.0000 1.0000 -0.0000
vn 0.0000 0.0000 1.0000
vn 0.0000 0.0000 1.0000
vn 0.0000 0.0000 1.0000
vn 0.0000 0.0000 1.0000
vn 0.0000 1.0000 -0.0000
vn 0.0000 1.0000 -0.0000
vn 0.0000 1.0000 -0.0000
vn 0.0000 1.0000 -0.0000
vn 0.0000 0.0000 1.0000
vn 0.0000 0.0000 1.0000
vn 0.0000 0.0000 1.0000
vn 0.0000 0.0000 1.0000
vn 0.0000 -1.0000 -0.0000
vn 0.0000 -1.0000 -0.0000
vn 0.0000 -1.0000 -0.0000
vn 0.0000 -1.0000 -0.0000
vn 0.0000 0.0000 -1.0000
vn 0.0000 0.0000 -1.0000
vn 0.0000 0.0000 -1.0000
vn 0.0000 0.0000 -1.0000
vn 0.0000 -1.0000 -0.0000
vn 0.0000 -1.0000 -0.0000
vn 0.0000 -1.0000 -0.0000
vn 0.0000 -1.0000 -0.0000
vn 0.0000 1.0000 -0.0000
vn 0.0000 1.0000 -0.0000
vn 0.0000 1.0000 -0.0000
vn 0.0000 1.0000 -0.0000
vn 0.0000 0.0000 -1.0000
vn 0.0000 -0.0000 -1.0000
vn 0.0000 -0.0000 -1.0000
vn 0.0000 0.0000 -1.0000
vn 1.0000 0.0000 -0.0000
vn 1.0000 0.0000 -0.0000
vn 1.0000 0.0000 -0.0000
vn 1.0000 0.0000 -0.0000
vn 0.0000 0.0000 1.0000
vn 0.0000 0.0000 1.0000
vn 0.0000 0.0000 1.0000
vn 0.0000 0.0000 1.0000
vn -1.0000 0.0000 -0.0000
vn -1.0000 0.0000 -0.0000
vn -1.0000 0.0000 -0.0000
vn -1.0000 0.0000 -0.0000
vn 0.0000 0.0000 -1.0000
vn 0.0000 0.0000 -1.0000
vn 0.0000 0.0000 -1.0000
vn 0.0000 0.0000 -1.0000
vn 1.0000 0.0000 -0.0000
vn 1.0000 0.0000 -0.0000
vn 1.0000 0.0000 -0.0000
vn 1.0000 0.0000 -0.0000
vn 0.0000 0.0000 1.0000
vn 0.0000 0.0000 1.0000
vn 0.0000 0.0000 1.0000
vn 0.0000 0.0000 1.0000
vn -1.0000 0.0000 -0.0000
vn -1.0000 0.0000 -0.0000
vn -1.0000 0.0000 -0.0000
vn -1.0000 0.0000 -0.0000
vn 0.0000 0.0000 -1.0000
vn 0.0000 0.0000 -1.0000
vn 0.0000 -0.0000 -1.0000
vn 0.0000 0.0000 -1.0000
vn 1.0000 0.0000 -0.0000
vn 1.0000 0.0000 -0.0000
vn 1.0000 0.0000 -0.0000
vn 1.0000 0.0000 -0.0000
vn 0.0000 0.0000 1.0000
vn 0.0000 0.0000 1.0000
vn 0.0000 0.0000 1.0000
vn 0.0000 0.0000 1.0000
vn -1.0000 0.0000 -0.0000
vn -1.0000 0.0000 -0.0000
vn -1.0000 0.0000 -0.0000
vn -1.0000 0.0000 -0.0000
vn 0.0000 -1.0000 -0.0000
vn 0.0000 -1.0000 -0.0000
vn 0.0000 -1.0000 -0.0000
vn 0.0000 -1.0000 -0.0000
vn 0.0000 0.0000 1.0000
vn 0.0000 0.0000 1.0000
vn 0.0000 0.0000 1.0000
vn 0.0000 0.0000 1.0000
vn 0.0000 1.0000 -0.0000
vn 0.0000 1.0000 -0.0000
vn 0.0000 1.0000 -0.0000
vn 0.0000 1.0000 -0.0000
vn 0.0000 0.0000 -1.0000
vn 0.0000 0.0000 -1.0000
vn 0.0000 0.0000 -1.0000
vn 0.0000 0.0000 -1.0000
vn 0.0000 1.0000 -0.0000
vn 0.0000 1.0000 -0.0000
vn 0.0000 1.0000 -0.0000
vn 0.0000 1.0000 -0.0000
vn 0.0000 0.0000 -1.0000
vn 0.0000 0.0000 -1.0000
vn 0.0000 0.0000 -1.0000
vn 0.0000 0.0000 -1.0000
vn 0.0000 -1.0000 -0.0000
vn 0.0000 -1.0000 -0.0000
vn 0.0000 -1.0000 -0.0000
vn 0.0000 -1.0000 -0.0000
vn 0.0000 0.0000 1.0000
vn 0.0000 0.0000 1.0000
vn 0.0000 0.0000 1.0000
vn 0.0000 0.0000 1.0000
vn 0.0000 -1.0000 -0.0000
vn 0.0000 -1.0000 -0.0000
vn 0.0000 -1.0000 -0.0000
vn 0.0000 -1.0000 -0.0000
vn 0.0000 1.0000 -0.0000
vn 0.0000 1.0000 -0.0000
vn 0.0000 1.0000 -0.0000
vn 0.0000 1.0000 -0.0000
vn 0.0000 0.0000 1.0000
vn 0.0000 0.0000 1.0000
vn 0.0000 -0.0000 1.0000
vn 0.0000 -0.0000 1.0000
vn 1.0000 0.0000 -0.0000
vn 1.0000 0.0000 -0.0000
vn 1.0000 0.0000 -0.0000
vn 1.0000 0.0000 -0.0000
vn 0.0000 0.0000 -1.0000
vn 0.0000 0.0000 -1.0000
vn 0.0000 0.0000 -1.0000
vn 0.0000 0.0000 -1.0000
vn -1.0000 0.0000 -0.0000
vn -1.0000 0.0000 -0.0000
vn -1.0000 0.0000 -0.0000
vn -1.0000 0.0000 -0.0000
vn 0.0000 0.0000 1.0000
vn 0.0000 0.0000 1.0000
vn 0.0000 0.0000 1.0000
vn 0.0000 0.0000 1.0000
vn 1.0000 0.0000 -0.0000
vn 1.0000 0.0000 -0.0000
vn 1.0000 0.0000 -0.0000
vn 1.0000 0.0000 -0.0000
vn 0.0000 0.0000 -1.0000
vn 0.0000 0.0000 -1.0000
vn 0.0000 0.0000 -1.0000
vn 0.0000 0.0000 -1.0000
vn -1.0000 0.0000 -0.0000
vn -1.0000 0.0000 -0.0000
vn -1.0000 0.0000 -0.0000
vn -1.0000 0.0000 -0.0000
vn 0.0000 0.0000 1.0000
vn 0.0000 0.0000 1.0000
vn 0.0000 -0.0000 1.0000
vn 0.0000 0.0000 1.0000
vn 1.0000 0.0000 -0.0000
vn 1.0000 0.0000 -0.0000
vn 1.0000 0.0000 -0.0000
vn 1.0000 0.0000 -0.0000
vn 0.0000 0.0000 -1.0000
vn 0.0000 0.0000 -1.0000
vn 0.0000 0.0000 -1.0000
vn 0.0000 0.0000 -1.0000
vn -1.0000 0.0000 -0.0000
vn -1.0000 0.0000 -0.0000
vn -1.0000 0.0000 -0.0000
vn -1.0000 0.0000 -0.0000
vn 0.0000 -1.0000 -0.0000
vn 0.0000 -1.0000 -0.0000
vn 0.0000 -1.0000 -0.0000
vn 0.0000 -1.0000 -0.0000
vn 0.0000 0.0000 -1.0000
vn 0.0000 0.0000 -1.0000
vn 0.0000 0.0000 -1.0000
vn 0.0000 0.0000 -1.0000
vn 0.0000 1.0000 -0.0000
vn 0.0000 1.0000 -0.0000
vn 0.0000 1.0000 -0.0000
vn 0.0000 1.0000 -0.0000
vn 0.0000 0.0000 1.0000
vn 0.0000 0.0000 1.0000
vn 0.0000 0.0000 1.0000
vn 0.0000 0.0000 1.0000
vn 0.0000 1.0000 -0.0000
vn 0.0000 1.0000 -0.0000
vn 0.0000 1.0000 -0.0000
vn 0.0000 1.0000 -0.0000
vn 0.0000 0.0000 1.0000
vn 0.0000 0.0000 1.0000
vn 0.0000 0.0000 1.0000
vn 0.0000 0.0000 1.0000
vn 0.0000 -1.0000 -0.0000
vn 0.0000 -1.0000 -0.0000
vn 0.0000 -1.0000 -0.0000
vn 0.0000 -1.0000 -0.0000
vn 0.0000 0.0000 -1.0000
vn 0.0000 0.0000 -1.0000
vn 0.0000 0.0000 -1.0000
vn 0.0000 0.0000 -1.0000
# 264 vertex normals

vt 0.1126 0.6973 0.0000
vt 0.1126 0.5918 0.0000
vt 0.1526 0.5918 0.0000
vt 0.1526 0.6973 0.0000
vt 0.3438 0.6836 0.0000
vt 0.3039 0.6836 0.0000
vt 0.3039 0.5781 0.0000
vt 0.3438 0.5781 0.0000
vt 0.0909 0.7500 0.0000
vt 0.0909 0.7547 0.0000
vt 0.0508 0.7547 0.0000
vt 0.0508 0.7500 0.0000
vt 0.1555 0.5918 0.0000
vt 0.1602 0.5918 0.0000
vt 0.1602 0.6973 0.0000
vt 0.1555 0.6973 0.0000
vt 0.2891 0.7969 0.0000
vt 0.2891 0.7922 0.0000
vt 0.3291 0.7922 0.0000
vt 0.3291 0.7969 0.0000
vt 0.1079 0.6973 0.0000
vt 0.1079 0.5918 0.0000
vt 0.0909 0.7969 0.0000
vt 0.0508 0.7969 0.0000
vt 0.0508 0.7911 0.0000
vt 0.0909 0.7911 0.0000
vt 0.3010 0.5781 0.0000
vt 0.3010 0.6836 0.0000
vt 0.2954 0.6836 0.0000
vt 0.2954 0.5781 0.0000
vt 0.2891 0.7500 0.0000
vt 0.3291 0.7500 0.0000
vt 0.3291 0.7557 0.0000
vt 0.2891 0.7557 0.0000
vt 0.0664 0.6973 0.0000
vt 0.0664 0.5918 0.0000
vt 0.0720 0.5918 0.0000
vt 0.0720 0.6973 0.0000
vt 0.2925 0.5781 0.0000
vt 0.2925 0.6836 0.0000
vt 0.2568 0.6836 0.0000
vt 0.2568 0.5781 0.0000
vt 0.3320 0.7922 0.0000
vt 0.3320 0.7969 0.0000
vt 0.2539 0.6836 0.0000
vt 0.2539 0.5781 0.0000
vt 0.0938 0.7500 0.0000
vt 0.0938 0.7547 0.0000
vt 0.0938 0.7911 0.0000
vt 0.0938 0.7969 0.0000
vt 0.3320 0.7500 0.0000
vt 0.3320 0.7557 0.0000
vt 0.1126 0.6973 0.0000
vt 0.1126 0.5918 0.0000
vt 0.1526 0.5918 0.0000
vt 0.1526 0.6973 0.0000
vt 0.3438 0.6836 0.0000
vt 0.3039 0.6836 0.0000
vt 0.3039 0.5781 0.0000
vt 0.3438 0.5781 0.0000
vt 0.0909 0.7500 0.0000
vt 0.0909 0.7547 0.0000
vt 0.0508 0.7547 0.0000
vt 0.0508 0.7500 0.0000
vt 0.1555 0.5918 0.0000
vt 0.1602 0.5918 0.0000
vt 0.1602 0.6973 0.0000
vt 0.1555 0.6973 0.0000
vt 0.2891 0.7969 0.0000
vt 0.2891 0.7922 0.0000
vt 0.3291 0.7922 0.0000
vt 0.3291 0.7969 0.0000
vt 0.1079 0.6973 0.0000
vt 0.1079 0.5918 0.0000
vt 0.0909 0.7969 0.0000
vt 0.0508 0.7969 0.0000
vt 0.0508 0.7911 0.0000
vt 0.0909 0.7911 0.0000
vt 0.3010 0.5781 0.0000
vt 0.3010 0.6836 0.0000
vt 0.2954 0.6836 0.0000
vt 0.2954 0.5781 0.0000
vt 0.2891 0.7500 0.0000
vt 0.3291 0.7500 0.0000
vt 0.3291 0.7557 0.0000
vt 0.2891 0.7557 0.0000
vt 0.0664 0.6973 0.0000
vt 0.0664 0.5918 0.0000
vt 0.0720 0.5918 0.0000
vt 0.0720 0.6973 0.0000
vt 0.2925 0.5781 0.0000
vt 0.2925 0.6836 0.0000
vt 0.2568 0.6836 0.0000
vt 0.2568 0.5781 0.0000
vt 0.3320 0.7922 0.0000
vt 0.3320 0.7969 0.0000
vt 0.2539 0.6836 0.0000
vt 0.2539 0.5781 0.0000
vt 0.0938 0.7500 0.0000
vt 0.0938 0.7547 0.0000
vt 0.0938 0.7911 0.0000
vt 0.0938 0.7969 0.0000
vt 0.3320 0.7500 0.0000
vt 0.3320 0.7557 0.0000
vt 0.1126 0.6973 0.0000
vt 0.1126 0.5918 0.0000
vt 0.1526 0.5918 0.0000
vt 0.1526 0.6973 0.0000
vt 0.3438 0.6836 0.0000
vt 0.3039 0.6836 0.0000
vt 0.3039 0.5781 0.0000
vt 0.3438 0.5781 0.0000
vt 0.0909 0.7500 0.0000
vt 0.0909 0.7547 0.0000
vt 0.0508 0.7547 0.0000
vt 0.0508 0.7500 0.0000
vt 0.1555 0.5918 0.0000
vt 0.1602 0.5918 0.0000
vt 0.1602 0.6973 0.0000
vt 0.1555 0.6973 0.0000
vt 0.2891 0.7969 0.0000
vt 0.2891 0.7922 0.0000
vt 0.3291 0.7922 0.0000
vt 0.3291 0.7969 0.0000
vt 0.1079 0.6973 0.0000
vt 0.1079 0.5918 0.0000
vt 0.0909 0.7969 0.0000
vt 0.0508 0.7969 0.0000
vt 0.0508 0.7911 0.0000
vt 0.0909 0.7911 0.0000
vt 0.3010 0.5781 0.0000
vt 0.3010 0.6836 0.0000
vt 0.2954 0.6836 0.0000
vt 0.2954 0.5781 0.0000
vt 0.2891 0.7500 0.0000
vt 0.3291 0.7500 0.0000
vt 0.3291 0.7557 0.0000
vt 0.2891 0.7557 0.0000
vt 0.0664 0.6973 0.0000
vt 0.0664 0.5918 0.0000
vt 0.0720 0.5918 0.0000
vt 0.0720 0.6973 0.0000
vt 0.2925 0.5781 0.0000
vt 0.2925 0.6836 0.0000
vt 0.2568 0.6836 0.0000
vt 0.2568 0.5781 0.0000
vt 0.3320 0.7922 0.0000
vt 0.3320 0.7969 0.0000
vt 0.2539 0.6836 0.0000
vt 0.2539 0.5781 0.0000
vt 0.0938 0.7500 0.0000
vt 0.0938 0.7547 0.0000
vt 0.0938 0.7911 0.0000
vt 0.0938 0.7969 0.0000
vt 0.3320 0.7500 0.0000
vt 0.3320 0.7557 0.0000
# 156 texture coords

o Box003
g Box003
s 2
f 1/1/1 3/2/2 4/3/3 2/4/4 
s 4
f 5/5/5 6/6/6 8/7/7 7/8/8 
s 8
f 2/9/9 14/10/10 15/11/11 1/12/12 
s 16
f 18/13/13 19/14/14 20/15/15 17/16/16 
s 32
f 3/17/17 16/18/18 13/19/19 4/20/20 
s 64
f 1/1/21 15/21/22 16/22/23 3/2/24 
s 8
f 6/23/25 5/24/26 11/25/27 10/26/28 
s 16
f 21/27/29 22/28/30 23/29/31 24/30/32 
s 32
f 7/31/33 8/32/34 9/33/35 12/34/36 
s 64
f 5/35/37 7/36/38 12/37/39 11/38/40 
s 8
f 10/26/41 11/25/42 15/11/43 14/10/44 
s 16
f 9/39/45 10/40/46 14/41/47 13/42/48 
s 32
f 12/34/49 9/33/50 13/19/51 16/18/52 
s 64
f 11/38/53 12/37/54 16/22/55 15/21/56 
s off
f 2/4/57 4/3/58 18/13/59 17/16/60 
f 4/20/61 13/19/62 19/43/63 18/44/64 
f 13/42/65 14/41/66 20/45/67 19/46/68 
f 14/10/69 2/9/70 17/47/71 20/48/72 
f 8/7/73 6/6/74 22/28/75 21/27/76 
f 6/23/77 10/26/78 23/49/79 22/50/80 
f 10/40/81 9/39/82 24/30/83 23/29/84 
f 9/33/85 8/32/86 21/51/87 24/52/88 
s 2
f 25/53/89 26/56/90 28/55/91 27/54/92 
s 4
f 29/57/93 31/60/94 32/59/95 30/58/96 
s 8
f 26/61/97 25/64/98 39/63/99 38/62/100 
s 16
f 42/65/101 41/68/102 44/67/103 43/66/104 
s 32
f 27/69/105 28/72/106 37/71/107 40/70/108 
s 64
f 25/53/109 27/54/110 40/74/111 39/73/112 
s 8
f 30/75/113 34/78/114 35/77/115 29/76/116 
s 16
f 45/79/117 48/82/118 47/81/119 46/80/120 
s 32
f 31/83/121 36/86/122 33/85/123 32/84/124 
s 64
f 29/87/125 35/90/126 36/89/127 31/88/128 
s 8
f 34/78/129 38/62/130 39/63/131 35/77/132 
s 16
f 33/91/133 37/94/134 38/93/135 34/92/136 
s 32
f 36/86/137 40/70/138 37/71/139 33/85/140 
s 64
f 35/90/141 39/73/142 40/74/143 36/89/144 
s off
f 26/56/145 41/68/146 42/65/147 28/55/148 
f 28/72/149 42/96/150 43/95/151 37/71/152 
f 37/94/153 43/98/154 44/97/155 38/93/156 
f 38/62/157 44/100/158 41/99/159 26/61/160 
f 32/59/161 45/79/162 46/80/163 30/58/164 
f 30/75/165 46/102/166 47/101/167 34/78/168 
f 34/92/169 47/81/170 48/82/171 33/91/172 
f 33/85/173 48/104/174 45/103/175 32/84/176 
s 2
f 49/105/177 51/106/178 52/107/179 50/108/180 
s 4
f 53/109/181 54/110/182 56/111/183 55/112/184 
s 8
f 50/113/185 62/114/186 63/115/187 49/116/188 
s 16
f 66/117/189 67/118/190 68/119/191 65/120/192 
s 32
f 51/121/193 64/122/194 61/123/195 52/124/196 
s 64
f 49/105/197 63/125/198 64/126/199 51/106/200 
s 8
f 54/127/201 53/128/202 59/129/203 58/130/204 
s 16
f 69/131/205 70/132/206 71/133/207 72/134/208 
s 32
f 55/135/209 56/136/210 57/137/211 60/138/212 
s 64
f 53/139/213 55/140/214 60/141/215 59/142/216 
s 8
f 58/130/217 59/129/218 63/115/219 62/114/220 
s 16
f 57/143/221 58/144/222 62/145/223 61/146/224 
s 32
f 60/138/225 57/137/226 61/123/227 64/122/228 
s 64
f 59/142/229 60/141/230 64/126/231 63/125/232 
s off
f 50/108/233 52/107/234 66/117/235 65/120/236 
f 52/124/237 61/123/238 67/147/239 66/148/240 
f 61/146/241 62/145/242 68/149/243 67/150/244 
f 62/114/245 50/113/246 65/151/247 68/152/248 
f 56/111/249 54/110/250 70/132/251 69/131/252 
f 54/127/253 58/130/254 71/153/255 70/154/256 
f 58/144/257 57/143/258 72/134/259 71/133/260 
f 57/137/261 56/136/262 69/155/263 72/156/264 
# 66 polygons

