# 3ds Max Wavefront OBJ Exporter v0.99 - (c)2007 guruware
# File Created: 03.06.2022 14:46:10

#
# object Box003
#

v  -0.0441 0.0000 -0.7391
v  -0.0441 0.7931 -0.7391
v  -0.1470 0.9282 -0.7391
v  -0.1470 0.7931 -0.7391
v  -0.0441 0.0443 -0.6565
v  -0.0441 0.7488 -0.6565
v  -0.0441 0.4440 -0.7391
v  -0.0441 0.3491 -0.7391
v  -0.0441 0.3491 -0.6565
v  -0.0441 0.4440 -0.6565
v  0.1842 0.0443 -0.6565
v  0.1842 0.3491 -0.6565
v  0.1842 0.7488 -0.6565
v  0.1842 0.4440 -0.6565
v  -0.0441 0.0000 -0.0891
v  -0.0441 0.0443 -0.0891
v  -0.0441 0.3491 -0.0891
v  -0.1470 0.7931 0.0138
v  -0.0441 0.7488 -0.0891
v  -0.0441 0.4440 -0.0891
v  0.6059 0.0000 -0.0891
v  0.6059 0.3491 -0.0891
v  0.5233 0.0443 -0.3174
v  0.1842 0.0443 -0.3174
v  0.1842 0.3491 -0.3174
v  0.5233 0.3491 -0.3174
v  0.6059 0.7931 -0.0891
v  0.6059 0.9282 -0.7391
v  0.6059 0.7931 0.0138
v  0.6059 0.9282 0.0138
v  0.5233 0.0443 -0.0891
v  0.6059 0.4440 -0.0891
v  0.5233 0.4440 -0.0891
v  0.5233 0.7488 -0.0891
v  0.5233 0.3491 -0.0891
v  0.5233 0.4440 -0.3174
v  0.5233 0.7488 -0.3174
v  0.1842 0.4440 -0.3174
v  -0.1470 0.9282 0.0138
v  -0.0441 0.7931 -0.0891
v  0.1842 0.7488 -0.3174
# 41 vertices

vn -1.0000 0.0000 -0.0000
vn -1.0000 0.0000 -0.0000
vn -1.0000 0.0000 -0.0000
vn -1.0000 0.0000 -0.0000
vn -1.0000 -0.0000 0.0000
vn -1.0000 -0.0000 -0.0000
vn -1.0000 -0.0000 -0.0000
vn -1.0000 -0.0000 -0.0000
vn -1.0000 0.0000 -0.0000
vn -1.0000 0.0000 -0.0000
vn -1.0000 0.0000 -0.0000
vn -1.0000 0.0000 -0.0000
vn -1.0000 0.0000 -0.0000
vn -1.0000 -0.0000 -0.0000
vn -1.0000 -0.0000 -0.0000
vn -1.0000 -0.0000 -0.0000
vn -1.0000 0.0000 -0.0000
vn -1.0000 0.0000 -0.0000
vn -1.0000 0.0000 -0.0000
vn -1.0000 -0.0000 -0.0000
vn -1.0000 0.0000 -0.0000
vn -1.0000 0.0000 -0.0000
vn -1.0000 0.0000 -0.0000
vn -1.0000 -0.0000 -0.0000
vn 0.0000 1.0000 -0.0000
vn 0.0000 1.0000 -0.0000
vn 0.0000 1.0000 -0.0000
vn 0.0000 1.0000 -0.0000
vn 0.0000 0.0000 1.0000
vn 0.0000 0.0000 1.0000
vn 0.0000 0.0000 1.0000
vn 0.0000 0.0000 1.0000
vn 0.0000 0.0000 1.0000
vn 0.0000 0.0000 1.0000
vn 0.0000 0.0000 1.0000
vn 0.0000 0.0000 1.0000
vn 0.0000 1.0000 -0.0000
vn 0.0000 1.0000 -0.0000
vn 0.0000 1.0000 -0.0000
vn 0.0000 1.0000 -0.0000
vn -1.0000 0.0000 -0.0000
vn -1.0000 0.0000 -0.0000
vn -1.0000 0.0000 -0.0000
vn -1.0000 0.0000 -0.0000
vn -1.0000 0.0000 -0.0000
vn -1.0000 0.0000 -0.0000
vn -1.0000 0.0000 -0.0000
vn -1.0000 0.0000 -0.0000
vn -1.0000 0.0000 -0.0000
vn -1.0000 0.0000 -0.0000
vn -1.0000 0.0000 -0.0000
vn -1.0000 0.0000 -0.0000
vn 0.0000 0.0000 1.0000
vn 0.0000 0.0000 1.0000
vn 0.0000 0.0000 1.0000
vn 0.0000 0.0000 1.0000
vn 0.0000 -0.0000 1.0000
vn 0.0000 -0.0000 1.0000
vn 0.0000 -0.0000 1.0000
vn 0.0000 -0.0000 1.0000
vn 0.0000 0.0000 1.0000
vn 0.0000 0.0000 1.0000
vn 0.0000 0.0000 1.0000
vn 0.0000 0.0000 1.0000
vn 0.0000 0.0000 1.0000
vn 0.0000 0.0000 1.0000
vn 0.0000 -0.0000 1.0000
vn 0.0000 -0.0000 1.0000
vn 0.0000 0.0000 1.0000
vn 0.0000 0.0000 1.0000
vn 0.0000 0.0000 1.0000
vn 0.0000 0.0000 1.0000
vn 0.0000 0.0000 1.0000
vn 0.0000 0.0000 1.0000
vn 0.0000 0.0000 1.0000
vn 0.0000 0.0000 1.0000
vn 0.0000 1.0000 -0.0000
vn 0.0000 1.0000 -0.0000
vn 0.0000 1.0000 -0.0000
vn 0.0000 1.0000 -0.0000
vn -1.0000 0.0000 -0.0000
vn -1.0000 0.0000 -0.0000
vn -1.0000 0.0000 -0.0000
vn -1.0000 0.0000 -0.0000
vn -1.0000 0.0000 -0.0000
vn -1.0000 0.0000 -0.0000
vn -1.0000 0.0000 -0.0000
vn -1.0000 0.0000 -0.0000
vn 0.0000 1.0000 -0.0000
vn 0.0000 1.0000 -0.0000
vn 0.0000 1.0000 -0.0000
vn 0.0000 1.0000 -0.0000
vn 0.0000 0.0000 1.0000
vn 0.0000 0.0000 1.0000
vn 0.0000 0.0000 1.0000
vn 0.0000 0.0000 1.0000
vn 0.0000 0.0000 1.0000
vn 0.0000 0.0000 1.0000
vn 0.0000 0.0000 1.0000
vn 0.0000 0.0000 1.0000
vn 0.0000 0.0000 1.0000
vn 0.0000 0.0000 1.0000
vn 0.0000 0.0000 1.0000
vn 0.0000 0.0000 1.0000
vn 0.0000 1.0000 -0.0000
vn 0.0000 1.0000 -0.0000
vn 0.0000 1.0000 -0.0000
vn 0.0000 1.0000 -0.0000
# 108 vertex normals

vt 0.6563 0.0664 0.0000
vt 0.6172 0.0664 0.0000
vt 0.6172 0.0234 0.0000
vt 0.6563 0.0234 0.0000
vt 0.1406 0.7813 0.0000
vt 0.1463 0.7813 0.0000
vt 0.1463 0.8494 0.0000
vt 0.1406 0.8594 0.0000
vt 0.1975 0.8594 0.0000
vt 0.1975 0.8494 0.0000
vt 0.2365 0.8494 0.0000
vt 0.2422 0.8594 0.0000
vt 0.1853 0.8594 0.0000
vt 0.1853 0.8494 0.0000
vt 0.1853 0.7813 0.0000
vt 0.1975 0.7813 0.0000
vt 0.8898 0.3125 0.0000
vt 0.9609 0.3125 0.0000
vt 0.9323 0.3411 0.0000
vt 0.8898 0.3411 0.0000
vt 0.8516 0.3125 0.0000
vt 0.8516 0.3411 0.0000
vt 0.0313 0.1406 0.0000
vt 0.0313 0.1024 0.0000
vt 0.0599 0.1024 0.0000
vt 0.0599 0.1406 0.0000
vt 0.0313 0.0313 0.0000
vt 0.0599 0.0599 0.0000
vt 0.4944 0.9688 0.0000
vt 0.4766 0.9688 0.0000
vt 0.4766 0.8694 0.0000
vt 0.4944 0.8694 0.0000
vt 0.2422 0.7813 0.0000
vt 0.2365 0.7813 0.0000
vt 0.4141 0.2734 0.0000
vt 0.3750 0.2734 0.0000
vt 0.3750 0.2305 0.0000
vt 0.4141 0.2305 0.0000
vt 0.6563 0.1094 0.0000
vt 0.6172 0.1094 0.0000
vt 0.1406 0.7031 0.0000
vt 0.1463 0.7131 0.0000
vt 0.1975 0.7031 0.0000
vt 0.2422 0.7031 0.0000
vt 0.2365 0.7131 0.0000
vt 0.1975 0.7131 0.0000
vt 0.1853 0.7031 0.0000
vt 0.1853 0.7131 0.0000
vt 0.9609 0.3837 0.0000
vt 0.9323 0.3837 0.0000
vt 0.9609 0.4219 0.0000
vt 0.9323 0.4219 0.0000
vt 0.1406 0.0313 0.0000
vt 0.1406 0.0599 0.0000
vt 0.1024 0.0599 0.0000
vt 0.1024 0.0313 0.0000
vt 0.5938 0.8694 0.0000
vt 0.4944 0.8516 0.0000
vt 0.5938 0.8516 0.0000
vt 0.4141 0.1875 0.0000
vt 0.3750 0.1875 0.0000
vt 0.5938 0.9688 0.0000
# 62 texture coords

o Box003
g Box003
s 4
f 24/1/1 25/2/2 12/3/3 11/4/4 
f 15/5/5 16/6/6 5/7/7 1/8/8 
f 7/9/9 10/10/10 6/11/11 2/12/12 
f 8/13/13 1/8/14 5/7/15 9/14/16 
f 17/15/17 20/16/18 10/10/19 9/14/20 
f 10/10/21 7/9/22 8/13/23 9/14/24 
s off
f 5/17/25 16/18/26 24/19/27 11/20/28 
f 9/21/29 5/17/30 11/20/31 12/22/32 
f 6/23/33 10/24/34 14/25/35 13/26/36 
f 10/24/37 20/27/38 38/28/39 14/25/40 
s 4
f 3/29/41 4/30/42 18/31/43 39/32/44 
f 40/33/45 2/12/46 6/11/47 19/34/48 
f 13/35/49 14/36/50 38/37/51 41/38/52 
f 24/1/53 23/39/54 26/40/55 25/2/56 
f 15/5/57 21/41/58 31/42/59 16/6/60 
f 32/43/61 27/44/62 34/45/63 33/46/64 
f 22/47/65 35/48/66 31/42/67 21/41/68 
f 17/15/69 35/48/70 33/46/71 20/16/72 
f 33/46/73 35/48/74 22/47/75 32/43/76 
s off
f 31/49/77 23/50/78 24/19/79 16/18/80 
f 35/51/81 26/52/82 23/50/83 31/49/84 
f 34/53/85 37/54/86 36/55/87 33/56/88 
f 33/56/89 36/55/90 38/28/91 20/27/92 
s 4
f 30/57/93 39/32/94 18/58/95 29/59/96 
f 40/33/97 19/34/98 34/45/99 27/44/100 
f 37/60/101 41/38/102 38/37/103 36/61/104 
s off
f 39/32/105 30/57/106 28/62/107 3/29/108 
# 27 polygons

