# 3ds Max Wavefront OBJ Exporter v0.99 - (c)2007 guruware
# File Created: 04.04.2022 15:28:35

#
# object Caillou_A
#

v  -0.4444 0.0000 0.3588
v  0.5039 0.0000 0.3821
v  -0.3550 0.0000 -0.2285
v  0.4697 0.0000 -0.5353
v  -0.4218 0.1537 0.3515
v  0.2658 0.3693 0.3695
v  -0.3257 0.4315 -0.0289
v  0.0426 0.6116 -0.0637
# 8 vertices

vn 0.4209 0.6339 0.6488
vn 0.0456 0.9784 -0.2016
vn -0.6800 0.6962 -0.2300
vn -0.6959 0.3721 0.6142
vn -0.7742 0.1431 0.6166
vn 0.7032 0.4715 0.5321
vn 0.4209 0.6339 0.6488
vn -0.6959 0.3721 0.6142
vn 0.7032 0.4715 0.5321
vn 0.4064 0.7188 -0.5641
vn 0.0456 0.9784 -0.2016
vn 0.4209 0.6339 0.6488
vn -0.6775 0.3461 -0.6490
vn -0.6800 0.6962 -0.2300
vn 0.0456 0.9784 -0.2016
vn 0.4064 0.7188 -0.5641
vn -0.7742 0.1431 0.6166
vn -0.6959 0.3721 0.6142
vn -0.6800 0.6962 -0.2300
vn -0.6775 0.3461 -0.6490
# 20 vertex normals

vt 0.9453 0.3828 0.0000
vt 0.9453 0.4453 0.0000
vt 0.8828 0.4453 0.0000
vt 0.8828 0.3828 0.0000
vt 0.3594 0.3281 0.0000
vt 0.4609 0.3281 0.0000
vt 0.4609 0.3828 0.0000
vt 0.3594 0.3828 0.0000
vt 0.5469 0.3281 0.0000
vt 0.5469 0.3828 0.0000
vt 0.6250 0.3281 0.0000
vt 0.6250 0.3828 0.0000
vt 0.6875 0.3281 0.0000
vt 0.6875 0.3828 0.0000
# 14 texture coords

o Caillou_A
g Caillou_A
s 4
f 6/1/1 8/2/2 7/3/3 5/4/4 
s 8
f 1/5/5 2/6/6 6/7/7 5/8/8 
s 16
f 2/6/9 4/9/10 8/10/11 6/7/12 
s 32
f 3/11/13 7/12/14 8/10/15 4/9/16 
s 64
f 1/13/17 5/14/18 7/12/19 3/11/20 
# 5 polygons

