# 3ds Max Wavefront OBJ Exporter v0.99 - (c)2007 guruware
# File Created: 04.04.2022 15:28:25

#
# object Caillou_B
#

v  -0.3495 0.0000 -0.1697
v  -0.0661 0.0000 0.3987
v  0.0260 0.0000 -0.3009
v  0.2465 0.0000 0.1634
v  -0.2109 0.2085 -0.1723
v  -0.2690 0.2393 0.2157
v  0.0000 0.2809 -0.1788
v  0.0565 0.2850 0.0961
# 8 vertices

vn -0.4447 0.5750 -0.6868
vn -0.8263 0.3837 0.4122
vn 0.4489 0.8288 0.3341
vn 0.3542 0.7961 -0.4907
vn -0.8060 0.5330 -0.2574
vn 0.0188 0.6173 0.7865
vn -0.8263 0.3837 0.4122
vn -0.4447 0.5750 -0.6868
vn 0.0188 0.6173 0.7865
vn 0.7903 0.5761 0.2089
vn 0.4489 0.8288 0.3341
vn -0.8263 0.3837 0.4122
vn 0.3313 0.4015 -0.8538
vn 0.3542 0.7961 -0.4907
vn 0.4489 0.8288 0.3341
vn 0.7903 0.5761 0.2089
vn 0.3313 0.4015 -0.8538
vn -0.8060 0.5330 -0.2574
vn -0.4447 0.5750 -0.6868
vn 0.3542 0.7961 -0.4907
# 20 vertex normals

vt 0.8672 0.2969 0.0000
vt 0.9063 0.2969 0.0000
vt 0.9063 0.3281 0.0000
vt 0.8672 0.3281 0.0000
vt 0.4688 0.2031 0.0000
vt 0.5313 0.2031 0.0000
vt 0.5313 0.2422 0.0000
vt 0.4688 0.2422 0.0000
vt 0.5781 0.2031 0.0000
vt 0.5781 0.2422 0.0000
vt 0.6250 0.2031 0.0000
vt 0.6250 0.2422 0.0000
vt 0.6641 0.2031 0.0000
vt 0.6641 0.2422 0.0000
# 14 texture coords

o Caillou_B
g Caillou_B
s 4
f 5/1/1 6/2/2 8/3/3 7/4/4 
s 8
f 1/5/5 2/6/6 6/7/7 5/8/8 
s 16
f 2/6/9 4/9/10 8/10/11 6/7/12 
s 32
f 3/11/13 7/12/14 8/10/15 4/9/16 
s 64
f 3/11/17 1/13/18 5/14/19 7/12/20 
# 5 polygons

