# 3ds Max Wavefront OBJ Exporter v0.99 - (c)2007 guruware
# File Created: 04.04.2022 15:24:22

#
# object Rocher_A
#

v  0.6950 -0.0016 0.5033
v  0.7122 -0.0187 -0.5349
v  0.6880 0.4412 0.8058
v  0.6818 0.4976 -0.8289
v  0.6509 1.1456 0.5455
v  0.7090 0.8725 -0.5272
v  -0.2539 0.0328 1.0669
v  -0.0537 0.4247 1.2180
v  -0.0732 1.1044 0.9476
v  0.0749 0.0069 -1.2458
v  0.3249 0.4051 -1.2016
v  0.1527 1.1043 -0.8612
v  -1.1129 -0.0101 -0.0783
v  -0.9568 0.4542 -0.0328
v  -0.8249 0.8911 -0.0222
v  -0.5926 0.9561 0.6175
v  -0.6896 0.4284 0.7478
v  -0.8492 0.0054 0.6342
v  0.8276 0.9236 -0.0089
v  0.8827 0.4395 0.0553
v  0.8190 -0.0076 0.0148
v  -0.6503 -0.0031 -0.9575
v  -0.4475 0.4683 -0.9372
v  -0.3684 1.0622 -0.7352
# 24 vertices

vn 0.9993 -0.0009 0.0387
vn 0.9901 -0.1405 -0.0061
vn 0.9181 -0.1539 -0.3652
vn 0.8165 0.1086 -0.5670
vn 0.3681 0.8859 0.2823
vn 0.6856 -0.0261 0.7275
vn 0.9993 -0.0009 0.0387
vn 0.8404 0.5376 -0.0683
vn -0.1042 -0.3110 0.9447
vn 0.7666 -0.3539 0.5358
vn 0.6856 -0.0261 0.7275
vn 0.1103 0.0145 0.9938
vn -0.0594 0.8582 0.5099
vn 0.1103 0.0145 0.9938
vn 0.6856 -0.0261 0.7275
vn 0.3681 0.8859 0.2823
vn 0.3191 0.1322 -0.9385
vn 0.8165 0.1086 -0.5670
vn 0.9181 -0.1539 -0.3652
vn 0.0226 0.0963 -0.9951
vn 0.0321 0.9170 -0.3977
vn 0.7294 0.5891 -0.3478
vn 0.8165 0.1086 -0.5670
vn 0.3191 0.1322 -0.9385
vn -0.5956 0.3119 -0.7403
vn 0.3191 0.1322 -0.9385
vn 0.0226 0.0963 -0.9951
vn -0.7084 0.3316 -0.6231
vn -0.5956 0.3119 -0.7403
vn -0.3718 0.8601 -0.3492
vn 0.0321 0.9170 -0.3977
vn 0.3191 0.1322 -0.9385
vn -0.8423 0.1815 0.5076
vn -0.8152 0.2259 0.5334
vn -0.9524 0.3048 -0.0008
vn -0.9332 0.3281 -0.1466
vn -0.5749 0.7532 0.3197
vn -0.7244 0.6840 -0.0863
vn -0.9524 0.3048 -0.0008
vn -0.8152 0.2259 0.5334
vn -0.8152 0.2259 0.5334
vn -0.8423 0.1815 0.5076
vn -0.1042 -0.3110 0.9447
vn 0.1103 0.0145 0.9938
vn -0.0594 0.8582 0.5099
vn -0.5749 0.7532 0.3197
vn -0.8152 0.2259 0.5334
vn 0.1103 0.0145 0.9938
vn 0.7666 -0.3539 0.5358
vn 0.9901 -0.1405 -0.0061
vn 0.9993 -0.0009 0.0387
vn 0.6856 -0.0261 0.7275
vn 0.7294 0.5891 -0.3478
vn 0.8404 0.5376 -0.0683
vn 0.9993 -0.0009 0.0387
vn 0.8165 0.1086 -0.5670
vn -0.9524 0.3048 -0.0008
vn -0.5956 0.3119 -0.7403
vn -0.7084 0.3316 -0.6231
vn -0.9332 0.3281 -0.1466
vn -0.7244 0.6840 -0.0863
vn -0.3718 0.8601 -0.3492
vn -0.5956 0.3119 -0.7403
vn -0.9524 0.3048 -0.0008
vn -0.7244 0.6840 -0.0863
vn -0.5749 0.7532 0.3197
vn -0.0594 0.8582 0.5099
vn -0.3718 0.8601 -0.3492
vn 0.3681 0.8859 0.2823
vn 0.0321 0.9170 -0.3977
vn -0.3718 0.8601 -0.3492
vn -0.0594 0.8582 0.5099
vn 0.0321 0.9170 -0.3977
vn 0.3681 0.8859 0.2823
vn 0.8404 0.5376 -0.0683
vn 0.7294 0.5891 -0.3478
# 76 vertex normals

vt 0.5859 0.8564 0.0000
vt 0.5859 0.7969 0.0000
vt 0.6719 0.7969 0.0000
vt 0.6719 0.8564 0.0000
vt 0.5000 0.9297 0.0000
vt 0.5000 0.8564 0.0000
vt 0.5859 0.9297 0.0000
vt 0.3906 0.7969 0.0000
vt 0.5000 0.7969 0.0000
vt 0.3906 0.8564 0.0000
vt 0.3906 0.9297 0.0000
vt 0.7578 0.8564 0.0000
vt 0.7578 0.7969 0.0000
vt 0.7578 0.9297 0.0000
vt 0.6719 0.9297 0.0000
vt 0.8438 0.8564 0.0000
vt 0.8438 0.7969 0.0000
vt 0.8438 0.9297 0.0000
vt 0.2969 0.7969 0.0000
vt 0.2969 0.8564 0.0000
vt 0.2031 0.8564 0.0000
vt 0.2031 0.7969 0.0000
vt 0.2969 0.9297 0.0000
vt 0.2031 0.9297 0.0000
vt 0.9688 0.8564 0.0000
vt 0.9688 0.7969 0.0000
vt 0.9688 0.9297 0.0000
vt 0.7422 0.6406 0.0000
vt 0.7422 0.4844 0.0000
vt 0.8359 0.4844 0.0000
vt 0.8359 0.6406 0.0000
vt 0.9141 0.4844 0.0000
vt 0.9141 0.6406 0.0000
vt 0.9688 0.4844 0.0000
vt 0.9688 0.6406 0.0000
# 35 texture coords

o Rocher_A
g Rocher_A
s 2
f 20/1/1 21/2/2 2/3/3 4/4/4 
f 5/5/5 3/6/6 20/1/7 19/7/8 
f 7/8/9 1/9/10 3/6/11 8/10/12 
f 9/11/13 8/10/14 3/6/15 5/5/16 
f 11/12/17 4/4/18 2/3/19 10/13/20 
f 12/14/21 6/15/22 4/4/23 11/12/24 
f 23/16/25 11/12/26 10/13/27 22/17/28 
f 23/16/29 24/18/30 12/14/31 11/12/32 
f 18/19/33 17/20/34 14/21/35 13/22/36 
f 16/23/37 15/24/38 14/21/39 17/20/40 
f 17/20/41 18/19/42 7/8/43 8/10/44 
f 9/11/45 16/23/46 17/20/47 8/10/48 
f 1/9/49 21/2/50 20/1/51 3/6/52 
f 6/15/53 19/7/54 20/1/55 4/4/56 
f 14/25/57 23/16/58 22/17/59 13/26/60 
f 15/27/61 24/18/62 23/16/63 14/25/64 
s 1
f 15/28/65 16/29/66 9/30/67 24/31/68 
f 5/32/69 12/33/70 24/31/71 9/30/72 
f 12/33/73 5/32/74 19/34/75 6/35/76 
# 19 polygons

