# 3ds Max Wavefront OBJ Exporter v0.99 - (c)2007 guruware
# File Created: 23.03.2022 16:47:09

#
# object Rocher_B
#

v  0.5208 0.0020 0.5902
v  0.5106 0.0103 -0.3972
v  0.5412 0.3212 0.6057
v  0.5370 0.3795 -0.6678
v  0.4384 0.8061 0.3555
v  0.4558 0.8860 -0.3189
v  -0.0913 -0.0016 0.9345
v  -0.0458 0.3141 0.9042
v  -0.0598 0.8151 0.5981
v  0.0901 -0.0065 -0.7947
v  0.2191 0.3021 -0.8975
v  0.1162 0.7318 -0.5657
v  -0.8141 0.0013 -0.0419
v  -0.8077 0.3458 -0.0779
v  -0.5132 0.8829 -0.0095
v  -0.3451 0.9337 0.3700
v  -0.5348 0.3352 0.5610
v  -0.6455 0.0005 0.4833
v  0.5020 0.9220 -0.0248
v  0.6968 0.3444 0.0319
v  0.6666 -0.0057 0.0073
v  -0.3776 -0.0003 -0.6897
v  -0.3743 0.3328 -0.6560
v  -0.2463 0.7056 -0.4985
# 24 vertices

vn 0.8991 -0.1808 -0.3986
vn 0.8385 0.0272 -0.5442
vn 0.9991 -0.0268 0.0328
vn 0.9507 -0.3052 -0.0554
vn 0.9991 -0.0268 0.0328
vn 0.9864 0.1634 0.0185
vn 0.7655 0.2581 0.5894
vn 0.7034 0.2176 0.6766
vn 0.7034 0.2176 0.6766
vn 0.0088 0.2525 0.9676
vn -0.1753 0.1447 0.9738
vn 0.8125 0.1262 0.5691
vn 0.7034 0.2176 0.6766
vn 0.7655 0.2581 0.5894
vn 0.0002 0.3697 0.9292
vn 0.0088 0.2525 0.9676
vn 0.8991 -0.1808 -0.3986
vn 0.0538 -0.3984 -0.9156
vn 0.2836 0.0390 -0.9581
vn 0.8385 0.0272 -0.5442
vn 0.8385 0.0272 -0.5442
vn 0.2836 0.0390 -0.9581
vn 0.0392 0.4452 -0.8946
vn 0.8786 0.1576 -0.4507
vn 0.0538 -0.3984 -0.9156
vn -0.5590 -0.2313 -0.7962
vn -0.6810 0.1508 -0.7166
vn 0.2836 0.0390 -0.9581
vn 0.0392 0.4452 -0.8946
vn 0.2836 0.0390 -0.9581
vn -0.6810 0.1508 -0.7166
vn -0.5379 0.4181 -0.7320
vn -0.9699 0.2365 -0.0586
vn -0.9485 0.1868 -0.2558
vn -0.8433 0.1801 0.5064
vn -0.7547 0.1512 0.6384
vn -0.9699 0.2365 -0.0586
vn -0.7547 0.1512 0.6384
vn -0.7869 0.1892 0.5874
vn -0.9519 0.2805 -0.1235
vn -0.1753 0.1447 0.9738
vn 0.0088 0.2525 0.9676
vn -0.7547 0.1512 0.6384
vn -0.8433 0.1801 0.5064
vn -0.7547 0.1512 0.6384
vn 0.0088 0.2525 0.9676
vn 0.0002 0.3697 0.9292
vn -0.7869 0.1892 0.5874
vn 0.9991 -0.0268 0.0328
vn 0.7034 0.2176 0.6766
vn 0.8125 0.1262 0.5691
vn 0.9507 -0.3052 -0.0554
vn 0.9991 -0.0268 0.0328
vn 0.8385 0.0272 -0.5442
vn 0.8786 0.1576 -0.4507
vn 0.9864 0.1634 0.0185
vn -0.5590 -0.2313 -0.7962
vn -0.9485 0.1868 -0.2558
vn -0.9699 0.2365 -0.0586
vn -0.6810 0.1508 -0.7166
vn -0.6810 0.1508 -0.7166
vn -0.9699 0.2365 -0.0586
vn -0.9519 0.2805 -0.1235
vn -0.5379 0.4181 -0.7320
vn -0.0598 0.9923 -0.1084
vn -0.1100 0.9860 -0.1253
vn -0.1343 0.9630 -0.2336
vn -0.0601 0.9922 -0.1093
vn -0.0114 0.9999 0.0114
vn 0.0851 0.9640 0.2520
vn 0.0680 0.9726 0.2222
vn -0.0228 0.9996 -0.0145
vn -0.0598 0.9923 -0.1084
vn -0.0601 0.9922 -0.1093
vn -0.0114 0.9999 0.0114
vn -0.0228 0.9996 -0.0145
# 76 vertex normals

vt 0.1406 0.6797 0.0000
vt 0.1406 0.6406 0.0000
vt 0.2073 0.6406 0.0000
vt 0.2073 0.6797 0.0000
vt 0.6360 0.7500 0.0000
vt 0.6360 0.6797 0.0000
vt 0.7031 0.6797 0.0000
vt 0.7031 0.7500 0.0000
vt 0.5569 0.6406 0.0000
vt 0.6360 0.6406 0.0000
vt 0.6360 0.6797 0.0000
vt 0.5569 0.6797 0.0000
vt 0.5569 0.7500 0.0000
vt 0.5569 0.6797 0.0000
vt 0.6360 0.6797 0.0000
vt 0.6360 0.7500 0.0000
vt 0.2631 0.6797 0.0000
vt 0.2073 0.6797 0.0000
vt 0.2073 0.6406 0.0000
vt 0.2631 0.6406 0.0000
vt 0.2631 0.7500 0.0000
vt 0.2073 0.7500 0.0000
vt 0.2073 0.6797 0.0000
vt 0.2631 0.6797 0.0000
vt 0.3284 0.6797 0.0000
vt 0.2631 0.6797 0.0000
vt 0.2631 0.6406 0.0000
vt 0.3284 0.6406 0.0000
vt 0.3284 0.6797 0.0000
vt 0.3284 0.7500 0.0000
vt 0.2631 0.7500 0.0000
vt 0.2631 0.6797 0.0000
vt 0.4867 0.6406 0.0000
vt 0.4867 0.6797 0.0000
vt 0.4142 0.6797 0.0000
vt 0.4142 0.6406 0.0000
vt 0.4867 0.7500 0.0000
vt 0.4142 0.7500 0.0000
vt 0.4142 0.6797 0.0000
vt 0.4867 0.6797 0.0000
vt 0.4867 0.6797 0.0000
vt 0.4867 0.6406 0.0000
vt 0.5569 0.6406 0.0000
vt 0.5569 0.6797 0.0000
vt 0.5569 0.7500 0.0000
vt 0.4867 0.7500 0.0000
vt 0.4867 0.6797 0.0000
vt 0.5569 0.6797 0.0000
vt 0.6360 0.6406 0.0000
vt 0.7031 0.6406 0.0000
vt 0.7031 0.6797 0.0000
vt 0.6360 0.6797 0.0000
vt 0.2073 0.7500 0.0000
vt 0.1406 0.7500 0.0000
vt 0.1406 0.6797 0.0000
vt 0.2073 0.6797 0.0000
vt 0.4142 0.6797 0.0000
vt 0.3284 0.6797 0.0000
vt 0.3284 0.6406 0.0000
vt 0.4142 0.6406 0.0000
vt 0.4142 0.7500 0.0000
vt 0.3284 0.7500 0.0000
vt 0.3284 0.6797 0.0000
vt 0.4142 0.6797 0.0000
vt 0.1172 0.7969 0.0000
vt 0.1563 0.7969 0.0000
vt 0.1563 0.8984 0.0000
vt 0.1172 0.8984 0.0000
vt 0.2422 0.8984 0.0000
vt 0.2024 0.8984 0.0000
vt 0.2024 0.7969 0.0000
vt 0.2422 0.7969 0.0000
vt 0.2024 0.7969 0.0000
vt 0.2024 0.8984 0.0000
vt 0.1563 0.8984 0.0000
vt 0.1563 0.7969 0.0000
# 76 texture coords

o Rocher_B
g Rocher_B
s 2
f 2/1/1 4/2/2 20/3/3 21/4/4 
f 20/5/5 19/6/6 5/7/7 3/8/8 
f 3/9/9 8/10/10 7/11/11 1/12/12 
f 3/13/13 5/14/14 9/15/15 8/16/16 
f 2/17/17 10/18/18 11/19/19 4/20/20 
f 4/21/21 11/22/22 12/23/23 6/24/24 
f 10/25/25 22/26/26 23/27/27 11/28/28 
f 12/29/29 11/30/30 23/31/31 24/32/32 
f 14/33/33 13/34/34 18/35/35 17/36/36 
f 14/37/37 17/38/38 16/39/39 15/40/40 
f 7/41/41 8/42/42 17/43/43 18/44/44 
f 17/45/45 8/46/46 9/47/47 16/48/48 
f 20/49/49 3/50/50 1/51/51 21/52/52 
f 20/53/53 4/54/54 6/55/55 19/56/56 
f 22/57/57 13/58/58 14/59/59 23/60/60 
f 23/61/61 14/62/62 15/63/63 24/64/64 
s 1
f 6/65/65 12/66/66 24/67/67 15/68/68 
f 16/69/69 9/70/70 5/71/71 19/72/72 
f 6/73/73 15/74/74 16/75/75 19/76/76 
# 19 polygons

