# 3ds Max Wavefront OBJ Exporter v0.99 - (c)2007 guruware
# File Created: 23.03.2022 16:47:01

#
# object Rocher_A
#

v  0.6950 -0.0016 0.5033
v  0.7122 -0.0187 -0.5349
v  0.6880 0.4412 0.8058
v  0.6818 0.4976 -0.8289
v  0.6509 1.1456 0.5455
v  0.7090 0.8725 -0.5272
v  -0.2539 0.0328 1.0669
v  -0.0537 0.4247 1.2180
v  -0.0732 1.1044 0.9476
v  0.0749 0.0069 -1.2458
v  0.3249 0.4051 -1.2016
v  0.1527 1.1043 -0.8612
v  -1.1129 -0.0101 -0.0783
v  -0.9568 0.4542 -0.0328
v  -0.8249 0.8911 -0.0222
v  -0.5926 0.9561 0.6175
v  -0.6896 0.4284 0.7478
v  -0.8492 0.0054 0.6342
v  0.8276 0.9236 -0.0089
v  0.8827 0.4395 0.0553
v  0.8190 -0.0076 0.0148
v  -0.6503 -0.0031 -0.9575
v  -0.4475 0.4683 -0.9372
v  -0.3684 1.0622 -0.7352
# 24 vertices

vn 0.9993 -0.0009 0.0387
vn 0.9901 -0.1405 -0.0061
vn 0.9181 -0.1539 -0.3652
vn 0.8165 0.1086 -0.5670
vn 0.7247 0.2721 0.6331
vn 0.6856 -0.0261 0.7275
vn 0.9993 -0.0009 0.0387
vn 0.9907 0.1210 0.0620
vn -0.1042 -0.3110 0.9447
vn 0.7666 -0.3539 0.5358
vn 0.6856 -0.0261 0.7275
vn 0.1103 0.0145 0.9938
vn 0.0494 0.3704 0.9275
vn 0.1103 0.0145 0.9938
vn 0.6856 -0.0261 0.7275
vn 0.7247 0.2721 0.6331
vn 0.3191 0.1322 -0.9385
vn 0.8165 0.1086 -0.5670
vn 0.9181 -0.1539 -0.3652
vn 0.0226 0.0963 -0.9951
vn 0.0598 0.4488 -0.8916
vn 0.8534 0.2879 -0.4346
vn 0.8165 0.1086 -0.5670
vn 0.3191 0.1322 -0.9385
vn -0.5956 0.3119 -0.7403
vn 0.3191 0.1322 -0.9385
vn 0.0226 0.0963 -0.9951
vn -0.7084 0.3316 -0.6231
vn -0.5956 0.3119 -0.7403
vn -0.5870 0.3297 -0.7394
vn 0.0598 0.4488 -0.8916
vn 0.3191 0.1322 -0.9385
vn -0.8423 0.1815 0.5076
vn -0.8152 0.2259 0.5334
vn -0.9524 0.3048 -0.0008
vn -0.9332 0.3281 -0.1466
vn -0.7520 0.2850 0.5944
vn -0.9426 0.2887 -0.1677
vn -0.9524 0.3048 -0.0008
vn -0.8152 0.2259 0.5334
vn -0.8152 0.2259 0.5334
vn -0.8423 0.1815 0.5076
vn -0.1042 -0.3110 0.9447
vn 0.1103 0.0145 0.9938
vn 0.0494 0.3704 0.9275
vn -0.7520 0.2850 0.5944
vn -0.8152 0.2259 0.5334
vn 0.1103 0.0145 0.9938
vn 0.7666 -0.3539 0.5358
vn 0.9901 -0.1405 -0.0061
vn 0.9993 -0.0009 0.0387
vn 0.6856 -0.0261 0.7275
vn 0.8534 0.2879 -0.4346
vn 0.9907 0.1210 0.0620
vn 0.9993 -0.0009 0.0387
vn 0.8165 0.1086 -0.5670
vn -0.9524 0.3048 -0.0008
vn -0.5956 0.3119 -0.7403
vn -0.7084 0.3316 -0.6231
vn -0.9332 0.3281 -0.1466
vn -0.9426 0.2887 -0.1677
vn -0.5870 0.3297 -0.7394
vn -0.5956 0.3119 -0.7403
vn -0.9524 0.3048 -0.0008
vn -0.3222 0.9464 0.0208
vn -0.2761 0.9611 0.0026
vn -0.1314 0.9913 -0.0018
vn -0.1340 0.9910 -0.0014
vn 0.0186 0.9992 -0.0359
vn 0.0096 0.9994 -0.0327
vn -0.1340 0.9910 -0.0014
vn -0.1314 0.9913 -0.0018
vn 0.0096 0.9994 -0.0327
vn 0.0186 0.9992 -0.0359
vn 0.4737 0.8593 -0.1931
vn 0.4739 0.8591 -0.1932
# 76 vertex normals

vt 0.0703 0.6689 0.0000
vt 0.0703 0.6094 0.0000
vt 0.1603 0.6094 0.0000
vt 0.1603 0.6689 0.0000
vt 0.7538 0.7422 0.0000
vt 0.7538 0.6689 0.0000
vt 0.8359 0.6689 0.0000
vt 0.8359 0.7422 0.0000
vt 0.6414 0.6094 0.0000
vt 0.7538 0.6094 0.0000
vt 0.6414 0.6689 0.0000
vt 0.6414 0.7422 0.0000
vt 0.2419 0.6689 0.0000
vt 0.2419 0.6094 0.0000
vt 0.2419 0.7422 0.0000
vt 0.1603 0.7422 0.0000
vt 0.3332 0.6689 0.0000
vt 0.3332 0.6094 0.0000
vt 0.3332 0.7422 0.0000
vt 0.5504 0.6094 0.0000
vt 0.5504 0.6689 0.0000
vt 0.4547 0.6689 0.0000
vt 0.4547 0.6094 0.0000
vt 0.5504 0.7422 0.0000
vt 0.4547 0.7422 0.0000
vt 0.8359 0.6094 0.0000
vt 0.0703 0.7422 0.0000
vt 0.2891 0.7813 0.0000
vt 0.2891 0.9297 0.0000
vt 0.2016 0.9297 0.0000
vt 0.2016 0.7813 0.0000
vt 0.1223 0.9297 0.0000
vt 0.1223 0.7813 0.0000
vt 0.0703 0.9297 0.0000
vt 0.0703 0.7813 0.0000
# 35 texture coords

o Rocher_A
g Rocher_A
s 2
f 20/1/1 21/2/2 2/3/3 4/4/4 
f 5/5/5 3/6/6 20/7/7 19/8/8 
f 7/9/9 1/10/10 3/6/11 8/11/12 
f 9/12/13 8/11/14 3/6/15 5/5/16 
f 11/13/17 4/4/18 2/3/19 10/14/20 
f 12/15/21 6/16/22 4/4/23 11/13/24 
f 23/17/25 11/13/26 10/14/27 22/18/28 
f 23/17/29 24/19/30 12/15/31 11/13/32 
f 18/20/33 17/21/34 14/22/35 13/23/36 
f 16/24/37 15/25/38 14/22/39 17/21/40 
f 17/21/41 18/20/42 7/9/43 8/11/44 
f 9/12/45 16/24/46 17/21/47 8/11/48 
f 1/10/49 21/26/50 20/7/51 3/6/52 
f 6/16/53 19/27/54 20/1/55 4/4/56 
f 14/22/57 23/17/58 22/18/59 13/23/60 
f 15/25/61 24/19/62 23/17/63 14/22/64 
s 1
f 15/28/65 16/29/66 9/30/67 24/31/68 
f 5/32/69 12/33/70 24/31/71 9/30/72 
f 12/33/73 5/32/74 19/34/75 6/35/76 
# 19 polygons

