# 3ds Max Wavefront OBJ Exporter v0.99 - (c)2007 guruware
# File Created: 18.04.2022 20:37:25

#
# object CaisseB
#

v  -0.4339 0.0000 0.4339
v  0.4339 0.0000 0.4339
v  -0.4339 0.0000 -0.4339
v  0.4339 0.0000 -0.4339
v  -0.4339 0.8677 0.4339
v  0.4339 0.8677 0.4339
v  -0.4339 0.8677 -0.4339
v  0.4339 0.8677 -0.4339
v  -0.2929 0.8677 0.2929
v  0.2929 0.8677 0.2929
v  0.2929 0.8677 -0.2929
v  -0.2929 0.8677 -0.2929
v  -0.2929 0.1410 0.4339
v  0.2929 0.1410 0.4339
v  0.2929 0.7267 0.4339
v  -0.2929 0.7267 0.4339
v  0.4339 0.1410 0.2929
v  0.4339 0.1410 -0.2929
v  0.4339 0.7267 -0.2929
v  0.4339 0.7267 0.2929
v  0.2929 0.1410 -0.4339
v  -0.2929 0.1410 -0.4339
v  -0.2929 0.7267 -0.4339
v  0.2929 0.7267 -0.4339
v  -0.4339 0.1410 -0.2929
v  -0.4339 0.1410 0.2929
v  -0.4339 0.7267 0.2929
v  -0.4339 0.7267 -0.2929
v  -0.2929 0.8460 0.2929
v  0.2929 0.8460 0.2929
v  0.2929 0.8460 -0.2929
v  -0.2929 0.8460 -0.2929
v  -0.2929 0.1410 0.4122
v  0.2929 0.1410 0.4122
v  0.2929 0.7267 0.4122
v  -0.2929 0.7267 0.4122
v  0.4122 0.1410 0.2929
v  0.4122 0.1410 -0.2929
v  0.4122 0.7267 -0.2929
v  0.4122 0.7267 0.2929
v  0.2929 0.1410 -0.4122
v  -0.2929 0.1410 -0.4122
v  -0.2929 0.7267 -0.4122
v  0.2929 0.7267 -0.4122
v  -0.4122 0.1410 -0.2929
v  -0.4122 0.1410 0.2929
v  -0.4122 0.7267 0.2929
v  -0.4122 0.7267 -0.2929
# 48 vertices

vn 0.0000 1.0000 -0.0000
vn 0.0000 1.0000 -0.0000
vn 0.0000 1.0000 -0.0000
vn 0.0000 1.0000 -0.0000
vn 0.0000 0.0000 1.0000
vn 0.0000 0.0000 1.0000
vn 0.0000 0.0000 1.0000
vn 0.0000 0.0000 1.0000
vn 1.0000 0.0000 -0.0000
vn 1.0000 0.0000 -0.0000
vn 1.0000 0.0000 -0.0000
vn 1.0000 0.0000 -0.0000
vn 0.0000 0.0000 -1.0000
vn 0.0000 0.0000 -1.0000
vn 0.0000 0.0000 -1.0000
vn 0.0000 0.0000 -1.0000
vn -1.0000 0.0000 -0.0000
vn -1.0000 0.0000 -0.0000
vn -1.0000 0.0000 -0.0000
vn -1.0000 0.0000 -0.0000
vn 0.0000 1.0000 -0.0000
vn 0.0000 1.0000 -0.0000
vn 0.0000 1.0000 -0.0000
vn 0.0000 1.0000 -0.0000
vn 0.0000 1.0000 -0.0000
vn 0.0000 1.0000 -0.0000
vn 0.0000 1.0000 -0.0000
vn 0.0000 1.0000 -0.0000
vn 0.0000 1.0000 -0.0000
vn 0.0000 1.0000 -0.0000
vn 0.0000 1.0000 -0.0000
vn 0.0000 1.0000 -0.0000
vn 0.0000 1.0000 -0.0000
vn 0.0000 1.0000 -0.0000
vn 0.0000 1.0000 -0.0000
vn 0.0000 1.0000 -0.0000
vn 0.0000 0.0000 1.0000
vn 0.0000 0.0000 1.0000
vn 0.0000 0.0000 1.0000
vn 0.0000 0.0000 1.0000
vn 0.0000 0.0000 1.0000
vn 0.0000 0.0000 1.0000
vn 0.0000 0.0000 1.0000
vn 0.0000 0.0000 1.0000
vn 0.0000 0.0000 1.0000
vn 0.0000 0.0000 1.0000
vn 0.0000 0.0000 1.0000
vn 0.0000 0.0000 1.0000
vn 0.0000 0.0000 1.0000
vn 0.0000 0.0000 1.0000
vn 0.0000 0.0000 1.0000
vn 0.0000 0.0000 1.0000
vn 1.0000 0.0000 -0.0000
vn 1.0000 0.0000 -0.0000
vn 1.0000 0.0000 -0.0000
vn 1.0000 0.0000 -0.0000
vn 1.0000 0.0000 -0.0000
vn 1.0000 0.0000 -0.0000
vn 1.0000 0.0000 -0.0000
vn 1.0000 0.0000 -0.0000
vn 1.0000 0.0000 -0.0000
vn 1.0000 0.0000 -0.0000
vn 1.0000 0.0000 -0.0000
vn 1.0000 0.0000 -0.0000
vn 1.0000 0.0000 -0.0000
vn 1.0000 0.0000 -0.0000
vn 1.0000 0.0000 -0.0000
vn 1.0000 0.0000 -0.0000
vn 0.0000 0.0000 -1.0000
vn 0.0000 0.0000 -1.0000
vn 0.0000 0.0000 -1.0000
vn 0.0000 0.0000 -1.0000
vn 0.0000 0.0000 -1.0000
vn 0.0000 0.0000 -1.0000
vn 0.0000 0.0000 -1.0000
vn 0.0000 0.0000 -1.0000
vn 0.0000 0.0000 -1.0000
vn 0.0000 0.0000 -1.0000
vn 0.0000 0.0000 -1.0000
vn 0.0000 0.0000 -1.0000
vn 0.0000 0.0000 -1.0000
vn 0.0000 0.0000 -1.0000
vn 0.0000 0.0000 -1.0000
vn 0.0000 0.0000 -1.0000
vn -1.0000 0.0000 -0.0000
vn -1.0000 0.0000 -0.0000
vn -1.0000 0.0000 -0.0000
vn -1.0000 0.0000 -0.0000
vn -1.0000 0.0000 -0.0000
vn -1.0000 0.0000 -0.0000
vn -1.0000 0.0000 -0.0000
vn -1.0000 0.0000 -0.0000
vn -1.0000 0.0000 -0.0000
vn -1.0000 0.0000 -0.0000
vn -1.0000 0.0000 -0.0000
vn -1.0000 0.0000 -0.0000
vn -1.0000 0.0000 -0.0000
vn -1.0000 0.0000 -0.0000
vn -1.0000 0.0000 -0.0000
vn -1.0000 0.0000 -0.0000
vn 0.0000 0.0000 -1.0000
vn 0.0000 0.0000 -1.0000
vn 0.0000 0.0000 -1.0000
vn 0.0000 0.0000 -1.0000
vn -1.0000 0.0000 -0.0000
vn -1.0000 0.0000 -0.0000
vn -1.0000 0.0000 -0.0000
vn -1.0000 0.0000 -0.0000
vn 0.0000 0.0000 1.0000
vn 0.0000 0.0000 1.0000
vn 0.0000 0.0000 1.0000
vn 0.0000 0.0000 1.0000
vn 1.0000 0.0000 -0.0000
vn 1.0000 0.0000 -0.0000
vn 1.0000 0.0000 -0.0000
vn 1.0000 0.0000 -0.0000
vn 0.0000 1.0000 -0.0000
vn 0.0000 1.0000 -0.0000
vn 0.0000 1.0000 -0.0000
vn 0.0000 1.0000 -0.0000
vn -1.0000 0.0000 -0.0000
vn -1.0000 0.0000 -0.0000
vn -1.0000 0.0000 -0.0000
vn -1.0000 0.0000 -0.0000
vn 1.0000 0.0000 -0.0000
vn 1.0000 0.0000 -0.0000
vn 1.0000 0.0000 -0.0000
vn 1.0000 0.0000 -0.0000
vn 0.0000 1.0000 -0.0000
vn 0.0000 1.0000 -0.0000
vn 0.0000 1.0000 -0.0000
vn 0.0000 1.0000 -0.0000
vn 0.0000 0.0000 1.0000
vn 0.0000 0.0000 1.0000
vn 0.0000 0.0000 1.0000
vn 0.0000 0.0000 1.0000
vn 0.0000 0.0000 -1.0000
vn 0.0000 0.0000 -1.0000
vn 0.0000 0.0000 -1.0000
vn 0.0000 0.0000 -1.0000
vn 0.0000 1.0000 -0.0000
vn 0.0000 1.0000 -0.0000
vn 0.0000 1.0000 -0.0000
vn 0.0000 1.0000 -0.0000
vn 1.0000 0.0000 -0.0000
vn 1.0000 0.0000 -0.0000
vn 1.0000 0.0000 -0.0000
vn 1.0000 0.0000 -0.0000
vn -1.0000 0.0000 -0.0000
vn -1.0000 0.0000 -0.0000
vn -1.0000 0.0000 -0.0000
vn -1.0000 0.0000 -0.0000
vn 0.0000 1.0000 -0.0000
vn 0.0000 1.0000 -0.0000
vn 0.0000 1.0000 -0.0000
vn 0.0000 1.0000 -0.0000
vn 0.0000 0.0000 -1.0000
vn 0.0000 0.0000 -1.0000
vn 0.0000 0.0000 -1.0000
vn 0.0000 0.0000 -1.0000
vn 0.0000 0.0000 1.0000
vn 0.0000 0.0000 1.0000
vn 0.0000 0.0000 1.0000
vn 0.0000 0.0000 1.0000
# 164 vertex normals

vt 0.5313 0.8750 0.0000
vt 0.5313 0.5625 0.0000
vt 0.8438 0.5625 0.0000
vt 0.8438 0.8750 0.0000
vt 0.8438 0.8750 0.0000
vt 0.5313 0.8750 0.0000
vt 0.5313 0.5625 0.0000
vt 0.8438 0.5625 0.0000
vt 0.8438 0.8750 0.0000
vt 0.5313 0.8750 0.0000
vt 0.5313 0.5625 0.0000
vt 0.8438 0.5625 0.0000
vt 0.8438 0.8750 0.0000
vt 0.5313 0.8750 0.0000
vt 0.5313 0.5625 0.0000
vt 0.8438 0.5625 0.0000
vt 0.8438 0.8750 0.0000
vt 0.5313 0.8750 0.0000
vt 0.5313 0.5625 0.0000
vt 0.8438 0.5625 0.0000
vt 0.1250 0.5938 0.0000
vt 0.1250 0.8125 0.0000
vt 0.0313 0.9063 0.0000
vt 0.0313 0.5000 0.0000
vt 0.3438 0.5938 0.0000
vt 0.4375 0.5000 0.0000
vt 0.3438 0.8125 0.0000
vt 0.4375 0.9063 0.0000
vt 0.1250 0.5938 0.0000
vt 0.1250 0.8125 0.0000
vt 0.0313 0.9063 0.0000
vt 0.0313 0.5000 0.0000
vt 0.3438 0.5938 0.0000
vt 0.4375 0.5000 0.0000
vt 0.3438 0.8125 0.0000
vt 0.4375 0.9063 0.0000
vt 0.1250 0.5938 0.0000
vt 0.1250 0.8125 0.0000
vt 0.0313 0.9063 0.0000
vt 0.0313 0.5000 0.0000
vt 0.3438 0.5938 0.0000
vt 0.4375 0.5000 0.0000
vt 0.3438 0.8125 0.0000
vt 0.4375 0.9063 0.0000
vt 0.3438 0.5938 0.0000
vt 0.1250 0.5938 0.0000
vt 0.0313 0.5000 0.0000
vt 0.4375 0.5000 0.0000
vt 0.3438 0.8125 0.0000
vt 0.4375 0.9063 0.0000
vt 0.1250 0.8125 0.0000
vt 0.0313 0.9063 0.0000
vt 0.3438 0.5938 0.0000
vt 0.1250 0.5938 0.0000
vt 0.0313 0.5000 0.0000
vt 0.4375 0.5000 0.0000
vt 0.3438 0.8125 0.0000
vt 0.4375 0.9063 0.0000
vt 0.1250 0.8125 0.0000
vt 0.0313 0.9063 0.0000
vt 0.1250 0.3438 0.0000
vt 0.0625 0.3415 0.0000
vt 0.0642 0.3399 0.0000
vt 0.1234 0.3422 0.0000
vt 0.1250 0.2835 0.0000
vt 0.1233 0.2851 0.0000
vt 0.0625 0.2813 0.0000
vt 0.0641 0.2828 0.0000
vt 0.0938 0.2917 0.0000
vt 0.0938 0.3021 0.0000
vt 0.0625 0.3021 0.0000
vt 0.0625 0.2917 0.0000
vt 0.0938 0.2813 0.0000
vt 0.0625 0.2813 0.0000
vt 0.0938 0.3125 0.0000
vt 0.0625 0.3125 0.0000
vt 0.0938 0.2917 0.0000
vt 0.0938 0.3021 0.0000
vt 0.0625 0.3021 0.0000
vt 0.0625 0.2917 0.0000
vt 0.0938 0.2813 0.0000
vt 0.0625 0.2813 0.0000
vt 0.0938 0.3125 0.0000
vt 0.0625 0.3125 0.0000
vt 0.0938 0.2917 0.0000
vt 0.0938 0.3021 0.0000
vt 0.0625 0.3021 0.0000
vt 0.0625 0.2917 0.0000
vt 0.0938 0.2813 0.0000
vt 0.0625 0.2813 0.0000
vt 0.0938 0.3125 0.0000
vt 0.0625 0.3125 0.0000
vt 0.0938 0.2917 0.0000
vt 0.0938 0.3021 0.0000
vt 0.0625 0.3021 0.0000
vt 0.0625 0.2917 0.0000
vt 0.0938 0.2813 0.0000
vt 0.0625 0.2813 0.0000
vt 0.0938 0.3125 0.0000
vt 0.0625 0.3125 0.0000
# 100 texture coords

o CaisseB
g CaisseB
s 4
f 29/3/1 30/4/2 31/1/3 32/2/4 
s 8
f 33/7/5 34/8/6 35/5/7 36/6/8 
s 16
f 37/11/9 38/12/10 39/9/11 40/10/12 
s 32
f 41/15/13 42/16/14 43/13/15 44/14/16 
s 64
f 45/19/17 46/20/18 47/17/19 48/18/20 
s off
f 5/23/21 6/24/22 10/21/23 9/22/24 
f 6/24/25 8/26/26 11/25/27 10/21/28 
f 8/26/29 7/28/30 12/27/31 11/25/32 
f 7/28/33 5/23/34 9/22/35 12/27/36 
f 1/31/37 2/32/38 14/29/39 13/30/40 
f 2/32/41 6/34/42 15/33/43 14/29/44 
f 6/34/45 5/36/46 16/35/47 15/33/48 
f 5/36/49 1/31/50 13/30/51 16/35/52 
f 2/39/53 4/40/54 18/37/55 17/38/56 
f 4/40/57 8/42/58 19/41/59 18/37/60 
f 8/42/61 6/44/62 20/43/63 19/41/64 
f 6/44/65 2/39/66 17/38/67 20/43/68 
f 4/47/69 3/48/70 22/45/71 21/46/72 
f 3/48/73 7/50/74 23/49/75 22/45/76 
f 7/50/77 8/52/78 24/51/79 23/49/80 
f 8/52/81 4/47/82 21/46/83 24/51/84 
f 3/55/85 1/56/86 26/53/87 25/54/88 
f 1/56/89 5/58/90 27/57/91 26/53/92 
f 5/58/93 7/60/94 28/59/95 27/57/96 
f 7/60/97 3/55/98 25/54/99 28/59/100 
f 9/63/101 10/64/102 30/61/103 29/62/104 
f 10/64/105 11/66/106 31/65/107 30/61/108 
f 11/66/109 12/68/110 32/67/111 31/65/112 
f 12/68/113 9/63/114 29/62/115 32/67/116 
f 13/71/117 14/72/118 34/69/119 33/70/120 
f 14/72/121 15/74/122 35/73/123 34/69/124 
f 16/76/125 13/71/126 33/70/127 36/75/128 
f 17/79/129 18/80/130 38/77/131 37/78/132 
f 18/80/133 19/82/134 39/81/135 38/77/136 
f 20/84/137 17/79/138 37/78/139 40/83/140 
f 21/87/141 22/88/142 42/85/143 41/86/144 
f 22/88/145 23/90/146 43/89/147 42/85/148 
f 24/92/149 21/87/150 41/86/151 44/91/152 
f 25/95/153 26/96/154 46/93/155 45/94/156 
f 26/96/157 27/98/158 47/97/159 46/93/160 
f 28/100/161 25/95/162 45/94/163 48/99/164 
# 41 polygons

