# 3ds Max Wavefront OBJ Exporter v0.99 - (c)2007 guruware
# File Created: 18.04.2022 20:52:36

#
# object Box178
#

v  -2.5968 -0.0699 2.5968
v  2.5968 -0.0699 2.5968
v  -2.5968 -0.0699 -2.5968
v  2.5968 -0.0699 -2.5968
v  -2.5000 -0.0000 2.5000
v  2.5000 -0.0000 2.5000
v  -2.5000 -0.0000 -2.5000
v  2.5000 -0.0000 -2.5000
v  -2.5968 -0.2933 2.5968
v  -2.5968 -0.2933 -2.5968
v  2.5968 -0.2933 -2.5968
v  -2.3970 -0.4913 2.2116
v  -2.3970 -0.4913 -2.2116
v  2.2116 -0.4913 -2.2116
v  -2.2116 -3.0110 2.2116
v  -2.2116 -3.0110 -2.2116
v  2.2116 -2.1609 -2.2116
v  0.0000 -0.0699 -2.5968
v  0.0000 -0.0699 2.5968
v  0.0000 -0.0000 2.5000
v  0.0000 -0.0000 -2.5000
v  0.0000 -0.2933 -2.5968
v  0.0000 -0.4913 -2.2116
v  0.0000 -3.0110 -2.2116
v  0.0000 -2.5486 2.2116
v  -2.5968 -0.0699 -0.0000
v  2.5968 -0.0699 -0.0000
v  2.5000 -0.0000 -0.0000
v  -2.5000 -0.0000 -0.0000
v  -2.5968 -0.2933 -0.0000
v  -2.3970 -0.4913 -0.0000
v  -2.2116 -3.0110 -0.0000
v  2.2116 -2.5486 -0.0000
v  -2.0715 -4.8077 -2.0715
v  -0.1401 -4.8077 -2.0715
v  -2.0715 -4.8077 -0.1401
v  0.5054 -4.8809 1.7062
v  0.5054 -4.8809 0.5054
v  1.7062 -4.8809 0.5054
v  -1.8715 -5.0602 -1.8715
v  -0.3401 -5.0602 -1.8715
v  -1.8715 -5.0602 -0.3401
v  -1.5731 -6.5946 -1.5731
v  -0.6385 -6.5946 -1.5731
v  -1.5731 -6.5946 -0.6385
v  0.0000 -2.5486 -0.0000
v  -2.3839 -0.6692 2.0554
v  -2.3839 -0.6692 0.1562
v  -2.2247 -2.8330 0.1562
v  -2.2247 -2.8330 2.0554
v  -2.6482 -0.6692 2.0554
v  -2.6482 -0.6692 0.1562
v  -2.4890 -2.8330 0.1562
v  -2.4890 -2.8330 2.0554
v  1.9893 -0.6591 -2.2116
v  1.9893 -1.9931 -2.2116
v  0.2223 -1.9931 -2.2116
v  0.2223 -0.6591 -2.2116
v  1.9893 -0.6591 -2.3810
v  1.9893 -1.9931 -2.3810
v  0.2223 -1.9931 -2.3810
v  0.2223 -0.6591 -2.3810
# 62 vertices

vn -0.3215 0.8906 0.3215
vn -0.8065 0.5562 0.2008
vn 0.0000 0.8107 0.5854
vn 0.0000 0.8107 0.5854
vn 0.3215 0.8906 0.3215
vn 0.3215 0.8906 0.3215
vn 0.5854 0.8107 -0.0000
vn 0.5854 0.8107 -0.0000
vn 0.3215 0.8906 -0.3215
vn 0.2008 0.5562 -0.8065
vn 0.0000 0.4553 -0.8903
vn 0.0000 0.8107 -0.5854
vn -0.3215 0.8906 -0.3215
vn -0.6356 0.4383 -0.6356
vn -0.8903 0.4553 -0.0000
vn -0.5854 0.8107 -0.0000
vn -1.0000 0.0000 -0.0000
vn -0.8065 0.5562 0.2008
vn -0.8903 0.4553 -0.0000
vn -1.0000 0.0000 -0.0000
vn -0.7071 0.0000 -0.7071
vn -0.6356 0.4383 -0.6356
vn 0.0000 0.4553 -0.8903
vn 0.0000 0.0000 -1.0000
vn -0.6889 -0.0507 0.7231
vn -0.6001 0.5576 0.5736
vn -0.6001 0.5576 -0.5736
vn -0.6889 -0.0507 -0.7231
vn -0.6960 -0.0792 -0.7137
vn -0.7219 -0.0531 -0.6900
vn -0.0000 0.0000 -1.0000
vn -0.0000 -0.0272 -0.9996
vn 0.3215 0.8906 0.3215
vn 0.0000 0.8107 0.5854
vn 0.0000 0.8107 0.5854
vn 0.3215 0.8906 0.3215
vn -0.3215 0.8906 -0.3215
vn 0.0000 0.8107 -0.5854
vn 0.0000 0.4553 -0.8903
vn -0.6356 0.4383 -0.6356
vn 0.0000 0.0000 -1.0000
vn 0.0000 0.4553 -0.8903
vn 0.2008 0.5562 -0.8065
vn 0.0000 0.0000 -1.0000
vn -0.7071 0.0000 -0.7071
vn -0.5774 0.5774 -0.5774
vn 0.0000 0.7071 -0.7071
vn 0.0000 0.0000 -1.0000
vn 0.3215 0.8906 -0.3215
vn 0.5854 0.8107 -0.0000
vn 0.5854 0.8107 -0.0000
vn 0.2008 0.5562 -0.8065
vn -0.3215 0.8906 0.3215
vn -0.5854 0.8107 -0.0000
vn -0.8903 0.4553 -0.0000
vn -0.8065 0.5562 0.2008
vn -1.0000 0.0000 -0.0000
vn -0.8903 0.4553 -0.0000
vn -0.6356 0.4383 -0.6356
vn -0.7071 0.0000 -0.7071
vn -0.9972 -0.0748 0.0000
vn -0.9973 -0.0734 0.0000
vn -0.7219 -0.0531 -0.6900
vn -0.6960 -0.0792 -0.7137
vn 0.0000 -0.2969 -0.9549
vn -0.6473 -0.4025 -0.6473
vn -0.6960 -0.0792 -0.7137
vn -0.0000 -0.0272 -0.9996
vn -0.6473 -0.4025 -0.6473
vn -0.9549 -0.2969 -0.0000
vn -0.9972 -0.0748 0.0000
vn -0.6960 -0.0792 -0.7137
vn -0.6761 -0.2930 -0.6761
vn -0.9773 -0.2118 -0.0000
vn -0.9773 -0.2118 0.0000
vn -0.6761 -0.2930 -0.6761
vn 0.0000 -0.2118 -0.9773
vn -0.6761 -0.2930 -0.6761
vn -0.6761 -0.2930 -0.6761
vn 0.0000 -0.2118 -0.9773
vn 0.0000 -0.4640 -0.8858
vn -0.5682 -0.5952 -0.5682
vn -0.6473 -0.4025 -0.6473
vn 0.0000 -0.2969 -0.9549
vn -0.5682 -0.5952 -0.5682
vn -0.8858 -0.4640 -0.0000
vn -0.9549 -0.2969 -0.0000
vn -0.6473 -0.4025 -0.6473
vn 0.0000 -0.1909 -0.9816
vn -0.6818 -0.2652 -0.6818
vn -0.5682 -0.5952 -0.5682
vn 0.0000 -0.4640 -0.8858
vn -0.6818 -0.2652 -0.6818
vn -0.9816 -0.1909 -0.0000
vn -0.8858 -0.4640 -0.0000
vn -0.5682 -0.5952 -0.5682
vn -0.9166 0.2389 -0.3207
vn -0.9166 0.2389 0.3207
vn -0.9973 -0.0734 -0.0000
vn -0.9973 -0.0734 0.0000
vn -0.9505 -0.0699 -0.3028
vn -0.9166 0.2389 -0.3207
vn -0.9973 -0.0734 0.0000
vn -0.9972 -0.0748 0.0000
vn -0.9505 -0.0699 0.3028
vn -0.9505 -0.0699 -0.3028
vn -0.9972 -0.0748 0.0000
vn -0.9973 -0.0734 -0.0000
vn -0.9166 0.2389 0.3207
vn -0.9505 -0.0699 0.3028
vn -0.9973 -0.0734 -0.0000
vn -0.9973 -0.0734 -0.0000
vn -0.6001 0.5576 -0.5736
vn -0.6001 0.5576 0.5736
vn -0.9166 0.2389 0.3207
vn -0.9166 0.2389 -0.3207
vn -0.6889 -0.0507 -0.7231
vn -0.6001 0.5576 -0.5736
vn -0.9166 0.2389 -0.3207
vn -0.9505 -0.0699 -0.3028
vn -0.6001 0.5576 0.5736
vn -0.6889 -0.0507 0.7231
vn -0.9505 -0.0699 0.3028
vn -0.9166 0.2389 0.3207
vn 0.0000 -0.0000 -1.0000
vn 0.0000 0.3162 -0.9487
vn 0.0000 0.0000 -1.0000
vn 0.0000 -0.0000 -1.0000
vn -0.3162 -0.0000 -0.9487
vn 0.0000 -0.0000 -1.0000
vn 0.0000 -0.0000 -1.0000
vn -0.0000 -0.0272 -0.9996
vn -0.3015 0.3015 -0.9045
vn -0.3162 -0.0000 -0.9487
vn -0.0000 -0.0272 -0.9996
vn -0.0000 0.0000 -1.0000
vn 0.0000 0.3162 -0.9487
vn -0.3015 0.3015 -0.9045
vn -0.0000 0.0000 -1.0000
vn 0.0000 0.0000 -1.0000
vn -0.5774 0.5774 -0.5774
vn -0.7071 0.0000 -0.7071
vn -0.3162 -0.0000 -0.9487
vn -0.3015 0.3015 -0.9045
vn 0.0000 0.7071 -0.7071
vn -0.5774 0.5774 -0.5774
vn -0.3015 0.3015 -0.9045
vn 0.0000 0.3162 -0.9487
# 148 vertex normals

vt 0.3196 0.4759 0.0000
vt 0.3196 0.4688 0.0000
vt 0.4751 0.4688 0.0000
vt 0.4751 0.4759 0.0000
vt 0.3196 0.4759 0.0000
vt 0.3196 0.4688 0.0000
vt 0.1641 0.4688 0.0000
vt 0.1641 0.4759 0.0000
vt 0.6321 0.4759 0.0000
vt 0.6321 0.4688 0.0000
vt 0.4751 0.4688 0.0000
vt 0.4751 0.4759 0.0000
vt 0.6321 0.4759 0.0000
vt 0.6321 0.4688 0.0000
vt 0.7891 0.4688 0.0000
vt 0.7891 0.4759 0.0000
vt 0.6321 0.4883 0.0000
vt 0.4751 0.4883 0.0000
vt 0.6321 0.4883 0.0000
vt 0.7891 0.4883 0.0000
vt 0.7891 0.4759 0.0000
vt 0.2257 0.6905 0.0000
vt 0.2257 0.5547 0.0000
vt 0.3446 0.5547 0.0000
vt 0.3446 0.6905 0.0000
vt 0.1909 0.4336 0.0000
vt 0.1909 0.2634 0.0000
vt 0.3194 0.2634 0.0000
vt 0.3194 0.4336 0.0000
vt 0.1641 0.4759 0.0000
vt 0.1641 0.4688 0.0000
vt 0.7891 0.4688 0.0000
vt 0.4751 0.4883 0.0000
vt 0.7148 0.3254 0.0000
vt 0.7148 0.2422 0.0000
vt 0.8261 0.2422 0.0000
vt 0.8261 0.3254 0.0000
vt 0.7891 0.4883 0.0000
vt 0.4416 0.2634 0.0000
vt 0.4416 0.4336 0.0000
vt 0.1909 0.1418 0.0000
vt 0.3194 0.1418 0.0000
vt 0.4416 0.1418 0.0000
vt 0.5234 0.0352 0.0000
vt 0.6289 0.0352 0.0000
vt 0.6289 0.1836 0.0000
vt 0.5234 0.1836 0.0000
vt 0.7344 0.0352 0.0000
vt 0.7344 0.1836 0.0000
vt 0.1909 0.1213 0.0000
vt 0.3194 0.1213 0.0000
vt 0.4416 0.1213 0.0000
vt 0.1909 0.0586 0.0000
vt 0.3194 0.0586 0.0000
vt 0.4416 0.0586 0.0000
vt 0.5898 0.4336 0.0000
vt 0.4521 0.4215 0.0000
vt 0.5794 0.4215 0.0000
vt 0.4521 0.2727 0.0000
vt 0.5898 0.2634 0.0000
vt 0.5794 0.2727 0.0000
vt 0.3446 0.7070 0.0000
vt 0.2257 0.7070 0.0000
vt 0.0898 0.7070 0.0000
vt 0.0898 0.6905 0.0000
vt 0.4805 0.7070 0.0000
vt 0.4805 0.6905 0.0000
vt 0.0820 0.4336 0.0000
vt 0.0820 0.3182 0.0000
vt 0.0965 0.3303 0.0000
vt 0.0965 0.4222 0.0000
vt 0.1809 0.3303 0.0000
vt 0.1809 0.4222 0.0000
vt 0.9102 0.3359 0.0000
vt 0.8261 0.3359 0.0000
vt 0.9102 0.3254 0.0000
vt 0.7148 0.3359 0.0000
# 77 texture coords

o Box178
g Box178
s 8
f 5/3/1 1/4/2 19/1/3 20/2/4 
s 16
f 6/7/5 2/8/6 27/5/7 28/6/8 
s 32
f 8/11/9 4/12/10 18/9/11 21/10/12 
s 64
f 7/15/13 3/16/14 26/13/15 29/14/16 
s off
f 9/18/17 1/4/18 26/13/19 30/17/20 
f 10/20/21 3/21/22 18/9/23 22/19/24 
f 54/24/25 51/25/26 52/22/27 53/23/28 
f 16/28/29 13/29/30 23/26/31 24/27/32 
s 8
f 6/31/33 20/2/34 19/1/35 2/30/36 
s 32
f 7/32/37 21/10/38 18/9/39 3/21/40 
s off
f 22/19/41 18/9/42 4/12/43 11/33/44 
f 61/36/45 62/37/46 59/34/47 60/35/48 
s 16
f 8/11/49 28/6/50 27/5/51 4/12/52 
s 64
f 5/3/53 29/14/54 26/13/55 1/4/56 
s off
f 30/17/57 26/13/58 3/16/59 10/38/60 
f 32/39/61 31/40/62 13/29/63 16/28/64 
f 35/41/65 34/42/66 16/28/67 24/27/68 
f 34/42/69 36/43/70 32/39/71 16/28/72 
f 38/46/73 37/47/74 25/44/75 46/45/76 
f 39/49/77 38/46/78 46/45/79 33/48/80 
f 41/50/81 40/51/82 34/42/83 35/41/84 
f 40/51/85 42/52/86 36/43/87 34/42/88 
f 44/53/89 43/54/90 40/51/91 41/50/92 
f 43/54/93 45/55/94 42/52/95 40/51/96 
f 48/57/97 47/58/98 12/56/99 31/40/100 
f 49/59/101 48/57/102 31/40/103 32/39/104 
f 50/61/105 49/59/106 32/39/107 15/60/108 
f 47/58/109 50/61/110 15/60/111 12/56/112 
f 52/22/113 51/25/114 47/62/115 48/63/116 
f 53/65/117 52/22/118 48/63/119 49/64/120 
f 51/25/121 54/67/122 50/66/123 47/62/124 
f 56/70/125 55/71/126 14/68/127 17/69/128 
f 57/72/129 56/70/130 17/69/131 24/27/132 
f 58/73/133 57/72/134 24/27/135 23/26/136 
f 55/71/137 58/73/138 23/26/139 14/68/140 
f 62/37/141 61/76/142 57/74/143 58/75/144 
f 59/34/145 62/37/146 58/75/147 55/77/148 
# 37 polygons

