# 3ds Max Wavefront OBJ Exporter v0.99 - (c)2007 guruware
# File Created: 18.04.2022 21:18:00

#
# object Box059
#

v  -2.7597 0.0000 0.4072
v  -2.7597 0.0000 -0.4072
v  -2.7597 2.7137 0.4072
v  -2.7597 2.7137 -0.4072
v  -2.7597 2.7137 0.6373
v  -2.7597 2.7137 -0.6373
v  -2.7597 3.0559 0.6373
v  -2.7597 3.0559 -0.6373
v  -2.7597 3.4430 0.4311
v  -2.7597 3.4430 -0.4311
v  0.0000 0.0000 -0.4072
v  0.0000 0.0000 0.4072
v  0.0000 2.7137 0.4072
v  0.0000 2.7137 -0.4072
v  0.0000 2.7137 0.6373
v  0.0000 2.7137 -0.6373
v  0.0000 3.0559 0.6373
v  0.0000 3.0559 -0.6373
v  0.0000 3.0559 0.4311
v  0.0000 3.0559 -0.4311
v  0.0000 3.5912 0.4311
v  0.0000 3.5912 -0.4311
v  -2.2091 0.0000 -0.4072
v  -2.2091 2.7137 -0.4072
v  -2.2091 2.7137 -0.6373
v  -2.2091 3.0559 -0.6373
v  -2.2091 3.0559 -0.4311
v  -2.2091 3.5912 -0.4311
v  -2.2091 3.5912 0.4311
v  -2.2091 3.0559 0.4311
v  -2.2091 3.0559 0.6373
v  -2.2091 2.7137 0.6373
v  -2.2091 2.7137 0.4072
v  -2.2091 0.0000 0.4072
v  -1.2185 0.0000 -0.4072
v  -1.2185 2.7137 -0.4072
v  -1.2185 2.7137 -0.6373
v  -1.2185 3.0559 -0.6373
v  -1.2185 3.0559 -0.4311
v  -1.2185 3.5912 -0.4311
v  -1.2185 3.5912 0.4311
v  -1.2185 3.0559 0.4311
v  -1.2185 3.0559 0.6373
v  -1.2185 2.7137 0.6373
v  -1.2185 2.7137 0.4072
v  -1.2185 0.0000 0.4072
v  -0.9754 0.0000 -0.4072
v  -0.9754 2.7137 -0.4072
v  -0.9754 2.7137 -0.6373
v  -0.9754 3.0559 -0.6373
v  -0.9754 3.0559 -0.4311
v  -0.9754 3.5912 -0.4311
v  -0.9754 3.5912 0.4311
v  -0.9754 3.0559 0.4311
v  -0.9754 3.0559 0.6373
v  -0.9754 2.7137 0.6373
v  -0.9754 2.7137 0.4072
v  -0.9754 0.0000 0.4072
v  -1.1118 3.5272 -0.4311
v  -1.1118 3.5272 0.4311
v  -1.1118 3.3057 0.4311
v  -1.1118 3.2500 -0.4311
v  -2.9024 2.7137 -0.6373
v  -2.9024 2.7137 -0.4072
v  -2.9024 3.0559 -0.4311
v  -2.9024 3.0559 -0.6373
v  -2.9499 2.7137 0.4072
v  -2.9499 2.7137 0.6373
v  -2.9499 3.0559 0.6373
v  -2.9499 3.0559 0.4311
v  -2.7597 3.0559 0.4311
v  -2.7597 3.0559 -0.4311
# 72 vertices

vn -0.0962 0.7280 0.6788
vn -0.0962 0.7280 -0.6788
vn -0.6394 0.4901 -0.5924
vn -0.6394 0.4901 0.5924
vn 0.0000 0.0000 1.0000
vn 0.0000 0.0000 1.0000
vn -0.9994 0.0341 0.0013
vn -0.7071 0.0000 0.7071
vn 0.0000 0.0000 1.0000
vn 0.0000 0.7071 0.7071
vn 0.0000 0.7071 0.7071
vn 0.0000 0.0000 1.0000
vn 0.0000 0.7071 0.7071
vn 0.0000 0.7071 0.7071
vn -0.6868 0.7269 0.0009
vn 0.0000 0.7071 0.7071
vn 0.0000 0.7071 0.7071
vn -0.0962 0.7280 0.6788
vn -0.6394 0.4901 0.5924
vn -0.6868 0.7269 0.0009
vn 0.0000 0.0000 -1.0000
vn 0.0000 0.0000 -1.0000
vn 0.0000 0.0000 -1.0000
vn 0.0000 0.0000 -1.0000
vn 0.0000 0.0000 -1.0000
vn 0.0000 0.7071 -0.7071
vn 0.0000 0.7071 -0.7071
vn 0.0000 0.0000 -1.0000
vn 0.0000 0.7071 -0.7071
vn 0.0000 0.7071 -0.7071
vn 0.0000 0.7071 -0.7071
vn 0.0000 0.7071 -0.7071
vn 0.0000 0.7071 -0.7071
vn -0.1633 0.7322 -0.6612
vn 0.0000 0.7071 -0.7071
vn 0.0000 0.7071 -0.7071
vn 0.2025 0.7310 0.6517
vn 0.2025 0.7310 -0.6517
vn -0.0962 0.7280 -0.6788
vn -0.0962 0.7280 0.6788
vn 0.0000 0.0000 1.0000
vn 0.0000 0.0000 1.0000
vn 0.0000 0.0000 1.0000
vn 0.0000 0.0000 1.0000
vn 0.0000 0.0000 1.0000
vn 0.0000 0.7071 0.7071
vn 0.0000 0.7071 0.7071
vn 0.0000 0.0000 1.0000
vn 0.0000 0.7071 0.7071
vn 0.0000 0.7071 0.7071
vn 0.0000 0.7071 0.7071
vn 0.0000 0.7071 0.7071
vn 0.0000 0.7071 0.7071
vn 0.2025 0.7310 0.6517
vn -0.0962 0.7280 0.6788
vn 0.0000 0.7071 0.7071
vn -0.7071 0.0000 -0.7071
vn -0.9994 0.0341 -0.0013
vn 0.0000 0.0000 -1.0000
vn 0.0000 0.0000 -1.0000
vn 0.0000 0.0000 -1.0000
vn 0.0000 0.7071 -0.7071
vn 0.0000 0.7071 -0.7071
vn 0.0000 0.0000 -1.0000
vn 0.0000 0.7071 -0.7071
vn -0.6868 0.7269 -0.0009
vn 0.0000 0.7071 -0.7071
vn 0.0000 0.7071 -0.7071
vn -0.6868 0.7269 -0.0009
vn -0.6394 0.4901 -0.5924
vn -0.0962 0.7280 -0.6788
vn 0.0000 0.7071 -0.7071
vn 0.0000 0.0000 -1.0000
vn 0.0000 0.0000 -1.0000
vn 0.0000 0.0000 -1.0000
vn 0.0000 0.0000 -1.0000
vn 0.0000 0.0000 -1.0000
vn 0.0000 0.7071 -0.7071
vn 0.0000 0.7071 -0.7071
vn 0.0000 0.0000 -1.0000
vn 0.0000 0.7071 -0.7071
vn 0.0000 0.7071 -0.7071
vn 0.0000 0.7071 -0.7071
vn 0.0000 0.7071 -0.7071
vn 0.0000 0.7071 -0.7071
vn -0.0962 0.7280 -0.6788
vn 0.2025 0.7310 -0.6517
vn 0.0000 0.7071 -0.7071
vn 0.0284 0.5575 0.8297
vn 0.0284 0.5575 -0.8297
vn 0.2025 0.7310 -0.6517
vn 0.2025 0.7310 0.6517
vn 0.0000 0.0000 1.0000
vn 0.0000 0.0000 1.0000
vn 0.0000 0.0000 1.0000
vn 0.0000 0.0000 1.0000
vn 0.0000 0.0000 1.0000
vn 0.0000 0.7071 0.7071
vn 0.0000 0.7071 0.7071
vn 0.0000 0.0000 1.0000
vn 0.0000 0.7071 0.7071
vn 0.0000 0.7071 0.7071
vn 0.0000 0.7071 0.7071
vn 0.0000 0.7071 0.7071
vn 0.0000 0.0000 1.0000
vn 0.0284 0.5575 0.8297
vn 0.2025 0.7310 0.6517
vn 0.0000 0.7071 0.7071
vn 0.0000 0.0000 -1.0000
vn 0.0000 0.0000 -1.0000
vn 0.0000 0.0000 -1.0000
vn 0.0000 0.0000 -1.0000
vn 0.0000 0.0000 -1.0000
vn 0.0000 0.7071 -0.7071
vn 0.0000 0.7071 -0.7071
vn 0.0000 0.0000 -1.0000
vn 0.0000 0.7071 -0.7071
vn 0.0000 0.7071 -0.7071
vn 0.0000 0.7071 -0.7071
vn 0.0000 0.7071 -0.7071
vn 0.0000 0.7071 -0.7071
vn 0.0000 0.7071 -0.7071
vn 0.0000 0.0000 -1.0000
vn 0.0000 0.7071 0.7071
vn 0.0000 0.7071 -0.7071
vn -0.1633 0.7322 -0.6612
vn -0.1633 0.7322 0.6612
vn 0.0000 0.0000 1.0000
vn 0.0000 0.0000 1.0000
vn 0.0000 0.0000 1.0000
vn 0.0000 0.0000 1.0000
vn 0.0000 0.0000 1.0000
vn 0.0000 0.7071 0.7071
vn 0.0000 0.7071 0.7071
vn 0.0000 0.0000 1.0000
vn 0.0000 0.7071 0.7071
vn 0.0000 0.7071 0.7071
vn 0.0000 0.7071 0.7071
vn 0.0000 0.7071 0.7071
vn 0.0000 0.7071 0.7071
vn 0.0000 0.7071 0.7071
vn -0.1633 0.7322 0.6612
vn 0.0000 0.7071 0.7071
vn -0.1633 0.7322 0.6612
vn -0.1633 0.7322 -0.6612
vn 0.0284 0.5575 -0.8297
vn 0.0284 0.5575 0.8297
vn 0.0000 0.7071 0.7071
vn -0.1633 0.7322 0.6612
vn 0.0284 0.5575 0.8297
vn 0.0000 0.0000 1.0000
vn 0.0000 0.7071 0.7071
vn 0.0000 0.7071 0.7071
vn 0.0000 0.0000 1.0000
vn 0.0000 0.7071 -0.7071
vn 0.2025 0.7310 -0.6517
vn 0.0284 0.5575 -0.8297
vn 0.0000 0.0000 -1.0000
vn 0.0000 0.0000 -1.0000
vn 0.0284 0.5575 -0.8297
vn -0.1633 0.7322 -0.6612
vn 0.0000 0.7071 -0.7071
vn -0.7071 0.0000 -0.7071
vn -0.7071 0.0000 0.7071
vn -0.9994 0.0341 0.0013
vn -0.9994 0.0341 -0.0013
vn -0.5812 0.5952 0.5549
vn -0.5774 0.5774 -0.5774
vn -0.7071 0.0000 -0.7071
vn -0.6909 0.0505 0.7212
vn -0.5812 0.5952 -0.5549
vn -0.6909 0.0505 -0.7212
vn -0.7071 0.0000 0.7071
vn -0.5774 0.5774 0.5774
vn -0.9994 0.0341 -0.0013
vn -0.6868 0.7269 -0.0009
vn -0.5812 0.5952 0.5549
vn -0.6909 0.0505 0.7212
vn -0.6868 0.7269 -0.0009
vn 0.0000 0.7071 -0.7071
vn -0.5774 0.5774 -0.5774
vn -0.5812 0.5952 0.5549
vn 0.0000 0.7071 -0.7071
vn 0.0000 0.0000 -1.0000
vn -0.7071 0.0000 -0.7071
vn -0.5774 0.5774 -0.5774
vn 0.0000 0.0000 1.0000
vn 0.0000 0.7071 0.7071
vn -0.5774 0.5774 0.5774
vn -0.7071 0.0000 0.7071
vn 0.0000 0.7071 0.7071
vn -0.6868 0.7269 0.0009
vn -0.5812 0.5952 -0.5549
vn -0.5774 0.5774 0.5774
vn -0.6868 0.7269 0.0009
vn -0.9994 0.0341 0.0013
vn -0.6909 0.0505 -0.7212
vn -0.5812 0.5952 -0.5549
vn -0.9994 0.0341 0.0013
vn -0.6868 0.7269 0.0009
vn -0.6868 0.7269 -0.0009
vn -0.9994 0.0341 -0.0013
vn -0.6394 0.4901 0.5924
vn -0.6394 0.4901 -0.5924
vn -0.6868 0.7269 -0.0009
vn -0.6868 0.7269 0.0009
# 206 vertex normals

vt 0.5507 0.6116 0.0000
vt 0.4426 0.6116 0.0000
vt 0.4426 0.5402 0.0000
vt 0.5507 0.5402 0.0000
vt 0.6107 0.1016 0.0000
vt 0.6107 0.4473 0.0000
vt 0.5507 0.4473 0.0000
vt 0.5507 0.1016 0.0000
vt 0.1328 0.6284 0.0000
vt 0.0879 0.6284 0.0000
vt 0.0879 0.5592 0.0000
vt 0.1328 0.5592 0.0000
vt 0.0606 0.6284 0.0000
vt 0.0606 0.5592 0.0000
vt 0.6107 0.6116 0.0000
vt 0.6107 0.5402 0.0000
vt 0.2252 0.1016 0.0000
vt 0.2252 0.4473 0.0000
vt 0.1016 0.4473 0.0000
vt 0.1016 0.1016 0.0000
vt 0.2813 0.6143 0.0000
vt 0.2364 0.6143 0.0000
vt 0.2364 0.4922 0.0000
vt 0.2813 0.4922 0.0000
vt 0.2091 0.6143 0.0000
vt 0.2091 0.4922 0.0000
vt 0.3815 0.7742 0.0000
vt 0.4426 0.7742 0.0000
vt 0.4426 0.8984 0.0000
vt 0.3815 0.8984 0.0000
vt 0.5507 0.7378 0.0000
vt 0.4426 0.7378 0.0000
vt 0.7362 0.1016 0.0000
vt 0.7362 0.4473 0.0000
vt 0.1328 0.7530 0.0000
vt 0.0879 0.7530 0.0000
vt 0.0606 0.7530 0.0000
vt 0.6107 0.7378 0.0000
vt 0.4426 0.1016 0.0000
vt 0.4426 0.4473 0.0000
vt 0.3815 0.4473 0.0000
vt 0.3815 0.1016 0.0000
vt 0.2813 0.8377 0.0000
vt 0.2364 0.8377 0.0000
vt 0.2364 0.7688 0.0000
vt 0.2813 0.7688 0.0000
vt 0.2091 0.8377 0.0000
vt 0.2091 0.7688 0.0000
vt 0.3815 0.5402 0.0000
vt 0.3815 0.6116 0.0000
vt 0.2560 0.4473 0.0000
vt 0.2560 0.1016 0.0000
vt 0.2364 0.6447 0.0000
vt 0.2813 0.6447 0.0000
vt 0.2091 0.6447 0.0000
vt 0.3815 0.7378 0.0000
vt 0.5507 0.7544 0.0000
vt 0.4426 0.7544 0.0000
vt 0.7670 0.1016 0.0000
vt 0.7670 0.4473 0.0000
vt 0.1328 0.7836 0.0000
vt 0.0879 0.7836 0.0000
vt 0.0606 0.7836 0.0000
vt 0.6107 0.7544 0.0000
vt 0.3815 0.7544 0.0000
vt 0.5507 0.8984 0.0000
vt 0.5507 0.7742 0.0000
vt 0.8906 0.1016 0.0000
vt 0.8906 0.4473 0.0000
vt 0.1328 0.9063 0.0000
vt 0.0879 0.9063 0.0000
vt 0.0606 0.9063 0.0000
vt 0.6107 0.8984 0.0000
vt 0.6107 0.7742 0.0000
vt 0.2091 0.8556 0.0000
vt 0.2364 0.8556 0.0000
vt 0.2364 0.8984 0.0000
vt 0.2091 0.8984 0.0000
vt 0.0606 0.5353 0.0000
vt 0.0606 0.4922 0.0000
vt 0.0879 0.4922 0.0000
vt 0.0879 0.5353 0.0000
vt 0.1641 0.8377 0.0000
vt 0.1641 0.8556 0.0000
vt 0.2813 0.8556 0.0000
vt 0.1328 0.5353 0.0000
vt 0.0156 0.5592 0.0000
vt 0.0156 0.5353 0.0000
vt 0.5507 0.4909 0.0000
vt 0.4426 0.4909 0.0000
# 90 texture coords

o Box059
g Box059
s 4
f 29/1/1 28/2/2 10/3/3 9/4/4 
s 8
f 34/5/5 33/6/6 3/7/7 1/8/8 
s off
f 32/9/9 31/10/10 7/11/11 5/12/12 
f 31/10/13 30/13/14 71/14/15 7/11/16 
f 30/15/17 29/1/18 9/4/19 71/16/20 
s 32
f 47/17/21 48/18/22 14/19/23 11/20/24 
s off
f 49/21/25 50/22/26 18/23/27 16/24/28 
f 50/22/29 51/25/30 20/26/31 18/23/32 
f 51/27/33 52/28/34 22/29/35 20/30/36 
s 4
f 41/31/37 40/32/38 28/2/39 29/1/40 
s 8
f 46/33/41 45/34/42 33/6/43 34/5/44 
s off
f 44/35/45 43/36/46 31/10/47 32/9/48 
f 43/36/49 42/37/50 30/13/51 31/10/52 
f 42/38/53 41/31/54 29/1/55 30/15/56 
s 32
f 2/39/57 4/40/58 24/41/59 23/42/60 
s off
f 6/43/61 8/44/62 26/45/63 25/46/64 
f 8/44/65 72/47/66 27/48/67 26/45/68 
f 72/49/69 10/3/70 28/2/71 27/50/72 
s 32
f 23/42/73 24/41/74 36/51/75 35/52/76 
s off
f 25/46/77 26/45/78 38/53/79 37/54/80 
f 26/45/81 27/48/82 39/55/83 38/53/84 
f 27/50/85 28/2/86 40/32/87 39/56/88 
s 4
f 60/57/89 59/58/90 40/32/91 41/31/92 
s 8
f 58/59/93 57/60/94 45/34/95 46/33/96 
s off
f 56/61/97 55/62/98 43/36/99 44/35/100 
f 55/62/101 54/63/102 42/37/103 43/36/104 
f 61/64/105 60/57/106 41/31/107 42/38/108 
s 32
f 35/52/109 36/51/110 48/18/111 47/17/112 
s off
f 37/54/113 38/53/114 50/22/115 49/21/116 
f 38/53/117 39/55/118 51/25/119 50/22/120 
f 51/27/121 39/56/122 62/65/123 
s 4
f 21/66/124 22/29/125 52/28/126 53/67/127 
s 8
f 12/68/128 13/69/129 57/60/130 58/59/131 
s off
f 15/70/132 17/71/133 55/62/134 56/61/135 
f 17/71/136 19/72/137 54/63/138 55/62/139 
f 19/73/140 21/66/141 53/67/142 54/74/143 
s 4
f 53/67/144 52/28/145 59/58/146 60/57/147 
s off
f 54/74/148 53/67/149 60/57/150 61/64/151 
f 42/38/152 54/74/153 61/64/154 
f 39/56/155 40/32/156 59/58/157 62/65/158 
f 62/65/159 59/58/160 52/28/161 51/27/162 
s 1
f 2/39/163 1/8/164 3/7/165 4/40/166 
s 2
f 65/75/167 66/76/168 63/77/169 64/78/170 
f 70/79/171 67/80/172 68/81/173 69/82/174 
s off
f 4/83/175 72/47/176 65/75/177 64/84/178 
f 72/47/179 8/44/180 66/76/181 65/75/182 
f 8/44/183 6/43/184 63/85/185 66/76/186 
f 5/12/187 7/11/188 69/82/189 68/86/190 
f 7/11/191 71/14/192 70/79/193 69/82/194 
f 71/14/195 3/87/196 67/88/197 70/79/198 
s 2
f 3/7/199 71/89/200 72/90/201 4/40/202 
f 9/4/203 10/3/204 72/90/205 71/89/206 
# 50 polygons - 2 triangles

