# 3ds Max Wavefront OBJ Exporter v0.99 - (c)2007 guruware
# File Created: 20.04.2022 12:11:05

#
# object MuretCoin
#

v  -0.7500 0.0000 0.7500
v  0.7500 0.0000 0.7500
v  -0.7500 0.0000 -0.7500
v  0.7500 0.0000 -0.7500
v  -0.7500 1.5000 0.7500
v  0.7500 1.5000 0.7500
v  -0.7500 1.5000 -0.7500
v  0.7500 1.5000 -0.7500
v  -0.8661 1.5322 0.8661
v  0.8661 1.5322 0.8661
v  0.8661 1.5322 -0.8661
v  -0.8661 1.5322 -0.8661
v  -0.8186 1.7136 0.8186
v  0.8186 1.7136 0.8186
v  0.8186 1.7136 -0.8186
v  -0.8186 1.7136 -0.8186
v  -0.6115 1.7958 0.6115
v  0.6115 1.7958 0.6115
v  0.6115 1.7958 -0.6115
v  -0.6115 1.7958 -0.6115
# 20 vertices

vn -0.0729 0.9947 0.0729
vn 0.0729 0.9947 0.0729
vn 0.0729 0.9947 -0.0729
vn -0.0729 0.9947 -0.0729
vn 0.0000 0.0000 1.0000
vn 0.0000 0.0000 1.0000
vn 0.0000 0.0000 1.0000
vn 0.0000 0.0000 1.0000
vn 1.0000 0.0000 -0.0000
vn 1.0000 0.0000 -0.0000
vn 1.0000 0.0000 -0.0000
vn 1.0000 0.0000 -0.0000
vn 0.0000 0.0000 -1.0000
vn 0.0000 0.0000 -1.0000
vn 0.0000 0.0000 -1.0000
vn 0.0000 0.0000 -1.0000
vn -1.0000 0.0000 -0.0000
vn -1.0000 0.0000 -0.0000
vn -1.0000 0.0000 -0.0000
vn -1.0000 0.0000 -0.0000
vn 0.0000 0.2534 0.9673
vn 0.0000 0.2534 0.9673
vn 0.0000 0.2534 0.9673
vn 0.0000 0.2534 0.9673
vn 0.9673 0.2534 -0.0000
vn 0.9673 0.2534 -0.0000
vn 0.9673 0.2534 -0.0000
vn 0.9673 0.2534 -0.0000
vn 0.0000 0.2534 -0.9673
vn 0.0000 0.2534 -0.9673
vn 0.0000 0.2534 -0.9673
vn 0.0000 0.2534 -0.9673
vn -0.9673 0.2534 -0.0000
vn -0.9673 0.2534 -0.0000
vn -0.9673 0.2534 -0.0000
vn -0.9673 0.2534 -0.0000
vn 0.0000 0.9294 0.3692
vn 0.0000 0.9294 0.3692
vn 0.0729 0.9947 0.0729
vn -0.0729 0.9947 0.0729
vn 0.3692 0.9294 -0.0000
vn 0.3692 0.9294 -0.0000
vn 0.0729 0.9947 -0.0729
vn 0.0729 0.9947 0.0729
vn 0.0000 0.9294 -0.3692
vn 0.0000 0.9294 -0.3692
vn -0.0729 0.9947 -0.0729
vn 0.0729 0.9947 -0.0729
vn -0.3692 0.9294 -0.0000
vn -0.3692 0.9294 -0.0000
vn -0.0729 0.9947 0.0729
vn -0.0729 0.9947 -0.0729
# 52 vertex normals

vt 0.4671 0.6878 0.0000
vt 0.4671 0.8591 0.0000
vt 0.2907 0.8591 0.0000
vt 0.2907 0.6878 0.0000
vt 0.2188 0.1250 0.0000
vt 0.2188 0.3125 0.0000
vt 0.0313 0.3125 0.0000
vt 0.0313 0.1250 0.0000
vt 0.2188 0.5000 0.0000
vt 0.0313 0.5000 0.0000
vt 0.2188 0.6875 0.0000
vt 0.0313 0.6875 0.0000
vt 0.2188 0.8750 0.0000
vt 0.0313 0.8750 0.0000
vt 0.5156 0.6878 0.0000
vt 0.5156 0.8591 0.0000
vt 0.4934 0.8591 0.0000
vt 0.4934 0.6878 0.0000
vt 0.4671 0.9063 0.0000
vt 0.2907 0.9063 0.0000
vt 0.2907 0.8847 0.0000
vt 0.4671 0.8847 0.0000
vt 0.2422 0.8591 0.0000
vt 0.2422 0.6878 0.0000
vt 0.2644 0.6878 0.0000
vt 0.2644 0.8591 0.0000
vt 0.2907 0.6406 0.0000
vt 0.4671 0.6406 0.0000
vt 0.4671 0.6622 0.0000
vt 0.2907 0.6622 0.0000
# 30 texture coords

o MuretCoin
g MuretCoin
s 4
f 17/1/1 18/2/2 19/3/3 20/4/4 
s 8
f 1/5/5 2/6/6 6/7/7 5/8/8 
s 16
f 2/6/9 4/9/10 8/10/11 6/7/12 
s 32
f 4/9/13 3/11/14 7/12/15 8/10/16 
s 64
f 3/11/17 1/13/18 5/14/19 7/12/20 
s off
f 9/15/21 10/16/22 14/17/23 13/18/24 
f 10/19/25 11/20/26 15/21/27 14/22/28 
f 11/23/29 12/24/30 16/25/31 15/26/32 
f 12/27/33 9/28/34 13/29/35 16/30/36 
f 13/18/37 14/17/38 18/2/39 17/1/40 
f 14/22/41 15/21/42 19/3/43 18/2/44 
f 15/26/45 16/25/46 20/4/47 19/3/48 
f 16/30/49 13/29/50 17/1/51 20/4/52 
# 13 polygons

