# 3ds Max Wavefront OBJ Exporter v0.99 - (c)2007 guruware
# File Created: 18.04.2022 20:48:18

#
# object Plane175
#

v  -2.5000 0.0000 2.5000
v  -1.2500 0.0000 2.5000
v  2.5000 0.0000 2.5000
v  -2.5000 0.0000 -0.0000
v  -1.2500 0.0000 -0.0000
v  1.2500 0.0000 -0.0000
v  2.5000 0.0000 -0.0000
v  -2.5000 0.0000 -1.2500
v  -1.2500 0.0000 -1.2500
v  0.0000 0.0000 -1.2500
v  1.2500 0.0000 -1.2500
v  -2.5000 0.0000 -2.5000
v  0.0000 0.0000 -2.5000
v  1.2500 0.0000 -2.5000
v  2.5000 0.0000 -2.5000
v  -2.5000 0.0561 2.5000
v  -1.2500 0.0561 2.5000
v  -1.2500 0.0141 -0.0000
v  -2.5000 0.0141 -0.0000
v  0.0000 -0.0304 -1.2500
v  1.2500 -0.0304 -1.2500
v  1.2500 -0.0304 -2.5000
v  0.0000 -0.0304 -2.5000
v  -2.5000 -0.0337 -0.0000
v  -1.2500 -0.0337 -0.0000
v  -1.2500 -0.0337 -1.2500
v  -2.5000 -0.0337 -1.2500
v  1.2500 0.0608 -0.0000
v  2.5000 0.0608 -0.0000
v  2.5000 0.0258 -2.5000
v  1.2500 0.0258 -2.5000
# 31 vertices

vn 0.0000 0.9999 -0.0168
vn 0.0000 0.9999 -0.0168
vn 0.0000 0.9999 -0.0168
vn 0.0000 0.9999 -0.0168
vn 0.0000 1.0000 -0.0000
vn 0.0000 1.0000 -0.0000
vn 0.0000 1.0000 -0.0000
vn 0.0000 1.0000 -0.0000
vn 0.0000 1.0000 -0.0000
vn 0.0000 1.0000 -0.0000
vn 0.0000 1.0000 -0.0000
vn 0.0000 1.0000 -0.0000
vn 0.0000 1.0000 -0.0000
vn 0.0000 1.0000 -0.0000
vn 0.0000 1.0000 -0.0000
vn 0.0000 1.0000 -0.0000
vn 0.0000 1.0000 -0.0000
vn 0.0000 1.0000 -0.0000
vn 0.0000 1.0000 -0.0000
vn 0.0000 0.9999 -0.0140
vn 0.0000 0.9999 -0.0140
vn 0.0000 0.9999 -0.0140
vn 0.0000 0.9999 -0.0140
vn 0.0000 1.0000 -0.0000
vn 0.0000 1.0000 -0.0000
vn 0.0000 1.0000 -0.0000
vn 0.0000 1.0000 -0.0000
vn -1.0000 0.0000 -0.0000
vn -1.0000 0.0000 -0.0000
vn -1.0000 0.0000 -0.0000
vn -1.0000 0.0000 -0.0000
vn 0.0000 0.0000 1.0000
vn 0.0000 0.0000 1.0000
vn 0.0000 0.0000 1.0000
vn 0.0000 0.0000 1.0000
vn 1.0000 0.0000 -0.0000
vn 1.0000 0.0000 -0.0000
vn 1.0000 0.0000 -0.0000
vn 1.0000 0.0000 -0.0000
vn 0.0000 0.0000 -1.0000
vn 0.0000 0.0000 -1.0000
vn 0.0000 0.0000 -1.0000
vn 0.0000 0.0000 -1.0000
vn 0.0000 0.0000 -1.0000
vn 0.0000 0.0000 -1.0000
vn 0.0000 0.0000 -1.0000
vn 0.0000 0.0000 -1.0000
vn -1.0000 0.0000 -0.0000
vn -1.0000 0.0000 -0.0000
vn -1.0000 0.0000 -0.0000
vn -1.0000 0.0000 -0.0000
vn 1.0000 0.0000 -0.0000
vn 1.0000 0.0000 -0.0000
vn 1.0000 0.0000 -0.0000
vn 1.0000 0.0000 -0.0000
vn 0.0000 0.0000 -1.0000
vn 0.0000 0.0000 -1.0000
vn 0.0000 0.0000 -1.0000
vn 0.0000 0.0000 -1.0000
vn -1.0000 0.0000 -0.0000
vn -1.0000 0.0000 -0.0000
vn -1.0000 0.0000 -0.0000
vn -1.0000 0.0000 -0.0000
vn 0.0000 0.0000 1.0000
vn 0.0000 0.0000 1.0000
vn 0.0000 0.0000 1.0000
vn 0.0000 0.0000 1.0000
vn 0.0000 0.0000 1.0000
vn 0.0000 0.0000 1.0000
vn 0.0000 0.0000 1.0000
vn 0.0000 0.0000 1.0000
vn 1.0000 0.0000 -0.0000
vn 1.0000 0.0000 -0.0000
vn 1.0000 0.0000 -0.0000
vn 1.0000 0.0000 -0.0000
vn 0.0000 0.0000 -1.0000
vn 0.0000 0.0000 -1.0000
vn 0.0000 0.0000 -1.0000
vn 0.0000 0.0000 -1.0000
vn -1.0000 0.0000 -0.0000
vn -1.0000 0.0000 -0.0000
vn -1.0000 0.0000 -0.0000
vn -1.0000 0.0000 -0.0000
vn -1.0000 0.0000 -0.0000
vn 1.0000 0.0000 -0.0000
vn 1.0000 0.0000 -0.0000
vn 1.0000 0.0000 -0.0000
vn 1.0000 0.0000 -0.0000
vn 0.0000 0.0000 1.0000
vn 0.0000 0.0000 1.0000
vn 0.0000 0.0000 1.0000
vn 0.0000 0.0000 1.0000
# 92 vertex normals

vt 0.1016 0.2578 0.0000
vt 0.2578 0.2578 0.0000
vt 0.2578 0.2578 0.0000
vt 0.7266 0.2578 0.0000
vt 0.2578 0.5703 0.0000
vt 0.1016 0.5703 0.0000
vt 0.2578 0.5703 0.0000
vt 0.7266 0.5703 0.0000
vt 0.5703 0.5703 0.0000
vt 0.2578 0.7266 0.0000
vt 0.1016 0.7266 0.0000
vt 0.1016 0.5703 0.0000
vt 0.2578 0.5703 0.0000
vt 0.4141 0.7266 0.0000
vt 0.2578 0.7266 0.0000
vt 0.5703 0.7266 0.0000
vt 0.5703 0.5703 0.0000
vt 0.7266 0.5703 0.0000
vt 0.1016 0.8828 0.0000
vt 0.1016 0.7266 0.0000
vt 0.4141 0.8828 0.0000
vt 0.5703 0.8828 0.0000
vt 0.4141 0.8828 0.0000
vt 0.4141 0.7266 0.0000
vt 0.5703 0.7266 0.0000
vt 0.7266 0.8828 0.0000
vt 0.5703 0.8828 0.0000
vt 0.8828 0.0547 0.0000
vt 0.8750 0.0547 0.0000
vt 0.9453 0.6016 0.0000
vt 0.9453 0.4375 0.0000
vt 0.9531 0.4375 0.0000
vt 0.9531 0.6016 0.0000
vt 0.8594 0.3516 0.0000
vt 0.8516 0.3516 0.0000
vt 0.8594 0.0547 0.0000
vt 0.8516 0.0547 0.0000
vt 0.9375 0.1719 0.0000
vt 0.9375 0.0234 0.0000
vt 0.9398 0.0234 0.0000
vt 0.9398 0.1719 0.0000
vt 0.8828 0.3516 0.0000
vt 0.8750 0.3516 0.0000
vt 0.9609 0.0391 0.0000
vt 0.9609 0.1563 0.0000
vt 0.9531 0.1563 0.0000
vt 0.9531 0.0391 0.0000
vt 0.8906 0.3359 0.0000
vt 0.8906 0.1953 0.0000
vt 0.8964 0.1953 0.0000
vt 0.8964 0.3359 0.0000
vt 0.9453 0.2422 0.0000
vt 0.9453 0.3594 0.0000
vt 0.9375 0.3594 0.0000
vt 0.9375 0.2422 0.0000
vt 0.9453 0.0234 0.0000
vt 0.9453 0.1719 0.0000
vt 0.9141 0.5781 0.0000
vt 0.9141 0.4609 0.0000
vt 0.9219 0.4609 0.0000
vt 0.9219 0.5781 0.0000
vt 0.8398 0.5898 0.0000
vt 0.8398 0.4570 0.0000
vt 0.8477 0.4570 0.0000
vt 0.8477 0.5898 0.0000
vt 0.9375 0.4258 0.0000
vt 0.9375 0.6055 0.0000
vt 0.9297 0.6055 0.0000
vt 0.9297 0.4258 0.0000
vt 0.9141 0.0391 0.0000
vt 0.9219 0.0391 0.0000
vt 0.9141 0.3516 0.0000
vt 0.9219 0.3516 0.0000
vt 0.8984 0.5781 0.0000
vt 0.8984 0.4609 0.0000
vt 0.9063 0.4609 0.0000
vt 0.9063 0.5781 0.0000
vt 0.9063 0.3359 0.0000
vt 0.9063 0.0547 0.0000
vt 0.8964 0.0547 0.0000
vt 0.9453 0.3750 0.0000
vt 0.9453 0.2500 0.0000
vt 0.9531 0.2500 0.0000
vt 0.9531 0.3750 0.0000
vt 0.8789 0.4492 0.0000
vt 0.8789 0.5664 0.0000
vt 0.8711 0.5664 0.0000
vt 0.8711 0.4492 0.0000
# 88 texture coords

o Plane175
g Plane175
s off
f 16/1/1 17/2/2 18/5/3 19/6/4 
f 2/3/5 3/4/6 7/8/7 6/9/8 11/16/9 10/14/10 13/21/11 12/19/12 8/20/13 9/15/14 5/7/15 
f 24/12/16 25/13/17 26/10/18 27/11/19 
f 28/17/20 29/18/21 30/26/22 31/27/23 
f 20/24/24 21/25/25 22/22/26 23/23/27 
f 1/29/28 16/28/29 19/42/30 4/43/31 
f 1/32/32 2/33/33 17/30/34 16/31/35 
f 2/35/36 5/37/37 18/36/38 17/34/39 
f 5/40/40 4/41/41 19/38/42 18/39/43 
f 10/46/44 11/47/45 21/44/46 20/45/47 
f 11/50/48 14/51/49 22/48/50 21/49/51 
f 13/54/52 10/55/53 20/52/54 23/53/55 
f 4/41/56 5/40/57 25/56/58 24/57/59 
f 5/60/60 9/61/61 26/58/62 25/59/63 
f 9/64/64 8/65/65 27/62/66 26/63/67 
f 6/68/68 7/69/69 29/66/70 28/67/71 
f 7/71/72 15/73/73 30/72/74 29/70/75 
f 15/76/76 14/77/77 31/74/78 30/75/79 
f 14/51/80 11/50/81 6/80/82 28/79/83 31/78/84 
f 8/83/85 4/84/86 24/81/87 27/82/88 
f 23/87/89 22/88/90 14/85/91 13/86/92 
# 21 polygons

