# 3ds Max Wavefront OBJ Exporter v0.99 - (c)2007 guruware
# File Created: 31.05.2022 14:14:30

#
# object SolDonjonC001
#

v  -2.5000 0.0000 0.0311
v  -2.5000 0.0000 -2.4689
v  -1.2500 0.0000 -2.4689
v  0.0000 0.0000 -2.4689
v  1.2500 0.0000 -2.4689
v  -2.5000 0.0561 0.0311
v  -1.2500 0.0141 -2.4689
v  -2.5000 0.0141 -2.4689
v  -2.5000 -0.0337 -2.4689
v  -1.2500 -0.0337 -2.4689
v  1.2500 0.0608 -2.4689
v  2.5000 0.0608 -2.4689
v  2.5000 -0.0400 -2.4689
v  0.0000 -0.0400 -2.4689
v  0.0000 0.0000 -1.8439
v  -0.6250 0.0000 -2.4689
v  -0.6250 0.0000 -1.8439
v  0.0000 0.0323 -1.8439
v  0.0000 0.0323 -2.4689
v  -0.6250 0.0323 -2.4689
v  -0.6250 0.0323 -1.8439
v  2.5000 0.0000 -2.4689
v  -1.2500 0.0456 -0.5920
v  -1.2500 0.0000 -0.6020
v  -1.2500 0.0460 -0.5689
v  0.0000 -0.0400 -1.2440
v  -1.2500 0.0457 -0.5828
v  0.0000 0.0000 -1.2274
# 28 vertices

vn 0.0000 0.9999 -0.0168
vn 0.0000 0.9999 -0.0168
vn -0.0000 0.9999 -0.0168
vn -0.0000 0.9999 -0.0168
vn 1.0000 -0.0000 0.0000
vn 1.0000 0.0000 -0.0000
vn 1.0000 0.0000 -0.0000
vn 1.0000 0.0000 -0.0000
vn 0.0000 0.0000 -1.0000
vn 0.0000 0.0000 -1.0000
vn 0.0000 0.0000 -1.0000
vn 0.0000 0.0000 -1.0000
vn -1.0000 0.0000 -0.0000
vn -1.0000 0.0000 -0.0000
vn -1.0000 0.0000 -0.0000
vn -1.0000 0.0000 -0.0000
vn 0.0000 0.0000 -1.0000
vn 0.0000 0.0000 -1.0000
vn 0.0000 0.0000 -1.0000
vn 0.0000 0.0000 -1.0000
vn 0.0000 0.0000 1.0000
vn 0.0000 0.0000 1.0000
vn 0.0000 0.0000 1.0000
vn 0.0000 0.0000 1.0000
vn 0.0000 0.0000 1.0000
vn 0.0000 0.0000 1.0000
vn 0.0000 0.0000 1.0000
vn 0.0000 0.0000 1.0000
vn 0.0000 0.0000 1.0000
vn 0.0000 1.0000 -0.0000
vn 0.0000 1.0000 -0.0000
vn 0.0000 1.0000 -0.0000
vn 0.0000 1.0000 -0.0000
vn 1.0000 0.0000 -0.0000
vn 1.0000 0.0000 -0.0000
vn 1.0000 -0.0000 -0.0000
vn 1.0000 0.0000 -0.0000
vn 0.0000 0.0000 -1.0000
vn 0.0000 0.0000 -1.0000
vn 0.0000 0.0000 -1.0000
vn 0.0000 0.0000 -1.0000
vn -1.0000 0.0000 -0.0000
vn -1.0000 0.0000 -0.0000
vn -1.0000 0.0000 -0.0000
vn -1.0000 0.0000 -0.0000
vn 0.0000 0.0000 1.0000
vn 0.0000 0.0000 1.0000
vn 0.0000 0.0000 1.0000
vn 0.0000 0.0000 1.0000
vn 1.0000 -0.0000 0.0000
vn 1.0000 -0.0000 0.0000
vn 1.0000 -0.0000 0.0000
vn 0.0000 1.0000 -0.0000
vn 0.0000 1.0000 -0.0000
vn 0.0000 1.0000 -0.0000
vn 1.0000 -0.0000 0.0000
vn 1.0000 0.0000 -0.0000
vn 1.0000 -0.0000 0.0000
vn 1.0000 -0.0000 -0.0000
vn 1.0000 0.0000 -0.0000
vn 1.0000 0.0000 -0.0000
vn 1.0000 -0.0000 -0.0000
vn 1.0000 -0.0000 -0.0000
vn 0.0000 1.0000 -0.0000
vn 0.0000 1.0000 -0.0000
vn 0.0000 1.0000 -0.0000
vn 0.0000 1.0000 -0.0000
vn 0.0000 1.0000 -0.0000
vn 0.0000 1.0000 -0.0000
# 69 vertex normals

vt 0.6797 0.3281 0.0000
vt 0.3672 0.4844 0.0000
vt 0.3672 0.3281 0.0000
vt 0.4453 0.5625 0.0000
vt 0.3672 0.5625 0.0000
vt 0.3672 0.4844 0.0000
vt 0.3672 0.9531 0.0000
vt 0.1972 0.2163 0.0000
vt 0.1967 0.2166 0.0000
vt 0.1762 0.2274 0.0000
vt 0.1754 0.2155 0.0000
vt 0.1755 0.2156 0.0000
vt 0.1764 0.2274 0.0000
vt 0.1760 0.2273 0.0000
vt 0.1752 0.2158 0.0000
vt 0.3672 0.6406 0.0000
vt 0.1747 0.2608 0.0000
vt 0.1759 0.2724 0.0000
vt 0.1755 0.2721 0.0000
vt 0.1743 0.2612 0.0000
vt 0.1763 0.2723 0.0000
vt 0.1780 0.2490 0.0000
vt 0.1783 0.2493 0.0000
vt 0.1834 0.2469 0.0000
vt 0.4453 0.6406 0.0000
vt 0.3672 0.6406 0.0000
vt 0.3672 0.5625 0.0000
vt 0.4453 0.5625 0.0000
vt 0.4453 0.6406 0.0000
vt 0.1781 0.2488 0.0000
vt 0.1831 0.2467 0.0000
vt 0.1765 0.2433 0.0000
vt 0.1767 0.2435 0.0000
vt 0.1819 0.2416 0.0000
vt 0.1817 0.2418 0.0000
vt 0.6018 0.4844 0.0000
vt 0.1919 0.2271 0.0000
vt 0.6006 0.4844 0.0000
vt 0.1920 0.2274 0.0000
vt 0.1920 0.2271 0.0000
vt 0.5203 0.6406 0.0000
vt 0.1887 0.2503 0.0000
vt 0.1919 0.2271 0.0000
vt 0.1888 0.2483 0.0000
vt 0.5224 0.6406 0.0000
# 45 texture coords

o SolDonjonC001
g SolDonjonC001
s 1
f 7/2/1 8/3/2 6/1/3 23/36/4 
s off
f 24/39/5 3/10/6 7/13/7 23/37/8 
f 8/12/9 7/13/10 3/10/11 2/11/12 
f 8/12/13 2/11/14 1/8/15 6/9/16 
f 10/14/17 9/15/18 2/11/19 3/10/20 
f 12/19/21 11/20/22 5/17/23 22/18/24 
f 13/21/25 22/18/26 5/17/27 4/22/28 14/23/29 
s 1
f 20/27/30 21/28/31 18/25/32 19/26/33 
s off
f 19/30/34 18/31/35 15/24/36 4/22/37 
f 20/33/38 19/30/39 4/22/40 16/32/41 
f 21/35/42 20/33/43 16/32/44 17/34/45 
f 18/31/46 21/35/47 17/34/48 15/24/49 
f 24/39/50 27/43/51 25/40/52 
s 3
f 13/7/53 14/16/54 26/41/55 
s off
f 24/39/56 23/37/57 27/43/58 
f 26/42/59 14/23/60 4/22/61 15/24/62 28/44/63 
s 1
f 28/45/64 15/29/65 17/4/66 16/5/67 3/6/68 24/38/69 
# 14 polygons - 3 triangles

