# 3ds Max Wavefront OBJ Exporter v0.99 - (c)2007 guruware
# File Created: 18.04.2022 20:49:39

#
# object Plane188
#

v  -2.5000 0.0000 2.5000
v  -1.2500 0.0000 2.5000
v  0.0000 0.0000 2.5000
v  -2.5000 0.0000 0.0000
v  -1.2500 0.0000 0.0000
v  0.0000 0.0000 -0.0000
v  1.2500 0.0000 -0.0000
v  -2.5000 0.0000 -1.2500
v  -1.2500 0.0000 -1.2500
v  -0.0000 0.0000 -1.2500
v  1.2500 0.0000 -1.2500
v  2.5000 0.0000 -1.2500
v  -2.5000 0.0000 -2.5000
v  -0.0000 0.0000 -2.5000
v  -2.5000 0.0561 2.5000
v  -1.2500 0.0561 2.5000
v  -1.2500 0.0141 0.0000
v  -2.5000 0.0141 0.0000
v  -0.0000 -0.0304 -1.2500
v  1.2500 -0.0304 -1.2500
v  1.2500 -0.0304 -2.5000
v  -0.0000 -0.0304 -2.5000
v  -2.5000 -0.0337 0.0000
v  -1.2500 -0.0337 0.0000
v  -1.2500 -0.0337 -1.2500
v  -2.5000 -0.0337 -1.2500
v  1.2500 0.0608 -0.0000
v  2.5000 0.0608 -0.0000
v  2.5000 0.0608 -1.2500
v  1.2500 0.0608 -1.2500
v  1.2500 0.0000 -2.5000
v  2.5000 0.0000 -2.5000
v  0.0000 -0.0400 2.5000
v  2.5000 -0.0400 2.5000
v  2.5000 -0.0400 -0.0000
v  0.0000 -0.0400 -0.0000
v  0.0000 0.0000 0.6250
v  -0.6250 0.0000 0.0000
v  -0.6250 0.0000 0.6250
v  0.0000 0.0323 0.6250
v  0.0000 0.0323 -0.0000
v  -0.6250 0.0323 0.0000
v  -0.6250 0.0323 0.6250
v  2.5000 0.0000 2.5000
v  2.5000 0.0000 -0.0000
# 45 vertices

vn 0.0000 0.9999 -0.0168
vn 0.0000 0.9999 -0.0168
vn 0.0000 0.9999 -0.0168
vn 0.0000 0.9999 -0.0168
vn 0.0000 1.0000 -0.0000
vn 0.0000 1.0000 -0.0000
vn 0.0000 1.0000 -0.0000
vn 0.0000 1.0000 -0.0000
vn 0.0000 1.0000 -0.0000
vn 0.0000 1.0000 -0.0000
vn 0.0000 1.0000 -0.0000
vn 0.0000 1.0000 -0.0000
vn 0.0000 1.0000 -0.0000
vn 0.0000 1.0000 -0.0000
vn 0.0000 1.0000 -0.0000
vn 0.0000 1.0000 -0.0000
vn 0.0000 1.0000 -0.0000
vn 0.0000 1.0000 -0.0000
vn 0.0000 1.0000 -0.0000
vn 0.0000 1.0000 -0.0000
vn 0.0000 1.0000 -0.0000
vn 0.0000 1.0000 -0.0000
vn 0.0000 1.0000 -0.0000
vn 0.0000 1.0000 -0.0000
vn 0.0000 1.0000 -0.0000
vn 0.0000 1.0000 -0.0000
vn 0.0000 1.0000 -0.0000
vn 0.0000 1.0000 -0.0000
vn 0.0000 1.0000 -0.0000
vn 0.0000 1.0000 -0.0000
vn 0.0000 1.0000 -0.0000
vn 0.0000 1.0000 -0.0000
vn 0.0000 1.0000 -0.0000
vn 0.0000 1.0000 -0.0000
vn 0.0000 1.0000 -0.0000
vn 0.0000 1.0000 -0.0000
vn 0.0000 0.0000 1.0000
vn 0.0000 0.0000 1.0000
vn 0.0000 0.0000 1.0000
vn 0.0000 0.0000 1.0000
vn 1.0000 0.0000 -0.0000
vn 1.0000 0.0000 -0.0000
vn 1.0000 0.0000 -0.0000
vn 1.0000 0.0000 -0.0000
vn 0.0000 0.0000 -1.0000
vn 0.0000 0.0000 -1.0000
vn 0.0000 0.0000 -1.0000
vn 0.0000 0.0000 -1.0000
vn -1.0000 0.0000 -0.0000
vn -1.0000 0.0000 -0.0000
vn -1.0000 0.0000 -0.0000
vn -1.0000 0.0000 -0.0000
vn 0.0000 0.0000 -1.0000
vn 0.0000 0.0000 -1.0000
vn 0.0000 0.0000 -1.0000
vn 0.0000 0.0000 -1.0000
vn -1.0000 0.0000 -0.0000
vn -1.0000 0.0000 -0.0000
vn -1.0000 0.0000 -0.0000
vn -1.0000 0.0000 -0.0000
vn 1.0000 0.0000 -0.0000
vn 1.0000 0.0000 -0.0000
vn 1.0000 0.0000 -0.0000
vn 1.0000 0.0000 -0.0000
vn 0.0000 0.0000 -1.0000
vn 0.0000 0.0000 -1.0000
vn 0.0000 0.0000 -1.0000
vn 0.0000 0.0000 -1.0000
vn -1.0000 0.0000 -0.0000
vn -1.0000 0.0000 -0.0000
vn -1.0000 0.0000 -0.0000
vn -1.0000 0.0000 -0.0000
vn 0.0000 0.0000 1.0000
vn 0.0000 0.0000 1.0000
vn 0.0000 0.0000 1.0000
vn 0.0000 0.0000 1.0000
vn 0.0000 0.0000 1.0000
vn 0.0000 0.0000 1.0000
vn 0.0000 0.0000 1.0000
vn 0.0000 0.0000 1.0000
vn 1.0000 0.0000 -0.0000
vn 1.0000 0.0000 -0.0000
vn 1.0000 0.0000 -0.0000
vn 1.0000 0.0000 -0.0000
vn -1.0000 0.0000 -0.0000
vn -1.0000 0.0000 -0.0000
vn -1.0000 0.0000 -0.0000
vn -1.0000 0.0000 -0.0000
vn 1.0000 0.0000 -0.0000
vn 1.0000 0.0000 -0.0000
vn 1.0000 0.0000 -0.0000
vn 1.0000 0.0000 -0.0000
vn -0.0000 -0.0000 1.0000
vn -0.0000 0.0000 1.0000
vn 0.0000 0.0000 1.0000
vn 0.0000 -0.0000 1.0000
vn 0.0000 0.0000 -1.0000
vn 0.0000 0.0000 -1.0000
vn 0.0000 0.0000 -1.0000
vn 0.0000 0.0000 -1.0000
vn 0.0000 1.0000 -0.0000
vn 0.0000 1.0000 -0.0000
vn 0.0000 1.0000 -0.0000
vn 0.0000 1.0000 -0.0000
vn 0.0000 0.0000 1.0000
vn 0.0000 0.0000 1.0000
vn 0.0000 0.0000 1.0000
vn 0.0000 0.0000 1.0000
vn 0.0000 0.0000 1.0000
vn 1.0000 0.0000 -0.0000
vn 1.0000 0.0000 -0.0000
vn 1.0000 0.0000 -0.0000
vn 1.0000 0.0000 -0.0000
vn 1.0000 0.0000 -0.0000
vn 0.0000 1.0000 -0.0000
vn 0.0000 1.0000 -0.0000
vn 0.0000 1.0000 -0.0000
vn 0.0000 1.0000 -0.0000
vn 1.0000 0.0000 -0.0000
vn 1.0000 0.0000 -0.0000
vn 1.0000 0.0000 -0.0000
vn 1.0000 0.0000 -0.0000
vn 0.0000 0.0000 -1.0000
vn 0.0000 0.0000 -1.0000
vn 0.0000 0.0000 -1.0000
vn 0.0000 0.0000 -1.0000
vn -1.0000 0.0000 -0.0000
vn -1.0000 0.0000 -0.0000
vn -1.0000 0.0000 -0.0000
vn -1.0000 0.0000 -0.0000
vn 0.0000 0.0000 1.0000
vn 0.0000 0.0000 1.0000
vn 0.0000 0.0000 1.0000
vn 0.0000 0.0000 1.0000
vn 0.0000 0.0000 -1.0000
vn 0.0000 0.0000 -1.0000
vn 0.0000 0.0000 -1.0000
vn 0.0000 0.0000 -1.0000
vn -1.0000 0.0000 -0.0000
vn -1.0000 0.0000 -0.0000
vn -1.0000 0.0000 -0.0000
vn -1.0000 0.0000 -0.0000
# 142 vertex normals

vt 0.6797 0.3281 0.0000
vt 0.6797 0.4844 0.0000
vt 0.6797 0.4844 0.0000
vt 0.6797 0.6406 0.0000
vt 0.6797 0.9531 0.0000
vt 0.3672 0.4844 0.0000
vt 0.3672 0.3281 0.0000
vt 0.4453 0.5625 0.0000
vt 0.3672 0.5625 0.0000
vt 0.3672 0.4844 0.0000
vt 0.3672 0.9531 0.0000
vt 0.3672 0.3281 0.0000
vt 0.3672 0.4844 0.0000
vt 0.2109 0.4844 0.0000
vt 0.2109 0.3281 0.0000
vt 0.2109 0.4844 0.0000
vt 0.3672 0.6406 0.0000
vt 0.3672 0.7969 0.0000
vt 0.2109 0.7969 0.0000
vt 0.2109 0.6406 0.0000
vt 0.3672 0.7969 0.0000
vt 0.3672 0.9531 0.0000
vt 0.2109 0.9531 0.0000
vt 0.2109 0.7969 0.0000
vt 0.2109 0.3281 0.0000
vt 0.0547 0.3281 0.0000
vt 0.2109 0.6406 0.0000
vt 0.2109 0.7969 0.0000
vt 0.0547 0.7969 0.0000
vt 0.0547 0.6406 0.0000
vt 0.1972 0.2163 0.0000
vt 0.1967 0.2166 0.0000
vt 0.1974 0.2274 0.0000
vt 0.1970 0.2271 0.0000
vt 0.1762 0.2274 0.0000
vt 0.1754 0.2155 0.0000
vt 0.1755 0.2156 0.0000
vt 0.1764 0.2274 0.0000
vt 0.1581 0.2521 0.0000
vt 0.1476 0.2460 0.0000
vt 0.1475 0.2458 0.0000
vt 0.1584 0.2520 0.0000
vt 0.1416 0.2564 0.0000
vt 0.1413 0.2565 0.0000
vt 0.1521 0.2626 0.0000
vt 0.1522 0.2629 0.0000
vt 0.1760 0.2273 0.0000
vt 0.1752 0.2158 0.0000
vt 0.1652 0.2284 0.0000
vt 0.1654 0.2282 0.0000
vt 0.1642 0.2170 0.0000
vt 0.1644 0.2172 0.0000
vt 0.3672 0.6406 0.0000
vt 0.1747 0.2608 0.0000
vt 0.1759 0.2724 0.0000
vt 0.1755 0.2721 0.0000
vt 0.1743 0.2612 0.0000
vt 0.1644 0.2729 0.0000
vt 0.1648 0.2725 0.0000
vt 0.1636 0.2615 0.0000
vt 0.1640 0.2619 0.0000
vt 0.2109 0.7969 0.0000
vt 0.2109 0.9531 0.0000
vt 0.0547 0.9531 0.0000
vt 0.0547 0.7969 0.0000
vt 0.1999 0.2512 0.0000
vt 0.1996 0.2514 0.0000
vt 0.1763 0.2723 0.0000
vt 0.1780 0.2490 0.0000
vt 0.1783 0.2493 0.0000
vt 0.1834 0.2469 0.0000
vt 0.6797 0.6406 0.0000
vt 0.4453 0.6406 0.0000
vt 0.3672 0.6406 0.0000
vt 0.3672 0.5625 0.0000
vt 0.4453 0.5625 0.0000
vt 0.0547 0.6406 0.0000
vt 0.4453 0.6406 0.0000
vt 0.1781 0.2488 0.0000
vt 0.1831 0.2467 0.0000
vt 0.1765 0.2433 0.0000
vt 0.1767 0.2435 0.0000
vt 0.1819 0.2416 0.0000
vt 0.1817 0.2418 0.0000
vt 0.1983 0.2726 0.0000
vt 0.1985 0.2729 0.0000
# 86 texture coords

o Plane188
g Plane188
s 1
f 17/6/1 18/7/2 15/1/3 16/2/4 
f 38/9/5 5/10/6 2/3/7 3/72/8 37/78/9 39/8/10 
s 3
f 35/11/11 36/53/12 33/4/13 34/5/14 
s 1
f 25/14/15 26/15/16 23/12/17 24/13/18 
f 29/23/19 30/24/20 27/21/21 28/22/22 
f 13/26/23 8/25/24 9/16/25 5/10/26 38/9/27 6/17/28 7/18/29 11/19/30 10/20/31 14/77/32 
f 21/29/33 22/30/34 19/27/35 20/28/36 
s off
f 16/34/37 15/32/38 1/31/39 2/33/40 
f 16/34/41 2/33/42 5/35/43 17/38/44 
f 18/37/45 17/38/46 5/35/47 4/36/48 
f 18/37/49 4/36/50 1/31/51 15/32/52 
f 20/41/53 19/42/54 10/39/55 11/40/56 
f 21/44/57 20/41/58 11/40/59 31/43/60 
f 19/42/61 22/46/62 14/45/63 10/39/64 
f 24/47/65 23/48/66 4/36/67 5/35/68 
f 25/50/69 24/47/70 5/35/71 9/49/72 
f 26/52/73 25/50/74 9/49/75 8/51/76 
f 28/56/77 27/57/78 7/54/79 45/55/80 
f 29/59/81 28/56/82 45/55/83 12/58/84 
f 27/57/85 30/61/86 11/60/87 7/54/88 
s 2
f 23/48/89 26/52/90 8/51/91 4/36/92 
f 31/43/93 14/45/94 22/46/95 21/44/96 
f 12/58/97 11/60/98 30/61/99 29/59/100 
s off
f 32/64/101 31/65/102 11/62/103 12/63/104 
f 35/68/105 45/55/106 7/54/107 6/69/108 36/70/109 
f 36/70/110 6/69/111 37/71/112 3/66/113 33/67/114 
s 1
f 42/75/115 43/76/116 40/73/117 41/74/118 
s off
f 41/79/119 40/80/120 37/71/121 6/69/122 
f 42/82/123 41/79/124 6/69/125 38/81/126 
f 43/84/127 42/82/128 38/81/129 39/83/130 
f 40/80/131 43/84/132 39/83/133 37/71/134 
f 3/66/135 44/86/136 34/85/137 33/67/138 
f 44/86/139 45/55/140 35/68/141 34/85/142 
# 33 polygons

