# 3ds Max Wavefront OBJ Exporter v0.99 - (c)2007 guruware
# File Created: 24.03.2022 13:03:45

#
# object Tonneau_A
#

v  0.3981 0.0000 -0.0000
v  0.3447 0.0000 -0.1990
v  0.1990 0.0000 -0.3447
v  0.0000 0.0000 -0.3981
v  -0.1990 0.0000 -0.3447
v  -0.3447 0.0000 -0.1990
v  -0.3980 0.0000 -0.0000
v  -0.3447 0.0000 0.1990
v  -0.1990 0.0000 0.3447
v  0.0000 0.0000 0.3980
v  0.1990 0.0000 0.3447
v  0.3447 0.0000 0.1990
v  -0.1990 0.1029 -0.3447
v  0.0000 0.1029 -0.3981
v  0.1990 0.1029 -0.3447
v  0.3447 0.1029 -0.1990
v  0.3981 0.1029 -0.0000
v  0.3447 0.1029 0.1990
v  0.1990 0.1029 0.3447
v  0.0000 0.1029 0.3980
v  -0.1990 0.1029 0.3447
v  -0.3447 0.1029 0.1990
v  -0.3980 0.1029 -0.0000
v  -0.3447 0.1029 -0.1990
v  -0.2452 0.2664 -0.4248
v  0.0000 0.2664 -0.4905
v  0.2453 0.2664 -0.4248
v  0.4248 0.2664 -0.2453
v  0.4905 0.2664 -0.0000
v  0.4248 0.2664 0.2452
v  0.2453 0.2664 0.4248
v  0.0000 0.2664 0.4905
v  -0.2452 0.2664 0.4248
v  -0.4248 0.2664 0.2452
v  -0.4905 0.2664 -0.0000
v  -0.4248 0.2664 -0.2453
v  -0.2452 0.6314 -0.4248
v  0.0000 0.6314 -0.4905
v  0.2453 0.6314 -0.4248
v  0.4248 0.6314 -0.2453
v  0.4905 0.6314 -0.0000
v  0.4248 0.6314 0.2452
v  0.2453 0.6314 0.4248
v  0.0000 0.6314 0.4905
v  -0.2452 0.6314 0.4248
v  -0.4248 0.6314 0.2452
v  -0.4905 0.6314 -0.0000
v  -0.4248 0.6314 -0.2453
v  -0.1990 0.8184 -0.3447
v  0.0000 0.8184 -0.3981
v  0.1990 0.8184 -0.3447
v  0.3447 0.8184 -0.1990
v  0.3981 0.8184 -0.0000
v  0.3447 0.8184 0.1990
v  0.1990 0.8184 0.3447
v  0.0000 0.8184 0.3980
v  -0.1990 0.8184 0.3447
v  -0.3447 0.8184 0.1990
v  -0.3980 0.8184 -0.0000
v  -0.3447 0.8184 -0.1990
v  -0.1990 0.9236 -0.3447
v  0.0000 0.9236 -0.3981
v  0.1990 0.9236 -0.3447
v  0.3447 0.9236 -0.1990
v  0.3981 0.9236 -0.0000
v  0.3447 0.9236 0.1990
v  0.1990 0.9236 0.3447
v  0.0000 0.9236 0.3980
v  -0.1990 0.9236 0.3447
v  -0.3447 0.9236 0.1990
v  -0.3980 0.9236 -0.0000
v  -0.3447 0.9236 -0.1990
v  -0.1628 0.9236 -0.2820
v  0.0000 0.9236 -0.3256
v  0.1628 0.9236 -0.2820
v  0.2820 0.9236 -0.1628
v  0.3256 0.9236 -0.0000
v  0.2820 0.9236 0.1628
v  0.1628 0.9236 0.2820
v  0.0000 0.9236 0.3256
v  -0.1628 0.9236 0.2820
v  -0.2820 0.9236 0.1628
v  -0.3256 0.9236 -0.0000
v  -0.2820 0.9236 -0.1628
v  -0.1467 0.8271 -0.2542
v  0.0000 0.8271 -0.2935
v  0.1468 0.8271 -0.2542
v  0.2542 0.8271 -0.1468
v  0.2936 0.8271 -0.0000
v  0.2542 0.8271 0.1468
v  0.1468 0.8271 0.2542
v  0.0000 0.8271 0.2935
v  -0.1467 0.8271 0.2542
v  -0.2542 0.8271 0.1468
v  -0.2935 0.8271 -0.0000
v  -0.2542 0.8271 -0.1468
# 96 vertices

vn 1.0000 0.0000 -0.0000
vn 0.8659 0.0000 -0.5002
vn 0.8116 -0.3486 -0.4688
vn 0.9374 -0.3482 -0.0000
vn 0.8659 0.0000 -0.5002
vn 0.5002 0.0000 -0.8659
vn 0.4688 -0.3486 -0.8116
vn 0.8116 -0.3486 -0.4688
vn 0.5002 0.0000 -0.8659
vn 0.0000 0.0000 -1.0000
vn 0.0000 -0.3482 -0.9374
vn 0.4688 -0.3486 -0.8116
vn 0.0000 0.0000 -1.0000
vn -0.5002 0.0000 -0.8659
vn -0.4689 -0.3484 -0.8116
vn 0.0000 -0.3482 -0.9374
vn -0.5002 0.0000 -0.8659
vn -0.8660 0.0000 -0.5000
vn -0.8117 -0.3486 -0.4686
vn -0.4689 -0.3484 -0.8116
vn -0.8660 0.0000 -0.5000
vn -1.0000 0.0000 -0.0000
vn -0.9373 -0.3485 -0.0000
vn -0.8117 -0.3486 -0.4686
vn -1.0000 0.0000 -0.0000
vn -0.8660 0.0000 0.5000
vn -0.8117 -0.3484 0.4687
vn -0.9373 -0.3485 -0.0000
vn -0.8660 0.0000 0.5000
vn -0.5000 0.0000 0.8660
vn -0.4687 -0.3484 0.8117
vn -0.8117 -0.3484 0.4687
vn -0.5000 0.0000 0.8660
vn 0.0000 0.0000 1.0000
vn 0.0000 -0.3485 0.9373
vn -0.4687 -0.3484 0.8117
vn 0.0000 0.0000 1.0000
vn 0.5000 0.0000 0.8660
vn 0.4686 -0.3486 0.8117
vn 0.0000 -0.3485 0.9373
vn 0.5000 0.0000 0.8660
vn 0.8659 0.0000 0.5002
vn 0.8116 -0.3484 0.4689
vn 0.4686 -0.3486 0.8117
vn 0.8659 0.0000 0.5002
vn 1.0000 0.0000 -0.0000
vn 0.9374 -0.3482 -0.0000
vn 0.8116 -0.3484 0.4689
vn 0.8116 -0.3486 -0.4688
vn 0.8560 -0.1519 -0.4941
vn 0.9884 -0.1517 0.0000
vn 0.9374 -0.3482 -0.0000
vn 0.4688 -0.3486 -0.8116
vn 0.4941 -0.1519 -0.8560
vn 0.8560 -0.1519 -0.4941
vn 0.8116 -0.3486 -0.4688
vn 0.0000 -0.3482 -0.9374
vn -0.0000 -0.1517 -0.9884
vn 0.4941 -0.1519 -0.8560
vn 0.4688 -0.3486 -0.8116
vn -0.4689 -0.3484 -0.8116
vn -0.4941 -0.1518 -0.8560
vn -0.0000 -0.1517 -0.9884
vn 0.0000 -0.3482 -0.9374
vn -0.8117 -0.3486 -0.4686
vn -0.8559 -0.1518 -0.4943
vn -0.4941 -0.1518 -0.8560
vn -0.4689 -0.3484 -0.8116
vn -0.9373 -0.3485 -0.0000
vn -0.9884 -0.1518 0.0000
vn -0.8559 -0.1518 -0.4943
vn -0.8117 -0.3486 -0.4686
vn -0.8117 -0.3484 0.4687
vn -0.8560 -0.1518 0.4943
vn -0.9884 -0.1518 0.0000
vn -0.9373 -0.3485 -0.0000
vn -0.4687 -0.3484 0.8117
vn -0.4943 -0.1518 0.8560
vn -0.8560 -0.1518 0.4943
vn -0.8117 -0.3484 0.4687
vn 0.0000 -0.3485 0.9373
vn -0.0000 -0.1518 0.9884
vn -0.4943 -0.1518 0.8560
vn -0.4687 -0.3484 0.8117
vn 0.4686 -0.3486 0.8117
vn 0.4943 -0.1518 0.8559
vn -0.0000 -0.1518 0.9884
vn 0.0000 -0.3485 0.9373
vn 0.8116 -0.3484 0.4689
vn 0.8560 -0.1518 0.4941
vn 0.4943 -0.1518 0.8559
vn 0.4686 -0.3486 0.8117
vn 0.9374 -0.3482 -0.0000
vn 0.9884 -0.1517 0.0000
vn 0.8560 -0.1518 0.4941
vn 0.8116 -0.3484 0.4689
vn 0.8560 -0.1519 -0.4941
vn 0.8566 0.1472 -0.4945
vn 0.9891 0.1470 0.0000
vn 0.9884 -0.1517 0.0000
vn 0.4941 -0.1519 -0.8560
vn 0.4945 0.1472 -0.8566
vn 0.8566 0.1472 -0.4945
vn 0.8560 -0.1519 -0.4941
vn -0.0000 -0.1517 -0.9884
vn -0.0000 0.1470 -0.9891
vn 0.4945 0.1472 -0.8566
vn 0.4941 -0.1519 -0.8560
vn -0.4941 -0.1518 -0.8560
vn -0.4945 0.1471 -0.8567
vn -0.0000 0.1470 -0.9891
vn -0.0000 -0.1517 -0.9884
vn -0.8559 -0.1518 -0.4943
vn -0.8566 0.1471 -0.4946
vn -0.4945 0.1471 -0.8567
vn -0.4941 -0.1518 -0.8560
vn -0.9884 -0.1518 0.0000
vn -0.9891 0.1471 0.0000
vn -0.8566 0.1471 -0.4946
vn -0.8559 -0.1518 -0.4943
vn -0.8560 -0.1518 0.4943
vn -0.8566 0.1471 0.4946
vn -0.9891 0.1471 0.0000
vn -0.9884 -0.1518 0.0000
vn -0.4943 -0.1518 0.8560
vn -0.4946 0.1471 0.8566
vn -0.8566 0.1471 0.4946
vn -0.8560 -0.1518 0.4943
vn -0.0000 -0.1518 0.9884
vn -0.0000 0.1471 0.9891
vn -0.4946 0.1471 0.8566
vn -0.4943 -0.1518 0.8560
vn 0.4943 -0.1518 0.8559
vn 0.4946 0.1471 0.8566
vn -0.0000 0.1471 0.9891
vn -0.0000 -0.1518 0.9884
vn 0.8560 -0.1518 0.4941
vn 0.8567 0.1471 0.4945
vn 0.4946 0.1471 0.8566
vn 0.4943 -0.1518 0.8559
vn 0.9884 -0.1517 0.0000
vn 0.9891 0.1470 0.0000
vn 0.8567 0.1471 0.4945
vn 0.8560 -0.1518 0.4941
vn 0.8566 0.1472 -0.4945
vn 0.8207 0.3190 -0.4740
vn 0.9479 0.3187 -0.0000
vn 0.9891 0.1470 0.0000
vn 0.4945 0.1472 -0.8566
vn 0.4740 0.3190 -0.8207
vn 0.8207 0.3190 -0.4740
vn 0.8566 0.1472 -0.4945
vn -0.0000 0.1470 -0.9891
vn 0.0000 0.3187 -0.9479
vn 0.4740 0.3190 -0.8207
vn 0.4945 0.1472 -0.8566
vn -0.4945 0.1471 -0.8567
vn -0.4741 0.3189 -0.8207
vn 0.0000 0.3187 -0.9479
vn -0.0000 0.1470 -0.9891
vn -0.8566 0.1471 -0.4946
vn -0.8208 0.3191 -0.4738
vn -0.4741 0.3189 -0.8207
vn -0.4945 0.1471 -0.8567
vn -0.9891 0.1471 0.0000
vn -0.9478 0.3190 -0.0000
vn -0.8208 0.3191 -0.4738
vn -0.8566 0.1471 -0.4946
vn -0.8566 0.1471 0.4946
vn -0.8208 0.3189 0.4739
vn -0.9478 0.3190 -0.0000
vn -0.9891 0.1471 0.0000
vn -0.4946 0.1471 0.8566
vn -0.4739 0.3189 0.8208
vn -0.8208 0.3189 0.4739
vn -0.8566 0.1471 0.4946
vn -0.0000 0.1471 0.9891
vn 0.0000 0.3190 0.9478
vn -0.4739 0.3189 0.8208
vn -0.4946 0.1471 0.8566
vn 0.4946 0.1471 0.8566
vn 0.4738 0.3191 0.8208
vn 0.0000 0.3190 0.9478
vn -0.0000 0.1471 0.9891
vn 0.8567 0.1471 0.4945
vn 0.8207 0.3189 0.4741
vn 0.4738 0.3191 0.8208
vn 0.4946 0.1471 0.8566
vn 0.9891 0.1470 0.0000
vn 0.9479 0.3187 -0.0000
vn 0.8207 0.3189 0.4741
vn 0.8567 0.1471 0.4945
vn 0.8659 0.0000 -0.5002
vn 0.8659 0.0000 -0.5002
vn 1.0000 0.0000 -0.0000
vn 1.0000 0.0000 -0.0000
vn 0.5002 0.0000 -0.8659
vn 0.5002 0.0000 -0.8659
vn 0.8659 0.0000 -0.5002
vn 0.8659 0.0000 -0.5002
vn 0.0000 0.0000 -1.0000
vn 0.0000 0.0000 -1.0000
vn 0.5002 0.0000 -0.8659
vn 0.5002 0.0000 -0.8659
vn -0.5002 0.0000 -0.8659
vn -0.5002 0.0000 -0.8659
vn 0.0000 0.0000 -1.0000
vn 0.0000 0.0000 -1.0000
vn -0.8661 0.0000 -0.5000
vn -0.8661 0.0000 -0.5000
vn -0.5002 0.0000 -0.8659
vn -0.5002 0.0000 -0.8659
vn -1.0000 0.0000 -0.0000
vn -1.0000 0.0000 -0.0000
vn -0.8661 0.0000 -0.5000
vn -0.8661 0.0000 -0.5000
vn -0.8661 0.0000 0.5000
vn -0.8661 0.0000 0.5000
vn -1.0000 0.0000 -0.0000
vn -1.0000 0.0000 -0.0000
vn -0.5000 0.0000 0.8661
vn -0.5000 0.0000 0.8661
vn -0.8661 0.0000 0.5000
vn -0.8661 0.0000 0.5000
vn 0.0000 0.0000 1.0000
vn 0.0000 0.0000 1.0000
vn -0.5000 0.0000 0.8661
vn -0.5000 0.0000 0.8661
vn 0.5000 0.0000 0.8661
vn 0.5000 0.0000 0.8661
vn 0.0000 0.0000 1.0000
vn 0.0000 0.0000 1.0000
vn 0.8659 0.0000 0.5002
vn 0.8659 0.0000 0.5002
vn 0.5000 0.0000 0.8661
vn 0.5000 0.0000 0.8661
vn 1.0000 0.0000 -0.0000
vn 1.0000 0.0000 -0.0000
vn 0.8659 0.0000 0.5002
vn 0.8659 0.0000 0.5002
vn 0.0000 1.0000 -0.0000
vn 0.0000 1.0000 -0.0000
vn 0.0000 1.0000 -0.0000
vn 0.0000 1.0000 -0.0000
vn 0.0000 1.0000 -0.0000
vn 0.0000 1.0000 -0.0000
vn 0.0000 1.0000 -0.0000
vn 0.0000 1.0000 -0.0000
vn 0.0000 1.0000 -0.0000
vn 0.0000 1.0000 -0.0000
vn 0.0000 1.0000 -0.0000
vn 0.0000 1.0000 -0.0000
vn 0.0000 1.0000 -0.0000
vn 0.0000 1.0000 -0.0000
vn 0.0000 1.0000 -0.0000
vn 0.0000 1.0000 -0.0000
vn 0.0000 1.0000 -0.0000
vn 0.0000 1.0000 -0.0000
vn 0.0000 1.0000 -0.0000
vn 0.0000 1.0000 -0.0000
vn 0.0000 1.0000 -0.0000
vn 0.0000 1.0000 -0.0000
vn 0.0000 1.0000 -0.0000
vn 0.0000 1.0000 -0.0000
vn 0.0000 1.0000 -0.0000
vn 0.0000 1.0000 -0.0000
vn 0.0000 1.0000 -0.0000
vn 0.0000 1.0000 -0.0000
vn 0.0000 1.0000 -0.0000
vn 0.0000 1.0000 -0.0000
vn 0.0000 1.0000 -0.0000
vn 0.0000 1.0000 -0.0000
vn 0.0000 1.0000 -0.0000
vn 0.0000 1.0000 -0.0000
vn 0.0000 1.0000 -0.0000
vn 0.0000 1.0000 -0.0000
vn 0.0000 1.0000 -0.0000
vn 0.0000 1.0000 -0.0000
vn 0.0000 1.0000 -0.0000
vn 0.0000 1.0000 -0.0000
vn 0.0000 1.0000 -0.0000
vn 0.0000 1.0000 -0.0000
vn 0.0000 1.0000 -0.0000
vn 0.0000 1.0000 -0.0000
vn 0.0000 1.0000 -0.0000
vn 0.0000 1.0000 -0.0000
vn 0.0000 1.0000 -0.0000
vn 0.0000 1.0000 -0.0000
vn -0.9492 0.3148 0.0000
vn -0.9492 0.3148 -0.0000
vn -0.8219 0.3154 0.4744
vn -0.8217 0.3154 0.4747
vn -0.8217 0.3154 0.4747
vn -0.8219 0.3154 0.4744
vn -0.4743 0.3154 0.8219
vn -0.4744 0.3154 0.8219
vn -0.4744 0.3154 0.8219
vn -0.4743 0.3154 0.8219
vn -0.0000 0.3156 0.9489
vn 0.0001 0.3156 0.9489
vn 0.0001 0.3156 0.9489
vn -0.0000 0.3156 0.9489
vn 0.4744 0.3159 0.8217
vn 0.4742 0.3159 0.8218
vn 0.4742 0.3159 0.8218
vn 0.4744 0.3159 0.8217
vn 0.8219 0.3154 0.4744
vn 0.8217 0.3154 0.4747
vn 0.8217 0.3154 0.4747
vn 0.8219 0.3154 0.4744
vn 0.9489 0.3156 -0.0000
vn 0.9489 0.3156 0.0000
vn 0.9489 0.3156 0.0000
vn 0.9489 0.3156 -0.0000
vn 0.8219 0.3154 -0.4744
vn 0.8217 0.3154 -0.4747
vn 0.8217 0.3154 -0.4747
vn 0.8219 0.3154 -0.4744
vn 0.4744 0.3159 -0.8217
vn 0.4742 0.3159 -0.8218
vn 0.4742 0.3159 -0.8218
vn 0.4744 0.3159 -0.8217
vn -0.0000 0.3156 -0.9489
vn 0.0001 0.3156 -0.9489
vn 0.0001 0.3156 -0.9489
vn -0.0000 0.3156 -0.9489
vn -0.4743 0.3154 -0.8219
vn -0.4744 0.3154 -0.8219
vn -0.4744 0.3154 -0.8219
vn -0.4743 0.3154 -0.8219
vn -0.8219 0.3154 -0.4744
vn -0.8217 0.3154 -0.4747
vn -0.8217 0.3154 -0.4747
vn -0.8219 0.3154 -0.4744
vn -0.9492 0.3148 -0.0000
vn -0.9492 0.3148 0.0000
vn 0.0000 1.0000 -0.0000
vn 0.0000 1.0000 -0.0000
vn 0.0000 1.0000 -0.0000
vn 0.0000 1.0000 -0.0000
vn 0.0000 1.0000 -0.0000
vn 0.0000 1.0000 -0.0000
vn 0.0000 1.0000 -0.0000
vn 0.0000 1.0000 -0.0000
vn 0.0000 1.0000 -0.0000
vn 0.0000 1.0000 -0.0000
vn 0.0000 1.0000 -0.0000
vn 0.0000 1.0000 -0.0000
vn 0.0000 1.0000 -0.0000
vn 0.0000 1.0000 -0.0000
vn 0.0000 1.0000 -0.0000
vn 0.0000 1.0000 -0.0000
vn 0.0000 1.0000 -0.0000
vn 0.0000 1.0000 -0.0000
vn 0.0000 1.0000 -0.0000
vn 0.0000 1.0000 -0.0000
# 356 vertex normals

vt 0.2604 0.2188 0.0000
vt 0.3203 0.2188 0.0000
vt 0.3203 0.2969 0.0000
vt 0.2604 0.2969 0.0000
vt 0.3802 0.2188 0.0000
vt 0.3802 0.2969 0.0000
vt 0.4401 0.2188 0.0000
vt 0.4401 0.2969 0.0000
vt 0.5000 0.2188 0.0000
vt 0.5000 0.2969 0.0000
vt 0.5599 0.2188 0.0000
vt 0.5599 0.2969 0.0000
vt 0.6198 0.2188 0.0000
vt 0.6198 0.2969 0.0000
vt 0.6797 0.2188 0.0000
vt 0.6797 0.2969 0.0000
vt 0.7396 0.2188 0.0000
vt 0.7396 0.2969 0.0000
vt 0.7995 0.2188 0.0000
vt 0.7995 0.2969 0.0000
vt 0.8594 0.2188 0.0000
vt 0.8594 0.2969 0.0000
vt 0.1406 0.2188 0.0000
vt 0.2005 0.2188 0.0000
vt 0.2005 0.2969 0.0000
vt 0.1406 0.2969 0.0000
vt 0.6797 0.5156 0.0000
vt 0.6797 0.4688 0.0000
vt 0.7396 0.4688 0.0000
vt 0.7396 0.5156 0.0000
vt 0.6198 0.5156 0.0000
vt 0.6198 0.4688 0.0000
vt 0.5599 0.5156 0.0000
vt 0.5599 0.4688 0.0000
vt 0.5000 0.5156 0.0000
vt 0.5000 0.4688 0.0000
vt 0.4401 0.5156 0.0000
vt 0.4401 0.4688 0.0000
vt 0.3802 0.5156 0.0000
vt 0.3802 0.4688 0.0000
vt 0.3203 0.5156 0.0000
vt 0.3203 0.4688 0.0000
vt 0.2604 0.5156 0.0000
vt 0.2604 0.4688 0.0000
vt 0.2005 0.5156 0.0000
vt 0.2005 0.4688 0.0000
vt 0.1406 0.5156 0.0000
vt 0.1406 0.4688 0.0000
vt 0.7995 0.5156 0.0000
vt 0.7995 0.4688 0.0000
vt 0.8594 0.4688 0.0000
vt 0.8594 0.5156 0.0000
vt 0.6797 0.3750 0.0000
vt 0.7396 0.3750 0.0000
vt 0.6198 0.3750 0.0000
vt 0.5599 0.3750 0.0000
vt 0.5000 0.3750 0.0000
vt 0.4401 0.3750 0.0000
vt 0.3802 0.3750 0.0000
vt 0.3203 0.3750 0.0000
vt 0.2604 0.3750 0.0000
vt 0.2005 0.3750 0.0000
vt 0.1406 0.3750 0.0000
vt 0.7995 0.3750 0.0000
vt 0.8594 0.3750 0.0000
vt 0.6797 0.3281 0.0000
vt 0.7396 0.3281 0.0000
vt 0.6198 0.3281 0.0000
vt 0.5599 0.3281 0.0000
vt 0.5000 0.3281 0.0000
vt 0.4401 0.3281 0.0000
vt 0.3802 0.3281 0.0000
vt 0.3203 0.3281 0.0000
vt 0.2604 0.3281 0.0000
vt 0.2005 0.3281 0.0000
vt 0.1406 0.3281 0.0000
vt 0.7995 0.3281 0.0000
vt 0.8594 0.3281 0.0000
vt 0.3203 0.5469 0.0000
vt 0.3203 0.5825 0.0000
vt 0.2604 0.5825 0.0000
vt 0.2604 0.5469 0.0000
vt 0.3802 0.5469 0.0000
vt 0.3802 0.5825 0.0000
vt 0.4401 0.5469 0.0000
vt 0.4401 0.5825 0.0000
vt 0.5000 0.5469 0.0000
vt 0.5000 0.5825 0.0000
vt 0.5599 0.5469 0.0000
vt 0.5599 0.5825 0.0000
vt 0.6198 0.5469 0.0000
vt 0.6198 0.5825 0.0000
vt 0.6797 0.5469 0.0000
vt 0.6797 0.5825 0.0000
vt 0.7396 0.5469 0.0000
vt 0.7396 0.5825 0.0000
vt 0.7995 0.5469 0.0000
vt 0.7995 0.5825 0.0000
vt 0.8594 0.5469 0.0000
vt 0.8594 0.5825 0.0000
vt 0.2005 0.5469 0.0000
vt 0.2005 0.5825 0.0000
vt 0.1406 0.5825 0.0000
vt 0.1406 0.5469 0.0000
vt 0.2604 0.6063 0.0000
vt 0.3203 0.6063 0.0000
vt 0.3802 0.6063 0.0000
vt 0.4401 0.6063 0.0000
vt 0.5000 0.6063 0.0000
vt 0.5599 0.6063 0.0000
vt 0.6198 0.6063 0.0000
vt 0.6797 0.6063 0.0000
vt 0.7396 0.6063 0.0000
vt 0.7995 0.6063 0.0000
vt 0.8594 0.6063 0.0000
vt 0.1406 0.6063 0.0000
vt 0.2005 0.6063 0.0000
vt 0.2604 0.6406 0.0000
vt 0.3203 0.6406 0.0000
vt 0.3802 0.6406 0.0000
vt 0.4401 0.6406 0.0000
vt 0.5000 0.6406 0.0000
vt 0.5599 0.6406 0.0000
vt 0.6198 0.6406 0.0000
vt 0.6797 0.6406 0.0000
vt 0.7396 0.6406 0.0000
vt 0.7995 0.6406 0.0000
vt 0.8594 0.6406 0.0000
vt 0.1406 0.6406 0.0000
vt 0.2005 0.6406 0.0000
vt 0.4688 0.6875 0.0000
vt 0.4688 0.8281 0.0000
vt 0.4375 0.8125 0.0000
vt 0.4375 0.7031 0.0000
vt 0.4219 0.7813 0.0000
vt 0.4219 0.7344 0.0000
vt 0.5156 0.6875 0.0000
vt 0.5156 0.8281 0.0000
vt 0.5469 0.7031 0.0000
vt 0.5469 0.8125 0.0000
vt 0.5625 0.7344 0.0000
vt 0.5625 0.7813 0.0000
# 142 texture coords

o Tonneau_A
g Tonneau_A
s off
f 1/1/1 2/2/2 16/3/3 17/4/4 
f 2/2/5 3/5/6 15/6/7 16/3/8 
f 3/5/9 4/7/10 14/8/11 15/6/12 
f 4/7/13 5/9/14 13/10/15 14/8/16 
f 5/9/17 6/11/18 24/12/19 13/10/20 
f 6/11/21 7/13/22 23/14/23 24/12/24 
f 7/13/25 8/15/26 22/16/27 23/14/28 
f 8/15/29 9/17/30 21/18/31 22/16/32 
f 9/17/33 10/19/34 20/20/35 21/18/36 
f 10/19/37 11/21/38 19/22/39 20/20/40 
f 11/23/41 12/24/42 18/25/43 19/26/44 
f 12/24/45 1/1/46 17/4/47 18/25/48 
f 16/27/49 28/28/50 29/29/51 17/30/52 
f 15/31/53 27/32/54 28/28/55 16/27/56 
f 14/33/57 26/34/58 27/32/59 15/31/60 
f 13/35/61 25/36/62 26/34/63 14/33/64 
f 24/37/65 36/38/66 25/36/67 13/35/68 
f 23/39/69 35/40/70 36/38/71 24/37/72 
f 22/41/73 34/42/74 35/40/75 23/39/76 
f 21/43/77 33/44/78 34/42/79 22/41/80 
f 20/45/81 32/46/82 33/44/83 21/43/84 
f 19/47/85 31/48/86 32/46/87 20/45/88 
f 18/49/89 30/50/90 31/51/91 19/52/92 
f 17/30/93 29/29/94 30/50/95 18/49/96 
f 28/28/97 40/53/98 41/54/99 29/29/100 
f 27/32/101 39/55/102 40/53/103 28/28/104 
f 26/34/105 38/56/106 39/55/107 27/32/108 
f 25/36/109 37/57/110 38/56/111 26/34/112 
f 36/38/113 48/58/114 37/57/115 25/36/116 
f 35/40/117 47/59/118 48/58/119 36/38/120 
f 34/42/121 46/60/122 47/59/123 35/40/124 
f 33/44/125 45/61/126 46/60/127 34/42/128 
f 32/46/129 44/62/130 45/61/131 33/44/132 
f 31/48/133 43/63/134 44/62/135 32/46/136 
f 30/50/137 42/64/138 43/65/139 31/51/140 
f 29/29/141 41/54/142 42/64/143 30/50/144 
s 1
f 40/53/145 52/66/146 53/67/147 41/54/148 
s 2
f 39/55/149 51/68/150 52/66/151 40/53/152 
s 1
f 38/56/153 50/69/154 51/68/155 39/55/156 
s 2
f 37/57/157 49/70/158 50/69/159 38/56/160 
s 1
f 48/58/161 60/71/162 49/70/163 37/57/164 
s 2
f 47/59/165 59/72/166 60/71/167 48/58/168 
s 1
f 46/60/169 58/73/170 59/72/171 47/59/172 
s 2
f 45/61/173 57/74/174 58/73/175 46/60/176 
s 1
f 44/62/177 56/75/178 57/74/179 45/61/180 
s 2
f 43/63/181 55/76/182 56/75/183 44/62/184 
s 1
f 42/64/185 54/77/186 55/78/187 43/65/188 
s 2
f 41/54/189 53/67/190 54/77/191 42/64/192 
s 1
f 52/79/193 64/80/194 65/81/195 53/82/196 
f 51/83/197 63/84/198 64/80/199 52/79/200 
f 50/85/201 62/86/202 63/84/203 51/83/204 
f 49/87/205 61/88/206 62/86/207 50/85/208 
f 60/89/209 72/90/210 61/88/211 49/87/212 
f 59/91/213 71/92/214 72/90/215 60/89/216 
f 58/93/217 70/94/218 71/92/219 59/91/220 
f 57/95/221 69/96/222 70/94/223 58/93/224 
f 56/97/225 68/98/226 69/96/227 57/95/228 
f 55/99/229 67/100/230 68/98/231 56/97/232 
f 54/101/233 66/102/234 67/103/235 55/104/236 
f 53/82/237 65/81/238 66/102/239 54/101/240 
s off
f 77/105/241 65/81/242 64/80/243 76/106/244 
f 76/106/245 64/80/246 63/84/247 75/107/248 
f 75/107/249 63/84/250 62/86/251 74/108/252 
f 74/108/253 62/86/254 61/88/255 73/109/256 
f 73/109/257 61/88/258 72/90/259 84/110/260 
f 84/110/261 72/90/262 71/92/263 83/111/264 
f 83/111/265 71/92/266 70/94/267 82/112/268 
f 82/112/269 70/94/270 69/96/271 81/113/272 
f 81/113/273 69/96/274 68/98/275 80/114/276 
f 80/114/277 68/98/278 67/100/279 79/115/280 
f 79/116/281 67/103/282 66/102/283 78/117/284 
f 78/117/285 66/102/286 65/81/287 77/105/288 
f 89/118/289 77/105/290 76/106/291 88/119/292 
f 88/119/293 76/106/294 75/107/295 87/120/296 
f 87/120/297 75/107/298 74/108/299 86/121/300 
f 86/121/301 74/108/302 73/109/303 85/122/304 
f 85/122/305 73/109/306 84/110/307 96/123/308 
f 96/123/309 84/110/310 83/111/311 95/124/312 
f 95/124/313 83/111/314 82/112/315 94/125/316 
f 94/125/317 82/112/318 81/113/319 93/126/320 
f 93/126/321 81/113/322 80/114/323 92/127/324 
f 92/127/325 80/114/326 79/115/327 91/128/328 
f 91/129/329 79/116/330 78/117/331 90/130/332 
f 90/130/333 78/117/334 77/105/335 89/118/336 
f 88/131/337 93/132/338 92/133/339 89/134/340 
f 92/133/341 91/135/342 90/136/343 89/134/344 
f 88/131/345 87/137/346 94/138/347 93/132/348 
f 87/137/349 86/139/350 95/140/351 94/138/352 
f 86/139/353 85/141/354 96/142/355 95/140/356 
# 89 polygons

