# 3ds Max Wavefront OBJ Exporter v0.99 - (c)2007 guruware
# File Created: 04.04.2022 15:25:08

#
# object Rocher_B
#

v  0.5208 0.0020 0.5902
v  0.5106 0.0103 -0.3972
v  0.5412 0.3212 0.6057
v  0.5370 0.3795 -0.6678
v  0.4384 0.8061 0.3555
v  0.4558 0.8860 -0.3189
v  -0.0913 -0.0016 0.9345
v  -0.0458 0.3141 0.9042
v  -0.0598 0.8151 0.5981
v  0.0901 -0.0065 -0.7947
v  0.2191 0.3021 -0.8975
v  0.1162 0.7318 -0.5657
v  -0.8141 0.0013 -0.0419
v  -0.8077 0.3458 -0.0779
v  -0.5132 0.8829 -0.0095
v  -0.3451 0.9337 0.3700
v  -0.5348 0.3352 0.5610
v  -0.6455 0.0005 0.4833
v  0.5020 0.9220 -0.0248
v  0.6968 0.3444 0.0319
v  0.6666 -0.0057 0.0073
v  -0.3776 -0.0003 -0.6897
v  -0.3743 0.3328 -0.6560
v  -0.2463 0.7056 -0.4985
# 24 vertices

vn 0.8020 -0.3893 -0.4530
vn 0.7902 0.1188 -0.6012
vn 0.9885 0.1478 0.0314
vn 0.9936 -0.0801 -0.0796
vn 0.9885 0.1478 0.0314
vn 0.5553 0.8317 0.0049
vn 0.5740 0.6505 0.4974
vn 0.7089 0.2403 0.6631
vn -0.0084 0.3368 0.9415
vn -0.1291 0.1132 0.9852
vn 0.7833 -0.0800 0.6164
vn 0.7089 0.2403 0.6631
vn 0.7089 0.2403 0.6631
vn 0.5740 0.6505 0.4974
vn 0.0295 0.6927 0.7206
vn -0.0084 0.3368 0.9415
vn 0.1666 -0.3736 -0.9125
vn 0.1781 0.1346 -0.9748
vn 0.7902 0.1188 -0.6012
vn 0.8020 -0.3893 -0.4530
vn 0.7902 0.1188 -0.6012
vn 0.1781 0.1346 -0.9748
vn -0.0367 0.7702 -0.6367
vn 0.4791 0.8034 -0.3536
vn 0.1666 -0.3736 -0.9125
vn -0.6044 0.0861 -0.7920
vn -0.6133 0.3036 -0.7292
vn 0.1781 0.1346 -0.9748
vn -0.0367 0.7702 -0.6367
vn 0.1781 0.1346 -0.9748
vn -0.6133 0.3036 -0.7292
vn -0.4004 0.6658 -0.6295
vn -0.9475 0.2800 -0.1541
vn -0.9882 0.0023 -0.1533
vn -0.8473 0.1629 0.5056
vn -0.7304 0.2750 0.6252
vn -0.7304 0.2750 0.6252
vn -0.4443 0.8212 0.3581
vn -0.6158 0.7782 -0.1229
vn -0.9475 0.2800 -0.1541
vn -0.1291 0.1132 0.9852
vn -0.0084 0.3368 0.9415
vn -0.7304 0.2750 0.6252
vn -0.8473 0.1629 0.5056
vn -0.7304 0.2750 0.6252
vn -0.0084 0.3368 0.9415
vn 0.0295 0.6927 0.7206
vn -0.4443 0.8212 0.3581
vn 0.9885 0.1478 0.0314
vn 0.7089 0.2403 0.6631
vn 0.7833 -0.0800 0.6164
vn 0.9936 -0.0801 -0.0796
vn 0.9885 0.1478 0.0314
vn 0.7902 0.1188 -0.6012
vn 0.4791 0.8034 -0.3536
vn 0.5553 0.8317 0.0049
vn -0.9882 0.0023 -0.1533
vn -0.9475 0.2800 -0.1541
vn -0.6133 0.3036 -0.7292
vn -0.6044 0.0861 -0.7920
vn -0.9475 0.2800 -0.1541
vn -0.6158 0.7782 -0.1229
vn -0.4004 0.6658 -0.6295
vn -0.6133 0.3036 -0.7292
vn 0.4791 0.8034 -0.3536
vn -0.0367 0.7702 -0.6367
vn -0.4004 0.6658 -0.6295
vn -0.6158 0.7782 -0.1229
vn -0.4443 0.8212 0.3581
vn 0.0295 0.6927 0.7206
vn 0.5740 0.6505 0.4974
vn 0.5553 0.8317 0.0049
vn -0.6158 0.7782 -0.1229
vn -0.4443 0.8212 0.3581
vn 0.5553 0.8317 0.0049
vn 0.4791 0.8034 -0.3536
# 76 vertex normals

vt 0.5313 0.7734 0.0000
vt 0.5313 0.7316 0.0000
vt 0.5938 0.7316 0.0000
vt 0.5938 0.7734 0.0000
vt 0.5938 0.6641 0.0000
vt 0.6641 0.6641 0.0000
vt 0.6641 0.7316 0.0000
vt 0.7422 0.7316 0.0000
vt 0.7422 0.7734 0.0000
vt 0.6641 0.7734 0.0000
vt 0.7422 0.6641 0.0000
vt 0.4688 0.7734 0.0000
vt 0.4688 0.7316 0.0000
vt 0.4688 0.6641 0.0000
vt 0.5313 0.6641 0.0000
vt 0.4063 0.7734 0.0000
vt 0.4063 0.7316 0.0000
vt 0.4063 0.6641 0.0000
vt 0.8828 0.7316 0.0000
vt 0.8828 0.7734 0.0000
vt 0.8125 0.7734 0.0000
vt 0.8125 0.7316 0.0000
vt 0.8125 0.6641 0.0000
vt 0.8828 0.6641 0.0000
vt 0.9688 0.7316 0.0000
vt 0.9688 0.7734 0.0000
vt 0.9688 0.6641 0.0000
vt 0.6591 0.5469 0.0000
vt 0.7188 0.5469 0.0000
vt 0.7188 0.6406 0.0000
vt 0.6591 0.6406 0.0000
vt 0.6179 0.6406 0.0000
vt 0.5781 0.6406 0.0000
vt 0.5781 0.5469 0.0000
vt 0.6179 0.5469 0.0000
# 35 texture coords

o Rocher_B
g Rocher_B
s 2
f 2/1/1 4/2/2 20/3/3 21/4/4 
f 20/3/5 19/5/6 5/6/7 3/7/8 
f 8/8/9 7/9/10 1/10/11 3/7/12 
f 3/7/13 5/6/14 9/11/15 8/8/16 
f 10/12/17 11/13/18 4/2/19 2/1/20 
f 4/2/21 11/13/22 12/14/23 6/15/24 
f 10/12/25 22/16/26 23/17/27 11/13/28 
f 12/14/29 11/13/30 23/17/31 24/18/32 
f 14/19/33 13/20/34 18/21/35 17/22/36 
f 17/22/37 16/23/38 15/24/39 14/19/40 
f 7/9/41 8/8/42 17/22/43 18/21/44 
f 17/22/45 8/8/46 9/11/47 16/23/48 
f 20/3/49 3/7/50 1/10/51 21/4/52 
f 20/3/53 4/2/54 6/15/55 19/5/56 
f 13/20/57 14/19/58 23/25/59 22/26/60 
f 14/19/61 15/24/62 24/27/63 23/25/64 
s 1
f 6/28/65 12/29/66 24/30/67 15/31/68 
f 16/32/69 9/33/70 5/34/71 19/35/72 
f 15/31/73 16/32/74 19/35/75 6/28/76 
# 19 polygons

