# 3ds Max Wavefront OBJ Exporter v0.99 - (c)2007 guruware
# File Created: 09.05.2022 12:15:37

#
# object Box203
#

v  0.0405 0.0000 -0.1841
v  0.4480 0.0000 -0.1968
v  0.0865 0.0000 -0.2710
v  0.4358 -0.0112 -0.2783
v  -0.1737 0.4082 -0.2417
v  0.0896 0.2799 -0.2185
v  -0.0608 0.3631 -0.2957
v  0.1664 0.2611 -0.2753
v  0.2484 0.1233 -0.2013
v  -0.0265 0.2193 -0.2005
v  0.1111 0.0769 -0.2798
v  0.2761 0.1225 -0.2698
v  -0.4674 -0.0000 -0.4695
v  -0.7626 -0.0000 -0.4597
v  -0.4605 -0.0000 -0.3569
v  -0.7461 -0.0151 -0.3451
v  -0.8032 0.3864 -0.4011
v  -0.8705 0.3545 -0.4262
v  -0.7722 0.3970 -0.3517
v  -0.8400 0.3350 -0.3486
v  -0.8445 0.1617 -0.4618
v  -0.6720 0.2595 -0.4478
v  -0.7064 0.2801 -0.3416
v  -0.8260 0.1611 -0.3478
v  -0.4206 -0.0000 -0.0487
v  -0.7857 -0.0000 -0.1908
v  -0.9809 -0.0000 0.2074
v  -1.5347 -0.0000 -0.0472
v  -0.9293 0.4942 0.0632
v  -1.0664 0.3739 -0.1130
v  -1.6381 0.7364 0.3947
v  -1.6375 0.5116 0.1881
v  -1.0265 0.3167 -0.1198
v  -0.6439 0.2401 0.0129
v  -1.2204 0.3285 0.3802
v  -1.7279 0.3594 0.1332
# 36 vertices

vn -0.6002 -0.6201 0.5052
vn -0.5086 -0.5548 -0.6584
vn 0.7213 -0.3738 -0.5830
vn 0.8556 -0.1551 0.4938
vn -0.8321 0.5517 0.0579
vn 0.2555 0.5594 0.7885
vn 0.6606 0.6560 -0.3649
vn -0.0355 0.5749 -0.8175
vn -0.6002 -0.6201 0.5052
vn 0.8556 -0.1551 0.4938
vn 0.3741 0.5069 0.7766
vn -0.6226 -0.2906 0.7266
vn 0.8556 -0.1551 0.4938
vn 0.7213 -0.3738 -0.5830
vn 0.5607 0.5844 -0.5867
vn 0.3741 0.5069 0.7766
vn 0.7213 -0.3738 -0.5830
vn -0.5086 -0.5548 -0.6584
vn -0.1575 -0.0792 -0.9843
vn 0.5607 0.5844 -0.5867
vn -0.5086 -0.5548 -0.6584
vn -0.6002 -0.6201 0.5052
vn -0.6226 -0.2906 0.7266
vn -0.1575 -0.0792 -0.9843
vn 0.3741 0.5069 0.7766
vn 0.2555 0.5594 0.7885
vn -0.8321 0.5517 0.0579
vn -0.6226 -0.2906 0.7266
vn 0.5607 0.5844 -0.5867
vn 0.6606 0.6560 -0.3649
vn 0.2555 0.5594 0.7885
vn 0.3741 0.5069 0.7766
vn -0.1575 -0.0792 -0.9843
vn -0.0355 0.5749 -0.8175
vn 0.6606 0.6560 -0.3649
vn 0.5607 0.5844 -0.5867
vn -0.6226 -0.2906 0.7266
vn -0.8321 0.5517 0.0579
vn -0.0355 0.5749 -0.8175
vn -0.1575 -0.0792 -0.9843
vn 0.7191 -0.3594 -0.5947
vn 0.7983 -0.3242 0.5075
vn -0.3636 -0.7113 0.6015
vn -0.4660 -0.6531 -0.5969
vn -0.0266 0.8895 -0.4562
vn -0.7298 0.4822 -0.4846
vn -0.5804 0.2232 0.7831
vn 0.3289 0.8674 0.3735
vn 0.7191 -0.3594 -0.5947
vn -0.4660 -0.6531 -0.5969
vn -0.7315 -0.1800 -0.6576
vn 0.5225 0.5786 -0.6262
vn -0.4660 -0.6531 -0.5969
vn -0.3636 -0.7113 0.6015
vn -0.6821 -0.1745 0.7102
vn -0.7315 -0.1800 -0.6576
vn -0.3636 -0.7113 0.6015
vn 0.7983 -0.3242 0.5075
vn 0.4803 0.3501 0.8042
vn -0.6821 -0.1745 0.7102
vn 0.7983 -0.3242 0.5075
vn 0.7191 -0.3594 -0.5947
vn 0.5225 0.5786 -0.6262
vn 0.4803 0.3501 0.8042
vn -0.7315 -0.1800 -0.6576
vn -0.7298 0.4822 -0.4846
vn -0.0266 0.8895 -0.4562
vn 0.5225 0.5786 -0.6262
vn -0.6821 -0.1745 0.7102
vn -0.5804 0.2232 0.7831
vn -0.7298 0.4822 -0.4846
vn -0.7315 -0.1800 -0.6576
vn 0.4803 0.3501 0.8042
vn 0.3289 0.8674 0.3735
vn -0.5804 0.2232 0.7831
vn -0.6821 -0.1745 0.7102
vn 0.5225 0.5786 -0.6262
vn -0.0266 0.8895 -0.4562
vn 0.3289 0.8674 0.3735
vn 0.4803 0.3501 0.8042
vn 0.9567 -0.2778 -0.0868
vn 0.1165 -0.7557 0.6444
vn -0.6902 -0.6056 -0.3960
vn 0.1633 -0.5129 -0.8428
vn 0.5173 0.8556 0.0162
vn -0.0879 0.3610 -0.9284
vn -0.3921 0.5807 -0.7134
vn -0.5968 0.6728 0.4373
vn 0.9567 -0.2778 -0.0868
vn 0.1633 -0.5129 -0.8428
vn 0.0118 0.1728 -0.9849
vn 0.7200 0.6935 0.0251
vn 0.1633 -0.5129 -0.8428
vn -0.6902 -0.6056 -0.3960
vn -0.9993 0.0277 -0.0266
vn 0.0118 0.1728 -0.9849
vn -0.6902 -0.6056 -0.3960
vn 0.1165 -0.7557 0.6444
vn 0.1240 -0.1059 0.9866
vn -0.9993 0.0277 -0.0266
vn 0.1165 -0.7557 0.6444
vn 0.9567 -0.2778 -0.0868
vn 0.7200 0.6935 0.0251
vn 0.1240 -0.1059 0.9866
vn 0.0118 0.1728 -0.9849
vn -0.0879 0.3610 -0.9284
vn 0.5173 0.8556 0.0162
vn 0.7200 0.6935 0.0251
vn -0.9993 0.0277 -0.0266
vn -0.3921 0.5807 -0.7134
vn -0.0879 0.3610 -0.9284
vn 0.0118 0.1728 -0.9849
vn 0.1240 -0.1059 0.9866
vn -0.5968 0.6728 0.4373
vn -0.3921 0.5807 -0.7134
vn -0.9993 0.0277 -0.0266
vn 0.7200 0.6935 0.0251
vn 0.5173 0.8556 0.0162
vn -0.5968 0.6728 0.4373
vn 0.1240 -0.1059 0.9866
# 120 vertex normals

vt 1.0000 0.0000 0.0000
vt 0.0000 0.0000 0.0000
vt 1.0000 1.0000 0.0000
vt 0.0000 1.0000 0.0000
vt 0.0000 0.0000 0.0000
vt 1.0000 0.0000 0.0000
vt 0.0000 1.0000 0.0000
vt 1.0000 1.0000 0.0000
vt 0.0000 0.0000 0.0000
vt 1.0000 0.0000 0.0000
vt 0.0000 1.0000 0.0000
vt 1.0000 1.0000 0.0000
vt 0.0000 0.0000 0.0000
vt 1.0000 0.0000 0.0000
vt 0.0000 1.0000 0.0000
vt 1.0000 1.0000 0.0000
vt 0.0000 0.0000 0.0000
vt 1.0000 0.0000 0.0000
vt 0.0000 1.0000 0.0000
vt 1.0000 1.0000 0.0000
vt 0.0000 0.0000 0.0000
vt 1.0000 0.0000 0.0000
vt 0.0000 1.0000 0.0000
vt 1.0000 1.0000 0.0000
vt 1.0000 0.4806 0.0000
vt 0.0000 0.4806 0.0000
vt 0.0000 0.4806 0.0000
vt 1.0000 0.4806 0.0000
vt 1.0000 0.4806 0.0000
vt 0.0000 0.4806 0.0000
vt 1.0000 0.4806 0.0000
vt 0.0000 0.4806 0.0000
vt 1.0000 0.0000 0.0000
vt 0.0000 0.0000 0.0000
vt 1.0000 1.0000 0.0000
vt 0.0000 1.0000 0.0000
vt 0.0000 0.0000 0.0000
vt 1.0000 0.0000 0.0000
vt 0.0000 1.0000 0.0000
vt 1.0000 1.0000 0.0000
vt 0.0000 0.0000 0.0000
vt 1.0000 0.0000 0.0000
vt 0.0000 1.0000 0.0000
vt 1.0000 1.0000 0.0000
vt 0.0000 0.0000 0.0000
vt 1.0000 0.0000 0.0000
vt 0.0000 1.0000 0.0000
vt 1.0000 1.0000 0.0000
vt 0.0000 0.0000 0.0000
vt 1.0000 0.0000 0.0000
vt 0.0000 1.0000 0.0000
vt 1.0000 1.0000 0.0000
vt 0.0000 0.0000 0.0000
vt 1.0000 0.0000 0.0000
vt 0.0000 1.0000 0.0000
vt 1.0000 1.0000 0.0000
vt 1.0000 0.4806 0.0000
vt 0.0000 0.4806 0.0000
vt 0.0000 0.4806 0.0000
vt 1.0000 0.4806 0.0000
vt 1.0000 0.4806 0.0000
vt 0.0000 0.4806 0.0000
vt 1.0000 0.4806 0.0000
vt 0.0000 0.4806 0.0000
vt 1.0000 0.0000 0.0000
vt 0.0000 0.0000 0.0000
vt 1.0000 1.0000 0.0000
vt 0.0000 1.0000 0.0000
vt 0.0000 0.0000 0.0000
vt 1.0000 0.0000 0.0000
vt 0.0000 1.0000 0.0000
vt 1.0000 1.0000 0.0000
vt 0.0000 0.0000 0.0000
vt 1.0000 0.0000 0.0000
vt 0.0000 1.0000 0.0000
vt 1.0000 1.0000 0.0000
vt 0.0000 0.0000 0.0000
vt 1.0000 0.0000 0.0000
vt 0.0000 1.0000 0.0000
vt 1.0000 1.0000 0.0000
vt 0.0000 0.0000 0.0000
vt 1.0000 0.0000 0.0000
vt 0.0000 1.0000 0.0000
vt 1.0000 1.0000 0.0000
vt 0.0000 0.0000 0.0000
vt 1.0000 0.0000 0.0000
vt 0.0000 1.0000 0.0000
vt 1.0000 1.0000 0.0000
vt 1.0000 0.4806 0.0000
vt 0.0000 0.4806 0.0000
vt 0.0000 0.4806 0.0000
vt 1.0000 0.4806 0.0000
vt 1.0000 0.4806 0.0000
vt 0.0000 0.4806 0.0000
vt 1.0000 0.4806 0.0000
vt 0.0000 0.4806 0.0000
# 96 texture coords

o Box203
g Box203
s 2
f 1/1/1 3/3/2 4/4/3 2/2/4 
s 4
f 5/5/5 6/6/6 8/8/7 7/7/8 
s 8
f 1/9/9 2/10/10 9/25/11 10/27/12 
s 16
f 2/13/13 4/14/14 12/31/15 9/26/16 
s 32
f 4/17/17 3/18/18 11/29/19 12/32/20 
s 64
f 3/21/21 1/22/22 10/28/23 11/30/24 
s 8
f 9/25/25 6/12/26 5/11/27 10/27/28 
s 16
f 12/31/29 8/16/30 6/15/31 9/26/32 
s 32
f 11/29/33 7/20/34 8/19/35 12/32/36 
s 64
f 10/28/37 5/24/38 7/23/39 11/30/40 
s 2
f 13/33/41 15/35/42 16/36/43 14/34/44 
s 4
f 17/37/45 18/38/46 20/40/47 19/39/48 
s 8
f 13/41/49 14/42/50 21/57/51 22/59/52 
s 16
f 14/45/53 16/46/54 24/63/55 21/58/56 
s 32
f 16/49/57 15/50/58 23/61/59 24/64/60 
s 64
f 15/53/61 13/54/62 22/60/63 23/62/64 
s 8
f 21/57/65 18/44/66 17/43/67 22/59/68 
s 16
f 24/63/69 20/48/70 18/47/71 21/58/72 
s 32
f 23/61/73 19/52/74 20/51/75 24/64/76 
s 64
f 22/60/77 17/56/78 19/55/79 23/62/80 
s 2
f 25/65/81 27/67/82 28/68/83 26/66/84 
s 4
f 29/69/85 30/70/86 32/72/87 31/71/88 
s 8
f 25/73/89 26/74/90 33/89/91 34/91/92 
s 16
f 26/77/93 28/78/94 36/95/95 33/90/96 
s 32
f 28/81/97 27/82/98 35/93/99 36/96/100 
s 64
f 27/85/101 25/86/102 34/92/103 35/94/104 
s 8
f 33/89/105 30/76/106 29/75/107 34/91/108 
s 16
f 36/95/109 32/80/110 30/79/111 33/90/112 
s 32
f 35/93/113 31/84/114 32/83/115 36/96/116 
s 64
f 34/92/117 29/88/118 31/87/119 35/94/120 
# 30 polygons

