# 3ds Max Wavefront OBJ Exporter v0.99 - (c)2007 guruware
# File Created: 09.05.2022 12:17:08

#
# object Box197
#

v  0.5252 -0.0000 0.6994
v  1.3851 -0.0000 0.5235
v  0.3885 -0.0000 -0.3643
v  1.6988 -0.0000 -0.2860
v  -0.5595 1.2856 0.5775
v  0.4886 0.8340 0.5210
v  -0.9427 1.7555 -0.9952
v  0.0962 1.0813 -0.6237
v  0.6053 0.7011 0.5124
v  -0.1096 0.6277 0.6898
v  -0.6144 0.8135 -0.8086
v  0.6935 0.6930 -0.6527
# 12 vertices

vn -0.1799 -0.6414 0.7458
vn -0.2558 -0.8597 -0.4421
vn 0.9207 -0.2390 -0.3086
vn 0.7033 -0.3404 0.6241
vn -0.6056 0.4565 0.6518
vn 0.5040 0.5783 0.6415
vn 0.5453 0.8382 -0.0043
vn -0.5133 0.6594 -0.5493
vn -0.1799 -0.6414 0.7458
vn 0.7033 -0.3404 0.6241
vn 0.5624 0.5543 0.6136
vn -0.4357 -0.2951 0.8503
vn 0.7033 -0.3404 0.6241
vn 0.9207 -0.2390 -0.3086
vn 0.4977 0.4093 -0.7647
vn 0.5624 0.5543 0.6136
vn 0.9207 -0.2390 -0.3086
vn -0.2558 -0.8597 -0.4421
vn -0.6442 -0.5269 -0.5544
vn 0.4977 0.4093 -0.7647
vn -0.2558 -0.8597 -0.4421
vn -0.1799 -0.6414 0.7458
vn -0.4357 -0.2951 0.8503
vn -0.6442 -0.5269 -0.5544
vn 0.5624 0.5543 0.6136
vn 0.5040 0.5783 0.6415
vn -0.6056 0.4565 0.6518
vn -0.4357 -0.2951 0.8503
vn 0.4977 0.4093 -0.7647
vn 0.5453 0.8382 -0.0043
vn 0.5040 0.5783 0.6415
vn 0.5624 0.5543 0.6136
vn -0.6442 -0.5269 -0.5544
vn -0.5133 0.6594 -0.5493
vn 0.5453 0.8382 -0.0043
vn 0.4977 0.4093 -0.7647
vn -0.4357 -0.2951 0.8503
vn -0.6056 0.4565 0.6518
vn -0.5133 0.6594 -0.5493
vn -0.6442 -0.5269 -0.5544
# 40 vertex normals

vt 1.0000 0.0000 0.0000
vt 0.0000 0.0000 0.0000
vt 1.0000 1.0000 0.0000
vt 0.0000 1.0000 0.0000
vt 0.0000 0.0000 0.0000
vt 1.0000 0.0000 0.0000
vt 0.0000 1.0000 0.0000
vt 1.0000 1.0000 0.0000
vt 0.0000 0.0000 0.0000
vt 1.0000 0.0000 0.0000
vt 0.0000 1.0000 0.0000
vt 1.0000 1.0000 0.0000
vt 0.0000 0.0000 0.0000
vt 1.0000 0.0000 0.0000
vt 0.0000 1.0000 0.0000
vt 1.0000 1.0000 0.0000
vt 0.0000 0.0000 0.0000
vt 1.0000 0.0000 0.0000
vt 0.0000 1.0000 0.0000
vt 1.0000 1.0000 0.0000
vt 0.0000 0.0000 0.0000
vt 1.0000 0.0000 0.0000
vt 0.0000 1.0000 0.0000
vt 1.0000 1.0000 0.0000
vt 1.0000 0.4806 0.0000
vt 0.0000 0.4806 0.0000
vt 0.0000 0.4806 0.0000
vt 1.0000 0.4806 0.0000
vt 1.0000 0.4806 0.0000
vt 0.0000 0.4806 0.0000
vt 1.0000 0.4806 0.0000
vt 0.0000 0.4806 0.0000
# 32 texture coords

o Box197
g Box197
s 2
f 1/1/1 3/3/2 4/4/3 2/2/4 
s 4
f 5/5/5 6/6/6 8/8/7 7/7/8 
s 8
f 1/9/9 2/10/10 9/25/11 10/27/12 
s 16
f 2/13/13 4/14/14 12/31/15 9/26/16 
s 32
f 4/17/17 3/18/18 11/29/19 12/32/20 
s 64
f 3/21/21 1/22/22 10/28/23 11/30/24 
s 8
f 9/25/25 6/12/26 5/11/27 10/27/28 
s 16
f 12/31/29 8/16/30 6/15/31 9/26/32 
s 32
f 11/29/33 7/20/34 8/19/35 12/32/36 
s 64
f 10/28/37 5/24/38 7/23/39 11/30/40 
# 10 polygons

