# 3ds Max Wavefront OBJ Exporter v0.99 - (c)2007 guruware
# File Created: 18.04.2022 20:50:02

#
# object Box107
#

v  -0.0060 0.0000 0.0082
v  0.0060 0.0000 0.0082
v  0.0060 0.0000 -0.0082
v  0.0090 0.1448 0.0053
v  0.0166 0.1448 0.0053
v  0.0166 0.1448 -0.0053
v  0.0156 0.2656 0.0053
v  0.0232 0.2656 0.0053
v  0.0232 0.2656 -0.0053
v  0.0128 0.3555 0.0122
v  0.0205 0.3555 0.0122
v  0.0205 0.3555 0.0017
v  0.0188 0.3707 0.0872
v  0.0455 0.4090 0.0526
v  0.0300 0.4036 -0.0056
v  0.0033 0.3647 0.0823
v  0.0105 0.3954 0.0414
v  0.0194 0.3995 -0.0090
v  -0.0130 0.3707 0.0816
v  -0.0263 0.4090 0.0400
v  0.0083 0.4036 -0.0094
v  0.0685 0.3487 0.0503
v  0.0671 0.3793 0.0153
v  0.0276 0.3750 -0.0123
v  0.0565 0.3439 0.0553
v  0.0399 0.3685 0.0265
v  0.0194 0.3717 -0.0090
v  0.0461 0.3487 0.0632
v  0.0166 0.3793 0.0445
v  0.0123 0.3750 -0.0035
v  -0.2056 0.4102 -0.0101
v  -0.0531 0.4387 0.0354
v  0.0269 0.4104 0.0115
v  -0.2047 0.4063 -0.0209
v  -0.0496 0.4228 -0.0077
v  0.0280 0.4055 -0.0018
v  -0.2039 0.4109 -0.0315
v  -0.0461 0.4412 -0.0497
v  0.0291 0.4112 -0.0148
v  -0.0798 0.3750 0.0079
v  -0.0393 0.4150 0.0291
v  0.0178 0.4093 0.0025
v  -0.0775 0.3687 -0.0090
v  -0.0341 0.4008 -0.0090
v  0.0194 0.4051 -0.0090
v  -0.0798 0.3750 -0.0259
v  -0.0393 0.4150 -0.0471
v  0.0178 0.4093 -0.0205
v  -0.0327 0.3532 0.0524
v  0.0030 0.3852 0.0446
v  0.0243 0.3807 -0.0011
v  -0.0400 0.3482 0.0409
v  -0.0134 0.3739 0.0186
v  0.0194 0.3773 -0.0090
v  -0.0501 0.3532 0.0317
v  -0.0362 0.3852 -0.0022
v  0.0125 0.3807 -0.0152
v  -0.0533 0.3577 -0.0515
v  -0.0387 0.3911 -0.0161
v  0.0122 0.3864 -0.0024
v  -0.0427 0.3524 -0.0611
v  -0.0149 0.3793 -0.0377
v  0.0194 0.3828 -0.0090
v  -0.0351 0.3577 -0.0731
v  0.0023 0.3911 -0.0650
v  0.0246 0.3864 -0.0172
v  0.0499 0.3621 -0.0915
v  0.0162 0.3971 -0.0701
v  0.0113 0.3921 -0.0152
v  0.0617 0.3566 -0.0824
v  0.0428 0.3847 -0.0495
v  0.0194 0.3884 -0.0090
v  0.0756 0.3621 -0.0767
v  0.0739 0.3971 -0.0367
v  0.0288 0.3921 -0.0051
v  0.1235 0.3681 -0.2065
v  0.0177 0.4265 -0.0898
v  0.0018 0.4108 -0.0010
v  0.1327 0.3637 -0.2002
v  0.0546 0.4090 -0.0649
v  0.0132 0.4053 0.0067
v  0.1427 0.3681 -0.1953
v  0.0945 0.4265 -0.0454
v  0.0256 0.4108 0.0128
v  0.1099 0.3664 0.0075
v  0.0817 0.4030 -0.0234
v  0.0243 0.3979 -0.0184
v  0.1026 0.3607 0.0213
v  0.0654 0.3900 0.0078
v  0.0194 0.3939 -0.0090
v  0.0993 0.3664 0.0366
v  0.0579 0.4030 0.0422
v  0.0171 0.3979 0.0014
v  0.1472 0.4322 0.1989
v  0.0926 0.4492 0.0358
v  0.0252 0.4110 -0.0178
v  0.1375 0.4276 0.2050
v  0.0539 0.4310 0.0600
v  0.0132 0.4053 -0.0103
v  0.1274 0.4322 0.2103
v  0.0135 0.4492 0.0815
v  0.0007 0.4110 -0.0037
v  0.0834 0.3441 -0.0454
v  0.0502 0.3734 -0.0499
v  0.0176 0.3693 -0.0173
v  0.0860 0.3395 -0.0332
v  0.0562 0.3630 -0.0224
v  0.0194 0.3662 -0.0090
v  0.0918 0.3441 -0.0222
v  0.0693 0.3734 0.0026
v  0.0233 0.3693 -0.0014
v  -0.0044 0.3395 -0.0753
v  -0.0141 0.3676 -0.0448
v  0.0112 0.3636 -0.0086
v  0.0076 0.3351 -0.0758
v  0.0129 0.3576 -0.0459
v  0.0194 0.3606 -0.0090
v  0.0190 0.3395 -0.0794
v  0.0385 0.3676 -0.0541
v  0.0271 0.3636 -0.0114
# 120 vertices

vn 0.7103 -0.0387 0.7029
vn -0.8868 0.0757 0.4559
vn -0.8927 0.1010 0.4391
vn 0.6847 -0.0356 0.7279
vn 0.3146 -0.0110 -0.9492
vn 0.7103 -0.0387 0.7029
vn 0.6847 -0.0356 0.7279
vn 0.2639 0.0002 -0.9645
vn -0.8868 0.0757 0.4559
vn 0.3146 -0.0110 -0.9492
vn 0.2639 0.0002 -0.9645
vn -0.8927 0.1010 0.4391
vn 0.7248 -0.0347 0.6880
vn -0.8947 -0.0062 0.4467
vn -0.8868 0.0757 0.4559
vn 0.7103 -0.0387 0.7029
vn 0.3244 0.0311 -0.9454
vn 0.7248 -0.0347 0.6880
vn 0.7103 -0.0387 0.7029
vn 0.3146 -0.0110 -0.9492
vn -0.8947 -0.0062 0.4467
vn 0.3244 0.0311 -0.9454
vn 0.3146 -0.0110 -0.9492
vn -0.8868 0.0757 0.4559
vn 0.6827 -0.0354 0.7299
vn -0.8751 -0.0636 0.4798
vn -0.8947 -0.0062 0.4467
vn 0.7248 -0.0347 0.6880
vn 0.3039 0.0824 -0.9491
vn 0.6827 -0.0354 0.7299
vn 0.7248 -0.0347 0.6880
vn 0.3244 0.0311 -0.9454
vn 0.3039 0.0824 -0.9491
vn 0.3244 0.0311 -0.9454
vn -0.8947 -0.0062 0.4467
vn -0.8751 -0.0636 0.4798
vn -0.0611 0.9361 0.3463
vn -0.1034 0.8036 0.5862
vn -0.4465 0.7511 0.4863
vn -0.4211 0.8669 0.2666
vn -0.0138 0.9968 0.0785
vn -0.0611 0.9361 0.3463
vn -0.4211 0.8669 0.2666
vn -0.3644 0.9312 0.0113
vn 0.3046 0.8669 0.3945
vn 0.2532 0.7511 0.6096
vn -0.1034 0.8036 0.5862
vn -0.0611 0.9361 0.3463
vn 0.3386 0.9312 0.1353
vn 0.3046 0.8669 0.3945
vn -0.0611 0.9361 0.3463
vn -0.0138 0.9968 0.0785
vn 0.1758 0.9361 0.3045
vn 0.2976 0.8036 0.5155
vn -0.0294 0.7511 0.6595
vn -0.1513 0.8669 0.4749
vn 0.0398 0.9968 0.0690
vn 0.1758 0.9361 0.3045
vn -0.1513 0.8669 0.4749
vn -0.2719 0.9312 0.2429
vn 0.4869 0.8669 0.1065
vn 0.5858 0.7511 0.3042
vn 0.2976 0.8036 0.5155
vn 0.1758 0.9361 0.3045
vn 0.3463 0.9312 -0.1140
vn 0.4869 0.8669 0.1065
vn 0.1758 0.9361 0.3045
vn 0.0398 0.9968 0.0690
vn 0.0564 0.9978 0.0345
vn -0.1079 0.9939 0.0209
vn -0.0699 0.9342 -0.3499
vn 0.0689 0.9379 -0.3400
vn 0.2147 0.9755 0.0468
vn 0.0564 0.9978 0.0345
vn 0.0689 0.9379 -0.3400
vn 0.2298 0.9191 -0.3199
vn 0.0564 0.9978 0.0345
vn 0.0079 0.9157 0.4018
vn -0.1306 0.9121 0.3887
vn -0.1079 0.9939 0.0209
vn 0.1701 0.8974 0.4071
vn 0.0079 0.9157 0.4018
vn 0.0564 0.9978 0.0345
vn 0.2147 0.9755 0.0468
vn -0.3516 0.9361 0.0000
vn -0.5952 0.8036 -0.0000
vn -0.5564 0.7511 -0.3552
vn -0.3357 0.8669 -0.3684
vn -0.0797 0.9968 -0.0000
vn -0.3516 0.9361 0.0000
vn -0.3357 0.8669 -0.3684
vn -0.0744 0.9312 -0.3570
vn -0.3357 0.8669 0.3684
vn -0.5564 0.7511 0.3552
vn -0.5952 0.8036 -0.0000
vn -0.3516 0.9361 0.0000
vn -0.0744 0.9312 0.3570
vn -0.3357 0.8669 0.3684
vn -0.3516 0.9361 0.0000
vn -0.0797 0.9968 -0.0000
vn -0.2694 0.9361 0.2260
vn -0.4560 0.8036 0.3826
vn -0.6546 0.7511 0.0855
vn -0.4940 0.8669 -0.0665
vn -0.0610 0.9968 0.0512
vn -0.2694 0.9361 0.2260
vn -0.4940 0.8669 -0.0665
vn -0.2864 0.9312 -0.2256
vn -0.0203 0.8669 0.4980
vn -0.1979 0.7511 0.6298
vn -0.4560 0.8036 0.3826
vn -0.2694 0.9361 0.2260
vn 0.1724 0.9312 0.3213
vn -0.0203 0.8669 0.4980
vn -0.2694 0.9361 0.2260
vn -0.0610 0.9968 0.0512
vn -0.2694 0.9361 -0.2260
vn -0.4560 0.8036 -0.3826
vn -0.1979 0.7511 -0.6298
vn -0.0203 0.8669 -0.4980
vn -0.0610 0.9968 -0.0512
vn -0.2694 0.9361 -0.2260
vn -0.0203 0.8669 -0.4980
vn 0.1724 0.9312 -0.3213
vn -0.4940 0.8669 0.0665
vn -0.6546 0.7511 -0.0855
vn -0.4560 0.8036 -0.3826
vn -0.2694 0.9361 -0.2260
vn -0.2864 0.9312 0.2256
vn -0.4940 0.8669 0.0665
vn -0.2694 0.9361 -0.2260
vn -0.0610 0.9968 -0.0512
vn 0.1758 0.9361 -0.3045
vn 0.2976 0.8036 -0.5155
vn 0.5858 0.7511 -0.3042
vn 0.4869 0.8669 -0.1065
vn 0.0398 0.9968 -0.0690
vn 0.1758 0.9361 -0.3045
vn 0.4869 0.8669 -0.1065
vn 0.3463 0.9312 0.1140
vn -0.1513 0.8669 -0.4749
vn -0.0294 0.7511 -0.6595
vn 0.2976 0.8036 -0.5155
vn 0.1758 0.9361 -0.3045
vn -0.2719 0.9312 -0.2429
vn -0.1513 0.8669 -0.4749
vn 0.1758 0.9361 -0.3045
vn 0.0398 0.9968 -0.0690
vn 0.0582 0.9932 -0.1008
vn 0.1391 0.9606 -0.2408
vn 0.4502 0.8921 -0.0383
vn 0.3834 0.9201 0.0805
vn -0.0219 0.9990 0.0380
vn 0.0582 0.9932 -0.1008
vn 0.3834 0.9201 0.0805
vn 0.2956 0.9301 0.2178
vn 0.0582 0.9932 -0.1008
vn -0.2614 0.9201 -0.2918
vn -0.1919 0.8921 -0.4091
vn 0.1391 0.9606 -0.2408
vn -0.3364 0.9301 -0.1471
vn -0.2614 0.9201 -0.2918
vn 0.0582 0.9932 -0.1008
vn -0.0219 0.9990 0.0380
vn 0.3304 0.9361 0.1203
vn 0.5593 0.8036 0.2036
vn 0.4013 0.7511 0.5241
vn 0.1894 0.8669 0.4610
vn 0.0749 0.9968 0.0272
vn 0.3304 0.9361 0.1203
vn 0.1894 0.8669 0.4610
vn -0.0522 0.9312 0.3609
vn 0.4414 0.8669 -0.2314
vn 0.6443 0.7511 -0.1435
vn 0.5593 0.8036 0.2036
vn 0.3304 0.9361 0.1203
vn 0.1920 0.9312 -0.3100
vn 0.4414 0.8669 -0.2314
vn 0.3304 0.9361 0.1203
vn 0.0749 0.9968 0.0272
vn -0.0723 0.9895 -0.1252
vn 0.0100 0.9998 0.0173
vn -0.3118 0.9286 0.2015
vn -0.3826 0.9203 0.0819
vn -0.1505 0.9536 -0.2606
vn -0.0723 0.9895 -0.1252
vn -0.3826 0.9203 0.0819
vn -0.4561 0.8879 -0.0602
vn -0.0723 0.9895 -0.1252
vn 0.2622 0.9203 -0.2904
vn 0.3304 0.9286 -0.1693
vn 0.0100 0.9998 0.0173
vn 0.1759 0.8879 -0.4251
vn 0.2622 0.9203 -0.2904
vn -0.0723 0.9895 -0.1252
vn -0.1505 0.9536 -0.2606
vn 0.3304 0.9361 -0.1203
vn 0.5593 0.8036 -0.2036
vn 0.6443 0.7511 0.1435
vn 0.4414 0.8669 0.2314
vn 0.0749 0.9968 -0.0272
vn 0.3304 0.9361 -0.1203
vn 0.4414 0.8669 0.2314
vn 0.1920 0.9312 0.3100
vn 0.1894 0.8669 -0.4610
vn 0.4013 0.7511 -0.5241
vn 0.5593 0.8036 -0.2036
vn 0.3304 0.9361 -0.1203
vn -0.0522 0.9312 -0.3609
vn 0.1894 0.8669 -0.4610
vn 0.3304 0.9361 -0.1203
vn 0.0749 0.9968 -0.0272
vn -0.0611 0.9361 -0.3463
vn -0.1034 0.8036 -0.5862
vn 0.2532 0.7511 -0.6096
vn 0.3046 0.8669 -0.3945
vn -0.0138 0.9968 -0.0785
vn -0.0611 0.9361 -0.3463
vn 0.3046 0.8669 -0.3945
vn 0.3386 0.9312 -0.1353
vn -0.4211 0.8669 -0.2666
vn -0.4465 0.7511 -0.4863
vn -0.1034 0.8036 -0.5862
vn -0.0611 0.9361 -0.3463
vn -0.3644 0.9312 -0.0113
vn -0.4211 0.8669 -0.2666
vn -0.0611 0.9361 -0.3463
vn -0.0138 0.9968 -0.0785
# 228 vertex normals

vt 0.1250 0.6875 0.0000
vt 0.0941 0.6875 0.0000
vt 0.0941 0.4465 0.0000
vt 0.1250 0.4465 0.0000
vt 0.0520 0.6875 0.0000
vt 0.0520 0.4465 0.0000
vt 0.0000 0.6875 0.0000
vt 0.0000 0.4465 0.0000
vt 0.0941 0.2982 0.0000
vt 0.1250 0.2982 0.0000
vt 0.0520 0.2982 0.0000
vt 0.0000 0.2982 0.0000
vt 0.0941 0.1875 0.0000
vt 0.1250 0.1875 0.0000
vt 0.0520 0.1875 0.0000
vt 0.0000 0.1875 0.0000
vt 0.5986 0.7500 0.0000
vt 0.5625 0.6565 0.0000
vt 0.6250 0.6565 0.0000
vt 0.6250 0.7500 0.0000
vt 0.6071 0.5625 0.0000
vt 0.6250 0.5625 0.0000
vt 0.6875 0.6565 0.0000
vt 0.6506 0.7500 0.0000
vt 0.6437 0.5625 0.0000
vt 0.8486 0.5000 0.0000
vt 0.8125 0.4377 0.0000
vt 0.8750 0.4377 0.0000
vt 0.8750 0.5000 0.0000
vt 0.8571 0.3750 0.0000
vt 0.8750 0.3750 0.0000
vt 0.9375 0.4377 0.0000
vt 0.9006 0.5000 0.0000
vt 0.8937 0.3750 0.0000
vt 0.6955 0.4375 0.0000
vt 0.6250 0.2721 0.0000
vt 0.7188 0.2721 0.0000
vt 0.7188 0.4375 0.0000
vt 0.6905 0.1875 0.0000
vt 0.7188 0.1875 0.0000
vt 0.7419 0.4375 0.0000
vt 0.8125 0.2721 0.0000
vt 0.7475 0.1875 0.0000
vt 0.3486 0.7500 0.0000
vt 0.3125 0.6877 0.0000
vt 0.3750 0.6877 0.0000
vt 0.3750 0.7500 0.0000
vt 0.3571 0.6250 0.0000
vt 0.3750 0.6250 0.0000
vt 0.4375 0.6877 0.0000
vt 0.4006 0.7500 0.0000
vt 0.3937 0.6250 0.0000
vt 0.6611 0.9375 0.0000
vt 0.6250 0.8752 0.0000
vt 0.6875 0.8752 0.0000
vt 0.6875 0.9375 0.0000
vt 0.6696 0.8125 0.0000
vt 0.6875 0.8125 0.0000
vt 0.7500 0.8752 0.0000
vt 0.7131 0.9375 0.0000
vt 0.7062 0.8125 0.0000
vt 0.4735 0.9375 0.0000
vt 0.4375 0.8436 0.0000
vt 0.5000 0.8436 0.0000
vt 0.5000 0.9375 0.0000
vt 0.4819 0.7500 0.0000
vt 0.5000 0.7500 0.0000
vt 0.5625 0.8436 0.0000
vt 0.5261 0.9375 0.0000
vt 0.5180 0.7500 0.0000
vt 0.1611 0.8750 0.0000
vt 0.1250 0.8119 0.0000
vt 0.1876 0.8119 0.0000
vt 0.1876 0.8750 0.0000
vt 0.1695 0.7500 0.0000
vt 0.1876 0.7500 0.0000
vt 0.2500 0.8119 0.0000
vt 0.2147 0.8750 0.0000
vt 0.2050 0.7500 0.0000
vt 0.4455 0.5625 0.0000
vt 0.3750 0.3552 0.0000
vt 0.4687 0.3552 0.0000
vt 0.4687 0.5625 0.0000
vt 0.4403 0.2500 0.0000
vt 0.4687 0.2500 0.0000
vt 0.4922 0.5625 0.0000
vt 0.5625 0.3552 0.0000
vt 0.4965 0.2500 0.0000
vt 0.7861 0.7500 0.0000
vt 0.7500 0.6869 0.0000
vt 0.8126 0.6869 0.0000
vt 0.8126 0.7500 0.0000
vt 0.7945 0.6250 0.0000
vt 0.8126 0.6250 0.0000
vt 0.8750 0.6869 0.0000
vt 0.8397 0.7500 0.0000
vt 0.8300 0.6250 0.0000
vt 0.2580 0.3750 0.0000
vt 0.1875 0.1677 0.0000
vt 0.2812 0.1677 0.0000
vt 0.2812 0.3750 0.0000
vt 0.2528 0.0625 0.0000
vt 0.2812 0.0625 0.0000
vt 0.3047 0.3750 0.0000
vt 0.3750 0.1677 0.0000
vt 0.3090 0.0625 0.0000
vt 0.8486 0.1875 0.0000
vt 0.8125 0.1244 0.0000
vt 0.8751 0.1244 0.0000
vt 0.8751 0.1875 0.0000
vt 0.8570 0.0625 0.0000
vt 0.8751 0.0625 0.0000
vt 0.9375 0.1244 0.0000
vt 0.9022 0.1875 0.0000
vt 0.8925 0.0625 0.0000
vt 0.9111 0.9375 0.0000
vt 0.8750 0.8744 0.0000
vt 0.9376 0.8744 0.0000
vt 0.9376 0.9375 0.0000
vt 0.9195 0.8125 0.0000
vt 0.9376 0.8125 0.0000
vt 1.0000 0.8744 0.0000
vt 0.9647 0.9375 0.0000
vt 0.9550 0.8125 0.0000
# 124 texture coords

o Box107
g Box107
s 8
f 5/3/1 4/4/2 1/1/3 2/2/4 
s 16
f 6/6/5 5/3/6 2/2/7 3/5/8 
s 96
f 4/8/9 6/6/10 3/5/11 1/7/12 
s off
f 8/9/13 7/10/14 4/4/15 5/3/16 
f 9/11/17 8/9/18 5/3/19 6/6/20 
f 7/12/21 9/11/22 6/6/23 4/8/24 
f 11/13/25 10/14/26 7/10/27 8/9/28 
f 12/15/29 11/13/30 8/9/31 9/11/32 
f 12/15/33 9/11/34 7/12/35 10/16/36 
s 1
f 17/19/37 16/20/38 13/17/39 14/18/40 
f 18/22/41 17/19/42 14/18/43 15/21/44 
f 20/23/45 19/24/46 16/20/47 17/19/48 
f 21/25/49 20/23/50 17/19/51 18/22/52 
f 26/28/53 25/29/54 22/26/55 23/27/56 
f 27/31/57 26/28/58 23/27/59 24/30/60 
f 29/32/61 28/33/62 25/29/63 26/28/64 
f 30/34/65 29/32/66 26/28/67 27/31/68 
f 35/37/69 34/38/70 31/35/71 32/36/72 
f 36/40/73 35/37/74 32/36/75 33/39/76 
s 2
f 35/37/77 38/42/78 37/41/79 34/38/80 
f 39/43/81 38/42/82 35/37/83 36/40/84 
s 1
f 44/46/85 43/47/86 40/44/87 41/45/88 
f 45/49/89 44/46/90 41/45/91 42/48/92 
f 47/50/93 46/51/94 43/47/95 44/46/96 
f 48/52/97 47/50/98 44/46/99 45/49/100 
f 53/55/101 52/56/102 49/53/103 50/54/104 
f 54/58/105 53/55/106 50/54/107 51/57/108 
f 56/59/109 55/60/110 52/56/111 53/55/112 
f 57/61/113 56/59/114 53/55/115 54/58/116 
f 62/64/117 61/65/118 58/62/119 59/63/120 
f 63/67/121 62/64/122 59/63/123 60/66/124 
f 65/68/125 64/69/126 61/65/127 62/64/128 
f 66/70/129 65/68/130 62/64/131 63/67/132 
f 71/73/133 70/74/134 67/71/135 68/72/136 
f 72/76/137 71/73/138 68/72/139 69/75/140 
f 74/77/141 73/78/142 70/74/143 71/73/144 
f 75/79/145 74/77/146 71/73/147 72/76/148 
f 80/82/149 79/83/150 76/80/151 77/81/152 
f 81/85/153 80/82/154 77/81/155 78/84/156 
s 2
f 80/82/157 83/87/158 82/86/159 79/83/160 
f 84/88/161 83/87/162 80/82/163 81/85/164 
s 1
f 89/91/165 88/92/166 85/89/167 86/90/168 
f 90/94/169 89/91/170 86/90/171 87/93/172 
f 92/95/173 91/96/174 88/92/175 89/91/176 
f 93/97/177 92/95/178 89/91/179 90/94/180 
f 98/100/181 97/101/182 94/98/183 95/99/184 
f 99/103/185 98/100/186 95/99/187 96/102/188 
s 2
f 98/100/189 101/105/190 100/104/191 97/101/192 
f 102/106/193 101/105/194 98/100/195 99/103/196 
s 1
f 107/109/197 106/110/198 103/107/199 104/108/200 
f 108/112/201 107/109/202 104/108/203 105/111/204 
f 110/113/205 109/114/206 106/110/207 107/109/208 
f 111/115/209 110/113/210 107/109/211 108/112/212 
f 116/118/213 115/119/214 112/116/215 113/117/216 
f 117/121/217 116/118/218 113/117/219 114/120/220 
f 119/122/221 118/123/222 115/119/223 116/118/224 
f 120/124/225 119/122/226 116/118/227 117/121/228 
# 57 polygons

