# 3ds Max Wavefront OBJ Exporter v0.99 - (c)2007 guruware
# File Created: 05.06.2022 15:42:24

#
# object Plane025
#

v  0.0217 0.0000 0.2467
v  0.0217 0.6022 0.2467
v  0.0246 0.0000 0.2360
v  0.0246 0.6022 0.2360
v  0.0138 0.7416 0.2764
v  0.0326 0.7416 0.2062
v  0.0171 1.0125 0.2639
v  0.0292 1.0125 0.2187
v  0.0210 1.0656 0.2493
v  0.0253 1.0656 0.2333
v  -0.1018 0.0000 0.0967
v  -0.1018 0.6022 0.0967
v  -0.0999 0.0000 0.0858
v  -0.0999 0.6022 0.0858
v  -0.1072 0.7416 0.1270
v  -0.0946 0.7416 0.0554
v  -0.1049 1.0125 0.1143
v  -0.0968 1.0125 0.0681
v  -0.1023 1.0656 0.0994
v  -0.0994 1.0656 0.0831
v  -0.0024 0.0000 -0.0159
v  -0.0024 0.6908 -0.0159
v  -0.0024 0.0000 -0.0270
v  -0.0024 0.6908 -0.0270
v  -0.0024 0.8301 0.0149
v  -0.0024 0.8301 -0.0578
v  -0.0024 1.1010 0.0020
v  -0.0024 1.1010 -0.0449
v  -0.0024 1.1541 -0.0132
v  -0.0024 1.1541 -0.0297
v  0.2253 0.0000 -0.0523
v  0.2253 0.6369 -0.0523
v  0.2282 0.0000 -0.0630
v  0.2282 0.6369 -0.0630
v  0.2174 0.7763 -0.0225
v  0.2362 0.7763 -0.0927
v  0.2207 1.0472 -0.0350
v  0.2328 1.0472 -0.0803
v  0.2246 1.1003 -0.0496
v  0.2289 1.1003 -0.0656
v  -0.1407 0.0000 -0.2041
v  -0.1407 0.6908 -0.2041
v  -0.1329 0.0000 -0.2119
v  -0.1329 0.6908 -0.2119
v  -0.1625 0.8301 -0.1823
v  -0.1111 0.8301 -0.2337
v  -0.1534 1.1010 -0.1914
v  -0.1202 1.1010 -0.2246
v  -0.1426 1.1541 -0.2021
v  -0.1309 1.1541 -0.2138
v  0.1018 0.0000 -0.2023
v  0.1018 0.6369 -0.2023
v  0.1037 0.0000 -0.2132
v  0.1037 0.6369 -0.2132
v  0.0964 0.7763 -0.1719
v  0.1090 0.7763 -0.2435
v  0.0987 1.0472 -0.1846
v  0.1068 1.0472 -0.2308
v  0.1013 1.1003 -0.1996
v  0.1042 1.1003 -0.2159
v  0.1419 0.0000 0.1087
v  0.1419 0.6908 0.1087
v  0.1498 0.0000 0.1009
v  0.1498 0.6908 0.1009
v  0.1202 0.8301 0.1305
v  0.1716 0.8301 0.0791
v  0.1293 1.1010 0.1214
v  0.1624 1.1010 0.0882
v  0.1400 1.1541 0.1107
v  0.1517 1.1541 0.0989
# 70 vertices

vn -1.0000 0.0000 -0.0000
vn -1.0000 -0.0000 -0.0000
vn -1.0000 -0.0000 -0.0000
vn -1.0000 0.0000 -0.0000
vn -1.0000 -0.0000 -0.0000
vn -1.0000 -0.0000 -0.0000
vn -1.0000 -0.0000 -0.0000
vn -1.0000 -0.0000 -0.0000
vn -1.0000 -0.0000 -0.0000
vn -1.0000 -0.0000 -0.0000
vn -1.0000 -0.0000 -0.0000
vn -1.0000 -0.0000 -0.0000
vn -1.0000 -0.0000 -0.0000
vn -1.0000 -0.0000 -0.0000
vn -1.0000 -0.0000 -0.0000
vn -1.0000 -0.0000 -0.0000
vn -0.9962 0.0000 0.0872
vn -0.9962 -0.0000 0.0872
vn -0.9962 -0.0000 0.0872
vn -0.9962 0.0000 0.0872
vn -0.9962 -0.0000 0.0872
vn -0.9962 -0.0000 0.0872
vn -0.9962 -0.0000 0.0872
vn -0.9962 -0.0000 0.0872
vn -0.9962 -0.0000 0.0872
vn -0.9962 -0.0000 0.0872
vn -0.9962 0.0000 0.0872
vn -0.9962 -0.0000 0.0872
vn -0.9962 -0.0000 0.0872
vn -0.9962 0.0000 0.0872
vn -0.9962 0.0000 0.0872
vn -0.9962 -0.0000 0.0872
vn -0.9659 -0.0000 0.2588
vn -0.9659 0.0000 0.2588
vn -0.9659 -0.0000 0.2588
vn -0.9659 0.0000 0.2588
vn -0.9659 -0.0000 0.2588
vn -0.9659 0.0000 0.2588
vn -0.9659 -0.0000 0.2588
vn -0.9659 -0.0000 0.2588
vn -0.9659 -0.0000 0.2588
vn -0.9659 -0.0000 0.2588
vn -0.9659 -0.0000 0.2588
vn -0.9659 -0.0000 0.2588
vn -0.9659 -0.0000 0.2588
vn -0.9659 -0.0000 0.2588
vn -0.9659 -0.0000 0.2588
vn -0.9659 -0.0000 0.2588
vn -1.0000 0.0000 -0.0000
vn -1.0000 0.0000 -0.0000
vn -1.0000 0.0000 -0.0000
vn -1.0000 0.0000 -0.0000
vn -1.0000 0.0000 -0.0000
vn -1.0000 0.0000 -0.0000
vn -1.0000 0.0000 -0.0000
vn -1.0000 0.0000 -0.0000
vn -1.0000 0.0000 -0.0000
vn -1.0000 0.0000 -0.0000
vn -1.0000 0.0000 -0.0000
vn -1.0000 0.0000 -0.0000
vn -1.0000 0.0000 -0.0000
vn -1.0000 0.0000 -0.0000
vn -1.0000 0.0000 -0.0000
vn -1.0000 0.0000 -0.0000
vn -0.8660 -0.0000 -0.5000
vn -0.8660 -0.0000 -0.5000
vn -0.8660 0.0000 -0.5000
vn -0.8660 0.0000 -0.5000
vn -0.8660 0.0000 -0.5000
vn -0.8660 -0.0000 -0.5000
vn -0.8660 -0.0000 -0.5000
vn -0.8660 0.0000 -0.5000
vn -0.8660 0.0000 -0.5000
vn -0.8660 -0.0000 -0.5000
vn -0.8660 -0.0000 -0.5000
vn -0.8660 -0.0000 -0.5000
vn -0.8660 -0.0000 -0.5000
vn -0.8660 -0.0000 -0.5000
vn -0.8660 0.0000 -0.5000
vn -0.8660 -0.0000 -0.5000
vn -0.9962 0.0000 0.0872
vn -0.9962 -0.0000 0.0872
vn -0.9962 -0.0000 0.0872
vn -0.9962 0.0000 0.0872
vn -0.9962 -0.0000 0.0872
vn -0.9962 -0.0000 0.0872
vn -0.9962 0.0000 0.0872
vn -0.9962 -0.0000 0.0872
vn -0.9962 -0.0000 0.0872
vn -0.9962 0.0000 0.0872
vn -0.9962 0.0000 0.0872
vn -0.9962 0.0000 0.0872
vn -0.9962 0.0000 0.0872
vn -0.9962 0.0000 0.0872
vn -0.9962 -0.0000 0.0872
vn -0.9962 0.0000 0.0872
vn -0.8660 0.0000 -0.5000
vn -0.8660 -0.0000 -0.5000
vn -0.8660 0.0000 -0.5000
vn -0.8660 0.0000 -0.5000
vn -0.8660 0.0000 -0.5000
vn -0.8660 -0.0000 -0.5000
vn -0.8660 -0.0000 -0.5000
vn -0.8660 -0.0000 -0.5000
vn -0.8660 -0.0000 -0.5000
vn -0.8660 -0.0000 -0.5000
vn -0.8660 0.0000 -0.5000
vn -0.8660 0.0000 -0.5000
vn -0.8660 0.0000 -0.5000
vn -0.8660 0.0000 -0.5000
vn -0.8660 0.0000 -0.5000
vn -0.8660 0.0000 -0.5000
# 112 vertex normals

vt 0.3750 0.9375 0.0000
vt 0.3750 0.4077 0.0000
vt 0.4375 0.4077 0.0000
vt 0.4375 0.9375 0.0000
vt 0.3750 0.2851 0.0000
vt 0.4375 0.2851 0.0000
vt 0.3750 0.0467 0.0000
vt 0.4375 0.0467 0.0000
vt 0.3750 0.0000 0.0000
vt 0.4375 0.0000 0.0000
vt 0.4375 0.0000 0.0000
vt 0.4375 0.5298 0.0000
vt 0.3750 0.5298 0.0000
vt 0.3750 0.0000 0.0000
vt 0.4375 0.6524 0.0000
vt 0.3750 0.6524 0.0000
vt 0.4375 0.8908 0.0000
vt 0.3750 0.8908 0.0000
vt 0.4375 0.9375 0.0000
vt 0.3750 0.9375 0.0000
vt -0.0000 1.0000 0.0000
vt 0.0000 0.4015 0.0000
vt 0.0625 0.4015 0.0000
vt 0.0625 1.0000 0.0000
vt 0.0000 0.2807 0.0000
vt 0.0625 0.2807 0.0000
vt 0.0000 0.0460 0.0000
vt 0.0625 0.0460 0.0000
vt 0.0000 0.0000 0.0000
vt 0.0625 -0.0000 0.0000
vt 0.3125 -0.0000 0.0000
vt 0.3125 0.5427 0.0000
vt 0.2500 0.5427 0.0000
vt 0.2500 -0.0000 0.0000
vt 0.3125 0.6614 0.0000
vt 0.2500 0.6614 0.0000
vt 0.3125 0.8923 0.0000
vt 0.2500 0.8923 0.0000
vt 0.3125 0.9375 0.0000
vt 0.2500 0.9375 0.0000
vt 0.1875 0.0000 0.0000
vt 0.1875 0.5985 0.0000
vt 0.1250 0.5985 0.0000
vt 0.1250 0.0000 0.0000
vt 0.1875 0.7193 0.0000
vt 0.1250 0.7193 0.0000
vt 0.1875 0.9540 0.0000
vt 0.1250 0.9540 0.0000
vt 0.1875 1.0000 0.0000
vt 0.1250 1.0000 0.0000
vt 0.3750 0.0000 0.0000
vt 0.3750 0.5427 0.0000
vt 0.3125 0.5427 0.0000
vt 0.3125 0.0000 0.0000
vt 0.3750 0.6614 0.0000
vt 0.3125 0.6614 0.0000
vt 0.3750 0.8923 0.0000
vt 0.3125 0.8923 0.0000
vt 0.3750 0.9375 0.0000
vt 0.3125 0.9375 0.0000
vt 0.0625 1.0000 0.0000
vt 0.0625 0.4015 0.0000
vt 0.1250 0.4015 0.0000
vt 0.1250 1.0000 0.0000
vt 0.0625 0.2807 0.0000
vt 0.1250 0.2807 0.0000
vt 0.0625 0.0460 0.0000
vt 0.1250 0.0460 0.0000
vt 0.0625 -0.0000 0.0000
vt 0.1250 -0.0000 0.0000
# 70 texture coords

o Plane025
g Plane025
s 1
f 1/1/1 2/2/2 4/3/3 3/4/4 
s off
f 4/3/5 2/2/6 5/5/7 6/6/8 
f 6/6/9 5/5/10 7/7/11 8/8/12 
f 8/8/13 7/7/14 9/9/15 10/10/16 
s 1
f 11/11/17 12/12/18 14/13/19 13/14/20 
s off
f 14/13/21 12/12/22 15/15/23 16/16/24 
f 16/16/25 15/15/26 17/17/27 18/18/28 
f 18/18/29 17/17/30 19/19/31 20/20/32 
s 1
f 21/21/33 22/22/34 24/23/35 23/24/36 
s off
f 24/23/37 22/22/38 25/25/39 26/26/40 
f 26/26/41 25/25/42 27/27/43 28/28/44 
f 28/28/45 27/27/46 29/29/47 30/30/48 
s 1
f 31/31/49 32/32/50 34/33/51 33/34/52 
s off
f 34/33/53 32/32/54 35/35/55 36/36/56 
f 36/36/57 35/35/58 37/37/59 38/38/60 
f 38/38/61 37/37/62 39/39/63 40/40/64 
s 1
f 41/41/65 42/42/66 44/43/67 43/44/68 
s off
f 44/43/69 42/42/70 45/45/71 46/46/72 
f 46/46/73 45/45/74 47/47/75 48/48/76 
f 48/48/77 47/47/78 49/49/79 50/50/80 
s 1
f 51/51/81 52/52/82 54/53/83 53/54/84 
s off
f 54/53/85 52/52/86 55/55/87 56/56/88 
f 56/56/89 55/55/90 57/57/91 58/58/92 
f 58/58/93 57/57/94 59/59/95 60/60/96 
s 1
f 61/61/97 62/62/98 64/63/99 63/64/100 
s off
f 64/63/101 62/62/102 65/65/103 66/66/104 
f 66/66/105 65/65/106 67/67/107 68/68/108 
f 68/68/109 67/67/110 69/69/111 70/70/112 
# 28 polygons

