# 3ds Max Wavefront OBJ Exporter v0.99 - (c)2007 guruware
# File Created: 05.06.2022 13:39:06

#
# object Plane019
#

v  -0.1977 0.0000 0.2637
v  -0.1977 0.6000 0.2637
v  -0.1762 0.0000 0.2044
v  -0.1762 0.6000 0.2044
v  -0.1290 0.0000 -0.0358
v  -0.1290 0.4000 -0.0358
v  -0.0844 0.0000 -0.0804
v  -0.0844 0.4000 -0.0804
v  -0.2063 0.0000 0.0679
v  -0.2063 0.8000 0.0679
v  -0.2329 0.0000 0.0108
v  -0.2329 0.8000 0.0108
v  -0.1448 0.0000 -0.1871
v  -0.1448 0.4000 -0.1871
v  -0.1503 0.0000 -0.2499
v  -0.1503 0.4000 -0.2499
v  -0.2785 0.0000 -0.0952
v  -0.2785 1.0000 -0.0952
v  -0.2424 0.0000 -0.1469
v  -0.2424 1.0000 -0.1469
v  0.0648 0.0000 0.1607
v  0.0648 0.8000 0.1607
v  0.1094 0.0000 0.1162
v  0.1094 0.8000 0.1162
v  -0.0285 0.0000 0.2673
v  -0.0285 1.0000 0.2673
v  -0.0230 0.0000 0.2045
v  -0.0230 1.0000 0.2045
v  0.0490 0.0000 0.0094
v  0.0490 0.6000 0.0094
v  0.0435 0.0000 -0.0534
v  0.0435 0.6000 -0.0534
v  -0.0847 0.0000 0.1014
v  -0.0847 0.6000 0.1014
v  -0.0485 0.0000 0.0497
v  -0.0485 0.6000 0.0497
v  0.1605 0.0000 -0.0430
v  0.1605 0.8000 -0.0430
v  0.1821 0.0000 -0.1023
v  0.1821 0.8000 -0.1023
v  0.0823 0.0000 -0.1735
v  0.0823 0.8000 -0.1735
v  0.0508 0.0000 -0.2281
v  0.0508 0.8000 -0.2281
v  0.1814 0.0000 0.0556
v  0.1814 1.0000 0.0556
v  0.2259 0.0000 0.0110
v  0.2259 1.0000 0.0110
v  0.2433 0.0000 -0.1863
v  0.2433 0.4000 -0.1863
v  0.2878 0.0000 -0.2309
v  0.2878 0.4000 -0.2309
v  0.0989 0.0000 0.3300
v  0.0989 0.4000 0.3300
v  0.1044 0.0000 0.2672
v  0.1044 0.4000 0.2672
v  0.3194 0.0000 -0.0315
v  0.3194 0.8000 -0.0315
v  0.3139 0.0000 -0.0943
v  0.3139 0.8000 -0.0943
v  0.2257 0.0000 0.1928
v  0.2257 0.6000 0.1928
v  0.2618 0.0000 0.1411
v  0.2618 0.6000 0.1411
v  -0.2760 0.0000 0.1333
v  -0.2760 0.6000 0.1333
v  -0.3075 0.0000 0.0787
v  -0.3075 0.6000 0.0787
# 68 vertices

vn -1.0000 0.0000 -0.0000
vn -1.0000 0.0000 -0.0000
vn -1.0000 0.0000 -0.0000
vn -1.0000 0.0000 -0.0000
vn -0.9063 0.0000 -0.4226
vn -0.9063 0.0000 -0.4226
vn -0.9063 0.0000 -0.4226
vn -0.9063 0.0000 -0.4226
vn -0.7071 0.0000 0.7071
vn -0.7071 0.0000 0.7071
vn -0.7071 0.0000 0.7071
vn -0.7071 0.0000 0.7071
vn -0.9063 0.0000 0.4226
vn -0.9063 0.0000 0.4226
vn -0.9063 0.0000 0.4226
vn -0.9063 0.0000 0.4226
vn -0.9659 0.0000 -0.2588
vn -0.9659 0.0000 -0.2588
vn -0.9659 0.0000 -0.2588
vn -0.9659 0.0000 -0.2588
vn -0.9063 0.0000 -0.4226
vn -0.9063 0.0000 -0.4226
vn -0.9063 0.0000 -0.4226
vn -0.9063 0.0000 -0.4226
vn -0.9659 0.0000 0.2588
vn -0.9659 0.0000 0.2588
vn -0.9659 0.0000 0.2588
vn -0.9659 0.0000 0.2588
vn -0.9063 0.0000 0.4226
vn -0.9063 0.0000 0.4226
vn -0.9063 0.0000 0.4226
vn -0.9063 0.0000 0.4226
vn -0.9659 0.0000 -0.2588
vn -0.9659 0.0000 -0.2588
vn -0.9659 0.0000 -0.2588
vn -0.9659 0.0000 -0.2588
vn -1.0000 0.0000 -0.0000
vn -1.0000 0.0000 -0.0000
vn -1.0000 0.0000 -0.0000
vn -1.0000 0.0000 -0.0000
vn -0.6428 0.0000 0.7660
vn -0.6428 0.0000 0.7660
vn -0.6428 0.0000 0.7660
vn -0.6428 0.0000 0.7660
vn -0.9063 0.0000 -0.4226
vn -0.9063 0.0000 -0.4226
vn -0.9063 0.0000 -0.4226
vn -0.9063 0.0000 -0.4226
vn -0.9063 0.0000 -0.4226
vn -0.9063 0.0000 -0.4226
vn -0.9063 0.0000 -0.4226
vn -0.9063 0.0000 -0.4226
vn -0.9659 0.0000 0.2588
vn -0.9659 0.0000 0.2588
vn -0.9659 0.0000 0.2588
vn -0.9659 0.0000 0.2588
vn -0.9063 0.0000 0.4226
vn -0.9063 0.0000 0.4226
vn -0.9063 0.0000 0.4226
vn -0.9063 0.0000 0.4226
vn -0.9659 0.0000 -0.2588
vn -0.9659 0.0000 -0.2588
vn -0.9659 0.0000 -0.2588
vn -0.9659 0.0000 -0.2588
vn -0.6428 0.0000 0.7660
vn -0.6428 0.0000 0.7660
vn -0.6428 0.0000 0.7660
vn -0.6428 0.0000 0.7660
# 68 vertex normals

vt 0.8125 0.6250 0.0000
vt 0.7500 0.6250 0.0000
vt 0.7500 -0.0000 0.0000
vt 0.8125 0.0000 0.0000
vt 0.7500 1.0000 0.0000
vt 0.6875 1.0000 0.0000
vt 0.6875 0.6250 0.0000
vt 0.7500 0.6250 0.0000
vt 0.5000 0.8125 0.0000
vt 0.4375 0.8125 0.0000
vt 0.4375 0.0000 0.0000
vt 0.5000 0.0000 0.0000
vt 0.6250 1.0000 0.0000
vt 0.5625 1.0000 0.0000
vt 0.5625 0.6250 0.0000
vt 0.6250 0.6250 0.0000
vt 0.1875 1.0000 0.0000
vt 0.1250 1.0000 0.0000
vt 0.1250 0.0000 0.0000
vt 0.1875 0.0000 0.0000
vt 0.3750 0.8125 0.0000
vt 0.3125 0.8125 0.0000
vt 0.3125 -0.0000 0.0000
vt 0.3750 0.0000 0.0000
vt 0.1250 1.0000 0.0000
vt 0.0625 1.0000 0.0000
vt 0.0625 0.0000 0.0000
vt 0.1250 -0.0000 0.0000
vt 0.5625 -0.0000 0.0000
vt 0.6250 0.0000 0.0000
vt 0.6250 0.6250 0.0000
vt 0.5625 0.6250 0.0000
vt 0.9375 0.6250 0.0000
vt 0.8750 0.6250 0.0000
vt 0.8750 0.0000 0.0000
vt 0.9375 0.0000 0.0000
vt 0.5625 0.8125 0.0000
vt 0.5000 0.8125 0.0000
vt 0.5000 0.0000 0.0000
vt 0.5625 0.0000 0.0000
vt 0.4375 0.8125 0.0000
vt 0.3750 0.8125 0.0000
vt 0.3750 0.0000 0.0000
vt 0.4375 -0.0000 0.0000
vt 0.0625 1.0000 0.0000
vt 0.0000 1.0000 0.0000
vt 0.0000 0.0000 0.0000
vt 0.0625 0.0000 0.0000
vt 0.8750 1.0000 0.0000
vt 0.8125 1.0000 0.0000
vt 0.8125 0.6250 0.0000
vt 0.8750 0.6250 0.0000
vt 0.8125 1.0000 0.0000
vt 0.7500 1.0000 0.0000
vt 0.7500 0.6250 0.0000
vt 0.8125 0.6250 0.0000
vt 0.3125 0.8125 0.0000
vt 0.2500 0.8125 0.0000
vt 0.2500 0.0000 0.0000
vt 0.3125 0.0000 0.0000
vt 0.8750 0.6250 0.0000
vt 0.8125 0.6250 0.0000
vt 0.8125 -0.0000 0.0000
vt 0.8750 0.0000 0.0000
vt 0.7500 0.6250 0.0000
vt 0.6875 0.6250 0.0000
vt 0.6875 0.0000 0.0000
vt 0.7500 0.0000 0.0000
# 68 texture coords

o Plane019
g Plane019
s 1
f 2/1/1 4/2/2 3/3/3 1/4/4 
f 6/5/5 8/6/6 7/7/7 5/8/8 
f 10/9/9 12/10/10 11/11/11 9/12/12 
f 14/13/13 16/14/14 15/15/15 13/16/16 
f 18/17/17 20/18/18 19/19/19 17/20/20 
f 22/21/21 24/22/22 23/23/23 21/24/24 
f 26/25/25 28/26/26 27/27/27 25/28/28 
f 30/29/29 32/30/30 31/31/31 29/32/32 
f 34/33/33 36/34/34 35/35/35 33/36/36 
f 38/37/37 40/38/38 39/39/39 37/40/40 
f 42/41/41 44/42/42 43/43/43 41/44/44 
f 46/45/45 48/46/46 47/47/47 45/48/48 
f 50/49/49 52/50/50 51/51/51 49/52/52 
f 54/53/53 56/54/54 55/55/55 53/56/56 
f 58/57/57 60/58/58 59/59/59 57/60/60 
f 62/61/61 64/62/62 63/63/63 61/64/64 
f 66/65/65 68/66/66 67/67/67 65/68/68 
# 17 polygons

