# Blender v3.0.0 OBJ File: 'Iles.blend'
# www.blender.org
o Plane.002
v 84.683487 7.112983 26.500906
v 90.008438 7.112983 21.776836
v 85.650833 7.112983 21.162302
v 90.360420 7.112983 25.689137
v 93.770714 7.112983 25.830601
v 101.328369 -55.851040 20.936911
v 101.328362 5.317020 20.936911
v 100.255341 7.112983 21.897104
v 101.263367 6.215003 21.191231
v 100.781525 6.872371 21.517591
v 92.239899 7.112983 21.979696
v 100.131981 -55.851040 19.114876
v 100.131981 5.317020 19.114876
v 99.954155 6.215003 19.197374
v 99.377090 6.872371 19.378607
v 98.887535 7.112983 19.901094
v 80.579193 7.112983 24.832060
v 80.626221 7.112983 20.215031
v 76.111176 7.112983 24.310989
v 76.155563 7.112983 19.953968
v 73.863449 7.112983 25.078005
v 72.146225 7.112983 20.862949
v 69.403755 7.112983 27.687675
v 65.991241 7.112983 23.393009
v 67.190460 7.112983 31.828621
v 61.612274 7.112983 29.978466
v 66.966988 7.112983 38.085690
v 61.388809 7.112983 36.235535
v 64.928711 7.112983 44.002441
v 59.628147 7.112983 39.927856
v 59.139278 7.112983 49.336052
v 55.138111 7.112983 43.979851
v 53.198887 7.112983 52.029724
v 50.128635 7.112983 46.090717
v 48.003281 7.112983 53.761589
v 44.933029 7.112983 47.822586
v 89.608574 6.906745 29.263348
v 90.863968 6.906745 27.488821
v 96.255020 6.906745 34.760380
v 98.123985 6.906745 32.118553
v 98.734055 6.906746 40.438469
v 105.996536 6.906746 35.498081
v 110.317932 6.906746 50.790024
v 115.177376 6.906746 43.384975
v 95.661751 6.906746 46.645737
v 105.626572 6.906746 55.550472
v 91.520447 6.906746 54.755676
v 97.814301 6.906746 60.379971
vt 0.522682 0.000000
vt 0.261341 0.000000
vt 0.261341 0.000000
vt 0.522682 0.000000
vt 0.511657 1.000000
vt 0.274427 1.000000
vt 0.291767 1.000000
vt 0.470646 1.000000
vt 0.522682 1.000000
vt 0.313885 1.000000
vt 0.488849 1.000000
vt 0.259944 1.000000
vt 0.470944 1.000000
vt 0.286045 1.000000
vt 0.261341 0.000000
vt 0.522682 0.000000
vt 0.261341 0.000000
vt 0.522682 0.000000
vt 0.261341 0.000000
vt 0.522682 0.000000
vt 0.261341 0.000000
vt 0.522682 0.000000
vt 0.261341 0.000000
vt 0.522682 0.000000
vt 0.261341 0.000000
vt 0.522682 0.000000
vt 0.261341 0.000000
vt 0.522682 0.000000
vt 0.261341 0.000000
vt 0.522682 0.000000
vt 0.261341 0.000000
vt 0.522682 0.000000
vt 0.261341 0.000000
vt 0.522682 0.000000
vt 0.261341 0.000000
vt 0.522682 0.000000
vt 0.522682 0.000000
vt 0.522682 0.000000
vt 0.522682 0.000000
vt 0.522682 0.000000
vt 0.522682 0.000000
vt 0.522682 0.000000
vt 0.522682 0.000000
vt 0.522682 0.000000
vt 0.522682 0.000000
vt 0.522682 0.000000
vt 0.522682 0.000000
vt 0.522682 0.000000
vn 0.0000 1.0000 0.0000
vn 0.0079 0.9997 0.0211
vn 0.1434 0.9850 -0.0961
vn 0.1383 0.9860 -0.0927
vn 0.8311 0.1072 -0.5457
vn 0.8306 0.1122 -0.5454
vn 0.8359 0.0000 -0.5488
vn 0.4646 0.8305 -0.3071
vn 0.4700 0.8262 -0.3106
vn 0.7390 0.4673 -0.4852
vn 0.7392 0.4670 -0.4853
vn 0.0046 0.9999 0.0125
vn 0.0117 0.9994 0.0315
vn 0.0136 0.9992 0.0363
s 1
f 5/1/1 11/2/1 2/3/1 4/4/2
f 11/2/1 5/1/1 8/5/3 16/6/4
f 13/7/5 7/8/6 6/9/7 12/10/7
f 10/11/8 15/12/9 16/6/4 8/5/3
f 9/13/10 14/14/11 15/12/9 10/11/8
f 7/8/6 13/7/5 14/14/11 9/13/10
f 4/4/2 2/3/1 3/15/1 1/16/12
f 1/16/12 3/15/1 18/17/1 17/18/1
f 17/18/1 18/17/1 20/19/1 19/20/1
f 19/20/1 20/19/1 22/21/1 21/22/1
f 21/22/1 22/21/1 24/23/1 23/24/1
f 23/24/1 24/23/1 26/25/1 25/26/1
f 25/26/1 26/25/1 28/27/1 27/28/1
f 27/28/1 28/27/1 30/29/1 29/30/1
f 29/30/1 30/29/1 32/31/1 31/32/1
f 31/32/1 32/31/1 34/33/1 33/34/1
f 33/34/1 34/33/1 36/35/1 35/36/1
f 4/4/2 1/16/12 37/37/13 38/38/14
f 38/38/14 37/37/13 39/39/1 40/40/1
f 40/40/1 39/39/1 41/41/1 42/42/1
f 42/42/1 41/41/1 43/43/1 44/44/1
f 43/43/1 41/41/1 45/45/1 46/46/1
f 46/46/1 45/45/1 47/47/1 48/48/1
