# Blender v2.93.4 OBJ File: 'Iles.blend'
# www.blender.org
o Plane.002
v 74.841293 7.112983 89.119240
v 81.947021 7.112983 89.544128
v 79.300278 7.112983 86.028297
v 79.429489 7.112983 92.559433
v 81.740906 7.112983 95.070900
v 90.545334 -55.851044 96.954605
v 90.545334 5.317021 96.954605
v 89.107635 7.112983 96.874825
v 90.319534 6.215003 97.088478
v 89.748062 6.872371 96.978531
v 83.381454 7.112983 91.265457
v 90.987732 -55.851044 94.820267
v 90.987732 5.317021 94.820267
v 90.803650 6.215003 94.752861
v 90.267456 6.872371 94.472961
v 89.551842 7.112983 94.496246
v 73.119171 7.112983 85.037010
v 76.417160 7.112983 81.805534
v 70.328262 7.112983 81.509201
v 73.440521 7.112983 78.459702
v 68.196503 7.112983 80.462173
v 69.962738 7.112983 76.267418
v 63.197716 7.112983 79.154007
v 63.821495 7.112983 73.704208
v 58.704586 7.112983 80.517059
v 56.068474 7.112983 75.264435
v 54.122154 7.112983 84.783463
v 51.486042 7.112983 79.530838
v 48.497101 7.112983 87.525963
v 47.630203 7.112983 80.896729
v 40.631920 7.112983 87.203644
v 41.590076 7.112983 80.586983
v 34.526718 7.112983 84.907860
v 36.555229 7.112983 78.537354
v 29.628254 7.112983 82.458633
v 31.656769 7.112983 76.088120
v 76.370514 6.906745 94.555145
v 78.512985 6.906745 94.188065
v 77.183273 6.906745 103.141884
v 80.372879 6.906745 102.595383
v 74.921188 6.906746 108.909836
v 83.549919 6.906746 110.551804
v 75.792572 6.906746 124.420532
v 84.464874 6.906746 122.620514
v 68.359543 6.906746 111.126587
v 69.109146 6.906746 124.469376
v 59.696602 6.906746 113.932838
v 60.170059 6.906746 122.360245
vt 0.522682 0.000000
vt 0.261341 0.000000
vt 0.261341 0.000000
vt 0.522682 0.000000
vt 0.511657 1.000000
vt 0.274427 1.000000
vt 0.291767 1.000000
vt 0.470646 1.000000
vt 0.522682 1.000000
vt 0.313885 1.000000
vt 0.488849 1.000000
vt 0.259944 1.000000
vt 0.470944 1.000000
vt 0.286045 1.000000
vt 0.261341 0.000000
vt 0.522682 0.000000
vt 0.261341 0.000000
vt 0.522682 0.000000
vt 0.261341 0.000000
vt 0.522682 0.000000
vt 0.261341 0.000000
vt 0.522682 0.000000
vt 0.261341 0.000000
vt 0.522682 0.000000
vt 0.261341 0.000000
vt 0.522682 0.000000
vt 0.261341 0.000000
vt 0.522682 0.000000
vt 0.261341 0.000000
vt 0.522682 0.000000
vt 0.261341 0.000000
vt 0.522682 0.000000
vt 0.261341 0.000000
vt 0.522682 0.000000
vt 0.261341 0.000000
vt 0.522682 0.000000
vt 0.522682 0.000000
vt 0.522682 0.000000
vt 0.522682 0.000000
vt 0.522682 0.000000
vt 0.522682 0.000000
vt 0.522682 0.000000
vt 0.522682 0.000000
vt 0.522682 0.000000
vt 0.522682 0.000000
vt 0.522682 0.000000
vt 0.522682 0.000000
vt 0.522682 0.000000
vn 0.0000 1.0000 0.0000
vn -0.0094 0.9997 0.0205
vn 0.1694 0.9850 0.0334
vn 0.1634 0.9860 0.0322
vn 0.9735 0.1072 0.2018
vn 0.9730 0.1122 0.2017
vn 0.9792 0.0000 0.2029
vn 0.5457 0.8305 0.1114
vn 0.5519 0.8262 0.1127
vn 0.8657 0.4673 0.1794
vn 0.8658 0.4670 0.1794
vn -0.0055 0.9999 0.0121
vn -0.0139 0.9994 0.0306
vn -0.0161 0.9992 0.0353
s 1
f 5/1/1 11/2/1 2/3/1 4/4/2
f 11/2/1 5/1/1 8/5/3 16/6/4
f 13/7/5 7/8/6 6/9/7 12/10/7
f 10/11/8 15/12/9 16/6/4 8/5/3
f 9/13/10 14/14/11 15/12/9 10/11/8
f 7/8/6 13/7/5 14/14/11 9/13/10
f 4/4/2 2/3/1 3/15/1 1/16/12
f 1/16/12 3/15/1 18/17/1 17/18/1
f 17/18/1 18/17/1 20/19/1 19/20/1
f 19/20/1 20/19/1 22/21/1 21/22/1
f 21/22/1 22/21/1 24/23/1 23/24/1
f 23/24/1 24/23/1 26/25/1 25/26/1
f 25/26/1 26/25/1 28/27/1 27/28/1
f 27/28/1 28/27/1 30/29/1 29/30/1
f 29/30/1 30/29/1 32/31/1 31/32/1
f 31/32/1 32/31/1 34/33/1 33/34/1
f 33/34/1 34/33/1 36/35/1 35/36/1
f 4/4/2 1/16/12 37/37/13 38/38/14
f 38/38/14 37/37/13 39/39/1 40/40/1
f 40/40/1 39/39/1 41/41/1 42/42/1
f 42/42/1 41/41/1 43/43/1 44/44/1
f 43/43/1 41/41/1 45/45/1 46/46/1
f 46/46/1 45/45/1 47/47/1 48/48/1
