# Blender v2.93.4 OBJ File: 'Iles.blend'
# www.blender.org
o Plane.001
v -5.733119 12.371064 35.931431
v -4.323259 12.371064 35.301903
v -3.585228 12.374690 34.663361
v -3.843542 12.389846 34.414368
v -7.102077 12.371064 34.941372
v -6.840924 12.371157 33.039127
v -6.672864 11.447906 32.307896
v -3.287526 11.448539 33.339825
v -4.482699 7.266778 32.363510
v -3.945609 7.266885 32.709641
v -3.454108 12.291490 33.782326
v -6.882030 12.288980 32.911690
v -3.355553 11.949529 33.465748
v -6.772572 11.950282 32.660545
v -7.720958 12.371064 33.531837
v -6.994550 12.371064 32.955948
v -5.926528 12.371064 35.791553
v -6.443420 12.371064 35.417725
v -6.372499 12.371064 35.469017
v -6.879271 12.371064 35.102509
v -5.304927 11.448139 32.037251
v -5.941506 11.448024 32.041645
v -3.945609 11.448412 32.709641
v -4.482699 11.448305 32.363510
v -4.588729 12.290564 32.841595
v -4.052906 12.290998 33.187874
v -6.046581 12.289465 32.559441
v -5.408540 12.289904 32.531143
v -4.494870 11.949806 32.499310
v -3.961657 11.949677 32.847015
v -5.944341 11.950135 32.246422
v -5.315876 11.950005 32.194649
v -5.941506 7.266496 32.041645
v -5.304927 7.266611 32.037251
v -3.287525 7.267011 33.339825
v -6.672864 7.266378 32.307896
v -4.958326 12.382900 33.526360
v -4.426378 12.386248 33.880806
v -6.280631 12.374545 33.043137
v -5.709393 12.378099 33.179665
vt 0.522682 0.000000
vt 1.000000 0.000000
vt 1.000000 1.000000
vt 0.511657 1.000000
vt 0.400621 0.000000
vt 0.387082 0.000000
vt 0.415277 1.000000
vt 0.370772 1.000000
vt 0.488849 1.000000
vt 0.433953 1.000000
vt 0.455641 1.000000
vt 0.314302 1.000000
vt 0.259944 1.000000
vt 0.274427 1.000000
vt 0.327165 1.000000
vt 0.337078 1.000000
vt 0.380263 1.000000
vt 0.380263 1.000000
vt 0.337078 1.000000
vt 0.000000 0.000000
vt 0.261341 0.000000
vt 0.037196 1.000000
vt 0.415787 1.000000
vt 0.415787 1.000000
vt 0.470646 1.000000
vt 0.416728 1.000000
vt 0.470944 1.000000
vt 0.396335 1.000000
vt 0.352374 1.000000
vt 0.300062 1.000000
vt 0.246411 1.000000
vt 0.380205 1.000000
vt 0.337081 1.000000
vt 0.297805 1.000000
vt 0.246752 1.000000
vt 0.470646 1.000000
vt 0.303876 0.000000
vt 0.297805 1.000000
vt 0.246752 1.000000
vt 0.485759 0.000000
vn -0.0043 1.0000 0.0062
vn 0.0159 0.9994 0.0297
vn 0.0306 0.9994 -0.0171
vn -0.0056 1.0000 0.0010
vn -0.0063 1.0000 0.0019
vn 0.0251 0.9982 -0.0552
vn 0.0111 0.9975 -0.0691
vn 0.2876 0.9125 -0.2910
vn 0.3038 0.8806 -0.3636
vn 0.0371 0.9981 -0.0499
vn -0.1443 0.8315 -0.5365
vn -0.1985 0.8366 -0.5105
vn -0.0265 0.9949 -0.0969
vn -0.0235 0.9921 -0.1235
vn 0.3489 0.1579 -0.9238
vn 0.4529 -0.0070 -0.8915
vn 0.4497 -0.1314 -0.8835
vn 0.2578 -0.1630 -0.9524
vn -0.0001 1.0000 -0.0000
vn -0.0034 1.0000 -0.0000
vn 0.6194 -0.0077 -0.7850
vn 0.6041 -0.1233 -0.7873
vn 0.7637 0.0430 -0.6442
vn 0.5523 0.4719 -0.6872
vn 0.6163 0.4881 -0.6180
vn 0.2069 0.8921 -0.4016
vn 0.0688 0.8808 -0.4684
vn -0.1920 0.5111 -0.8378
vn -0.3581 0.4927 -0.7931
vn 0.3936 0.4935 -0.7756
vn 0.1390 0.5106 -0.8485
vn -0.4233 0.1935 -0.8851
vn -0.5038 0.0662 -0.8613
vn 0.6693 -0.1170 -0.7337
vn -0.0041 1.0000 0.0008
vn -0.0496 -0.1986 -0.9788
vn -0.2672 -0.1897 -0.9448
vn -0.0062 1.0000 0.0029
s 1
f 1/1/1 2/2/2 3/3/2 4/4/3
f 19/5/4 18/6/5 37/7/6 40/8/7
f 11/9/8 26/10/9 38/11/10 4/4/3
f 27/12/11 12/13/12 6/14/13 39/15/14
f 21/16/15 24/17/16 9/18/17 34/19/18
f 15/20/19 5/21/20 6/14/13 16/22/19
f 24/17/16 23/23/21 10/24/22 9/18/17
f 8/25/23 23/23/21 30/26/24 13/27/25
f 25/28/26 28/29/27 40/8/7 37/7/6
f 31/30/28 14/31/29 12/13/12 27/12/11
f 13/27/25 30/26/24 26/10/9 11/9/8
f 29/32/30 32/33/31 28/29/27 25/28/26
f 22/34/32 7/35/33 14/31/29 31/30/28
f 24/17/16 21/16/15 32/33/31 29/32/30
f 23/23/21 8/25/23 35/36/34 10/24/22
f 5/21/20 20/37/35 39/15/14 6/14/13
f 24/17/16 29/32/30 30/26/24 23/23/21
f 22/34/32 31/30/28 32/33/31 21/16/15
f 29/32/30 25/28/26 26/10/9 30/26/24
f 31/30/28 27/12/11 28/29/27 32/33/31
f 25/28/26 37/7/6 38/11/10 26/10/9
f 27/12/11 39/15/14 40/8/7 28/29/27
f 7/35/33 22/34/32 33/38/36 36/39/37
f 22/34/32 21/16/15 34/19/18 33/38/36
f 19/5/4 40/8/7 39/15/14 20/37/35
f 17/40/38 38/11/10 37/7/6 18/6/5
f 17/40/38 1/1/1 4/4/3 38/11/10
