# Blender v3.0.0 OBJ File: 'Iles.blend'
# www.blender.org
o Plane
v -163.849503 12.964033 -70.698967
v -150.113556 12.964033 -67.003143
v -161.350601 12.964033 -77.315086
v -148.342285 12.964033 -73.626900
v -157.178360 12.964033 -65.547462
v -160.481720 -50.000000 -78.845062
v -154.380417 -50.000000 -78.278358
v -160.481720 11.168072 -78.845062
v -161.038666 12.723420 -78.117775
v -160.671387 12.066052 -78.667923
v -154.380417 11.168072 -78.278366
v -153.736877 12.964033 -76.607666
v -154.217972 12.066052 -78.068512
v -153.932037 12.723420 -77.457542
vt 0.522682 0.000000
vt 1.000000 0.000000
vt 1.000000 1.000000
vt 0.511657 1.000000
vt 0.000000 0.000000
vt 0.037196 1.000000
vt 0.470646 1.000000
vt 0.022858 1.000000
vt 0.021877 1.000000
vt 0.470944 1.000000
vt 0.031039 1.000000
vt 0.488849 1.000000
vt 0.522682 1.000000
vt 0.000000 1.000000
vn 0.0000 1.0000 0.0000
vn 0.0082 0.9960 -0.0887
vn 0.0108 0.9931 -0.1163
vn 0.0919 0.1123 -0.9894
vn 0.0919 0.1120 -0.9894
vn 0.0807 0.4887 -0.8687
vn 0.0806 0.4909 -0.8675
vn 0.0449 0.8743 -0.4833
vn 0.0444 0.8771 -0.4781
vn 0.0925 0.0000 -0.9957
s 1
f 5/1/1 2/2/1 4/3/1 12/4/2
f 1/5/1 5/1/1 12/4/2 3/6/3
f 11/7/4 8/8/5 10/9/6 13/10/7
f 13/10/7 10/9/6 9/11/8 14/12/9
f 14/12/9 9/11/8 3/6/3 12/4/2
f 8/8/5 11/7/4 7/13/10 6/14/10
