#File written by RizomUV 2022.0.11.g5424fda. Compilation :Nov 24 2021,04:16:21
mtllib 
#begin vertices
v -5.733119 12.37106 35.93143
v -4.323259 12.37106 35.3019
v -3.585228 12.37469 34.66336
v -3.843542 12.38985 34.41437
v -7.102077 12.37106 34.94137
v -6.840924 12.37116 33.03913
v -6.672864 11.44791 32.3079
v -3.287526 11.44854 33.33982
v -4.482699 7.266778 32.36351
v -3.945609 7.266885 32.70964
v -3.454108 12.29149 33.78233
v -6.88203 12.28898 32.91169
v -3.355553 11.94953 33.46575
v -6.772572 11.95028 32.66054
v -7.720958 12.37106 33.53184
v -6.99455 12.37106 32.95595
v -5.926528 12.37106 35.79155
v -6.44342 12.37106 35.41772
v -6.372499 12.37106 35.46902
v -6.879271 12.37106 35.10251
v -5.304927 11.44814 32.03725
v -5.941506 11.44802 32.04165
v -3.945609 11.44841 32.70964
v -4.482699 11.4483 32.36351
v -4.588729 12.29056 32.84159
v -4.052906 12.291 33.18787
v -6.046581 12.28946 32.55944
v -5.40854 12.2899 32.53114
v -4.49487 11.94981 32.49931
v -3.961657 11.94968 32.84701
v -5.944341 11.95013 32.24642
v -5.315876 11.95001 32.19465
v -5.941506 7.266496 32.04165
v -5.304927 7.266611 32.03725
v -3.287525 7.267011 33.33982
v -6.672864 7.266378 32.3079
v -4.958326 12.3829 33.52636
v -4.426378 12.38625 33.88081
v -6.280631 12.37454 33.04314
v -5.709393 12.3781 33.17966
#end vertices

#begin 46 textures vertices 
vt 0.387987 0.9963341 7.013107
vt 0.6631639 0.9963341 6.890236
vt 0.807213 0.9970418 6.765605
vt 0.347217 0.9958625 0
vt 0.1207934 0.9963341 6.819867
vt 0.1717653 0.9963523 6.448587
vt 0.6677113 0.8559464 0
vt 0.347217 0.8559464 0
vt 0.4734738 0.5053944 0
vt 0.419976 0.5053944 0
vt 0.347217 0.9409682 0
vt 0.6677113 0.9409682 0
vt 0.347217 0.9007612 0
vt 0.6677113 0.9007612 0
vt 0 0.9963341 6.544754
vt 0.1417805 0.9963341 6.432352
vt 0.3502374 0.9963341 6.985806
vt 0.2493502 0.9963341 6.912842
vt 0.2631926 0.9963341 6.922853
vt 0.1642807 0.9963341 6.851318
vt 0.5466657 0.8559464 0
vt 0.5992988 0.8559464 0
vt 0.419976 0.8559464 0
vt 0.4734738 0.8559464 0
vt 0.4734738 0.9409682 0
vt 0.419976 0.9409682 0
vt 0.5992988 0.9409682 0
vt 0.5466657 0.9409682 0
vt 0.4734738 0.9007612 0
vt 0.419976 0.9007612 0
vt 0.5992988 0.9007612 0
vt 0.5466657 0.9007612 0
vt 0.5992988 0.5053944 0
vt 0.5466657 0.5053944 0
vt 0.347217 0.5053944 0
vt 0.6677113 0.5053944 0
vt 0.5392113 0.9986443 6.543685
vt 0.419976 0.9958625 0
vt 0.5992988 0.9958625 0
vt 0.3926179 0.9977072 6.476017
vt 0.6677113 0.9958625 0
vt 0.6430371 0.9992977 6.612866
vt 0.7567952 1 6.717007
vt 0.4734738 0.9958625 0
vt 0.5466657 0.9958625 0
vt 0.2811234 0.9970135 6.449369
#end 46 textures vertices 

#begin 38 normals 
vn -0.0043 1 0.0062
vn 0.0159 0.9994 0.0297
vn 0.0306 0.9994 -0.0171
vn -0.0056 1 0.001
vn -0.0063 1 0.0019
vn 0.0251 0.9982 -0.0552
vn 0.0111 0.9975 -0.0691
vn 0.2876 0.9125 -0.291
vn 0.3038 0.8806 -0.3636
vn 0.0371 0.9981 -0.0499
vn -0.1443 0.8315 -0.5365
vn -0.1985 0.8366 -0.5105
vn -0.0265 0.9949 -0.0969
vn -0.0235 0.9921 -0.1235
vn 0.3489 0.1579 -0.9238
vn 0.4529 -0.007 -0.8915
vn 0.4497 -0.1314 -0.8835
vn 0.2578 -0.163 -0.9524
vn -0.0001 1 -0
vn -0.0034 1 -0
vn 0.6194 -0.0077 -0.785
vn 0.6041 -0.1233 -0.7873
vn 0.7637 0.043 -0.6442
vn 0.5523 0.4719 -0.6872
vn 0.6163 0.4881 -0.618
vn 0.2069 0.8921 -0.4016
vn 0.0688 0.8808 -0.4684
vn -0.192 0.5111 -0.8378
vn -0.3581 0.4927 -0.7931
vn 0.3936 0.4935 -0.7756
vn 0.139 0.5106 -0.8485
vn -0.4233 0.1935 -0.8851
vn -0.5038 0.0662 -0.8613
vn 0.6693 -0.117 -0.7337
vn -0.0041 1 0.0008
vn -0.0496 -0.1986 -0.9788
vn -0.2672 -0.1897 -0.9448
vn -0.0062 1 0.0029
#end 38 normals 

#begin 27 faces
o Plane:001
s 1
f 1/1/1 2/2/2 3/3/2 4/43/3 
f 19/19/4 18/18/5 37/37/6 40/40/7 
f 11/11/8 26/26/9 38/38/10 4/4/3 
f 27/27/11 12/12/12 6/41/13 39/39/14 
f 21/21/15 24/24/16 9/9/17 34/34/18 
f 15/15/19 5/5/20 6/6/13 16/16/19 
f 24/24/16 23/23/21 10/10/22 9/9/17 
f 8/8/23 23/23/21 30/30/24 13/13/25 
f 25/25/26 28/28/27 40/45/7 37/44/6 
f 31/31/28 14/14/29 12/12/12 27/27/11 
f 13/13/25 30/30/24 26/26/9 11/11/8 
f 29/29/30 32/32/31 28/28/27 25/25/26 
f 22/22/32 7/7/33 14/14/29 31/31/28 
f 24/24/16 21/21/15 32/32/31 29/29/30 
f 23/23/21 8/8/23 35/35/34 10/10/22 
f 5/5/20 20/20/35 39/46/14 6/6/13 
f 24/24/16 29/29/30 30/30/24 23/23/21 
f 22/22/32 31/31/28 32/32/31 21/21/15 
f 29/29/30 25/25/26 26/26/9 30/30/24 
f 31/31/28 27/27/11 28/28/27 32/32/31 
f 25/25/26 37/44/6 38/38/10 26/26/9 
f 27/27/11 39/39/14 40/45/7 28/28/27 
f 7/7/33 22/22/32 33/33/36 36/36/37 
f 22/22/32 21/21/15 34/34/18 33/33/36 
f 19/19/4 40/40/7 39/46/14 20/20/35 
f 17/17/38 38/42/10 37/37/6 18/18/5 
f 17/17/38 1/1/1 4/43/3 38/42/10 
#end 27 faces

#ZOMPROPERTIES_04{
#ZOMPROPERTIES_04 table {Mesh table {SymPlane table {Point vector3d 0 0 0 Normal vector3d 1 0 0 Threshold double 0.01 
#ZOMPROPERTIES_04 Enabled bool false EdgeID int -1 SymEdgeID int -1 UPos double 0.5 LocalMode bool false } RootGroup C
#ZOMPROPERTIES_04 SubMeshGroup {Children table {Tile_0_0 CSubMeshGroup {Children table {} BBoxUV box3d 0 0 0 0 0 0 BBo
#ZOMPROPERTIES_04 x3D box3d 0 0 0 0 0 0 Area3D double 0 AreaUV double 0.442701 IsRoot bool false TopoStable table {Sel
#ZOMPROPERTIES_04 ected bool false Box box3d 0 1 0 1 0 1 U int 0 V int 0 NU int 0 NV int 0 Tiling vector3d 1 1 1 TileR
#ZOMPROPERTIES_04 atioMode string "1:1" Pack table {BoxFrameLocked bool false BoxFrameEdit bool false } } IsTile bool 
#ZOMPROPERTIES_04 true PolyIDs ints { 0 26 25 1 24 15 5 2 20 8 21 3 9 12 22 23 4 6 14 7 10 16 18 11 13 17 19 } } } BBo
#ZOMPROPERTIES_04 xUV box3d 0 0 0 0 0 0 BBox3D box3d 0 0 0 0 0 0 Area3D double 0 AreaUV double 0 IsRoot bool true Topo
#ZOMPROPERTIES_04 Stable table {Selected bool false Box box3d 0 1 0 1 0 1 U int 0 V int 0 NU int 1 NV int 1 Tiling vec
#ZOMPROPERTIES_04 tor3d 1 1 1 TileRatioMode string "1:1" Pack table {Rotate table {Mode int 2 Min double 0 Max double 
#ZOMPROPERTIES_04 90 Step double 0 } PaddingSize double 0.0078125 MarginSize double 0.00390625 Resolution int 256 MapR
#ZOMPROPERTIES_04 esolution int 2048 Scaling table {TexelDensity double 1024 Mode int 0 } LayoutScalingMode int 2 MaxM
#ZOMPROPERTIES_04 utations int 1 } } IsTile bool false PolyIDs ints { } } Maps table {Density table {PrimType string "
#ZOMPROPERTIES_04 Polygon" Size int 1 DefaultValue double 1 ScaleType string "Log" MergeMode string "Average" MinValue
#ZOMPROPERTIES_04  double 0.1 MaxValue double 4 Data doubles { r 27 1 } } Pin table {PrimType string "Vertex" Size int
#ZOMPROPERTIES_04  1 DefaultValue double 0 ScaleType string "Normalized" MergeMode string "Max" MinValue double 0 MaxV
#ZOMPROPERTIES_04 alue double 1 Data doubles { r 46 0 } } Protect table {PrimType string "Vertex" Size int 1 DefaultVa
#ZOMPROPERTIES_04 lue double 0 ScaleType string "Normalized" MergeMode string "Average" MinValue double -1 MaxValue do
#ZOMPROPERTIES_04 uble 1 Data doubles { r 46 0 } } } } }
#ZOMPROPERTIES_04}


#ZOMSCENE_01{
#ZOMSCENE_01 CScene {Settings table {AxisSystem table {UpVector string "y" } Unit string "m" } }
#ZOMSCENE_01}

#begin 0 fatal error vertex (that RizomUV cannot handle)
#end 0 fatal error vertex (that RizomUV cannot handle)

#begin 0 error vertex
#end 0 error vertex
