#File written by RizomUV 2022.0.11.g5424fda. Compilation :Nov 24 2021,04:16:21
mtllib 
#begin vertices
v 81.74091 7.112968 95.0709
v 83.38145 7.112968 91.26546
v 81.94702 7.112968 89.54413
v 79.42949 7.112968 92.55943
v 89.22473 7.088304 96.98878
v 89.68098 7.088305 94.26704
v 79.30028 7.112969 86.0283
v 74.84129 7.112969 89.11924
v 76.41716 7.11297 81.80553
v 73.11917 7.112969 85.03701
v 73.44052 7.11297 78.4597
v 70.32826 7.11297 81.5092
v 69.96274 7.112971 76.26742
v 68.1965 7.11297 80.46217
v 63.82149 7.112971 73.70421
v 63.19772 7.11297 79.15401
v 56.06847 7.112971 75.26444
v 58.70459 7.11297 80.51706
v 51.48604 7.11297 79.53084
v 54.12215 7.112969 84.78346
v 47.6302 7.11297 80.89673
v 48.4971 7.112969 87.52596
v 41.59008 7.11297 80.58698
v 40.63192 7.112969 87.20364
v 36.55523 7.11297 78.53735
v 34.52672 7.112969 84.90786
v 31.65677 7.112971 76.08812
v 29.62825 7.11297 82.45863
v 76.37051 6.90673 94.55514
v 78.51299 6.90673 94.18806
v 77.18327 6.906728 103.1419
v 80.37288 6.906728 102.5954
v 74.92119 6.906728 108.9098
v 83.54992 6.906728 110.5518
v 75.79257 6.906725 124.4205
v 84.46487 6.906726 122.6205
v 68.35954 6.906728 111.1266
v 69.10915 6.906725 124.4694
v 59.6966 6.906727 113.9328
v 60.17006 6.906726 122.3602
v 90.24798 6.847692 97.07999
v 90.10193 6.267219 97.05987
v 90.60387 5.713106 97.03232
v 90.84775 6.190324 97.06628
v 90.77827 4.920578 96.99189
v 91.05557 5.292341 97.03052
v 90.7765 -55.87502 96.99165
v 91.05557 -55.87502 97.03051
v 90.6704 6.847692 94.51631
v 90.53345 6.275797 94.47172
v 89.5997 6.482616 94.24088
v 91.1417 4.922377 94.6291
v 91.14035 -55.87502 94.62865
v 89.13071 6.482618 96.97603
v 90.99581 5.725203 94.58504
v 91.38031 -55.87502 94.70712
v 91.38032 5.292341 94.70713
v 91.21091 6.190325 94.65539
#end vertices

#begin 65 textures vertices 
vt 0.2518924 0.613976 0
vt 0.4772396 0.6046993 0
vt 0.4772396 0.6208561 0
vt 0.2440406 0.6218157 0
vt 0.03414785 0.565165 0
vt 0.4772396 0.5652828 0
vt 0.4772396 0.6428401 0
vt 0.008893737 0.6486673 0
vt 0.4772396 0.6688771 0
vt 0.008893737 0.6736396 0
vt 0.4772396 0.6900211 0
vt 0.008893737 0.7011514 0
vt 0.4772396 0.708306 0
vt 0.008893737 0.7159047 0
vt 0.4772396 0.7374859 0
vt 0.008893737 0.7481303 0
vt 0.4772396 0.7726963 0
vt 0.008893737 0.7763199 0
vt 0.4772396 0.8038677 0
vt 0.008893737 0.8088599 0
vt 0.4772396 0.8291117 0
vt 0.008893737 0.8370783 0
vt 0.4772396 0.8664494 0
vt 0.008893737 0.8735081 0
vt 0.4772396 0.8989828 0
vt 0.008893737 0.9047921 0
vt 0.4772396 0.9296449 0
vt 0.008893737 0.9335339 0
vt 0.008893737 0.6156997 0
vt 0.231653 0.6144921 0
vt 0.008893737 0.5698705 0
vt 0.231653 0.5667783 0
vt 0.02170704 0.4749391 0
vt 0.231653 0.5155884 0
vt 0.2132439 0.3526092 0
vt 0.2276965 0.4294691 0
vt 0.03117702 0.3105019 0
vt 0.2138224 0.2846878 0
vt 0.04575431 0.2242387 0
vt 0.1775812 0.1942667 0
vt 0.03414785 0.555796 0
vt 0.01405385 0.555796 0
vt 0.01405385 0.544978 0
vt 0.03414785 0.544978 0
vt 0.01405385 0.533853 0
vt 0.03414785 0.533853 0
vt 0.01405385 0.007869 0
vt 0.03414785 0.007871 0
vt 0.2470298 0.555796 0
vt 0.2671448 0.555796 0
vt 0.2671448 0.565165 0
vt 0.2671448 0.533853 0
vt 0.2671448 0.00771 0
vt 0.4773088 0.565165 0
vt 0.2671448 0.544978 0
vt 0.2470298 0.007706 0
vt 0.2470298 0.533853 0
vt 0.2470298 0.544978 0
vt 0.4773088 0.533853 0
vt 0.2670062 0.5649913 0
vt 0.01405385 0.565165 0
vt 0.2470298 0.565165 0
vt 0.4773088 0.555796 0
vt 0.4773088 0.544978 0
vt 0.4773088 0.007544 0
#end 65 textures vertices 

#begin 25 normals 
vn 0 1 0
vn -0.0094 0.9997 0.0205
vn -0.2877 0.6999 0.6538
vn -0.1707 0.8877 -0.4277
vn -0.0055 0.9999 0.0121
vn -0.014 0.9994 0.0306
vn -0.0161 0.9992 0.0353
vn 0.3292 0.632 0.7015
vn -0.337 -0.5686 0.7504
vn -0.6215 -0.3508 0.7005
vn 0.6264 0.3044 0.7176
vn -0.7779 -0.0812 0.6231
vn 0.6591 0.0467 0.7506
vn -0.6543 -0.5785 0.4871
vn 0.4921 -0.5772 0.6516
vn 0.5285 0.6539 -0.5414
vn -0.1078 -0.543 -0.8328
vn 0.5272 -0.6271 -0.5734
vn -0.492 -0.0735 -0.8675
vn -0.4226 -0.5904 -0.6877
vn -0.2041 -0.9543 0.2185
vn -0.3645 -0.3004 -0.8814
vn 0.7013 -0.563 -0.4373
vn 0.8595 0.0718 -0.5061
vn 0.8021 0.3334 -0.4955
#end 25 normals 

#begin 35 faces
o Plane:005
s 1
f 1/1/1 2/2/1 3/3/1 4/4/2 
f 2/2/1 1/1/1 5/60/3 6/6/4 
f 4/4/2 3/3/1 7/7/1 8/8/5 
f 8/8/5 7/7/1 9/9/1 10/10/1 
f 10/10/1 9/9/1 11/11/1 12/12/1 
f 12/12/1 11/11/1 13/13/1 14/14/1 
f 14/14/1 13/13/1 15/15/1 16/16/1 
f 16/16/1 15/15/1 17/17/1 18/18/1 
f 18/18/1 17/17/1 19/19/1 20/20/1 
f 20/20/1 19/19/1 21/21/1 22/22/1 
f 22/22/1 21/21/1 23/23/1 24/24/1 
f 24/24/1 23/23/1 25/25/1 26/26/1 
f 26/26/1 25/25/1 27/27/1 28/28/1 
f 4/4/2 8/8/5 29/29/6 30/30/7 
f 30/30/7 29/29/6 31/31/1 32/32/1 
f 32/32/1 31/31/1 33/33/1 34/34/1 
f 34/34/1 33/33/1 35/35/1 36/36/1 
f 35/35/1 33/33/1 37/37/1 38/38/1 
f 38/38/1 37/37/1 39/39/1 40/40/1 
f 41/41/8 42/42/9 43/43/10 44/44/11 
f 44/44/11 43/43/10 45/45/12 46/46/13 
f 46/46/13 45/45/12 47/47/14 48/48/15 
f 49/49/16 50/50/17 51/51/18 6/62/4 
f 52/52/19 53/53/20 47/65/14 45/59/12 
f 42/63/9 54/54/21 51/51/18 50/50/17 
f 43/64/10 42/63/9 50/50/17 55/55/22 
f 45/59/12 43/64/10 55/55/22 52/52/19 
f 56/56/23 53/53/20 52/52/19 57/57/24 
f 57/57/24 52/52/19 55/55/22 58/58/25 
f 5/5/3 54/61/21 42/42/9 41/41/8 
f 58/58/25 55/55/22 50/50/17 49/49/16 
f 41/41/8 49/49/16 6/62/4 5/5/3 
f 44/44/11 58/58/25 49/49/16 41/41/8 
f 44/44/11 46/46/13 57/57/24 58/58/25 
f 48/48/15 56/56/23 57/57/24 46/46/13 
#end 35 faces

#ZOMPROPERTIES_04{
#ZOMPROPERTIES_04 table {Mesh table {EdgesUVW table {ConstrainedV ints { 33 31 32 30 31 29 30 28 27 25 26 24 25 23 24 
#ZOMPROPERTIES_04 22 23 21 22 20 21 19 20 18 19 17 18 16 17 15 16 14 15 13 14 12 13 11 12 10 11 9 10 8 28 7 9 7 8 r 2 
#ZOMPROPERTIES_04 6 2 5 1 2 1 } } SymPlane table {Point vector3d 0 0 0 Normal vector3d 1 0 0 Threshold double 0.01 Ena
#ZOMPROPERTIES_04 bled bool false EdgeID int -1 SymEdgeID int -1 UPos double 0.5 LocalMode bool false } RootGroup CSub
#ZOMPROPERTIES_04 MeshGroup {Children table {Tile_0_0 CSubMeshGroup {Children table {} BBoxUV box3d 0 0 0 0 0 0 BBox3D
#ZOMPROPERTIES_04  box3d 0 0 0 0 0 0 Area3D double 0 AreaUV double 0.496407 IsRoot bool false TopoStable table {Select
#ZOMPROPERTIES_04 ed bool false Box box3d 0 1 0 1 0 1 U int 0 V int 0 NU int 0 NV int 0 Tiling vector3d 1 1 1 TileRati
#ZOMPROPERTIES_04 oMode string "1:1" Pack table {BoxFrameLocked bool false BoxFrameEdit bool false } } IsTile bool tru
#ZOMPROPERTIES_04 e PolyIDs ints { 0 2 3 4 5 6 7 8 9 10 11 12 13 14 15 16 17 18 1 19 20 21 34 33 28 30 22 24 31 29 25 
#ZOMPROPERTIES_04 32 26 23 27 } } } BBoxUV box3d 0 0 0 0 0 0 BBox3D box3d 0 0 0 0 0 0 Area3D double 0 AreaUV double 0 
#ZOMPROPERTIES_04 IsRoot bool true TopoStable table {Selected bool false Box box3d 0 1 0 1 0 1 U int 0 V int 0 NU int 
#ZOMPROPERTIES_04 1 NV int 1 Tiling vector3d 1 1 1 TileRatioMode string "1:1" Pack table {Rotate table {Mode int 2 Min
#ZOMPROPERTIES_04  double 0 Max double 90 Step double 0 } PaddingSize double 0.0078125 MarginSize double 0.00390625 Re
#ZOMPROPERTIES_04 solution int 256 MapResolution int 2048 Scaling table {TexelDensity double 1024 Mode int 0 } LayoutS
#ZOMPROPERTIES_04 calingMode int 2 MaxMutations int 1 } } IsTile bool false PolyIDs ints { } } Maps table {Density tab
#ZOMPROPERTIES_04 le {PrimType string "Polygon" Size int 1 DefaultValue double 1 ScaleType string "Log" MergeMode stri
#ZOMPROPERTIES_04 ng "Average" MinValue double 0.1 MaxValue double 4 Data doubles { r 35 1 } } Pin table {PrimType str
#ZOMPROPERTIES_04 ing "Vertex" Size int 1 DefaultValue double 0 ScaleType string "Normalized" MergeMode string "Max" M
#ZOMPROPERTIES_04 inValue double 0 MaxValue double 1 Data doubles { r 65 0 } } Protect table {PrimType string "Vertex"
#ZOMPROPERTIES_04  Size int 1 DefaultValue double 0 ScaleType string "Normalized" MergeMode string "Average" MinValue 
#ZOMPROPERTIES_04 double -1 MaxValue double 1 Data doubles { r 65 0 } } } } }
#ZOMPROPERTIES_04}


#ZOMSCENE_01{
#ZOMSCENE_01 CScene {Settings table {AxisSystem table {UpVector string "y" } Unit string "m" } }
#ZOMSCENE_01}

#begin 0 fatal error vertex (that RizomUV cannot handle)
#end 0 fatal error vertex (that RizomUV cannot handle)

#begin 0 error vertex
#end 0 error vertex
