#File written by RizomUV 2022.0.11.g5424fda. Compilation :Nov 24 2021,04:16:21
mtllib 
#begin vertices
v -7.866697 12.37106 40.30594
v -6.45702 12.37106 39.676
v -5.719174 12.37469 39.03725
v -5.97756 12.38985 38.78833
v -9.235942 12.37106 39.31628
v -8.97534 12.37116 37.41396
v -8.807491 11.44791 36.68267
v -5.421854 11.44854 37.71363
v -6.61731 7.266778 36.73766
v -6.08012 7.266885 37.08363
v -5.588309 12.29149 38.15617
v -9.016482 12.28898 37.28653
v -5.489845 11.94953 37.83957
v -8.907097 11.95028 37.03536
v -9.85523 12.37106 37.90692
v -9.128989 12.37106 37.33082
v -8.060147 12.37106 40.16611
v -8.577147 12.37106 39.79244
v -8.506212 12.37106 39.84371
v -9.013089 12.37106 39.47735
v -7.439632 11.44814 36.41164
v -8.07621 11.44802 36.41621
v -6.08012 11.44841 37.08363
v -6.61731 11.4483 36.73766
v -6.723202 12.29056 37.21577
v -6.187278 12.291 37.5619
v -8.181135 12.28946 36.93404
v -7.543102 12.2899 36.90556
v -6.629441 11.94981 36.87346
v -6.096128 11.94968 37.22101
v -8.078985 11.95013 36.62099
v -7.450536 11.95001 36.56903
v -8.07621 7.266496 36.41621
v -7.439632 7.266611 36.41164
v -5.421854 7.267011 37.71363
v -8.807491 7.266378 36.68267
v -7.092601 12.3829 37.90065
v -6.56055 12.38625 38.25494
v -8.415045 12.37454 37.41781
v -7.843767 12.3781 37.55416
#end vertices

#begin 40 textures vertices 
vt 0.4262895 0.9823887 0
vt 0.2119319 0.8574522 0
vt 0.118404 0.7584542 0
vt 0.177831 0.7409451 0
vt 0.7589171 0.9076912 0
vt 0.7963358 0.6828278 0
vt 0.8181579 0.5210355 0
vt 0.1336106 0.5180883 0
vt 0.4106074 0.02350358 0
vt 0.2910589 0.02464259 0
vt 0.1517608 0.6476812 0
vt 0.8104594 0.6633237 0
vt 0.1506848 0.5866431 0
vt 0.8156126 0.6059975 0
vt 0.9318655 0.7613824 0
vt 0.8271828 0.67726 0
vt 0.4693623 0.9745213 0
vt 0.5850947 0.9532594 0
vt 0.6006096 0.9494499 0
vt 0.7113634 0.9209001 0
vt 0.5681769 0.498404 0
vt 0.6803908 0.5052707 0
vt 0.297437 0.5046424 0
vt 0.4115259 0.4993422 0
vt 0.4067285 0.6088863 0
vt 0.296038 0.6201767 0
vt 0.6698265 0.6162394 0
vt 0.5601719 0.6042673 0
vt 0.4091221 0.5551365 0
vt 0.300374 0.5640945 0
vt 0.6671101 0.5640499 0
vt 0.5599532 0.5532255 0
vt 0.6972255 0.02507393 0
vt 0.5771999 0.02332678 0
vt 0.123709 0.02672464 0
vt 0.8426918 0.02827868 0
vt 0.4321954 0.695121 0
vt 0.3154952 0.7107153 0
vt 0.695041 0.6743538 0
vt 0.5855646 0.6784539 0
#end 40 textures vertices 

#begin 38 normals 
vn -0.0043 1 0.0062
vn 0.0159 0.9994 0.0297
vn 0.0306 0.9994 -0.0171
vn -0.0056 1 0.001
vn -0.0063 1 0.0019
vn 0.0251 0.9982 -0.0552
vn 0.0111 0.9975 -0.0691
vn 0.2875 0.9125 -0.2911
vn 0.3037 0.8806 -0.3637
vn 0.0371 0.9981 -0.0499
vn -0.1445 0.8315 -0.5364
vn -0.1986 0.8366 -0.5105
vn -0.0265 0.9949 -0.0969
vn -0.0236 0.9921 -0.1235
vn 0.3486 0.1579 -0.9239
vn 0.4526 -0.007 -0.8917
vn 0.4494 -0.1314 -0.8836
vn 0.2575 -0.163 -0.9524
vn -0.0001 1 -0
vn -0.0034 1 -0
vn 0.6192 -0.0077 -0.7852
vn 0.6039 -0.1233 -0.7875
vn 0.7635 0.043 -0.6444
vn 0.5521 0.4719 -0.6874
vn 0.6161 0.4881 -0.6182
vn 0.2068 0.8921 -0.4016
vn 0.0687 0.8808 -0.4684
vn -0.1922 0.5111 -0.8378
vn -0.3583 0.4927 -0.793
vn 0.3933 0.4935 -0.7757
vn 0.1387 0.5106 -0.8486
vn -0.4235 0.1935 -0.885
vn -0.5041 0.0662 -0.8611
vn 0.6691 -0.117 -0.7339
vn -0.0041 1 0.0008
vn -0.0498 -0.1986 -0.9788
vn -0.2675 -0.1897 -0.9447
vn -0.0062 1 0.0029
#end 38 normals 

#begin 27 faces
o Plane:001
s 1
f 1/1/1 2/2/2 3/3/2 4/4/3 
f 19/19/4 18/18/5 37/37/6 40/40/7 
f 11/11/8 26/26/9 38/38/10 4/4/3 
f 27/27/11 12/12/12 6/6/13 39/39/14 
f 21/21/15 24/24/16 9/9/17 34/34/18 
f 15/15/19 5/5/20 6/6/13 16/16/19 
f 24/24/16 23/23/21 10/10/22 9/9/17 
f 8/8/23 23/23/21 30/30/24 13/13/25 
f 25/25/26 28/28/27 40/40/7 37/37/6 
f 31/31/28 14/14/29 12/12/12 27/27/11 
f 13/13/25 30/30/24 26/26/9 11/11/8 
f 29/29/30 32/32/31 28/28/27 25/25/26 
f 22/22/32 7/7/33 14/14/29 31/31/28 
f 24/24/16 21/21/15 32/32/31 29/29/30 
f 23/23/21 8/8/23 35/35/34 10/10/22 
f 5/5/20 20/20/35 39/39/14 6/6/13 
f 24/24/16 29/29/30 30/30/24 23/23/21 
f 22/22/32 31/31/28 32/32/31 21/21/15 
f 29/29/30 25/25/26 26/26/9 30/30/24 
f 31/31/28 27/27/11 28/28/27 32/32/31 
f 25/25/26 37/37/6 38/38/10 26/26/9 
f 27/27/11 39/39/14 40/40/7 28/28/27 
f 7/7/33 22/22/32 33/33/36 36/36/37 
f 22/22/32 21/21/15 34/34/18 33/33/36 
f 19/19/4 40/40/7 39/39/14 20/20/35 
f 17/17/38 38/38/10 37/37/6 18/18/5 
f 17/17/38 1/1/1 4/4/3 38/38/10 
#end 27 faces

#ZOMPROPERTIES_04{
#ZOMPROPERTIES_04 table {Mesh table {SymPlane table {Point vector3d 0 0 0 Normal vector3d 1 0 0 Threshold double 0.01 
#ZOMPROPERTIES_04 Enabled bool false EdgeID int -1 SymEdgeID int -1 UPos double 0.5 LocalMode bool false } RootGroup C
#ZOMPROPERTIES_04 SubMeshGroup {Children table {Tile_0_0 CSubMeshGroup {Children table {} BBoxUV box3d 0 0 0 0 0 0 BBo
#ZOMPROPERTIES_04 x3D box3d 0 0 0 0 0 0 Area3D double 0 AreaUV double 0.625751 IsRoot bool false TopoStable table {Sel
#ZOMPROPERTIES_04 ected bool false Box box3d 0 1 0 1 0 1 U int 0 V int 0 NU int 0 NV int 0 Tiling vector3d 1 1 1 TileR
#ZOMPROPERTIES_04 atioMode string "1:1" Pack table {BoxFrameLocked bool false BoxFrameEdit bool false } } IsTile bool 
#ZOMPROPERTIES_04 true PolyIDs ints { 0 26 25 1 24 15 5 3 9 12 22 23 4 6 14 7 10 2 18 11 8 19 13 17 20 16 21 } } } BBo
#ZOMPROPERTIES_04 xUV box3d 0 0 0 0 0 0 BBox3D box3d 0 0 0 0 0 0 Area3D double 0 AreaUV double 0 IsRoot bool true Topo
#ZOMPROPERTIES_04 Stable table {Selected bool false Box box3d 0 1 0 1 0 1 U int 0 V int 0 NU int 1 NV int 1 Tiling vec
#ZOMPROPERTIES_04 tor3d 1 1 1 TileRatioMode string "1:1" Pack table {Rotate table {Mode int 2 Min double 0 Max double 
#ZOMPROPERTIES_04 90 Step double 0 } PaddingSize double 0.0078125 MarginSize double 0.00390625 Resolution int 256 MapR
#ZOMPROPERTIES_04 esolution int 2048 Scaling table {TexelDensity double 1024 Mode int 0 } LayoutScalingMode int 2 MaxM
#ZOMPROPERTIES_04 utations int 1 } } IsTile bool false PolyIDs ints { } } Maps table {Density table {PrimType string "
#ZOMPROPERTIES_04 Polygon" Size int 1 DefaultValue double 1 ScaleType string "Log" MergeMode string "Average" MinValue
#ZOMPROPERTIES_04  double 0.1 MaxValue double 4 Data doubles { r 27 1 } } Pin table {PrimType string "Vertex" Size int
#ZOMPROPERTIES_04  1 DefaultValue double 0 ScaleType string "Normalized" MergeMode string "Max" MinValue double 0 MaxV
#ZOMPROPERTIES_04 alue double 1 Data doubles { r 40 0 } } Protect table {PrimType string "Vertex" Size int 1 DefaultVa
#ZOMPROPERTIES_04 lue double 0 ScaleType string "Normalized" MergeMode string "Average" MinValue double -1 MaxValue do
#ZOMPROPERTIES_04 uble 1 Data doubles { r 40 0 } } } } }
#ZOMPROPERTIES_04}


#ZOMSCENE_01{
#ZOMSCENE_01 CScene {Settings table {AxisSystem table {UpVector string "y" } Unit string "m" } }
#ZOMSCENE_01}

#begin 0 fatal error vertex (that RizomUV cannot handle)
#end 0 fatal error vertex (that RizomUV cannot handle)

#begin 0 error vertex
#end 0 error vertex
