# Blender v3.0.0 OBJ File: 'Iles.blend'
# www.blender.org
o Plane.001
v 8.158348 -1.982715 -2.132796
v -1.695612 -1.982715 5.056045
v 9.597395 -1.982715 -0.012560
v 1.086590 -1.982715 7.542055
v -0.450505 -1.982715 1.195504
v 6.573889 -64.946739 6.819713
v 6.573890 -3.778677 6.819713
v 5.152287 -1.982715 6.224306
v 6.311910 -2.880694 6.803257
v 5.716330 -2.223327 6.569665
v 3.855305 -1.982715 -1.915096
v 8.535350 -64.946739 4.923409
v 8.535350 -3.778677 4.923408
v 8.394387 -2.880694 4.789957
v 7.926295 -2.223327 4.433202
v 7.414815 -1.982715 3.948759
vt 0.522682 0.000000
vt 1.000000 0.000000
vt 1.000000 1.000000
vt 0.511657 1.000000
vt 0.261341 0.000000
vt 0.274427 1.000000
vt 0.246752 1.000000
vt 0.470646 1.000000
vt 0.522682 1.000000
vt 0.261341 1.000000
vt 0.488849 1.000000
vt 0.259944 1.000000
vt 0.470944 1.000000
vt 0.246411 1.000000
vt 0.000000 0.000000
vt 0.037196 1.000000
vn 0.0000 1.0000 0.0000
vn 0.0806 0.9934 0.0817
vn 0.0857 0.9925 0.0869
vn 0.6912 0.1058 0.7149
vn 0.6907 0.1122 0.7144
vn 0.6951 0.0000 0.7189
vn 0.3651 0.8522 0.3747
vn 0.3972 0.8218 0.4085
vn 0.6074 0.4861 0.6283
vn 0.6230 0.4432 0.6445
s 1
f 5/1/1 2/2/1 4/3/1 8/4/2
f 11/5/1 5/1/1 8/4/2 16/6/3
f 13/7/4 7/8/5 6/9/6 12/10/6
f 10/11/7 15/12/8 16/6/3 8/4/2
f 9/13/9 14/14/10 15/12/8 10/11/7
f 7/8/5 13/7/4 14/14/10 9/13/9
f 1/15/1 11/5/1 16/6/3 3/16/1
