# 3ds Max Wavefront OBJ Exporter v0.99 - (c)2007 guruware
# File Created: 09.05.2022 12:12:32

#
# object LTypeStair001
#

v  8.0750 4.7500 -8.5000
v  8.0750 4.7500 -4.2500
v  7.6500 4.7500 -8.5000
v  7.6500 4.7500 -4.2500
v  7.6500 4.5000 -8.5000
v  7.6500 4.5000 -4.2500
v  7.2250 4.5000 -8.5000
v  7.2250 4.5000 -4.2500
v  7.2250 4.2500 -8.5000
v  7.2250 4.2500 -4.2500
v  6.8000 4.2500 -8.5000
v  6.8000 4.2500 -4.2500
v  6.8000 4.0000 -8.5000
v  6.8000 4.0000 -4.2500
v  6.3750 4.0000 -8.5000
v  6.3750 4.0000 -4.2500
v  6.3750 3.7500 -8.5000
v  6.3750 3.7500 -4.2500
v  5.9500 3.7500 -8.5000
v  5.9500 3.7500 -4.2500
v  5.9500 3.5000 -8.5000
v  5.9500 3.5000 -4.2500
v  5.5250 3.5000 -8.5000
v  5.5250 3.5000 -4.2500
v  5.5250 3.2500 -8.5000
v  5.5250 3.2500 -4.2500
v  5.1000 3.2500 -8.5000
v  5.1000 3.2500 -4.2500
v  5.1000 3.0000 -8.5000
v  5.1000 3.0000 -4.2500
v  4.6750 3.0000 -8.5000
v  4.6750 3.0000 -4.2500
v  4.6750 2.7500 -8.5000
v  4.6750 2.7500 -4.2500
v  4.2500 2.7500 -8.5000
v  4.2500 2.7500 -4.2500
v  0.0000 2.2500 -4.2500
v  4.2500 2.2500 -4.2500
v  0.0000 2.2500 -3.8250
v  4.2500 2.2500 -3.8250
v  0.0000 2.0000 -3.8250
v  4.2500 2.0000 -3.8250
v  0.0000 2.0000 -3.4000
v  4.2500 2.0000 -3.4000
v  0.0000 1.7500 -3.4000
v  4.2500 1.7500 -3.4000
v  0.0000 1.7500 -2.9750
v  4.2500 1.7500 -2.9750
v  0.0000 1.5000 -2.9750
v  4.2500 1.5000 -2.9750
v  0.0000 1.5000 -2.5500
v  4.2500 1.5000 -2.5500
v  0.0000 1.2500 -2.5500
v  4.2500 1.2500 -2.5500
v  0.0000 1.2500 -2.1250
v  4.2500 1.2500 -2.1250
v  0.0000 1.0000 -2.1250
v  4.2500 1.0000 -2.1250
v  0.0000 1.0000 -1.7000
v  4.2500 1.0000 -1.7000
v  0.0000 0.7500 -1.7000
v  4.2500 0.7500 -1.7000
v  0.0000 0.7500 -1.2750
v  4.2500 0.7500 -1.2750
v  0.0000 0.5000 -1.2750
v  4.2500 0.5000 -1.2750
v  0.0000 0.5000 -0.8500
v  4.2500 0.5000 -0.8500
v  0.0000 0.2500 -0.8500
v  4.2500 0.2500 -0.8500
v  0.0000 0.2500 -0.4250
v  4.2500 0.2500 -0.4250
v  0.0000 0.0000 -0.4250
v  4.2500 0.0000 -0.4250
v  4.2500 2.5000 -4.2500
v  0.0000 2.5000 -4.2500
v  0.0000 2.5000 -8.5000
v  4.2500 2.5000 -8.5000
v  4.2500 0.2500 -0.4250
v  4.5730 0.2500 -0.4250
v  4.2500 2.2500 -3.8250
v  4.5730 2.2500 -3.8250
v  4.2500 2.2543 -4.2500
v  4.2500 3.0000 -3.8250
v  4.5730 3.0000 -3.8250
v  4.5730 3.0000 -4.2500
v  4.2500 3.0000 -4.2500
v  7.6500 4.7500 -3.8250
v  7.6500 4.7500 -4.2500
v  8.0750 4.7500 -3.8250
v  8.0750 4.7500 -4.2500
v  7.6500 -0.0000 -3.8250
v  8.0750 -0.0000 -3.8250
v  4.2500 0.0000 -0.4250
v  4.5730 0.0000 -0.4250
v  4.5730 -0.0000 -3.8250
v  8.0750 2.2599 -3.8250
v  7.6500 2.2587 -3.8250
v  4.2500 0.0000 -3.8250
v  4.2500 0.0000 -4.2500
v  7.6500 2.2599 -4.2500
v  8.0750 2.2599 -4.2500
v  4.5730 2.2587 -4.2500
v  -0.1552 0.2500 -0.4250
v  0.1678 0.2500 -0.4250
v  -0.3230 2.7500 -4.2500
v  0.0000 2.7500 -4.2500
v  -0.1552 0.0000 -0.4250
v  0.1678 0.0000 -0.4250
v  -0.3230 0.0000 -4.2500
v  -0.3230 2.7500 -8.5000
v  0.0000 2.7500 -8.5000
v  -0.3230 2.7500 -8.8230
v  0.0000 2.7500 -8.8230
v  4.2500 2.7500 -8.5000
v  4.2500 2.7500 -8.8230
v  7.6500 4.7500 -8.5000
v  7.6500 4.7500 -8.8230
v  8.0750 4.7500 -8.5000
v  8.0750 4.7500 -8.8230
v  7.6500 -0.0000 -8.8230
v  8.0750 -0.0000 -8.8230
v  -0.3230 0.0000 -8.5000
v  -0.3230 0.0000 -8.8230
v  0.0000 -0.0000 -8.8230
v  4.2500 0.0000 -8.8230
v  0.0000 -0.0000 -4.2500
v  0.0000 -0.0000 -8.5000
v  4.2500 -0.0000 -8.5000
v  7.6500 -0.0000 -8.5000
v  8.0750 -0.0000 -8.5000
# 131 vertices

vn 0.0000 1.0000 -0.0000
vn 0.0000 1.0000 -0.0000
vn 0.0000 1.0000 -0.0000
vn 0.0000 1.0000 -0.0000
vn -1.0000 0.0000 -0.0000
vn -1.0000 0.0000 -0.0000
vn -1.0000 0.0000 -0.0000
vn -1.0000 0.0000 -0.0000
vn 0.0000 1.0000 -0.0000
vn 0.0000 1.0000 -0.0000
vn 0.0000 1.0000 -0.0000
vn 0.0000 1.0000 -0.0000
vn -1.0000 0.0000 -0.0000
vn -1.0000 0.0000 -0.0000
vn -1.0000 0.0000 -0.0000
vn -1.0000 0.0000 -0.0000
vn 0.0000 1.0000 -0.0000
vn 0.0000 1.0000 -0.0000
vn 0.0000 1.0000 -0.0000
vn 0.0000 1.0000 -0.0000
vn -1.0000 0.0000 -0.0000
vn -1.0000 0.0000 -0.0000
vn -1.0000 0.0000 -0.0000
vn -1.0000 0.0000 -0.0000
vn 0.0000 1.0000 -0.0000
vn 0.0000 1.0000 -0.0000
vn 0.0000 1.0000 -0.0000
vn 0.0000 1.0000 -0.0000
vn -1.0000 0.0000 -0.0000
vn -1.0000 0.0000 -0.0000
vn -1.0000 0.0000 -0.0000
vn -1.0000 0.0000 -0.0000
vn 0.0000 1.0000 -0.0000
vn 0.0000 1.0000 -0.0000
vn 0.0000 1.0000 -0.0000
vn 0.0000 1.0000 -0.0000
vn -1.0000 0.0000 -0.0000
vn -1.0000 0.0000 -0.0000
vn -1.0000 0.0000 -0.0000
vn -1.0000 0.0000 -0.0000
vn 0.0000 1.0000 -0.0000
vn 0.0000 1.0000 -0.0000
vn 0.0000 1.0000 -0.0000
vn 0.0000 1.0000 -0.0000
vn -1.0000 0.0000 -0.0000
vn -1.0000 0.0000 -0.0000
vn -1.0000 0.0000 -0.0000
vn -1.0000 0.0000 -0.0000
vn 0.0000 1.0000 -0.0000
vn 0.0000 1.0000 -0.0000
vn 0.0000 1.0000 -0.0000
vn 0.0000 1.0000 -0.0000
vn -1.0000 0.0000 -0.0000
vn -1.0000 0.0000 -0.0000
vn -1.0000 0.0000 -0.0000
vn -1.0000 0.0000 -0.0000
vn 0.0000 1.0000 -0.0000
vn 0.0000 1.0000 -0.0000
vn 0.0000 1.0000 -0.0000
vn 0.0000 1.0000 -0.0000
vn -1.0000 0.0000 -0.0000
vn -1.0000 0.0000 -0.0000
vn -1.0000 0.0000 -0.0000
vn -1.0000 0.0000 -0.0000
vn 0.0000 1.0000 -0.0000
vn 0.0000 1.0000 -0.0000
vn 0.0000 1.0000 -0.0000
vn 0.0000 1.0000 -0.0000
vn 0.0000 1.0000 -0.0000
vn 0.0000 1.0000 -0.0000
vn 0.0000 1.0000 -0.0000
vn 0.0000 1.0000 -0.0000
vn 0.0000 0.0000 1.0000
vn 0.0000 0.0000 1.0000
vn 0.0000 0.0000 1.0000
vn 0.0000 0.0000 1.0000
vn 0.0000 1.0000 -0.0000
vn 0.0000 1.0000 -0.0000
vn 0.0000 1.0000 -0.0000
vn 0.0000 1.0000 -0.0000
vn 0.0000 0.0000 1.0000
vn 0.0000 0.0000 1.0000
vn 0.0000 0.0000 1.0000
vn 0.0000 0.0000 1.0000
vn 0.0000 1.0000 -0.0000
vn 0.0000 1.0000 -0.0000
vn 0.0000 1.0000 -0.0000
vn 0.0000 1.0000 -0.0000
vn 0.0000 -0.0000 1.0000
vn 0.0000 -0.0000 1.0000
vn 0.0000 -0.0000 1.0000
vn 0.0000 -0.0000 1.0000
vn 0.0000 1.0000 -0.0000
vn 0.0000 1.0000 -0.0000
vn 0.0000 1.0000 -0.0000
vn 0.0000 1.0000 -0.0000
vn 0.0000 0.0000 1.0000
vn 0.0000 0.0000 1.0000
vn 0.0000 0.0000 1.0000
vn 0.0000 0.0000 1.0000
vn 0.0000 1.0000 -0.0000
vn 0.0000 1.0000 -0.0000
vn 0.0000 1.0000 -0.0000
vn 0.0000 1.0000 -0.0000
vn 0.0000 0.0000 1.0000
vn 0.0000 0.0000 1.0000
vn 0.0000 0.0000 1.0000
vn 0.0000 0.0000 1.0000
vn 0.0000 1.0000 -0.0000
vn 0.0000 1.0000 -0.0000
vn 0.0000 1.0000 -0.0000
vn 0.0000 1.0000 -0.0000
vn 0.0000 0.0000 1.0000
vn 0.0000 0.0000 1.0000
vn 0.0000 0.0000 1.0000
vn 0.0000 0.0000 1.0000
vn 0.0000 1.0000 -0.0000
vn 0.0000 1.0000 -0.0000
vn 0.0000 1.0000 -0.0000
vn 0.0000 1.0000 -0.0000
vn 0.0000 0.0000 1.0000
vn 0.0000 0.0000 1.0000
vn 0.0000 0.0000 1.0000
vn 0.0000 0.0000 1.0000
vn 0.0000 1.0000 -0.0000
vn 0.0000 1.0000 -0.0000
vn 0.0000 1.0000 -0.0000
vn 0.0000 1.0000 -0.0000
vn 0.0000 0.0000 1.0000
vn 0.0000 0.0000 1.0000
vn 0.0000 0.0000 1.0000
vn 0.0000 0.0000 1.0000
vn 0.0000 1.0000 -0.0000
vn 0.0000 1.0000 -0.0000
vn 0.0000 1.0000 -0.0000
vn 0.0000 1.0000 -0.0000
vn 0.0000 0.0000 1.0000
vn 0.0000 0.0000 1.0000
vn 0.0000 0.0000 1.0000
vn 0.0000 0.0000 1.0000
vn 0.0000 1.0000 -0.0000
vn 0.0000 1.0000 -0.0000
vn 0.0000 1.0000 -0.0000
vn 0.0000 1.0000 -0.0000
vn 0.0000 0.0000 1.0000
vn 0.0000 0.0000 1.0000
vn 0.0000 0.0000 1.0000
vn 0.0000 0.0000 1.0000
vn -1.0000 0.0000 -0.0000
vn -1.0000 0.0000 -0.0000
vn -1.0000 0.0000 -0.0000
vn -1.0000 0.0000 -0.0000
vn 0.0000 0.8619 0.5070
vn 0.0000 0.8619 0.5070
vn 0.0000 0.8619 0.5070
vn 0.0000 0.8619 0.5070
vn -0.4576 0.8891 -0.0000
vn 0.0000 1.0000 -0.0000
vn 0.0000 1.0000 -0.0000
vn -0.4576 0.8891 -0.0000
vn 0.0000 0.0000 1.0000
vn 0.0000 0.0000 1.0000
vn 0.0000 0.0000 1.0000
vn 0.0000 0.0000 1.0000
vn -1.0000 0.0000 -0.0000
vn -1.0000 0.0000 -0.0000
vn -1.0000 0.0000 -0.0000
vn -1.0000 0.0000 -0.0000
vn -0.4470 0.8945 -0.0000
vn -0.4470 0.8945 -0.0000
vn -0.4576 0.8891 -0.0000
vn -0.4576 0.8891 -0.0000
vn 0.0000 1.0000 -0.0000
vn 0.0000 1.0000 -0.0000
vn -0.4470 0.8945 -0.0000
vn -0.4470 0.8945 -0.0000
vn 0.0000 0.0000 1.0000
vn 0.0000 0.0000 1.0000
vn 0.0000 0.0000 1.0000
vn 0.0000 0.0000 1.0000
vn 0.0000 0.0000 1.0000
vn 0.0000 0.0000 1.0000
vn 0.0000 0.0000 1.0000
vn 0.0000 0.0000 1.0000
vn 0.0000 0.0000 1.0000
vn 0.0000 0.0000 1.0000
vn 0.0000 0.0000 1.0000
vn 0.0000 0.0000 1.0000
vn 0.0000 0.0000 1.0000
vn 0.0000 0.0000 1.0000
vn 0.0000 0.0000 1.0000
vn 0.0000 0.0000 1.0000
vn 0.0000 0.0000 1.0000
vn 0.0000 0.0000 1.0000
vn 0.0000 0.0000 1.0000
vn 0.0000 0.0000 1.0000
vn 1.0000 0.0000 -0.0000
vn 1.0000 0.0000 -0.0000
vn 1.0000 0.0000 -0.0000
vn 1.0000 0.0000 -0.0000
vn -1.0000 0.0000 -0.0000
vn -1.0000 0.0000 -0.0000
vn -1.0000 0.0000 -0.0000
vn -1.0000 0.0000 -0.0000
vn -1.0000 0.0000 -0.0000
vn -1.0000 0.0000 -0.0000
vn -1.0000 0.0000 -0.0000
vn -1.0000 0.0000 -0.0000
vn 0.0000 0.0000 -1.0000
vn 0.0000 0.0000 -1.0000
vn 0.0000 0.0000 -1.0000
vn 0.0000 0.0000 -1.0000
vn 0.0000 0.0000 -1.0000
vn 0.0000 0.0000 -1.0000
vn 0.0000 0.0000 -1.0000
vn 0.0000 0.0000 -1.0000
vn 0.0000 0.0000 -1.0000
vn 0.0000 0.0000 -1.0000
vn 0.0000 0.0000 -1.0000
vn 0.0000 0.0000 -1.0000
vn 0.0000 0.8371 0.5471
vn 0.0000 0.8371 0.5471
vn 0.0000 0.8371 0.5471
vn 0.0000 0.8371 0.5471
vn 0.0000 0.0000 1.0000
vn 0.0000 0.0000 1.0000
vn 0.0000 0.0000 1.0000
vn 0.0000 0.0000 1.0000
vn 0.9990 0.0000 -0.0438
vn 0.9990 0.0000 -0.0438
vn 0.9999 -0.0000 -0.0144
vn 0.9999 -0.0000 -0.0104
vn -0.9990 0.0000 0.0438
vn -1.0000 0.0000 0.0098
vn -0.9999 0.0000 0.0137
vn -0.9990 0.0000 0.0438
vn 0.0000 1.0000 -0.0000
vn 0.0000 1.0000 -0.0000
vn 0.0000 1.0000 -0.0000
vn 0.0000 1.0000 -0.0000
vn 0.0000 1.0000 -0.0000
vn 0.0000 1.0000 -0.0000
vn 0.0000 1.0000 -0.0000
vn 0.0000 1.0000 -0.0000
vn -0.0000 1.0000 -0.0000
vn -0.0000 1.0000 -0.0000
vn 0.0000 1.0000 -0.0000
vn 0.0000 1.0000 -0.0000
vn -0.5070 0.8619 -0.0000
vn -0.5070 0.8619 -0.0000
vn -0.5070 0.8619 -0.0000
vn -0.5070 0.8619 -0.0000
vn 0.0000 1.0000 -0.0000
vn 0.0000 1.0000 -0.0000
vn 0.0000 1.0000 -0.0000
vn 0.0000 1.0000 -0.0000
vn 0.0000 0.0000 -1.0000
vn 0.0000 0.0000 -1.0000
vn 0.0000 0.0000 -1.0000
vn 0.0000 0.0000 -1.0000
vn -1.0000 0.0000 -0.0000
vn -0.9999 0.0000 0.0137
vn -1.0000 0.0000 0.0098
vn -1.0000 0.0000 -0.0000
vn -1.0000 0.0000 -0.0000
vn -1.0000 0.0000 -0.0000
vn -1.0000 0.0000 -0.0000
vn -1.0000 0.0000 -0.0000
vn 0.0000 0.0000 -1.0000
vn 0.0000 0.0000 -1.0000
vn 0.0000 0.0000 -1.0000
vn 0.0000 0.0000 -1.0000
vn 0.0000 0.0000 -1.0000
vn 0.0000 0.0000 -1.0000
vn 0.0000 0.0000 -1.0000
vn 0.0000 0.0000 -1.0000
vn 0.0000 0.0000 -1.0000
vn 0.0000 0.0000 -1.0000
vn 0.0000 0.0000 -1.0000
vn 0.0000 0.0000 -1.0000
vn 0.9999 -0.0000 -0.0144
vn 1.0000 -0.0000 -0.0000
vn 1.0000 -0.0000 -0.0000
vn 0.9999 -0.0000 -0.0104
vn 0.0000 0.0000 1.0000
vn 0.0000 0.0000 1.0000
vn 0.0000 0.0000 1.0000
vn 0.0000 0.0000 1.0000
vn 0.0000 0.0000 1.0000
vn 0.0000 0.0000 1.0000
vn 0.0000 0.0000 1.0000
vn 0.0000 0.0000 1.0000
vn 0.0000 0.0000 1.0000
vn 0.0000 0.0000 1.0000
vn 0.0000 0.0000 1.0000
vn 0.0000 0.0000 1.0000
# 296 vertex normals

vt 0.3613 0.3965 0.0000
vt 0.3481 0.3965 0.0000
vt 0.3481 0.2638 0.0000
vt 0.3613 0.2638 0.0000
vt 0.3403 0.3965 0.0000
vt 0.3403 0.2638 0.0000
vt 0.3270 0.3965 0.0000
vt 0.3270 0.2638 0.0000
vt 0.3192 0.3965 0.0000
vt 0.3192 0.2638 0.0000
vt 0.3059 0.3965 0.0000
vt 0.3059 0.2638 0.0000
vt 0.2981 0.3965 0.0000
vt 0.2981 0.2638 0.0000
vt 0.2849 0.3965 0.0000
vt 0.2849 0.2638 0.0000
vt 0.2771 0.3965 0.0000
vt 0.2771 0.2638 0.0000
vt 0.2638 0.3965 0.0000
vt 0.2638 0.2638 0.0000
vt 0.2560 0.3965 0.0000
vt 0.2560 0.2638 0.0000
vt 0.2427 0.3965 0.0000
vt 0.2427 0.2638 0.0000
vt 0.2349 0.3965 0.0000
vt 0.2349 0.2638 0.0000
vt 0.2217 0.3965 0.0000
vt 0.2217 0.2638 0.0000
vt 0.2139 0.3965 0.0000
vt 0.2139 0.2638 0.0000
vt 0.2006 0.3965 0.0000
vt 0.2006 0.2638 0.0000
vt 0.1928 0.3965 0.0000
vt 0.1928 0.2638 0.0000
vt 0.1795 0.3965 0.0000
vt 0.1795 0.2638 0.0000
vt 0.0391 0.2560 0.0000
vt 0.0391 0.2428 0.0000
vt 0.1717 0.2428 0.0000
vt 0.1717 0.2560 0.0000
vt 0.0391 0.2350 0.0000
vt 0.1717 0.2350 0.0000
vt 0.0391 0.2217 0.0000
vt 0.1717 0.2217 0.0000
vt 0.0391 0.2139 0.0000
vt 0.1717 0.2139 0.0000
vt 0.0391 0.2006 0.0000
vt 0.1717 0.2006 0.0000
vt 0.0391 0.1928 0.0000
vt 0.1717 0.1928 0.0000
vt 0.0391 0.1796 0.0000
vt 0.1717 0.1796 0.0000
vt 0.0391 0.1718 0.0000
vt 0.1717 0.1718 0.0000
vt 0.0391 0.1585 0.0000
vt 0.1717 0.1585 0.0000
vt 0.0391 0.1507 0.0000
vt 0.1717 0.1507 0.0000
vt 0.0391 0.1374 0.0000
vt 0.1717 0.1374 0.0000
vt 0.0391 0.1296 0.0000
vt 0.1717 0.1296 0.0000
vt 0.0391 0.1163 0.0000
vt 0.1717 0.1163 0.0000
vt 0.0391 0.1085 0.0000
vt 0.1717 0.1085 0.0000
vt 0.0391 0.0953 0.0000
vt 0.1717 0.0953 0.0000
vt 0.0391 0.0875 0.0000
vt 0.1717 0.0875 0.0000
vt 0.0391 0.0742 0.0000
vt 0.1717 0.0742 0.0000
vt 0.0391 0.0664 0.0000
vt 0.1717 0.0664 0.0000
vt 0.1717 0.3965 0.0000
vt 0.0391 0.3965 0.0000
vt 0.0391 0.2638 0.0000
vt 0.1717 0.2638 0.0000
vt 0.2623 0.1423 0.0000
vt 0.2623 0.0347 0.0000
vt 0.2972 0.0347 0.0000
vt 0.2972 0.1423 0.0000
vt 0.2014 0.1309 0.0000
vt 0.2014 0.1208 0.0000
vt 0.2146 0.1208 0.0000
vt 0.2146 0.1309 0.0000
vt 0.2246 0.1208 0.0000
vt 0.2146 0.0975 0.0000
vt 0.2246 0.0975 0.0000
vt 0.2014 0.0975 0.0000
vt 0.2623 0.2376 0.0000
vt 0.2418 0.2376 0.0000
vt 0.2418 0.1423 0.0000
vt 0.2623 0.1423 0.0000
vt 0.2623 0.2500 0.0000
vt 0.2418 0.2500 0.0000
vt 0.2972 0.2500 0.0000
vt 0.2972 0.2376 0.0000
vt 0.3535 0.2376 0.0000
vt 0.3535 0.2500 0.0000
vt 0.2623 0.0273 0.0000
vt 0.2972 0.0273 0.0000
vt 0.3535 0.1423 0.0000
vt 0.3535 0.0347 0.0000
vt 0.2014 0.0273 0.0000
vt 0.2146 0.0273 0.0000
vt 0.2418 0.1423 0.0000
vt 0.2418 0.0347 0.0000
vt 0.1816 0.2500 0.0000
vt 0.1816 0.2376 0.0000
vt 0.1914 0.0975 0.0000
vt 0.1914 0.1208 0.0000
vt 0.1816 0.1423 0.0000
vt 0.1184 0.5622 0.0000
vt 0.1184 0.4408 0.0000
vt 0.1277 0.4408 0.0000
vt 0.1277 0.5622 0.0000
vt 0.1184 0.4336 0.0000
vt 0.1277 0.4336 0.0000
vt 0.2168 0.4408 0.0000
vt 0.2168 0.5622 0.0000
vt 0.0293 0.5622 0.0000
vt 0.0293 0.4408 0.0000
vt 0.1277 0.6848 0.0000
vt 0.1184 0.6848 0.0000
vt 0.2539 0.5120 0.0000
vt 0.2441 0.5120 0.0000
vt 0.2441 0.5020 0.0000
vt 0.2539 0.5020 0.0000
vt 0.1277 0.8074 0.0000
vt 0.1184 0.8074 0.0000
vt 0.1184 0.6848 0.0000
vt 0.1277 0.9135 0.0000
vt 0.1184 0.9135 0.0000
vt 0.1277 0.9258 0.0000
vt 0.1184 0.9258 0.0000
vt 0.0293 0.9258 0.0000
vt 0.0293 0.9135 0.0000
vt 0.0293 0.6848 0.0000
vt 0.2441 0.5977 0.0000
vt 0.2344 0.5977 0.0000
vt 0.2344 0.5120 0.0000
vt 0.2539 0.5977 0.0000
vt 0.0293 0.8074 0.0000
vt 0.0293 0.6848 0.0000
vt 0.2168 0.6848 0.0000
vt 0.2168 0.8074 0.0000
vt 0.2168 0.9135 0.0000
vt 0.2168 0.9258 0.0000
# 149 texture coords

o LTypeStair001
g LTypeStair001
s 2
f 1/1/1 3/2/2 4/3/3 2/4/4 
s 4
f 3/2/5 5/5/6 6/6/7 4/3/8 
s 2
f 5/5/9 7/7/10 8/8/11 6/6/12 
s 4
f 7/7/13 9/9/14 10/10/15 8/8/16 
s 2
f 9/9/17 11/11/18 12/12/19 10/10/20 
s 4
f 11/11/21 13/13/22 14/14/23 12/12/24 
s 2
f 13/13/25 15/15/26 16/16/27 14/14/28 
s 4
f 15/15/29 17/17/30 18/18/31 16/16/32 
s 2
f 17/17/33 19/19/34 20/20/35 18/18/36 
s 4
f 19/19/37 21/21/38 22/22/39 20/20/40 
s 2
f 21/21/41 23/23/42 24/24/43 22/22/44 
s 4
f 23/23/45 25/25/46 26/26/47 24/24/48 
s 2
f 25/25/49 27/27/50 28/28/51 26/26/52 
s 4
f 27/27/53 29/29/54 30/30/55 28/28/56 
s 2
f 29/29/57 31/31/58 32/32/59 30/30/60 
s 4
f 31/31/61 33/33/62 34/34/63 32/32/64 
s 2
f 33/33/65 35/35/66 36/36/67 34/34/68 
f 37/37/69 39/38/70 40/39/71 38/40/72 
s 4
f 39/38/73 41/41/74 42/42/75 40/39/76 
s 2
f 41/41/77 43/43/78 44/44/79 42/42/80 
s 4
f 43/43/81 45/45/82 46/46/83 44/44/84 
s 2
f 45/45/85 47/47/86 48/48/87 46/46/88 
s 4
f 47/47/89 49/49/90 50/50/91 48/48/92 
s 2
f 49/49/93 51/51/94 52/52/95 50/50/96 
s 4
f 51/51/97 53/53/98 54/54/99 52/52/100 
s 2
f 53/53/101 55/55/102 56/56/103 54/54/104 
s 4
f 55/55/105 57/57/106 58/58/107 56/56/108 
s 2
f 57/57/109 59/59/110 60/60/111 58/58/112 
s 4
f 59/59/113 61/61/114 62/62/115 60/60/116 
s 2
f 61/61/117 63/63/118 64/64/119 62/62/120 
s 4
f 63/63/121 65/65/122 66/66/123 64/64/124 
s 2
f 65/65/125 67/67/126 68/68/127 66/66/128 
s 4
f 67/67/129 69/69/130 70/70/131 68/68/132 
s 2
f 69/69/133 71/71/134 72/72/135 70/70/136 
s 4
f 71/71/137 73/73/138 74/74/139 72/72/140 
s 1
f 78/75/141 77/76/142 76/77/143 75/78/144 
s 4
f 38/40/145 75/78/146 76/77/147 37/37/148 
s 8
f 35/35/149 78/75/150 75/78/151 36/36/152 
s 1
f 81/79/153 79/80/154 80/81/155 82/82/156 
s off
f 86/83/157 87/84/158 84/85/159 85/86/160 
f 85/87/161 84/85/162 81/88/163 82/89/164 
f 84/85/165 87/84/166 83/90/167 81/88/168 
f 88/91/169 89/92/170 86/93/171 85/94/172 
f 90/95/173 91/96/174 89/92/175 88/91/176 
f 97/97/177 98/98/178 92/99/179 93/100/180 
f 94/101/181 95/102/182 80/81/183 79/80/184 
f 98/98/185 88/91/186 85/94/187 82/82/188 
f 98/98/189 97/97/190 90/95/191 88/91/192 
f 92/99/193 98/98/194 82/82/195 96/103/196 
s 2
f 80/81/197 95/104/198 96/103/199 82/82/200 
s off
f 100/105/201 99/106/202 81/88/203 83/90/204 
s 2
f 79/80/205 81/79/206 99/107/207 94/108/208 
s off
f 102/109/209 101/110/210 89/92/211 91/96/212 
f 103/111/213 83/90/214 87/84/215 86/112/216 
s 1
f 101/110/217 103/113/218 86/93/219 89/92/220 
f 106/114/221 104/115/222 105/116/223 107/117/224 
s off
f 108/118/225 109/119/226 105/116/227 104/115/228 
s 2
f 105/116/229 109/120/230 127/121/231 107/117/232 
f 104/115/233 106/114/234 110/122/235 108/123/236 
s off
f 112/124/237 111/125/238 106/114/239 107/117/240 
f 114/126/241 113/127/242 111/128/243 112/129/244 
f 115/130/245 116/131/246 114/132/247 112/124/248 
f 117/133/249 118/134/250 116/131/251 115/130/252 
f 119/135/253 120/136/254 118/134/255 117/133/256 
f 122/137/257 121/138/258 118/134/259 120/136/260 
f 123/139/261 110/122/262 106/114/263 111/125/264 
f 124/140/265 123/141/266 111/142/267 113/127/268 
f 125/143/269 124/140/270 113/127/271 114/126/272 
f 126/144/273 125/145/274 114/132/275 116/131/276 
s 1
f 121/138/277 126/144/278 116/131/279 118/134/280 
s off
f 127/121/281 128/146/282 112/124/283 107/117/284 
f 128/146/285 129/147/286 115/130/287 112/124/288 
f 129/147/289 130/148/290 117/133/291 115/130/292 
f 130/148/293 131/149/294 119/135/295 117/133/296 
# 74 polygons

