# 3ds Max Wavefront OBJ Exporter v0.99 - (c)2007 guruware
# File Created: 24.03.2022 17:32:36

#
# object BarriereFin
#

v  -0.1763 0.0000 0.1417
v  0.1763 0.0000 0.1417
v  -0.1763 0.0000 -0.1417
v  0.1763 0.0000 -0.1417
v  -0.2484 1.4006 0.1997
v  0.2484 1.4006 0.1997
v  -0.2484 1.4006 -0.1997
v  0.2484 1.4006 -0.1997
# 8 vertices

vn 0.0000 1.0000 -0.0000
vn 0.0000 1.0000 -0.0000
vn 0.0000 1.0000 -0.0000
vn 0.0000 1.0000 -0.0000
vn 0.0000 -0.0414 0.9991
vn 0.0000 -0.0414 0.9991
vn 0.0000 -0.0414 0.9991
vn 0.0000 -0.0414 0.9991
vn 0.9987 -0.0514 -0.0000
vn 0.9987 -0.0514 -0.0000
vn 0.9987 -0.0514 -0.0000
vn 0.9987 -0.0514 -0.0000
vn -0.9987 -0.0514 -0.0000
vn -0.9987 -0.0514 -0.0000
vn -0.9987 -0.0514 -0.0000
vn -0.9987 -0.0514 -0.0000
vn 0.0000 -0.0414 -0.9991
vn 0.0000 -0.0414 -0.9991
vn 0.0000 -0.0414 -0.9991
vn 0.0000 -0.0414 -0.9991
# 20 vertex normals

vt 0.5625 0.3750 0.0000
vt 0.4688 0.3750 0.0000
vt 0.4688 0.2500 0.0000
vt 0.5625 0.2500 0.0000
vt 0.5636 0.4688 0.0000
vt 0.6719 0.4688 0.0000
vt 0.6719 0.8125 0.0000
vt 0.5636 0.8125 0.0000
vt 0.4766 0.4688 0.0000
vt 0.4766 0.8125 0.0000
vt 0.2813 0.4688 0.0000
vt 0.3683 0.4688 0.0000
vt 0.3683 0.8125 0.0000
vt 0.2813 0.8125 0.0000
# 14 texture coords

o BarriereFin
g BarriereFin
s 4
f 7/1/1 5/2/2 6/3/3 8/4/4 
s 8
f 6/5/5 5/6/6 1/7/7 2/8/8 
s 16
f 8/9/9 6/5/10 2/8/11 4/10/12 
s 64
f 5/11/13 7/12/14 3/13/15 1/14/16 
s 32
f 4/10/17 3/13/18 7/12/19 8/9/20 
# 5 polygons

