# Blender v3.0.0 OBJ File: ''
# www.blender.org
o Cube:001
v -29.237209 10.565130 21.324642
v -29.237209 10.016490 21.324642
v -29.424454 10.016490 18.270363
v -29.424454 11.084390 18.270363
v -29.268990 11.084390 20.806351
v -41.168922 11.499998 19.276207
v -36.950253 11.499999 20.659943
v -33.982998 11.499999 16.594200
v -37.373539 11.499999 17.592667
v -40.618507 11.499998 17.972164
v -32.512836 10.565130 23.720764
v -32.512836 10.016490 23.720764
v -29.991764 11.500000 21.876595
v -30.909412 11.500000 22.547855
v -41.976990 10.649569 19.011162
v -42.170883 11.100648 19.418446
v -41.786919 11.499998 19.540977
v -37.349701 10.016490 27.705338
v -38.653381 5.960683 25.423244
v -36.149288 5.960685 26.009922
v -35.297749 10.016490 27.707859
v -41.976990 10.016488 19.011162
v -40.325497 5.960682 20.078003
v -40.461666 5.960683 23.234520
v -43.984512 10.016488 23.228237
v -38.860397 10.016488 16.627525
v -37.771858 5.960682 17.607143
v -33.291412 10.016490 26.724262
v -33.846458 5.960685 25.213093
v -32.164356 5.960685 23.434818
v -32.126213 5.960684 18.970924
v -34.334419 5.960684 17.389915
v -33.361206 10.016489 15.742222
v -33.361206 10.858369 15.742222
v -38.860397 10.649569 16.627525
v -38.316525 11.005808 16.774876
v -35.297749 11.500000 27.707859
v -33.291412 11.500000 26.724262
v -32.835510 11.500000 24.965530
v -33.193340 11.500000 23.079746
v -34.022629 11.500000 22.298565
v -37.349701 11.100650 27.705338
v -36.950352 11.500000 27.705830
v -37.323391 11.500000 27.241322
v -43.131237 11.499809 23.003609
v -32.821323 11.499999 16.088943
v -29.774158 11.500000 18.045784
v -38.456898 3.626126 24.735081
v -36.282860 3.626127 25.514805
v -39.563519 3.626126 20.149597
v -39.788956 3.626126 22.738373
v -37.627853 3.626126 18.173687
v -34.055298 3.626128 24.949745
v -32.492371 3.626128 23.309582
v -32.892021 3.626127 19.118675
v -34.954754 3.626126 17.863663
v -31.499695 5.960685 21.175426
v -34.530785 -0.729510 22.376728
v -34.399517 -0.729510 21.600040
v -32.052505 3.626127 21.160843
v -37.038647 -0.729511 22.101551
v -36.615692 -0.729511 22.809563
v -35.870991 -0.729510 23.123970
v -36.942574 -0.729511 21.248211
v -36.327126 -0.729511 20.613544
v -35.083103 -0.729510 22.954662
v -35.465183 -0.729511 20.487392
v -34.738640 -0.729511 20.883816
v -29.662727 11.500000 21.175873
v -29.819622 11.500000 18.616547
v -43.344398 10.675298 21.883587
v -42.739346 10.566649 24.068455
vt 0.500023 0.919870
vt 0.499162 0.899916
vt 0.563476 0.899916
vt 0.557549 0.938824
vt 0.505928 0.938356
vt 0.605182 0.377111
vt 0.642482 0.241975
vt 0.799379 0.240743
vt 0.714120 0.308542
vt 0.648053 0.385100
vt 0.432749 0.919756
vt 0.433312 0.899916
vt 0.494386 0.950571
vt 0.465017 0.956304
vt 0.597390 0.415331
vt 0.581307 0.405000
vt 0.587047 0.387368
vt 0.243393 0.899916
vt 0.243393 0.737191
vt 0.305210 0.737191
vt 0.305210 0.899916
vt 0.096053 0.899916
vt 0.096053 0.737191
vt 0.171660 0.737191
vt 0.171660 0.899916
vt 0.714207 0.899916
vt 0.714207 0.737191
vt 0.791534 0.737191
vt 0.791534 0.899916
vt 0.368256 0.899916
vt 0.368256 0.737191
vt 0.433312 0.737191
vt 0.563476 0.737191
vt 0.635947 0.737191
vt 0.635947 0.899916
vt 0.643025 0.931204
vt 0.712624 0.921637
vt 0.716790 0.934266
vt 0.303119 0.954461
vt 0.365616 0.954619
vt 0.486549 0.077478
vt 0.545617 0.041568
vt 0.599603 0.058933
vt 0.645812 0.100078
vt 0.651621 0.135943
vt 0.719242 0.370732
vt 0.720915 0.349985
vt 0.243226 0.939892
vt 0.254164 0.954461
vt 0.457843 0.120259
vt 0.463403 0.138071
vt 0.413230 0.955439
vt 0.476745 0.358745
vt 0.635423 0.954314
vt 0.563810 0.955280
vt 0.243393 0.648590
vt 0.305210 0.648590
vt 0.096053 0.648590
vt 0.171660 0.648590
vt 0.714207 0.648590
vt 0.791534 0.648590
vt 0.368256 0.648590
vt 0.433312 0.648590
vt 0.563476 0.648590
vt 0.635947 0.648590
vt 0.499162 0.737191
vt 0.433312 0.464844
vt 0.499162 0.464844
vt 0.499162 0.648590
vt 0.171660 0.464844
vt 0.243393 0.464844
vt 0.305210 0.464844
vt 0.096053 0.464844
vt 0.714207 0.464844
vt 0.791534 0.464844
vt 0.368256 0.464844
vt 0.635947 0.464844
vt 0.563476 0.464844
vt 0.643532 0.056854
vt 0.775017 0.019531
vt 0.784018 0.040753
vt 0.764718 0.049181
vt 0.741161 0.043933
vt 0.800781 0.922835
vt 0.762029 0.954657
vt 0.706537 0.053763
vt 0.833499 0.220421
vt 0.837268 0.247314
vt 0.824499 0.100172
vt 0.839553 0.109652
vt 0.844184 0.092682
vt 0.445385 0.131844
vt 0.489838 0.396865
vt 0.086113 0.918599
vt 0.154323 0.924739
vt 0.094102 0.938326
vt 0.439169 0.339184
vt 0.437500 0.391781
vt 0.175724 0.918820
vn 0.9981 0.0000 -0.0612
vn 0.9176 -0.2052 0.3403
vn 0.8343 -0.2533 -0.4897
vn 0.8656 0.2773 -0.4168
vn 0.9309 0.3607 -0.0571
vn -0.0000 1.0000 0.0000
vn 0.5904 0.0000 0.8071
vn 0.8288 -0.0847 0.5531
vn -0.3286 0.5512 -0.7669
vn -0.2998 -0.2010 0.9326
vn -0.4760 -0.3390 0.8115
vn 0.0582 -0.3237 0.9444
vn 0.1866 -0.2060 0.9606
vn -0.7815 -0.2401 -0.5758
vn -0.8088 -0.3937 -0.4370
vn -0.8473 -0.4188 0.3267
vn -0.8779 -0.4271 0.2167
vn -0.4066 -0.1452 -0.9020
vn -0.3757 -0.2977 -0.8776
vn 0.9373 -0.0553 0.3442
vn 0.6028 -0.2192 0.7672
vn 0.8409 -0.1699 0.5138
vn 0.4034 -0.2050 0.8918
vn 0.7387 -0.4075 -0.5369
vn 0.2273 -0.3291 -0.9165
vn 0.2234 -0.1624 -0.9611
vn 0.2742 0.0550 -0.9601
vn -0.3863 0.0687 -0.9198
vn -0.1624 0.1270 -0.9785
vn 0.1694 0.6595 0.7324
vn 0.6054 0.6241 0.4939
vn 0.7009 0.7037 0.1165
vn 0.1687 0.9784 0.1193
vn -0.1115 0.8245 -0.5547
vn -0.1157 0.8294 -0.5465
vn -0.1131 0.8264 -0.5516
vn -0.0012 -0.0000 1.0000
vn -0.0009 0.6904 0.7234
vn 0.9680 0.0000 0.2509
vn 0.5404 0.0000 -0.8414
vn -0.5568 -0.3941 0.7312
vn -0.0315 -0.3465 0.9375
vn -0.8274 -0.4020 -0.3922
vn -0.8796 -0.4177 0.2279
vn -0.4042 -0.3765 -0.8336
vn 0.4864 -0.3066 0.8182
vn 0.8383 -0.3094 0.4489
vn 0.7026 -0.3870 -0.5972
vn 0.1888 -0.3782 -0.9063
vn 0.9361 -0.3296 0.1224
vn 0.7877 -0.4589 0.4111
vn 0.8729 -0.4801 -0.0869
vn 0.9326 -0.3540 -0.0701
vn -0.8156 -0.5428 0.2005
vn -0.5299 -0.5198 0.6701
vn -0.0440 -0.4847 0.8736
vn -0.7590 -0.5447 -0.3566
vn -0.3727 -0.5345 -0.7585
vn 0.4473 -0.4593 0.7674
vn 0.1741 -0.5223 -0.8348
vn 0.6502 -0.5054 -0.5673
vn 0.8472 0.5064 -0.1607
vn 0.8161 0.4325 0.3832
vn -0.6526 0.7059 -0.2754
vn -0.7880 -0.0000 -0.6157
vn -0.6075 0.0000 -0.7943
vn 0.1743 0.6400 0.7484
vn 0.0325 0.9897 0.1397
vn -0.1649 0.7921 -0.5877
vn -0.3067 0.6392 -0.7052
vn -0.2315 0.7273 -0.6462
vn 0.7477 0.6613 0.0596
vn 0.7203 0.6936 -0.0104
vn 0.7058 0.7071 -0.0433
vn -0.5442 0.6109 0.5750
vn -0.6151 0.6145 0.4940
vn -0.5254 0.6089 0.5943
vn -0.7321 0.6272 -0.2659
vn -0.9029 -0.0000 -0.4298
vn -0.4783 0.6022 0.6392
vn -0.8216 0.5109 0.2529
vn -0.5594 0.0000 0.8289
s 1
f 1/1/1 2/2/2 3/3/3 4/4/4 5/5/5
f 6/6/6 7/7/6 8/8/6 9/9/6 10/10/6
f 11/11/7 12/12/8 2/2/2 1/1/7 13/13/7 14/14/7
f 15/15/9 16/16/9 17/17/9 6/6/9
f 18/18/10 19/19/11 20/20/12 21/21/13
f 22/22/14 23/23/15 24/24/16 25/25/17
f 26/26/18 27/27/19 23/28/15 22/29/14
f 28/30/20 29/31/21 30/32/22 12/12/8
f 21/21/13 20/20/12 29/31/21 28/30/23
f 3/3/3 31/33/24 32/34/25 33/35/26
f 34/36/27 33/35/26 26/26/18 35/37/28 36/38/29
f 37/39/30 21/21/13 28/30/23 38/40/31
f 37/41/30 38/42/31 39/43/32 40/44/33 41/45/6
f 35/46/34 10/10/34 9/9/35 36/47/36
f 42/48/37 18/18/10 21/21/13 37/39/30 43/49/38
f 43/50/38 37/41/30 41/45/6 7/7/6 44/51/6
f 38/40/31 28/30/20 12/12/8 11/11/39 39/52/32
f 45/53/6 44/51/6 7/7/6 6/6/6 17/17/6
f 4/4/4 3/3/3 33/35/26 34/36/27 46/54/40 47/55/40
f 19/19/11 48/56/41 49/57/42 20/20/12
f 23/23/15 50/58/43 51/59/44 24/24/16
f 27/27/19 52/60/45 50/61/43 23/28/15
f 29/31/21 53/62/46 54/63/47 30/32/22
f 20/20/12 49/57/42 53/62/46 29/31/21
f 31/33/24 55/64/48 56/65/49 32/34/25
f 25/25/17 24/24/16 19/19/11 18/18/10
f 12/12/8 30/32/22 57/66/50 2/2/2
f 33/35/26 32/34/25 27/27/19 26/26/18
f 2/2/2 57/66/50 31/33/24 3/3/3
f 54/63/47 58/67/51 59/68/52 60/69/53
f 51/59/44 61/70/54 62/71/55 48/56/41
f 48/56/41 62/71/55 63/72/56 49/57/42
f 50/58/43 64/73/57 61/70/54 51/59/44
f 52/60/45 65/74/58 64/75/57 50/61/43
f 53/62/46 66/76/59 58/67/51 54/63/47
f 24/24/16 51/59/44 48/56/41 19/19/11
f 30/32/22 54/63/47 60/69/53 57/66/50
f 32/34/25 56/65/49 52/60/45 27/27/19
f 57/66/50 60/69/53 55/64/48 31/33/24
f 56/65/49 67/77/60 65/74/58 52/60/45
f 60/69/53 59/68/52 68/78/61 55/64/48
f 55/64/48 68/78/61 67/77/60 56/65/49
f 49/57/42 63/72/56 66/76/59 53/62/46
f 39/43/32 11/79/62 40/44/33
f 1/80/63 5/81/63 69/82/63 13/83/63
f 10/10/64 15/15/64 6/6/64
f 35/37/28 26/26/18 22/29/14 15/84/65 10/85/66
f 11/79/67 14/86/68 40/44/33
f 8/8/69 46/87/70 34/88/71
f 36/47/36 9/9/35 8/8/69 34/88/71
f 7/7/6 41/45/6 70/89/6 47/90/6 46/87/6 8/8/6
f 4/91/4 47/90/72 70/89/73
f 69/82/74 5/81/5 4/91/4 70/89/73
f 41/45/6 40/44/33 14/86/68 13/83/6 69/82/6 70/89/6
f 42/92/75 43/50/76 44/51/77
f 17/17/78 16/16/78 71/93/78 45/53/78
f 15/94/65 22/22/14 25/25/17 71/95/79 16/96/79
f 42/92/75 44/51/77 45/53/80 72/97/80
f 25/98/81 72/97/81 45/53/81 71/93/81
f 25/25/17 18/18/10 42/48/82 72/99/82
