#File written by RizomUV 2022.0.11.g5424fda. Compilation :Nov 24 2021,04:16:21
mtllib 
#begin vertices
v -56.12381 10.01649 5.988817
v -55.81136 10.01649 2.501198
v -55.81136 11.08439 2.501199
v -56.07079 11.08439 5.396991
v -68.69702 11.5 1.703552
v -64.73591 11.5 3.912809
v -60.68097 11.5 -0.177644
v -64.68828 11.5 0.369968
v -68.40488 11.5 0.245257
v -56.16719 11.5 7.858644
v -56.7811 9.149533 7.838433
v -56.45832 11.5 6.503959
v -66.39722 10.01648 11.81509
v -67.48041 5.960678 9.009445
v -64.74809 5.960679 10.10303
v -64.07616 10.01648 12.17018
v -69.49962 10.01648 1.272025
v -68.45461 5.960679 2.675043
v -69.12112 5.960678 6.227222
v -70.11434 10.01648 6.015543
v -66.20476 10.01648 -0.977181
v -65.1414 5.96068 0.31797
v -61.63744 10.01648 11.40178
v -62.00599 5.96068 9.596829
v -59.79768 5.96068 7.873713
v -58.98827 5.96068 2.830006
v -61.21514 5.960681 0.662268
v -59.83126 10.01649 -1.0348
v -59.83126 10.85837 -1.0348
v -66.20476 10.64957 -0.977181
v -65.61475 11.00581 -0.717115
v -64.07616 11.49999 12.17018
v -61.63744 11.49999 11.40178
v -60.81975 11.49999 9.490288
v -60.90087 11.5 7.295369
v -61.705 11.5 6.269222
v -71.37845 11.49999 9.496945
v -70.31577 11.5 5.302639
v -71.34204 10.15142 10.31705
v -65.9455 11.49999 11.8842
v -66.2878 11.49999 11.29464
v -54.14848 11.49999 21.03806
v -57.94465 11.49999 16.78751
v -61.16242 11.49999 18.48749
v -58.74249 11.49999 22.44099
v -59.27997 11.5 -0.549859
v -56.16845 11.5 2.187091
v -67.13998 3.626121 8.264614
v -64.81422 3.626121 9.519948
v -67.60484 3.626122 2.886838
v -68.30427 3.626121 5.776968
v -65.07573 3.626123 0.983651
v -62.19706 3.626122 9.263041
v -60.14728 3.626123 7.675718
v -59.88003 3.626123 2.865707
v -61.99829 3.626123 1.09176
v -58.65787 5.96068 5.431629
v -62.29332 -0.729514 6.27042
v -62.01149 -0.729514 5.414242
v -59.28079 3.626123 5.320235
v -65.08337 -0.729516 5.528605
v -64.72639 -0.729516 6.402221
v -63.93784 -0.729515 6.885761
v -64.8282 -0.729516 4.579665
v -64.02296 -0.729516 3.967277
v -63.0174 -0.729514 6.82946
v -63.02615 -0.729516 3.972512
v -62.27221 -0.729516 4.545724
v -56.57968 11.5 5.747464
v -56.31786 11.5 2.825023
v -70.64432 11.49999 18.10076
v -70.06464 11.49999 13.56932
v -72.44111 11.49999 13.69125
v -64.97953 11.49999 18.38408
v -63.4962 11.49999 22.63795
v -52.22124 11.49999 17.19044
v -55.87071 11.49999 13.67681
v -72.56974 10.28637 14.61856
v -72.58836 10.87699 14.36799
v -72.4855 11.10354 14.00005
v -68.47503 11.49999 16.72612
v -67.64384 11.49999 21.27647
v -52.59672 11.49999 12.46973
v -52.4038 11.10237 12.59762
v -51.99015 10.87516 12.93039
v -52.03551 10.27151 12.83505
v -54.59312 9.710525 10.11483
v -54.87373 11.49999 9.932164
v -51.55387 10.87459 17.67302
v -51.54189 10.28134 17.53284
v -53.39938 10.87621 21.64846
v -53.27733 10.27866 21.56638
v -58.08256 10.87536 23.1634
v -57.89512 10.28019 23.13069
v -63.0155 10.87547 23.44256
v -62.81916 10.28124 23.45953
v -67.31949 10.87566 22.15841
v -67.14474 10.28007 22.26248
v -70.56648 10.87486 18.91283
v -70.42021 10.2792 19.12294
v -51.99 11.10201 17.31129
v -53.85546 11.10304 21.22084
v -58.45939 11.1025 22.67712
v -63.27136 11.10257 22.91752
v -67.47914 11.10269 21.60936
v -70.57243 11.10218 18.44275
v -64.59318 5.926279 10.28604
v -66.89685 5.99699 12.26508
v -65.3574 6.315238 20.41319
v -62.49024 6.361014 21.41656
v -55.98912 6.080888 19.36807
v -54.7041 5.943464 15.70493
v -57.21268 5.733296 10.10413
v -61.6078 5.911882 9.722733
v -67.33807 6.221556 18.11199
v -59.50486 6.346618 20.85326
v -55.26757 5.826977 12.72251
v -67.90156 6.10507 15.12958
v -57.74028 3.897032 15.65083
v -58.00615 3.842069 14.24361
v -62.78912 3.816425 13.88396
v -63.26318 3.867419 15.23554
v -61.70216 3.783061 12.95017
v -62.06275 3.966586 17.72855
v -60.70992 3.988184 18.20198
v -58.21434 3.948028 17.00241
v -58.94071 3.797867 13.15782
v -60.29355 3.776267 12.68439
v -62.99731 3.922383 16.64276
v -59.3013 3.981392 17.93619
v -59.44232 1.300836 15.52284
v -59.54432 1.27975 14.98298
v -61.37927 1.269912 14.845
v -61.56114 1.289475 15.36352
v -60.96227 1.257112 14.48676
v -61.10061 1.32752 16.31995
v -60.5816 1.335806 16.50157
v -59.62419 1.3204 16.04137
v -59.90286 1.262792 14.56642
v -60.42186 1.254505 14.38479
v -61.45914 1.310562 15.90339
v -60.0412 1.3332 16.39961
#end vertices

#begin 169 textures vertices 
vt 0.6515522 0.4109074 0
vt 0.6552986 0.3512025 0
vt 0.670719 0.3599316 0
vt 0.6684152 0.4045133 0
vt 0.8692805 0.3373625 0
vt 0.8085285 0.3783489 0
vt 0.7444513 0.3195355 0
vt 0.8048376 0.3223604 0
vt 0.8590746 0.3199059 0
vt 0.669419 0.4495499 0
vt 0.1186135 0.6544397 0
vt 0.6746073 0.4254993 0
vt 0.4982854 0.6544397 0
vt 0.4493314 0.5820991 0
vt 0.4898023 0.5686137 0
vt 0.5302514 0.6544397 0
vt 0.3597844 0.6544397 0
vt 0.3557505 0.593766 0
vt 0.4059781 0.5882551 0
vt 0.1939334 0.4084418 0
vt 0.3125427 0.6544397 0
vt 0.297392 0.5944837 0
vt 0.5684294 0.6544397 0
vt 0.07046176 0.5626402 0
vt 0.1120011 0.5774471 0
vt 0.1942595 0.5878098 0
vt 0.2410876 0.5921509 0
vt 0.2382883 0.6544397 0
vt 0.7280344 0.302104 0
vt 0.8281885 0.2951757 0
vt 0.8186519 0.3023897 0
vt 0.8072066 0.5049474 0
vt 0.7673386 0.4983155 0
vt 0.7501481 0.4701401 0
vt 0.7483974 0.4365382 0
vt 0.7611254 0.4196073 0
vt 0.9219897 0.4541688 0
vt 0.899215 0.3908962 0
vt 0.9474538 0.4608851 0
vt 0.8366295 0.4973667 0
vt 0.8414389 0.4877377 0
vt 0.6816629 0.6671018 0
vt 0.7241925 0.5901287 0
vt 0.7774453 0.6091365 0
vt 0.7538545 0.6776928 0
vt 0.7238107 0.3168414 0
vt 0.6785513 0.3581639 0
vt 0.4255412 0.5452573 0
vt 0.4590291 0.5283149 0
vt 0.343316 0.5595057 0
vt 0.38683 0.5541726 0
vt 0.2964503 0.5605005 0
vt 0.09917083 0.5131476 0
vt 0.1335162 0.535572 0
vt 0.2087092 0.5539604 0
vt 0.2506059 0.5584174 0
vt 0.1535529 0.5828975 0
vt 0.2049391 0.4623246 0
vt 0.2216725 0.4693813 0
vt 0.170322 0.5469758 0
vt 0.3394511 0.4778982 0
vt 0.3595077 0.4732144 0
vt 0.3742962 0.4646507 0
vt 0.3156664 0.4795724 0
vt 0.2900711 0.4789769 0
vt 0.1928419 0.4516594 0
vt 0.2648344 0.4770083 0
vt 0.2417721 0.473972 0
vt 0.6781613 0.412454 0
vt 0.6797927 0.3672768 0
vt 0.9199616 0.5838346 0
vt 0.9022198 0.5169165 0
vt 0.9382558 0.5172036 0
vt 0.8347947 0.5988003 0
vt 0.825887 0.6676065 0
vt 0.640936 0.6157388 0
vt 0.6836474 0.5472402 0
vt 0.9570051 0.5326815 0
vt 0.9481071 0.5278729 0
vt 0.9440801 0.5222151 0
vt 0.8838305 0.5668066 0
vt 0.8832968 0.6363357 0
vt 0.6307958 0.5422382 0
vt 0.6239668 0.5445695 0
vt 0.6180516 0.5514715 0
vt 0.6085963 0.5489401 0
vt 0.6273477 0.4868193 0
vt 0.6558465 0.4904047 0
vt 0.6286799 0.627734 0
vt 0.6194503 0.6295888 0
vt 0.670684 0.681947 0
vt 0.6642734 0.6889595 0
vt 0.7460137 0.6947621 0
vt 0.742908 0.7040981 0
vt 0.8229956 0.6852386 0
vt 0.823026 0.6949296 0
vt 0.884745 0.6537685 0
vt 0.8885716 0.6626978 0
vt 0.9263158 0.5984671 0
vt 0.9329229 0.6061296 0
vt 0.6347097 0.6199882 0
vt 0.6765681 0.6735282 0
vt 0.7504007 0.6854291 0
vt 0.8248022 0.6757641 0
vt 0.8847852 0.6444198 0
vt 0.9239606 0.5908576 0
vt 0.2894802 0.2846043 0
vt 0.3139942 0.3132138 0
vt 0.4386913 0.3313089 0
vt 0.4810263 0.3227645 0
vt 0.1242706 0.2636903 0
vt 0.1812293 0.2689433 0
vt 0.2568559 0.2793041 0
vt 0.2973298 0.2680084 0
vt 0.3954297 0.331851 0
vt 0.07382073 0.2376185 0
vt 0.2204137 0.272349 0
vt 0.352147 0.3256568 0
vt 0.2073511 0.2131024 0
vt 0.235381 0.2175985 0
vt 0.3424945 0.2375241 0
vt 0.3683447 0.245074 0
vt 0.3185079 0.226734 0
vt 0.4233619 0.2471095 0
vt 0.4477654 0.2393791 0
vt 0.1811737 0.2061678 0
vt 0.263317 0.2202441 0
vt 0.2902266 0.2215892 0
vt 0.3960453 0.2485648 0
vt 0.1588521 0.194414 0
vt 0.2530231 0.1705598 0
vt 0.2682141 0.1739348 0
vt 0.3398494 0.1862179 0
vt 0.3567659 0.1894555 0
vt 0.3217834 0.1825217 0
vt 0.3860626 0.1912245 0
vt 0.3971414 0.1882712 0
vt 0.2408582 0.1658198 0
vt 0.2852483 0.1766175 0
vt 0.3033045 0.1792629 0
vt 0.3723388 0.1913842 0
vt 0.2333878 0.1590107 0
vt 0.8903916 0.3167786 0
vt 0.1396431 0.6544397 0
vt 0.1785807 0.6544397 0
vt 0.6322131 0.4367941 0
vt 0.2929866 0.3514415 0
vt 0.1007535 0.3514415 0
vt 0.7237482 0.289906 0
vt 0.9255301 0.3903264 0
vt 0.4146464 0.6544397 0
vt 0.8298666 0.2849963 0
vt 0.2086548 0.3514415 0
vt 0.2484418 0.3514415 0
vt 0.1537673 0.3514415 0
vt 0.5692321 0.4084418 0
vt 0.4981372 0.4084418 0
vt 0.4430501 0.4084418 0
vt 0.3884207 0.4084418 0
vt 0.3274261 0.4084418 0
vt 0.2670348 0.4084418 0
vt 0.03347054 0.6544397 0
vt 0.5260494 0.5458099 0
vt 0.484583 0.4990427 0
vt 0.3822264 0.4520089 0
vt 0.4658547 0.2232122 0
vt 0.4045205 0.1820155 0
vt 0.52139 0.3004922 0
vt 0.03643416 0.3514415 0
#end 169 textures vertices 

#begin 153 normals 
vn 0.8478 -0.1952 0.4931
vn 0.8922 -0.2791 -0.3552
vn 0.9105 0.3058 -0.2784
vn 0.9186 0.3866 0.0823
vn 0.0159 0.9999 -0.0057
vn -0 1 0
vn 0.75 -0.22 0.6238
vn 0.83 -0.2682 0.489
vn 0.7811 -0.188 0.5955
vn -0.5291 -0.1396 0.837
vn -0.659 -0.294 0.6923
vn -0.0833 -0.3642 0.9276
vn 0.0434 -0.2581 0.9651
vn -0.7332 0.1854 -0.6542
vn -0.8131 -0.3316 -0.4784
vn -0.9413 -0.2786 0.1906
vn -0.898 -0.4079 -0.1648
vn -0.3038 -0.1805 -0.9355
vn -0.2471 -0.3273 -0.912
vn 0.852 -0.0903 0.5157
vn 0.4719 -0.254 0.8443
vn 0.76 -0.2201 0.6115
vn 0.2624 -0.255 0.9307
vn 0.7906 -0.454 -0.411
vn 0.356 -0.3702 -0.858
vn 0.3644 -0.1808 -0.9135
vn 0.4109 0.0638 -0.9095
vn -0.2921 0.0266 -0.956
vn -0.0137 0.1449 -0.9893
vn 0.3935 0.9109 -0.124
vn 0.1158 0.9556 -0.2708
vn -0.0097 0.9651 -0.2617
vn -0.0251 0.8578 -0.5133
vn -0.0296 0.8619 -0.5062
vn -0.0268 0.8594 -0.5106
vn -0.9448 -0.1876 -0.2686
vn -0.966 0.0859 -0.244
vn -0.8281 -0.4885 -0.275
vn 0.2632 0.9639 0.0403
vn -0.0497 0.9983 -0.031
vn 0.6605 0 -0.7509
vn -0.6476 -0.4365 0.6246
vn -0.169 -0.3864 0.9067
vn -0.7426 -0.4439 -0.5015
vn -0.8835 -0.4597 0.0898
vn -0.2697 -0.4175 -0.8678
vn 0.3535 -0.3426 0.8704
vn 0.7511 -0.3458 0.5624
vn 0.7668 -0.4303 -0.4763
vn 0.3135 -0.4196 -0.8519
vn 0.8938 -0.3869 0.2268
vn 0.6946 -0.5088 0.5087
vn 0.8464 -0.5307 0.0443
vn 0.9161 -0.3948 0.0699
vn -0.8007 -0.5946 0.0727
vn -0.5992 -0.5714 0.5608
vn -0.1674 -0.5354 0.8278
vn -0.6667 -0.5965 -0.4468
vn -0.2438 -0.5863 -0.7726
vn 0.3174 -0.5092 0.8
vn 0.2857 -0.5739 -0.7675
vn 0.701 -0.5567 -0.4457
vn 0.0549 0.9972 -0.0507
vn 0.8813 0.4538 0.1319
vn 0.8691 0.4847 0.0988
vn 0.8845 0.4427 0.1474
vn 0.8567 0.4971 0.1373
vn -0.71 0.689 -0.1455
vn -0.7107 0.689 -0.1418
vn -0.7108 0.689 -0.1413
vn -0.5649 -0.1043 -0.8186
vn -0.0677 0.8302 -0.5533
vn -0.1861 0.6892 -0.7003
vn -0.1267 0.7663 -0.6299
vn 0.6854 0.7102 0.1605
vn 0.6656 0.7408 0.0904
vn 0.6554 0.753 0.0587
vn -0.9563 0.1616 -0.2435
vn -0.0066 0.9999 0.0146
vn -0.0001 0.9991 0.0427
vn -0.9168 -0.384 0.1096
vn -0.9641 0.2446 0.1034
vn -0.9869 0.1488 0.0631
vn -0.9977 -0.0125 -0.066
vn 0.8427 0.2347 -0.4846
vn 0.833 0.3837 -0.3986
vn 0.8509 0.4256 -0.3078
vn 0.8887 -0.2373 -0.3923
vn 0.6066 -0.1916 -0.7716
vn 0.6352 0.0035 -0.7723
vn 0.8386 0.5153 0.177
vn 0.9417 -0.3085 0.1339
vn 0.5465 0.5135 0.6616
vn 0.6747 -0.3094 0.6701
vn 0.1501 0.5365 0.8305
vn 0.2155 -0.2772 0.9363
vn -0.104 0.5225 0.8463
vn -0.0813 -0.2446 0.9662
vn -0.4472 0.483 0.7528
vn -0.4728 -0.2664 0.8399
vn -0.7402 0.4253 0.5207
vn -0.7742 -0.3181 0.5472
vn -0.0265 0.998 -0.0569
vn 0.2421 -0.2657 -0.9332
vn 0.5351 -0.0271 -0.8443
vn 0.8347 0.537 0.1223
vn 0.627 0.7735 0.0927
vn 0.4778 0.6256 0.6168
vn 0.3581 0.8461 0.3947
vn 0.1119 0.572 0.8126
vn 0.1139 0.7913 0.6008
vn -0.1595 0.53 0.8328
vn -0.0738 0.7701 0.6337
vn -0.5574 0.4096 0.7222
vn -0.3805 0.6938 0.6114
vn -0.8349 0.3007 0.461
vn -0.6955 0.5532 0.4586
vn -0.2332 -0.8551 -0.4631
vn -0.52 -0.8222 -0.2315
vn -0.3702 -0.7009 0.6097
vn -0.0729 -0.6549 0.7522
vn 0.4754 -0.7174 0.5093
vn 0.6966 -0.7144 0.0667
vn 0.3122 -0.6519 -0.691
vn 0.0104 -0.699 -0.7151
vn -0.5521 -0.7581 0.3472
vn 0.1756 -0.6548 0.7351
vn 0.6609 -0.6906 -0.2937
vn -0.5822 -0.8126 0.0282
vn 0.6905 -0.7185 0.0831
vn 0.6286 -0.7327 -0.2609
vn -0.5458 -0.7726 -0.3243
vn -0.631 -0.7755 -0.0195
vn -0.3866 -0.7542 -0.5307
vn -0.3512 -0.7404 0.5731
vn -0.0262 -0.6999 0.7137
vn 0.548 -0.7111 0.4406
vn 0.3306 -0.7494 -0.5736
vn -0.0047 -0.664 -0.7477
vn -0.5645 -0.7651 0.3097
vn 0.2711 -0.6834 0.6779
vn 0.3588 -0.5414 0.7603
vn 0.6854 -0.5446 0.4834
vn -0.8325 -0.552 -0.0467
vn -0.7477 -0.5469 0.3766
vn 0.8319 -0.5493 0.0788
vn 0.7563 -0.5543 -0.3475
vn 0.4364 -0.5725 -0.6941
vn -0.4649 -0.5428 0.6994
vn -0.0609 -0.5408 0.839
vn 0.1097 -0.6283 -0.7702
vn -0.4361 -0.6318 -0.6408
vn -0.707 -0.5613 -0.4302
#end 153 normals 

#begin 124 faces
o Cube:001:003
s 1
f 1/1/1 2/2/2 3/3/3 4/4/4 
f 5/5/5 6/6/6 7/7/6 8/8/6 9/9/6 
f 10/10/7 11/146/8 1/1/1 12/12/9 
f 13/13/10 14/14/11 15/15/12 16/16/13 
f 17/17/14 18/18/15 19/19/16 20/151/17 
f 21/21/18 22/22/19 18/18/15 17/17/14 
f 23/162/20 24/24/21 25/25/22 11/11/8 
f 16/16/13 15/15/12 24/163/21 23/23/23 
f 2/145/2 26/26/24 27/27/25 28/28/26 
f 29/29/27 28/149/26 21/152/18 30/30/28 31/31/29 
f 32/32/30 33/33/31 34/34/32 35/35/6 36/36/6 
f 30/30/33 9/9/33 8/8/34 31/31/35 
f 37/37/36 38/38/37 20/150/17 39/39/38 
f 40/40/39 32/32/30 36/36/6 6/6/6 41/41/6 
f 42/42/6 43/43/6 44/44/6 45/45/6 
f 38/38/40 41/41/6 6/6/6 5/5/5 
f 3/3/3 2/2/2 28/149/26 29/29/27 46/46/41 47/47/41 
f 14/14/11 48/48/42 49/49/43 15/15/12 
f 18/18/15 50/50/44 51/51/45 19/19/16 
f 22/22/19 52/52/46 50/50/44 18/18/15 
f 24/24/21 53/53/47 54/54/48 25/25/22 
f 15/15/12 49/49/43 53/164/47 24/163/21 
f 26/26/24 55/55/49 56/56/50 27/27/25 
f 20/151/17 19/19/16 14/14/11 13/13/10 
f 11/11/8 25/25/22 57/57/51 1/144/1 
f 28/28/26 27/27/25 22/22/19 21/21/18 
f 1/144/1 57/57/51 26/26/24 2/145/2 
f 54/54/48 58/58/52 59/59/53 60/60/54 
f 51/51/45 61/61/55 62/62/56 48/48/42 
f 48/48/42 62/62/56 63/63/57 49/49/43 
f 50/50/44 64/64/58 61/61/55 51/51/45 
f 52/52/46 65/65/59 64/64/58 50/50/44 
f 53/53/47 66/66/60 58/58/52 54/54/48 
f 19/19/16 51/51/45 48/48/42 14/14/11 
f 25/25/22 54/54/48 60/60/54 57/57/51 
f 27/27/25 56/56/50 52/52/46 22/22/19 
f 57/57/51 60/60/54 55/55/49 26/26/24 
f 56/56/50 67/67/61 65/65/59 52/52/46 
f 60/60/54 59/59/53 68/68/62 55/55/49 
f 55/55/49 68/68/62 67/67/61 56/56/50 
f 49/49/43 63/63/57 66/165/60 53/164/47 
f 34/34/32 10/10/63 35/35/6 
f 1/1/64 4/4/65 69/69/66 12/12/67 
f 9/9/68 17/143/69 5/5/70 
f 30/30/28 21/152/18 17/143/14 9/9/71 
f 7/7/72 46/46/73 29/29/74 
f 31/31/35 8/8/34 7/7/72 29/29/74 
f 6/6/6 36/36/6 70/70/6 47/47/6 46/46/6 7/7/6 
f 3/3/3 47/47/75 70/70/76 
f 69/69/77 4/4/4 3/3/3 70/70/76 
f 36/36/6 35/35/6 10/10/63 12/12/6 69/69/6 70/70/6 
f 17/143/14 20/150/17 38/38/37 5/5/78 
f 71/71/6 72/72/6 37/37/79 73/73/6 
f 45/45/6 44/44/6 74/74/6 75/75/6 
f 76/76/6 77/77/80 43/43/6 42/42/6 
f 37/37/36 39/39/38 78/78/81 79/79/82 80/80/83 73/73/84 
f 75/75/6 74/74/6 81/81/6 82/82/6 
f 83/83/85 84/84/86 85/85/87 86/86/88 87/87/89 88/88/90 
f 82/82/6 81/81/6 72/72/6 71/71/6 
f 89/89/91 90/90/92 86/86/88 85/85/87 
f 91/91/93 92/92/94 90/90/92 89/89/91 
f 93/93/95 94/94/96 92/92/94 91/91/93 
f 95/95/97 96/96/98 94/94/96 93/93/95 
f 97/97/99 98/98/100 96/96/98 95/95/97 
f 99/99/101 100/100/102 98/98/100 97/97/99 
f 79/79/82 78/78/81 100/100/102 99/99/101 
f 88/88/103 10/10/63 77/77/80 
f 77/77/80 10/10/63 34/34/32 43/43/6 
f 43/43/6 34/34/32 33/33/31 44/44/6 
f 44/44/6 33/33/31 32/32/30 74/74/6 
f 74/74/6 32/32/30 40/40/39 81/81/6 
f 81/81/6 40/40/39 41/41/6 72/72/6 
f 72/72/6 41/41/6 38/38/40 37/37/79 
f 88/88/90 87/87/89 11/146/104 10/10/105 
f 83/83/85 76/76/106 101/101/107 84/84/86 
f 84/84/86 101/101/107 89/89/91 85/85/87 
f 76/76/106 42/42/108 102/102/109 101/101/107 
f 101/101/107 102/102/109 91/91/93 89/89/91 
f 42/42/108 45/45/110 103/103/111 102/102/109 
f 102/102/109 103/103/111 93/93/95 91/91/93 
f 45/45/110 75/75/112 104/104/113 103/103/111 
f 103/103/111 104/104/113 95/95/97 93/93/95 
f 75/75/112 82/82/114 105/105/115 104/104/113 
f 104/104/113 105/105/115 97/97/99 95/95/97 
f 82/82/114 71/71/116 106/106/117 105/105/115 
f 105/105/115 106/106/117 99/99/101 97/97/99 
f 71/71/116 73/73/84 80/80/83 106/106/117 
f 106/106/117 80/80/83 79/79/82 99/99/101 
f 83/83/6 88/88/103 77/77/80 76/76/6 
f 39/161/38 20/20/17 107/107/118 108/108/119 
f 96/157/98 98/158/100 109/109/120 110/110/121 
f 90/155/92 92/148/94 111/111/122 112/112/123 
f 11/147/104 87/154/89 113/113/124 114/114/125 
f 98/158/100 100/159/102 115/115/126 109/109/120 
f 92/148/94 94/169/96 116/116/127 111/111/122 
f 87/154/89 86/153/88 117/117/128 113/113/124 
f 100/159/102 78/160/81 118/118/129 115/115/126 
f 94/156/96 96/157/98 110/110/121 116/168/127 
f 86/153/88 90/155/92 112/112/123 117/117/128 
f 78/160/81 39/161/38 108/108/119 118/118/129 
f 117/117/128 112/112/123 119/119/130 120/120/131 
f 118/118/129 108/108/119 121/121/132 122/122/133 
f 108/108/119 107/107/118 123/123/134 121/121/132 
f 110/110/121 109/109/120 124/124/135 125/125/136 
f 112/112/123 111/111/122 126/126/137 119/119/130 
f 114/114/125 113/113/124 127/127/138 128/128/139 
f 109/109/120 115/115/126 129/129/140 124/124/135 
f 111/111/122 116/116/127 130/130/141 126/126/137 
f 113/113/124 117/117/128 120/120/131 127/127/138 
f 115/115/126 118/118/129 122/122/133 129/129/140 
f 116/168/127 110/110/121 125/125/136 130/166/141 
f 126/126/137 130/130/141 142/142/142 138/138/143 
f 129/129/140 122/122/133 134/134/144 141/141/145 
f 120/120/131 119/119/130 131/131/146 132/132/147 
f 127/127/138 120/120/131 132/132/147 139/139/148 
f 125/125/136 124/124/135 136/136/149 137/137/150 
f 119/119/130 126/126/137 138/138/143 131/131/146 
f 128/128/139 127/127/138 139/139/148 140/140/151 
f 121/121/132 123/123/134 135/135/152 133/133/153 
f 130/166/141 125/125/136 137/137/150 142/167/142 
f 124/124/135 129/129/140 141/141/145 136/136/149 
f 122/122/133 121/121/132 133/133/153 134/134/144 
f 128/128/139 123/123/134 107/107/118 114/114/125 
f 140/140/151 135/135/152 123/123/134 128/128/139 
#end 124 faces

#ZOMPROPERTIES_04{
#ZOMPROPERTIES_04 table {Mesh table {EdgesUVW table {ConstrainedH ints { 160 r 2 159 r 2 158 r 2 157 r 2 156 155 154 1
#ZOMPROPERTIES_04 52 153 152 168 147 154 147 153 146 144 143 144 r 2 27 20 160 19 150 16 20 16 22 15 150 12 15 12 161 
#ZOMPROPERTIES_04 10 143 10 } } SymPlane table {Point vector3d 0 0 0 Normal vector3d 1 0 0 Threshold double 0.01 Enabl
#ZOMPROPERTIES_04 ed bool false EdgeID int -1 SymEdgeID int -1 UPos double 0.5 LocalMode bool false } RootGroup CSubMe
#ZOMPROPERTIES_04 shGroup {Children table {Tile_0_0 CSubMeshGroup {Children table {} BBoxUV box3d 0 0 0 0 0 0 BBox3D b
#ZOMPROPERTIES_04 ox3d 0 0 0 0 0 0 Area3D double 0 AreaUV double 0.288015 IsRoot bool false TopoStable table {Selected
#ZOMPROPERTIES_04  bool false Box box3d 0 1 0 1 0 1 U int 0 V int 0 NU int 0 NV int 0 Tiling vector3d 1 1 1 TileRatioM
#ZOMPROPERTIES_04 ode string "1:1" Pack table {BoxFrameLocked bool false BoxFrameEdit bool false } } IsTile bool true 
#ZOMPROPERTIES_04 PolyIDs ints { 3 7 21 40 29 28 30 31 37 39 38 27 32 20 6 24 26 8 25 5 4 23 18 19 35 22 36 34 33 17 8
#ZOMPROPERTIES_04 9 102 118 123 117 114 113 116 111 107 94 91 98 95 92 105 108 100 104 122 121 112 109 96 93 90 97 110
#ZOMPROPERTIES_04  119 115 120 103 106 99 101 0 49 42 50 2 73 57 59 60 61 62 63 64 65 55 12 51 43 44 9 16 47 10 68 67 
#ZOMPROPERTIES_04 54 88 74 76 77 78 79 80 81 82 83 84 85 86 52 58 71 72 13 15 70 69 56 53 14 1 11 46 45 87 75 66 41 48
#ZOMPROPERTIES_04  } } } BBoxUV box3d 0 0 0 0 0 0 BBox3D box3d 0 0 0 0 0 0 Area3D double 0 AreaUV double 0 IsRoot bool
#ZOMPROPERTIES_04  true TopoStable table {Selected bool false Box box3d 0 1 0 1 0 1 U int 0 V int 0 NU int 1 NV int 1 
#ZOMPROPERTIES_04 Tiling vector3d 1 1 1 TileRatioMode string "1:1" Pack table {Rotate table {Mode int 2 Min double 0 M
#ZOMPROPERTIES_04 ax double 90 Step double 0 } PaddingSize double 0.0078125 MarginSize double 0.00390625 Resolution in
#ZOMPROPERTIES_04 t 256 MapResolution int 1024 Scaling table {TexelDensity double 16 Mode int 0 } LayoutScalingMode in
#ZOMPROPERTIES_04 t 2 MaxMutations int 1 } } IsTile bool false PolyIDs ints { } } Maps table {Density table {PrimType 
#ZOMPROPERTIES_04 string "Polygon" Size int 1 DefaultValue double 1 ScaleType string "Log" MergeMode string "Average" 
#ZOMPROPERTIES_04 MinValue double 0.1 MaxValue double 4 Data doubles { r 124 1 } } Pin table {PrimType string "Vertex"
#ZOMPROPERTIES_04  Size int 1 DefaultValue double 0 ScaleType string "Normalized" MergeMode string "Max" MinValue doub
#ZOMPROPERTIES_04 le 0 MaxValue double 1 Data doubles { r 169 0 } } Protect table {PrimType string "Vertex" Size int 1
#ZOMPROPERTIES_04  DefaultValue double 0 ScaleType string "Normalized" MergeMode string "Average" MinValue double -1 M
#ZOMPROPERTIES_04 axValue double 1 Data doubles { r 169 0 } } } } }
#ZOMPROPERTIES_04}


#ZOMSCENE_01{
#ZOMSCENE_01 CScene {Settings table {AxisSystem table {UpVector string "y" } Unit string "m" } }
#ZOMSCENE_01}

#begin 0 fatal error vertex (that RizomUV cannot handle)
#end 0 fatal error vertex (that RizomUV cannot handle)

#begin 0 error vertex
#end 0 error vertex
