#File written by RizomUV 2022.0.11.g5424fda. Compilation :Nov 24 2021,04:16:21
mtllib 
#begin vertices
v -67.47453 10.56513 -1.12538
v -67.47453 10.01649 -1.12538
v -69.71801 10.01649 0.955599
v -69.71801 11.08439 0.9556
v -67.85523 11.08439 -0.772249
v -61.49504 11.5 9.401134
v -63.09916 11.5 5.261242
v -68.1246 11.5 5.543725
v -65.20306 11.5 7.533019
v -62.85251 11.5 9.802102
v -63.54489 10.56513 -0.110965
v -63.54489 10.01649 -0.110965
v -66.56933 11.5 -0.891705
v -65.46846 11.5 -0.607523
v -61.18778 10.64957 10.19411
v -60.74987 11.10065 10.08588
v -60.89851 11.5 9.71125
v -57.39704 10.01649 1.103962
v -58.33558 5.960684 3.55889
v -59.46924 5.960685 1.250318
v -58.69586 10.01649 -0.484615
v -61.18778 10.01649 10.19411
v -61.4096 5.960684 8.240557
v -58.88203 5.960684 6.344891
v -56.65369 10.01649 9.073441
v -65.00695 10.01649 9.294774
v -64.93936 5.960684 7.8319
v -60.72843 10.01649 -1.412791
v -61.54532 5.960685 -0.025561
v -63.98695 5.960685 -0.199216
v -67.4635 5.960685 2.601035
v -67.28642 5.960685 5.311095
v -69.17769 10.01649 5.602918
v -69.17769 10.85837 5.602918
v -65.00695 10.64957 9.294774
v -65.23776 11.00581 8.780736
v -58.69586 11.5 -0.484615
v -60.72843 11.5 -1.412791
v -62.37764 11.5 -0.650494
v -63.60927 11.5 0.821689
v -63.68773 11.5 1.958265
v -57.39704 11.10065 1.103962
v -57.64982 11.5 0.794793
v -57.77259 11.5 1.377764
v -57.36833 11.49981 8.555913
v -69.25178 11.5 4.96558
v -69.67001 11.5 1.368427
v -58.99236 3.626127 3.843168
v -59.76749 3.626127 1.667488
v -61.83726 3.626127 7.605859
v -59.6922 3.626127 6.139134
v -64.59248 3.626127 7.361387
v -61.6166 3.626128 0.302895
v -63.87587 3.626128 0.13386
v -66.86377 3.626127 3.099649
v -66.52679 3.626127 5.490544
v -66.1557 5.960685 0.719011
v -63.30515 -0.72951 2.301723
v -63.98905 -0.72951 2.692563
v -65.81654 3.626127 1.155799
v -61.92819 -0.72951 4.415741
v -61.64873 -0.72951 3.639807
v -61.87765 -0.72951 2.864547
v -62.64906 -0.72951 4.882388
v -63.53006 -0.72951 4.80873
v -62.50805 -0.72951 2.362521
v -64.17403 -0.72951 4.222073
v -64.328 -0.72951 3.408865
v -67.31985 11.5 -0.701981
v -69.19977 11.5 1.041768
v -58.09942 10.6753 9.430778
v -56.7932 10.56665 7.577798
#end vertices

#begin 99 textures vertices 
vt 0.5000233 0.9198703 0
vt 0.4991618 0.8999159 0
vt 0.5634761 0.8999159 0
vt 0.5575486 0.9388241 0
vt 0.5059282 0.938356 0
vt 0.6051816 0.3771107 0
vt 0.6424817 0.2419749 0
vt 0.7993789 0.2407428 0
vt 0.7141202 0.3085424 0
vt 0.6480531 0.3850998 0
vt 0.4327487 0.9197563 0
vt 0.4333124 0.8999159 0
vt 0.4943856 0.9505705 0
vt 0.4650171 0.956304 0
vt 0.5973898 0.415331 0
vt 0.5813072 0.4050001 0
vt 0.5870472 0.3873682 0
vt 0.2433933 0.8999159 0
vt 0.2433933 0.7371907 0
vt 0.3052101 0.7371907 0
vt 0.3052101 0.8999159 0
vt 0.09605312 0.8999159 0
vt 0.09605312 0.7371907 0
vt 0.1716603 0.7371907 0
vt 0.1716603 0.8999159 0
vt 0.7142073 0.8999159 0
vt 0.7142073 0.7371907 0
vt 0.3682564 0.8999159 0
vt 0.3682564 0.7371907 0
vt 0.4333124 0.7371907 0
vt 0.5634761 0.7371907 0
vt 0.6359465 0.7371907 0
vt 0.6359465 0.8999159 0
vt 0.6430253 0.9312044 0
vt 0.7126244 0.9216371 0
vt 0.7167902 0.934266 0
vt 0.3031188 0.954461 0
vt 0.3656164 0.9546192 0
vt 0.5996027 0.05893309 0
vt 0.6458122 0.1000778 0
vt 0.6516206 0.1359432 0
vt 0.2432261 0.9398918 0
vt 0.2541645 0.9544611 0
vt 0.4634026 0.1380708 0
vt 0.4767446 0.3587445 0
vt 0.6354232 0.9543141 0
vt 0.5638098 0.9552803 0
vt 0.2433933 0.64859 0
vt 0.3052101 0.64859 0
vt 0.09605312 0.64859 0
vt 0.1716603 0.64859 0
vt 0.7142073 0.64859 0
vt 0.3682564 0.64859 0
vt 0.4333124 0.64859 0
vt 0.5634761 0.64859 0
vt 0.6359465 0.64859 0
vt 0.4991618 0.7371907 0
vt 0.4333124 0.4648438 0
vt 0.4991618 0.4648438 0
vt 0.4991618 0.64859 0
vt 0.1716603 0.4648438 0
vt 0.2433933 0.4648438 0
vt 0.3052101 0.4648438 0
vt 0.09605312 0.4648438 0
vt 0.7142073 0.4648438 0
vt 0.3682564 0.4648438 0
vt 0.6359465 0.4648438 0
vt 0.5634761 0.4648438 0
vt 0.7647176 0.04918111 0
vt 0.8244986 0.1001721 0
vt 0.4898378 0.3968647 0
vt 0.4391693 0.3391836 0
vt 0.7411611 0.04393324 0
vt 0.7840183 0.04075329 0
vt 0.1757238 0.9188198 0
vt 0.7750174 0.01953125 0
vt 0.4375 0.3917807 0
vt 0.8441836 0.09268249 0
vt 0.7065368 0.05376314 0
vt 0.6435323 0.05685433 0
vt 0.8007812 0.9228354 0
vt 0.0941022 0.938326 0
vt 0.720915 0.3499852 0
vt 0.8372678 0.2473138 0
vt 0.7192421 0.3707319 0
vt 0.5456172 0.0415685 0
vt 0.486549 0.07747793 0
vt 0.4132299 0.9554389 0
vt 0.7620285 0.9546568 0
vt 0.4578431 0.1202586 0
vt 0.4453852 0.1318435 0
vt 0.8395527 0.1096524 0
vt 0.8334988 0.2204211 0
vt 0.1543226 0.9247395 0
vt 0.7915343 0.8999159 0
vt 0.08611337 0.9185986 0
vt 0.7915343 0.7371907 0
vt 0.7915343 0.64859 0
vt 0.7915343 0.4648438 0
#end 99 textures vertices 

#begin 82 normals 
vn -0.6801 0 -0.7332
vn -0.3185 -0.2052 -0.9255
vn -0.9076 -0.2533 -0.3348
vn -0.8711 0.2773 -0.4053
vn -0.6343 0.3607 -0.6838
vn 0 1 0
vn 0.25 0 -0.9683
vn -0.0977 -0.0847 -0.9916
vn -0.3848 0.5512 0.7403
vn 0.9113 -0.201 -0.3593
vn 0.9293 -0.339 -0.1463
vn 0.6935 -0.3237 -0.6436
vn 0.6247 -0.206 -0.7532
vn 0.0501 -0.2401 0.9695
vn 0.1747 -0.3937 0.9025
vn 0.7898 -0.4188 0.4482
vn 0.7241 -0.4271 0.5416
vn -0.4399 -0.1452 0.8862
vn -0.4406 -0.2977 0.8469
vn -0.328 -0.0553 -0.9431
vn 0.2113 -0.2192 -0.9525
vn -0.1357 -0.1699 -0.9761
vn 0.434 -0.205 -0.8773
vn -0.8835 -0.4075 -0.2309
vn -0.8529 -0.3291 0.4052
vn -0.8849 -0.1624 0.4365
vn -0.9164 0.055 0.3965
vn -0.4665 0.0687 0.8819
vn -0.6539 0.127 0.7459
vn 0.459 0.6595 -0.5953
vn -0.0018 0.6241 -0.7813
vn -0.3542 0.7037 -0.6159
vn -0.0147 0.9784 -0.2061
vn -0.3583 0.8245 0.4379
vn -0.3493 0.8294 0.4359
vn -0.3549 0.8264 0.4371
vn 0.7742 0 -0.633
vn 0.5601 0.6904 -0.4579
vn -0.4196 0 -0.9077
vn -0.9933 -0 0.1155
vn 0.9185 -0.3941 -0.0329
vn 0.745 -0.3465 -0.57
vn 0.2212 -0.402 0.8885
vn 0.7338 -0.4177 0.5358
vn -0.3885 -0.3765 0.841
vn 0.3245 -0.3066 -0.8948
vn -0.1842 -0.3094 -0.9329
vn -0.9072 -0.387 -0.1648
vn -0.8206 -0.3782 0.4285
vn -0.4988 -0.3296 -0.8016
vn -0.1814 -0.4589 -0.8698
vn -0.6205 -0.4801 -0.62
vn -0.6454 -0.354 -0.6769
vn 0.672 -0.5428 0.5037
vn 0.8541 -0.5198 -0.015
vn 0.7035 -0.4847 -0.5198
vn 0.2054 -0.5447 0.8131
vn -0.3504 -0.5345 0.7691
vn 0.31 -0.4593 -0.8324
vn -0.756 -0.5223 0.3945
vn -0.8509 -0.5054 -0.1432
vn -0.6614 0.5064 -0.5533
vn -0.221 0.4325 -0.8742
vn 0.2006 0.7059 0.6793
vn 0.0233 -0 0.9997
vn -0.2292 -0 0.9734
vn 0.4683 0.64 -0.6092
vn 0.0874 0.9897 -0.1137
vn -0.35 0.7921 0.5001
vn -0.351 0.6392 0.6843
vn -0.353 0.7273 0.5886
vn -0.4279 0.6613 -0.616
vn -0.4647 0.6936 -0.5505
vn -0.4809 0.7071 -0.5184
vn 0.7897 0.6109 0.0564
vn 0.772 0.6145 0.1626
vn 0.7927 0.6089 0.0296
vn 0.2584 0.6272 0.7348
vn 0.2399 -0 0.9708
vn 0.7976 0.6022 -0.0353
vn 0.7164 0.5109 0.4751
vn 0.9957 -0 -0.0929
#end 82 normals 

#begin 60 faces
o Cube:001
s 1
f 1/1/1 2/2/2 3/3/3 4/4/4 5/5/5 
f 6/6/6 7/7/6 8/8/6 9/9/6 10/10/6 
f 11/11/7 12/12/8 2/2/2 1/1/7 13/13/7 14/14/7 
f 15/15/9 16/16/9 17/17/9 6/6/9 
f 18/18/10 19/19/11 20/20/12 21/21/13 
f 22/22/14 23/23/15 24/24/16 25/25/17 
f 26/26/18 27/27/19 23/97/15 22/95/14 
f 28/28/20 29/29/21 30/30/22 12/12/8 
f 21/21/13 20/20/12 29/29/21 28/28/23 
f 3/3/3 31/31/24 32/32/25 33/33/26 
f 34/34/27 33/33/26 26/26/18 35/35/28 36/36/29 
f 37/37/30 21/21/13 28/28/23 38/38/31 
f 37/87/30 38/86/31 39/39/32 40/40/33 41/41/6 
f 35/85/34 10/10/34 9/9/35 36/83/36 
f 42/42/37 18/18/10 21/21/13 37/37/30 43/43/38 
f 43/90/38 37/87/30 41/41/6 7/7/6 44/44/6 
f 38/38/31 28/28/20 12/12/8 11/11/39 39/88/32 
f 45/45/6 44/44/6 7/7/6 6/6/6 17/17/6 
f 4/4/4 3/3/3 33/33/26 34/34/27 46/46/40 47/47/40 
f 19/19/11 48/48/41 49/49/42 20/20/12 
f 23/23/15 50/50/43 51/51/44 24/24/16 
f 27/27/19 52/52/45 50/98/43 23/97/15 
f 29/29/21 53/53/46 54/54/47 30/30/22 
f 20/20/12 49/49/42 53/53/46 29/29/21 
f 31/31/24 55/55/48 56/56/49 32/32/25 
f 25/25/17 24/24/16 19/19/11 18/18/10 
f 12/12/8 30/30/22 57/57/50 2/2/2 
f 33/33/26 32/32/25 27/27/19 26/26/18 
f 2/2/2 57/57/50 31/31/24 3/3/3 
f 54/54/47 58/58/51 59/59/52 60/60/53 
f 51/51/44 61/61/54 62/62/55 48/48/41 
f 48/48/41 62/62/55 63/63/56 49/49/42 
f 50/50/43 64/64/57 61/61/54 51/51/44 
f 52/52/45 65/65/58 64/99/57 50/98/43 
f 53/53/46 66/66/59 58/58/51 54/54/47 
f 24/24/16 51/51/44 48/48/41 19/19/11 
f 30/30/22 54/54/47 60/60/53 57/57/50 
f 32/32/25 56/56/49 52/52/45 27/27/19 
f 57/57/50 60/60/53 55/55/48 31/31/24 
f 56/56/49 67/67/60 65/65/58 52/52/45 
f 60/60/53 59/59/52 68/68/61 55/55/48 
f 55/55/48 68/68/61 67/67/60 56/56/49 
f 49/49/42 63/63/56 66/66/59 53/53/46 
f 39/39/32 11/80/62 40/40/33 
f 1/76/63 5/74/63 69/69/63 13/73/63 
f 10/10/64 15/15/64 6/6/64 
f 35/35/28 26/26/18 22/95/14 15/81/65 10/89/66 
f 11/80/67 14/79/68 40/40/33 
f 8/8/69 46/93/70 34/84/71 
f 36/83/36 9/9/35 8/8/69 34/84/71 
f 7/7/6 41/41/6 70/70/6 47/92/6 46/93/6 8/8/6 
f 4/78/4 47/92/72 70/70/73 
f 69/69/74 5/74/5 4/78/4 70/70/73 
f 41/41/6 40/40/33 14/79/68 13/73/6 69/69/6 70/70/6 
f 42/91/75 43/90/76 44/44/77 
f 17/17/78 16/16/78 71/71/78 45/45/78 
f 15/96/65 22/22/14 25/25/17 71/94/79 16/82/79 
f 42/91/75 44/44/77 45/45/80 72/72/80 
f 25/77/81 72/72/81 45/45/81 71/71/81 
f 25/25/17 18/18/10 42/42/82 72/75/82 
#end 60 faces

#ZOMPROPERTIES_04{
#ZOMPROPERTIES_04 table {Mesh table {EdgesUVW table {ConstrainedH ints { 67 66 98 64 66 64 65 r 2 62 61 63 60 61 60 67
#ZOMPROPERTIES_04  58 65 57 58 57 59 54 55 54 59 r 2 53 52 97 51 55 51 50 49 52 48 50 47 48 47 56 30 31 30 56 r 2 29 2
#ZOMPROPERTIES_04 8 96 26 31 26 94 25 32 25 23 22 24 21 27 20 28 19 23 18 19 18 24 17 20 17 27 11 32 2 11 1 2 1 } Cons
#ZOMPROPERTIES_04 trainedV ints { 98 r 2 97 r 2 96 94 59 58 59 56 66 55 67 54 57 53 65 52 64 51 60 50 63 49 62 48 61 4
#ZOMPROPERTIES_04 7 55 31 32 31 54 30 53 29 52 r 2 28 27 51 r 2 26 25 50 23 24 23 49 r 2 22 21 48 19 20 19 47 r 2 18 1
#ZOMPROPERTIES_04 7 29 11 30 2 56 1 } } SymPlane table {Point vector3d 0 0 0 Normal vector3d 1 0 0 Threshold double 0.
#ZOMPROPERTIES_04 01 Enabled bool false EdgeID int -1 SymEdgeID int -1 UPos double 0.5 LocalMode bool false } RootGrou
#ZOMPROPERTIES_04 p CSubMeshGroup {Children table {Tile_0_0 CSubMeshGroup {Children table {} BBoxUV box3d 0 0 0 0 0 0 
#ZOMPROPERTIES_04 BBox3D box3d 0 0 0 0 0 0 Area3D double 0 AreaUV double 0.453372 IsRoot bool false TopoStable table {
#ZOMPROPERTIES_04 Selected bool false Box box3d 0 1 0 1 0 1 U int 0 V int 0 NU int 0 NV int 0 Tiling vector3d 1 1 1 Ti
#ZOMPROPERTIES_04 leRatioMode string "1:1" Pack table {BoxFrameLocked bool false BoxFrameEdit bool false } } IsTile bo
#ZOMPROPERTIES_04 ol true PolyIDs ints { 1 49 48 50 51 52 44 53 47 43 12 15 54 57 58 55 3 17 13 45 0 18 10 46 6 21 33 
#ZOMPROPERTIES_04 39 41 40 29 34 42 31 30 32 20 5 56 25 4 8 7 26 36 22 16 2 23 11 19 14 59 35 38 28 24 9 37 27 } } } B
#ZOMPROPERTIES_04 BoxUV box3d 0 0 0 0 0 0 BBox3D box3d 0 0 0 0 0 0 Area3D double 0 AreaUV double 0 IsRoot bool true To
#ZOMPROPERTIES_04 poStable table {Selected bool false Box box3d 0 1 0 1 0 1 U int 0 V int 0 NU int 1 NV int 1 Tiling v
#ZOMPROPERTIES_04 ector3d 1 1 1 TileRatioMode string "1:1" Pack table {Rotate table {Mode int 2 Min double 0 Max doubl
#ZOMPROPERTIES_04 e 90 Step double 0 } PaddingSize double 0.0078125 MarginSize double 0.00390625 Resolution int 256 Ma
#ZOMPROPERTIES_04 pResolution int 512 Scaling table {TexelDensity double 16 Mode int 0 } LayoutScalingMode int 2 MaxMu
#ZOMPROPERTIES_04 tations int 1 } } IsTile bool false PolyIDs ints { } } Maps table {Density table {PrimType string "P
#ZOMPROPERTIES_04 olygon" Size int 1 DefaultValue double 1 ScaleType string "Log" MergeMode string "Average" MinValue 
#ZOMPROPERTIES_04 double 0.1 MaxValue double 4 Data doubles { r 60 1 } } Pin table {PrimType string "Vertex" Size int 
#ZOMPROPERTIES_04 1 DefaultValue double 0 ScaleType string "Normalized" MergeMode string "Max" MinValue double 0 MaxVa
#ZOMPROPERTIES_04 lue double 1 Data doubles { r 99 0 } } Protect table {PrimType string "Vertex" Size int 1 DefaultVal
#ZOMPROPERTIES_04 ue double 0 ScaleType string "Normalized" MergeMode string "Average" MinValue double -1 MaxValue dou
#ZOMPROPERTIES_04 ble 1 Data doubles { r 99 0 } } } } }
#ZOMPROPERTIES_04}


#ZOMSCENE_01{
#ZOMSCENE_01 CScene {Settings table {AxisSystem table {UpVector string "y" } Unit string "m" } }
#ZOMSCENE_01}

#begin 0 fatal error vertex (that RizomUV cannot handle)
#end 0 fatal error vertex (that RizomUV cannot handle)

#begin 0 error vertex
#end 0 error vertex
