# Blender v3.0.0 OBJ File: ''
# www.blender.org
o Cube:001.002
v -56.123806 10.565126 5.988816
v -56.123806 10.016487 5.988816
v -55.811359 10.016487 2.501196
v -55.811359 11.084387 2.501197
v -56.070793 11.084387 5.396989
v -68.697021 11.499995 1.703550
v -64.735909 11.499996 3.912807
v -60.680973 11.499996 -0.177646
v -64.688278 11.499996 0.369966
v -68.404877 11.499995 0.245255
v -59.593655 11.499996 7.997886
v -60.241020 10.016486 8.137400
v -57.072224 11.499996 6.483747
v -58.225639 11.499996 7.085661
v -69.499619 10.016485 1.272023
v -66.397217 10.016485 11.815090
v -67.480408 5.960679 9.009444
v -64.748093 5.960680 10.103030
v -64.076157 10.016485 12.170176
v -68.454613 5.960679 2.675042
v -69.121117 5.960679 6.227221
v -70.114342 10.016484 6.015541
v -66.204765 10.016485 -0.977183
v -65.141403 5.960680 0.317969
v -61.637436 10.016485 11.401779
v -62.005989 5.960681 9.596828
v -59.797680 5.960681 7.873712
v -58.988266 5.960681 2.830005
v -61.215145 5.960681 0.662267
v -59.831257 10.016487 -1.034802
v -59.831257 10.858366 -1.034802
v -66.204765 10.649567 -0.977183
v -65.614746 11.005806 -0.717117
v -64.076157 11.499996 12.170176
v -61.637436 11.499996 11.401779
v -60.819752 11.499996 9.490286
v -60.900875 11.499996 7.295367
v -61.705002 11.499996 6.269220
v -65.945496 11.499996 11.884199
v -66.287796 11.499996 11.294640
v -70.315773 11.499996 5.302637
v -59.279972 11.499996 -0.549861
v -56.168449 11.499997 2.187089
v -67.139984 3.626122 8.264613
v -64.814217 3.626123 9.519947
v -67.604836 3.626123 2.886838
v -68.304268 3.626122 5.776968
v -65.075729 3.626123 0.983650
v -62.197056 3.626124 9.263041
v -60.147282 3.626124 7.675718
v -59.880032 3.626124 2.865707
v -61.998287 3.626123 1.091759
v -58.657871 5.960681 5.431628
v -62.293324 -0.729513 6.270420
v -62.011490 -0.729513 5.414242
v -59.280792 3.626124 5.320235
v -65.083374 -0.729515 5.528605
v -64.726395 -0.729515 6.402221
v -63.937843 -0.729514 6.885761
v -64.828201 -0.729515 4.579665
v -64.022964 -0.729515 3.967277
v -63.017399 -0.729513 6.829460
v -63.026146 -0.729515 3.972512
v -62.272213 -0.729515 4.545724
v -56.579681 11.499996 5.747462
v -56.317860 11.499997 2.825021
v -56.095192 11.499996 10.233806
v -71.378448 11.499996 9.496943
v -59.593655 9.149534 7.997885
v -55.814583 9.710526 10.416470
v -52.035515 10.271516 12.835051
v -51.541889 10.281347 17.532837
v -53.277328 10.278666 21.566380
v -57.895119 10.280198 23.130684
v -62.819164 10.281240 23.459530
v -67.144737 10.280077 22.262478
v -70.420212 10.279203 19.122936
v -72.569740 10.286368 14.618562
v -71.342041 10.151426 10.317051
v -55.870712 11.499996 13.676812
v -57.944645 11.499996 16.787506
v -61.162422 11.499996 18.487488
v -64.979530 11.499996 18.384075
v -68.475029 11.499996 16.726120
v -70.064644 11.499996 13.569318
v -52.596718 11.499996 12.469727
v -51.990154 10.875158 12.930386
v -52.403801 11.102371 12.597614
v -52.221241 11.499996 17.190437
v -51.553875 10.874594 17.673016
v -51.989998 11.102013 17.311287
v -54.148476 11.499996 21.038059
v -53.399384 10.876215 21.648460
v -53.855461 11.103045 21.220833
v -58.742493 11.499996 22.440987
v -58.082558 10.875359 23.163403
v -58.459393 11.102500 22.677116
v -63.496197 11.499996 22.637947
v -63.015499 10.875469 23.442558
v -63.271358 11.102571 22.917519
v -67.643837 11.499996 21.276466
v -67.319489 10.875664 22.158409
v -67.479141 11.102694 21.609360
v -70.644318 11.499996 18.100754
v -70.566483 10.874858 18.912828
v -70.572433 11.102180 18.442749
v -72.588356 10.876995 14.367992
v -72.441109 11.499996 13.691246
v -72.485504 11.103540 14.000047
v -64.593178 5.926281 10.286037
v -61.607800 5.911884 9.722733
v -58.740643 5.957660 10.726105
v -56.759964 6.051343 13.027302
v -56.196487 6.167830 16.009716
v -57.201187 6.275909 18.874214
v -59.504864 6.346621 20.853256
v -62.490242 6.361017 21.416561
v -65.357399 6.315241 20.413189
v -67.338074 6.221559 18.111992
v -67.901558 6.105072 15.129579
v -66.896851 5.996992 12.265080
v -62.912895 3.810865 13.775583
v -61.899204 3.805976 13.584312
v -60.925655 3.821520 13.925010
v -60.253113 3.853330 14.706387
v -60.061779 3.892883 15.719071
v -60.402927 3.929582 16.691719
v -61.185146 3.953592 17.363707
v -62.198841 3.958480 17.554977
v -63.172390 3.942937 17.214281
v -63.844933 3.911127 16.432903
v -64.036263 3.871573 15.420218
v -63.695114 3.834875 14.447573
vt 0.500023 0.919870
vt 0.499162 0.899916
vt 0.563476 0.899916
vt 0.557549 0.938824
vt 0.505928 0.938356
vt 0.605182 0.377111
vt 0.642482 0.241975
vt 0.799379 0.240743
vt 0.714120 0.308542
vt 0.648053 0.385100
vt 0.432749 0.919756
vt 0.433312 0.899916
vt 0.494386 0.950571
vt 0.465017 0.956304
vt 0.243393 0.899916
vt 0.243393 0.737191
vt 0.305210 0.737191
vt 0.305210 0.899916
vt 0.096053 0.899916
vt 0.096053 0.737191
vt 0.171660 0.737191
vt 0.171660 0.899916
vt 0.714207 0.899916
vt 0.714207 0.737191
vt 0.791534 0.737191
vt 0.791534 0.899916
vt 0.368256 0.899916
vt 0.368256 0.737191
vt 0.433312 0.737191
vt 0.563476 0.737191
vt 0.635947 0.737191
vt 0.635947 0.899916
vt 0.643025 0.931204
vt 0.712624 0.921637
vt 0.716790 0.934266
vt 0.486549 0.077478
vt 0.545617 0.041568
vt 0.599603 0.058933
vt 0.645812 0.100078
vt 0.651621 0.135943
vt 0.719242 0.370732
vt 0.720915 0.349985
vt 0.000000 0.000000
vt 0.000000 0.000000
vt 0.000000 0.000000
vt 0.000000 0.000000
vt 0.457843 0.120259
vt 0.463403 0.138071
vt 0.018961 0.001864
vt 0.134742 0.013243
vt 0.134998 0.010285
vt 0.021689 0.001652
vt 0.476745 0.358745
vt 0.587047 0.387368
vt 0.635423 0.954314
vt 0.563810 0.955280
vt 0.243393 0.648590
vt 0.305210 0.648590
vt 0.096053 0.648590
vt 0.171660 0.648590
vt 0.714207 0.648590
vt 0.791534 0.648590
vt 0.368256 0.648590
vt 0.433312 0.648590
vt 0.563476 0.648590
vt 0.635947 0.648590
vt 0.499162 0.737191
vt 0.433312 0.464844
vt 0.499162 0.464844
vt 0.499162 0.648590
vt 0.171660 0.464844
vt 0.243393 0.464844
vt 0.305210 0.464844
vt 0.096053 0.464844
vt 0.714207 0.464844
vt 0.791534 0.464844
vt 0.368256 0.464844
vt 0.635947 0.464844
vt 0.563476 0.464844
vt 0.643532 0.056854
vt 0.775017 0.019531
vt 0.784018 0.040753
vt 0.764718 0.049181
vt 0.741161 0.043933
vt 0.597390 0.415331
vt 0.800781 0.922835
vt 0.762029 0.954657
vt 0.706537 0.053763
vt 0.833499 0.220421
vt 0.837268 0.247314
vt 0.824499 0.100172
vt 0.839553 0.109652
vt 0.844184 0.092682
vt 0.008796 0.002621
vt 0.076176 0.022697
vt 0.000000 0.000000
vt 0.120383 0.019170
vt 0.018790 0.002992
vt 0.016092 0.001422
vt 0.105786 0.009346
vt 0.000000 0.000000
vt 0.000000 0.000000
vt 0.000000 0.000000
vt 0.102886 0.027024
vt 0.014938 0.003924
vt 0.000000 0.000000
vt 0.000000 0.000000
vt 0.000000 0.000000
vt 0.000000 0.000000
vt 0.000000 0.000000
vt 0.000000 0.000000
vt 0.000000 0.000000
vt 0.000000 0.000000
vt 0.000000 0.000000
vt 0.000000 0.000000
vt 0.000000 0.000000
vt 0.000000 0.000000
vt 0.000000 0.000000
vt 0.000000 0.000000
vt 0.000000 0.000000
vt 0.000000 0.000000
vt 0.000000 0.000000
vt 0.000000 0.000000
vt 0.000000 0.000000
vt 0.000000 0.000000
vt 0.000000 0.000000
vt 0.000000 0.000000
vt 0.000000 0.000000
vt 0.000000 0.000000
vt 0.000000 0.000000
vt 0.000000 0.000000
vt 0.000000 0.000000
vt 0.000000 0.000000
vt 0.000000 0.000000
vt 0.000000 0.000000
vt 0.000000 0.000000
vt 0.000000 0.000000
vt 0.000000 0.000000
vt 0.000000 0.000000
vt 0.000000 0.000000
vt 0.000000 0.000000
vt 0.000000 0.000000
vt 0.000000 0.000000
vt 0.000000 0.000000
vt 0.000000 0.000000
vt 0.000000 0.000000
vt 0.000000 0.000000
vt 0.000000 0.000000
vt 0.000000 0.000000
vt 0.000000 0.000000
vt 0.000000 0.000000
vt 0.000000 0.000000
vt 0.000000 0.000000
vt 0.000000 0.000000
vt 0.000000 0.000000
vt 0.000000 0.000000
vt 0.000000 0.000000
vn 0.9960 0.0000 0.0892
vn 0.8517 -0.2370 0.4674
vn 0.8922 -0.2791 -0.3552
vn 0.9105 0.3058 -0.2784
vn 0.9186 0.3866 0.0823
vn 0.0159 0.9999 -0.0057
vn -0.0000 1.0000 0.0000
vn 0.4818 -0.0338 0.8756
vn 0.7495 -0.1501 0.6448
vn -0.5291 -0.1396 0.8370
vn -0.6590 -0.2940 0.6923
vn -0.0833 -0.3642 0.9276
vn 0.0434 -0.2581 0.9651
vn -0.7332 0.1854 -0.6542
vn -0.8131 -0.3316 -0.4784
vn -0.9413 -0.2786 0.1906
vn -0.8980 -0.4079 -0.1648
vn -0.3038 -0.1805 -0.9355
vn -0.2471 -0.3273 -0.9120
vn 0.8744 -0.0724 0.4797
vn 0.4803 -0.2477 0.8414
vn 0.7507 -0.1938 0.6315
vn 0.2624 -0.2550 0.9306
vn 0.7906 -0.4540 -0.4110
vn 0.3560 -0.3702 -0.8580
vn 0.3644 -0.1807 -0.9135
vn 0.4109 0.0638 -0.9095
vn -0.2921 0.0266 -0.9560
vn -0.0137 0.1449 -0.9893
vn 0.3935 0.9109 -0.1240
vn 0.1158 0.9556 -0.2708
vn -0.0097 0.9651 -0.2617
vn -0.0251 0.8578 -0.5133
vn -0.0296 0.8619 -0.5062
vn -0.0268 0.8594 -0.5106
vn -0.9448 -0.1876 -0.2686
vn -0.9659 0.0859 -0.2440
vn -0.8281 -0.4885 -0.2750
vn 0.2632 0.9639 0.0403
vn 0.0001 1.0000 0.0002
vn -0.0497 0.9983 -0.0310
vn 0.6605 0.0000 -0.7509
vn -0.6476 -0.4365 0.6246
vn -0.1690 -0.3864 0.9067
vn -0.7426 -0.4439 -0.5015
vn -0.8835 -0.4597 0.0898
vn -0.2697 -0.4175 -0.8678
vn 0.3535 -0.3426 0.8704
vn 0.7511 -0.3458 0.5624
vn 0.7668 -0.4303 -0.4763
vn 0.3135 -0.4196 -0.8519
vn 0.8919 -0.3695 0.2609
vn 0.6946 -0.5088 0.5087
vn 0.8464 -0.5307 0.0443
vn 0.9161 -0.3948 0.0699
vn -0.8007 -0.5946 0.0727
vn -0.5992 -0.5714 0.5608
vn -0.1674 -0.5354 0.8278
vn -0.6667 -0.5965 -0.4468
vn -0.2438 -0.5863 -0.7726
vn 0.3174 -0.5092 0.8000
vn 0.2857 -0.5739 -0.7675
vn 0.7010 -0.5567 -0.4457
vn 0.0778 0.9963 -0.0372
vn 0.7286 0.4811 0.4874
vn -0.7100 0.6890 -0.1455
vn -0.7107 0.6890 -0.1418
vn -0.7108 0.6890 -0.1413
vn -0.5649 -0.1043 -0.8186
vn -0.0677 0.8302 -0.5533
vn -0.1861 0.6892 -0.7003
vn -0.1267 0.7663 -0.6299
vn 0.6854 0.7102 0.1605
vn 0.6656 0.7408 0.0904
vn 0.6554 0.7530 0.0587
vn -0.9563 0.1616 -0.2435
vn -0.0066 0.9999 0.0146
vn -0.0001 0.9991 0.0427
vn -0.9168 -0.3840 0.1096
vn -0.9641 0.2446 0.1034
vn -0.9869 0.1488 0.0631
vn -0.9977 -0.0125 -0.0660
vn 0.7578 0.1899 -0.6242
vn 0.7795 0.3616 -0.5115
vn 0.8233 0.4165 -0.3856
vn 0.8100 -0.3451 -0.4742
vn 0.5552 -0.2512 -0.7929
vn 0.5845 0.0316 -0.8108
vn 0.8386 0.5153 0.1770
vn 0.9114 -0.3922 0.1243
vn 0.5465 0.5135 0.6616
vn 0.6756 -0.3667 0.6396
vn 0.1501 0.5365 0.8305
vn 0.2389 -0.3078 0.9210
vn -0.1040 0.5225 0.8463
vn -0.0813 -0.2446 0.9662
vn -0.4472 0.4830 0.7528
vn -0.4728 -0.2664 0.8399
vn -0.7402 0.4253 0.5207
vn -0.7742 -0.3181 0.5472
vn -0.0280 0.9980 -0.0562
vn 0.4045 -0.3415 -0.8484
vn 0.5977 0.0463 -0.8004
vn 0.8347 0.5370 0.1223
vn 0.6270 0.7735 0.0927
vn 0.4778 0.6256 0.6168
vn 0.3581 0.8461 0.3947
vn 0.1119 0.5720 0.8126
vn 0.1139 0.7913 0.6008
vn -0.1595 0.5300 0.8328
vn -0.0738 0.7701 0.6337
vn -0.5574 0.4096 0.7222
vn -0.3805 0.6938 0.6114
vn -0.8349 0.3007 0.4610
vn -0.6955 0.5532 0.4586
vn -0.3190 -0.9055 -0.2799
vn -0.5308 -0.8110 -0.2462
vn -0.3685 -0.6929 0.6198
vn -0.0596 -0.6725 0.7377
vn 0.4561 -0.7915 0.4068
vn 0.5861 -0.8073 0.0693
vn 0.3644 -0.7163 -0.5951
vn 0.2201 -0.7667 -0.6031
vn -0.5705 -0.7391 0.3582
vn 0.2200 -0.7135 0.6652
vn 0.5607 -0.7672 -0.3114
vn -0.6079 -0.7936 0.0242
vn 0.5022 -0.8620 0.0690
vn 0.4569 -0.8695 -0.1876
vn -0.4259 -0.8762 -0.2256
vn -0.4999 -0.8660 -0.0065
vn -0.3379 -0.9107 -0.2376
vn -0.2784 -0.8526 0.4422
vn -0.0353 -0.8497 0.5260
vn 0.4138 -0.8551 0.3123
vn 0.2471 -0.8847 -0.3952
vn 0.1613 -0.9102 -0.3814
vn -0.4486 -0.8586 0.2481
vn 0.2172 -0.8507 0.4787
s 1
f 1/1/1 2/2/2 3/3/3 4/4/4 5/5/5
f 6/6/6 7/7/7 8/8/7 9/9/7 10/10/7
f 11/11/8 12/12/9 2/2/2 1/1/8 13/13/8 14/14/8
f 16/15/10 17/16/11 18/17/12 19/18/13
f 15/19/14 20/20/15 21/21/16 22/22/17
f 23/23/18 24/24/19 20/25/15 15/26/14
f 25/27/20 26/28/21 27/29/22 12/12/9
f 19/18/13 18/17/12 26/28/21 25/27/23
f 3/3/3 28/30/24 29/31/25 30/32/26
f 31/33/27 30/32/26 23/23/18 32/34/28 33/35/29
f 34/36/30 35/37/31 36/38/32 37/39/7 38/40/7
f 32/41/33 10/10/33 9/9/34 33/42/35
f 68/43/36 41/44/37 22/45/17 79/46/38
f 39/47/39 34/36/30 38/40/7 7/7/7 40/48/40
f 92/49/7 81/50/7 82/51/7 95/52/7
f 41/53/41 40/48/40 7/7/7 6/54/6
f 4/4/4 3/3/3 30/32/26 31/33/27 42/55/42 43/56/42
f 17/16/11 44/57/43 45/58/44 18/17/12
f 20/20/15 46/59/45 47/60/46 21/21/16
f 24/24/19 48/61/47 46/62/45 20/25/15
f 26/28/21 49/63/48 50/64/49 27/29/22
f 18/17/12 45/58/44 49/63/48 26/28/21
f 28/30/24 51/65/50 52/66/51 29/31/25
f 22/22/17 21/21/16 17/16/11 16/15/10
f 12/12/9 27/29/22 53/67/52 2/2/2
f 30/32/26 29/31/25 24/24/19 23/23/18
f 2/2/2 53/67/52 28/30/24 3/3/3
f 50/64/49 54/68/53 55/69/54 56/70/55
f 47/60/46 57/71/56 58/72/57 44/57/43
f 44/57/43 58/72/57 59/73/58 45/58/44
f 46/59/45 60/74/59 57/71/56 47/60/46
f 48/61/47 61/75/60 60/76/59 46/62/45
f 49/63/48 62/77/61 54/68/53 50/64/49
f 21/21/16 47/60/46 44/57/43 17/16/11
f 27/29/22 50/64/49 56/70/55 53/67/52
f 29/31/25 52/66/51 48/61/47 24/24/19
f 53/67/52 56/70/55 51/65/50 28/30/24
f 52/66/51 63/78/62 61/75/60 48/61/47
f 56/70/55 55/69/54 64/79/63 51/65/50
f 51/65/50 64/79/63 63/78/62 52/66/51
f 45/58/44 59/73/58 62/77/61 49/63/48
f 36/38/32 11/80/64 37/39/7
f 1/81/65 5/82/65 65/83/65 13/84/65
f 10/10/66 15/85/67 6/6/68
f 32/34/28 23/23/18 15/86/14 10/87/69
f 11/80/64 14/88/7 37/39/7
f 8/8/70 42/89/71 31/90/72
f 33/42/35 9/9/34 8/8/70 31/90/72
f 7/7/7 38/40/7 66/91/7 43/92/7 42/89/7 8/8/7
f 4/93/4 43/92/73 66/91/74
f 65/83/75 5/82/5 4/93/4 66/91/74
f 38/40/7 37/39/7 14/88/7 13/84/7 65/83/7 66/91/7
f 15/19/14 22/22/17 41/44/37 6/54/76
f 104/94/7 85/95/7 68/43/77 108/96/7
f 95/52/7 82/51/7 83/97/7 98/98/7
f 89/99/7 80/100/78 81/50/7 92/49/7
f 68/43/36 79/46/38 78/101/79 107/102/80 109/103/81 108/96/82
f 98/98/7 83/97/7 84/104/7 101/105/7
f 86/106/83 88/107/84 87/108/85 71/109/86 70/110/87 67/111/88
f 101/105/7 84/104/7 85/95/7 104/94/7
f 90/112/89 72/113/90 71/109/86 87/108/85
f 93/114/91 73/115/92 72/113/90 90/112/89
f 96/116/93 74/117/94 73/115/92 93/114/91
f 99/118/95 75/119/96 74/117/94 96/116/93
f 102/120/97 76/121/98 75/119/96 99/118/95
f 105/122/99 77/123/100 76/121/98 102/120/97
f 107/102/80 78/101/79 77/123/100 105/122/99
f 67/111/101 11/124/64 80/125/78
f 80/100/78 11/80/64 36/38/32 81/50/7
f 81/50/7 36/38/32 35/37/31 82/51/7
f 82/51/7 35/37/31 34/36/30 83/97/7
f 83/97/7 34/36/30 39/47/39 84/104/7
f 84/104/7 39/47/39 40/48/40 85/95/7
f 85/95/7 40/48/40 41/44/41 68/43/77
f 67/111/88 70/110/87 69/126/102 11/124/103
f 86/106/83 89/127/104 91/128/105 88/107/84
f 88/107/84 91/128/105 90/112/89 87/108/85
f 89/99/104 92/49/106 94/129/107 91/128/105
f 91/128/105 94/129/107 93/114/91 90/112/89
f 92/49/106 95/52/108 97/130/109 94/129/107
f 94/129/107 97/130/109 96/116/93 93/114/91
f 95/52/108 98/98/110 100/131/111 97/130/109
f 97/130/109 100/131/111 99/118/95 96/116/93
f 98/98/110 101/105/112 103/132/113 100/131/111
f 100/131/111 103/132/113 102/120/97 99/118/95
f 101/105/112 104/94/114 106/133/115 103/132/113
f 103/132/113 106/133/115 105/122/99 102/120/97
f 104/94/114 108/96/82 109/103/81 106/133/115
f 106/133/115 109/103/81 107/102/80 105/122/99
f 86/106/7 67/111/101 80/125/78 89/127/7
f 79/46/38 22/45/17 110/134/116 121/135/117
f 75/119/96 76/121/98 118/136/118 117/137/119
f 72/113/90 73/115/92 115/138/120 114/139/121
f 69/126/102 70/110/87 112/140/122 111/141/123
f 76/121/98 77/123/100 119/142/124 118/136/118
f 73/115/92 74/117/94 116/143/125 115/138/120
f 70/110/87 71/109/86 113/144/126 112/140/122
f 77/123/100 78/101/79 120/145/127 119/142/124
f 74/117/94 75/119/96 117/137/119 116/143/125
f 71/109/86 72/113/90 114/139/121 113/144/126
f 78/101/79 79/46/38 121/135/117 120/145/127
f 113/144/126 114/139/121 126/146/128 125/147/129
f 120/145/127 121/135/117 133/148/130 132/149/131
f 121/135/117 110/134/116 122/150/132 133/148/130
f 117/137/119 118/136/118 130/151/133 129/152/134
f 114/139/121 115/138/120 127/153/135 126/146/128
f 111/141/123 112/140/122 124/154/136 123/155/137
f 118/136/118 119/142/124 131/156/138 130/151/133
f 115/138/120 116/143/125 128/157/139 127/153/135
f 112/140/122 113/144/126 125/147/129 124/154/136
f 119/142/124 120/145/127 132/149/131 131/156/138
f 116/143/125 117/137/119 129/152/134 128/157/139
