# Blender v2.93.4 OBJ File: 'Iles.blend'
# www.blender.org
o Cube:001.001
v 6.462464 7.065120 7.776743
v 6.462464 6.516479 7.776743
v 3.451735 6.516480 7.229754
v 3.451736 7.584380 7.229754
v 5.951561 7.584379 7.683929
v 1.626008 7.999988 18.874966
v 3.976447 7.999989 15.108358
v 0.736215 7.999990 11.256638
v 0.896772 7.999989 14.787491
v 0.490978 7.999988 18.029276
v 8.007722 7.065119 11.529517
v 8.007722 6.516479 11.529517
v 6.818417 7.999990 8.641210
v 7.251313 7.999990 9.692528
v 1.175794 7.149559 19.596443
v 1.525045 7.600638 19.881924
v 1.735660 7.999988 19.538290
v 10.722996 6.516479 17.177471
v 8.195737 2.460672 17.898928
v 9.363005 2.460674 15.607168
v 11.215090 6.516479 15.185396
v 1.175794 6.516478 19.596443
v 2.605902 2.460672 18.247234
v 5.638740 2.460672 19.132690
v 4.792003 6.516477 22.552269
v -0.395289 6.516479 16.001091
v 0.815781 2.460672 15.177757
v 10.738668 6.516479 13.002310
v 9.138705 2.460674 13.180719
v 7.813192 2.460674 11.122870
v 3.487353 2.460674 10.020636
v 1.425085 2.460674 11.787784
v 0.057223 6.516479 10.449505
v 0.057223 7.358359 10.449505
v -0.395289 7.149559 16.001091
v -0.122414 7.505798 15.508091
v 11.215090 7.999989 15.185396
v 10.738668 7.999989 13.002310
v 9.139532 7.999989 12.139901
v 7.222837 7.999990 12.037400
v 6.266335 7.999990 12.656323
v 10.722996 7.600638 17.177471
v 10.818768 7.999989 16.789776
v 10.278663 7.999989 17.041195
v 4.777476 7.999799 21.670042
v 0.522758 7.999990 10.007955
v 3.150197 7.999990 7.515766
v 7.574339 0.126115 17.543907
v 8.850316 0.126116 15.618733
v 2.857254 0.126116 17.524351
v 5.317450 0.126115 18.361021
v 1.400321 0.126116 15.173103
v 8.833131 0.126117 13.320684
v 7.613300 0.126117 11.411525
v 3.448095 0.126117 10.799578
v 1.737119 0.126116 12.503245
v 5.777674 2.460674 9.938264
v 6.220980 -4.229520 13.168451
v 5.498053 -4.229520 12.855639
v 5.631597 0.126117 10.471624
v 5.355315 -4.229522 15.538202
v 6.143801 -4.229522 15.296414
v 6.626829 -4.229520 14.648252
v 4.549551 -4.229522 15.241277
v 4.080080 -4.229522 14.492161
v 6.650422 -4.229520 13.842723
v 4.163253 -4.229522 13.625015
v 4.721595 -4.229522 13.014056
v 6.216453 7.999990 8.154469
v 3.693622 7.999990 7.696114
v 3.638943 7.175287 21.609781
v 5.905075 7.066638 21.543570
vt 0.500023 0.919870
vt 0.499162 0.899916
vt 0.563476 0.899916
vt 0.557549 0.938824
vt 0.505928 0.938356
vt 0.605182 0.377111
vt 0.642482 0.241975
vt 0.799379 0.240743
vt 0.714120 0.308542
vt 0.648053 0.385100
vt 0.432749 0.919756
vt 0.433312 0.899916
vt 0.494386 0.950571
vt 0.465017 0.956304
vt 0.597390 0.415331
vt 0.581307 0.405000
vt 0.587047 0.387368
vt 0.243393 0.899916
vt 0.243393 0.737191
vt 0.305210 0.737191
vt 0.305210 0.899916
vt 0.096053 0.899916
vt 0.096053 0.737191
vt 0.171660 0.737191
vt 0.171660 0.899916
vt 0.714207 0.899916
vt 0.714207 0.737191
vt 0.791534 0.737191
vt 0.791534 0.899916
vt 0.368256 0.899916
vt 0.368256 0.737191
vt 0.433312 0.737191
vt 0.563476 0.737191
vt 0.635947 0.737191
vt 0.635947 0.899916
vt 0.643025 0.931204
vt 0.712624 0.921637
vt 0.716790 0.934266
vt 0.303119 0.954461
vt 0.365616 0.954619
vt 0.486549 0.077478
vt 0.545617 0.041568
vt 0.599603 0.058933
vt 0.645812 0.100078
vt 0.651621 0.135943
vt 0.719242 0.370732
vt 0.720915 0.349985
vt 0.243226 0.939892
vt 0.254164 0.954461
vt 0.457843 0.120259
vt 0.463403 0.138071
vt 0.413230 0.955439
vt 0.476745 0.358745
vt 0.635423 0.954314
vt 0.563810 0.955280
vt 0.243393 0.648590
vt 0.305210 0.648590
vt 0.096053 0.648590
vt 0.171660 0.648590
vt 0.714207 0.648590
vt 0.791534 0.648590
vt 0.368256 0.648590
vt 0.433312 0.648590
vt 0.563476 0.648590
vt 0.635947 0.648590
vt 0.499162 0.737191
vt 0.433312 0.464844
vt 0.499162 0.464844
vt 0.499162 0.648590
vt 0.171660 0.464844
vt 0.243393 0.464844
vt 0.305210 0.464844
vt 0.096053 0.464844
vt 0.714207 0.464844
vt 0.791534 0.464844
vt 0.368256 0.464844
vt 0.635947 0.464844
vt 0.563476 0.464844
vt 0.643532 0.056854
vt 0.775017 0.019531
vt 0.784018 0.040753
vt 0.764718 0.049181
vt 0.741161 0.043933
vt 0.800781 0.922835
vt 0.762029 0.954657
vt 0.706537 0.053763
vt 0.833499 0.220421
vt 0.837268 0.247314
vt 0.824499 0.100172
vt 0.839553 0.109652
vt 0.844184 0.092682
vt 0.445385 0.131844
vt 0.489838 0.396865
vt 0.086113 0.918599
vt 0.154323 0.924739
vt 0.094102 0.938326
vt 0.439169 0.339184
vt 0.437500 0.391781
vt 0.175724 0.918820
vn 0.1788 0.0000 -0.9839
vn 0.5495 -0.2052 -0.8099
vn -0.2765 -0.2533 -0.9270
vn -0.1982 0.2773 -0.9401
vn 0.1667 0.3607 -0.9177
vn 0.0000 1.0000 0.0000
vn 0.9247 0.0000 -0.3807
vn 0.7349 -0.0847 -0.6729
vn -0.8232 0.5512 0.1361
vn 0.8341 -0.2010 0.5137
vn 0.6745 -0.3390 0.6559
vn 0.9310 -0.3237 0.1688
vn 0.9774 -0.2060 0.0481
vn -0.7457 -0.2401 0.6216
vn -0.6173 -0.3937 0.6811
vn 0.1151 -0.4188 0.9008
vn 0.0009 -0.4271 0.9042
vn -0.9730 -0.1452 0.1796
vn -0.9419 -0.2977 0.1555
vn 0.5579 -0.0553 -0.8281
vn 0.8889 -0.2192 -0.4023
vn 0.6996 -0.1699 -0.6940
vn 0.9623 -0.2050 -0.1789
vn -0.3452 -0.4075 -0.8455
vn -0.8358 -0.3291 -0.4394
vn -0.8800 -0.1624 -0.4463
vn -0.8669 0.0550 -0.4954
vn -0.9854 0.0687 0.1557
vn -0.9890 0.1270 -0.0758
vn 0.7516 0.6595 0.0103
vn 0.6241 0.6241 -0.4701
vn 0.2804 0.7037 -0.6529
vn 0.1561 0.9784 -0.1353
vn -0.5653 0.8245 -0.0241
vn -0.5583 0.8294 -0.0181
vn -0.5627 0.8264 -0.0218
vn 0.9708 -0.0000 0.2398
vn 0.7023 0.6904 0.1735
vn 0.4747 0.0000 -0.8802
vn -0.6882 0.0000 -0.7255
vn 0.5772 -0.3941 0.7152
vn 0.9029 -0.3465 0.2543
vn -0.5783 -0.4020 0.7099
vn 0.0114 -0.4177 0.9085
vn -0.9060 -0.3765 0.1936
vn 0.9106 -0.3066 -0.2771
vn 0.6360 -0.3094 -0.7070
vn -0.4123 -0.3870 -0.8248
vn -0.8351 -0.3782 -0.3996
vn 0.3423 -0.3296 -0.8799
vn 0.5872 -0.4589 -0.6668
vn 0.1239 -0.4801 -0.8684
vn 0.1545 -0.3540 -0.9224
vn 0.0001 -0.5428 0.8398
vn 0.5243 -0.5198 0.6745
vn 0.8379 -0.4847 0.2512
vn -0.5274 -0.5447 0.6520
vn -0.8256 -0.5345 0.1810
vn 0.8520 -0.4593 -0.2513
vn -0.7691 -0.5223 -0.3683
vn -0.3958 -0.5054 -0.7668
vn 0.0460 0.5064 -0.8610
vn 0.5669 0.4325 -0.7011
vn -0.4232 0.7059 0.5680
vn -0.7859 -0.0000 0.6183
vn -0.9163 -0.0000 0.4004
vn 0.7683 0.6400 0.0093
vn 0.1434 0.9897 0.0017
vn -0.6101 0.7921 0.0199
vn -0.7581 0.6392 0.1296
vn -0.6827 0.7273 0.0706
vn 0.2363 0.6613 -0.7119
vn 0.1618 0.6936 -0.7020
vn 0.1264 0.7071 -0.6957
vn 0.4285 0.6109 0.6657
vn 0.3329 0.6145 0.7152
vn 0.4517 0.6089 0.6520
vn -0.4329 0.6272 0.6475
vn -0.6329 -0.0000 0.7743
vn 0.5066 0.6022 0.6170
vn 0.0496 0.5109 0.8582
vn 0.6715 0.0000 0.7410
s 1
f 1/1/1 2/2/2 3/3/3 4/4/4 5/5/5
f 6/6/6 7/7/6 8/8/6 9/9/6 10/10/6
f 11/11/7 12/12/8 2/2/2 1/1/7 13/13/7 14/14/7
f 15/15/9 16/16/9 17/17/9 6/6/9
f 18/18/10 19/19/11 20/20/12 21/21/13
f 22/22/14 23/23/15 24/24/16 25/25/17
f 26/26/18 27/27/19 23/28/15 22/29/14
f 28/30/20 29/31/21 30/32/22 12/12/8
f 21/21/13 20/20/12 29/31/21 28/30/23
f 3/3/3 31/33/24 32/34/25 33/35/26
f 34/36/27 33/35/26 26/26/18 35/37/28 36/38/29
f 37/39/30 21/21/13 28/30/23 38/40/31
f 37/41/30 38/42/31 39/43/32 40/44/33 41/45/6
f 35/46/34 10/10/34 9/9/35 36/47/36
f 42/48/37 18/18/10 21/21/13 37/39/30 43/49/38
f 43/50/38 37/41/30 41/45/6 7/7/6 44/51/6
f 38/40/31 28/30/20 12/12/8 11/11/39 39/52/32
f 45/53/6 44/51/6 7/7/6 6/6/6 17/17/6
f 4/4/4 3/3/3 33/35/26 34/36/27 46/54/40 47/55/40
f 19/19/11 48/56/41 49/57/42 20/20/12
f 23/23/15 50/58/43 51/59/44 24/24/16
f 27/27/19 52/60/45 50/61/43 23/28/15
f 29/31/21 53/62/46 54/63/47 30/32/22
f 20/20/12 49/57/42 53/62/46 29/31/21
f 31/33/24 55/64/48 56/65/49 32/34/25
f 25/25/17 24/24/16 19/19/11 18/18/10
f 12/12/8 30/32/22 57/66/50 2/2/2
f 33/35/26 32/34/25 27/27/19 26/26/18
f 2/2/2 57/66/50 31/33/24 3/3/3
f 54/63/47 58/67/51 59/68/52 60/69/53
f 51/59/44 61/70/54 62/71/55 48/56/41
f 48/56/41 62/71/55 63/72/56 49/57/42
f 50/58/43 64/73/57 61/70/54 51/59/44
f 52/60/45 65/74/58 64/75/57 50/61/43
f 53/62/46 66/76/59 58/67/51 54/63/47
f 24/24/16 51/59/44 48/56/41 19/19/11
f 30/32/22 54/63/47 60/69/53 57/66/50
f 32/34/25 56/65/49 52/60/45 27/27/19
f 57/66/50 60/69/53 55/64/48 31/33/24
f 56/65/49 67/77/60 65/74/58 52/60/45
f 60/69/53 59/68/52 68/78/61 55/64/48
f 55/64/48 68/78/61 67/77/60 56/65/49
f 49/57/42 63/72/56 66/76/59 53/62/46
f 39/43/32 11/79/62 40/44/33
f 1/80/63 5/81/63 69/82/63 13/83/63
f 10/10/64 15/15/64 6/6/64
f 35/37/28 26/26/18 22/29/14 15/84/65 10/85/66
f 11/79/67 14/86/68 40/44/33
f 8/8/69 46/87/70 34/88/71
f 36/47/36 9/9/35 8/8/69 34/88/71
f 7/7/6 41/45/6 70/89/6 47/90/6 46/87/6 8/8/6
f 4/91/4 47/90/72 70/89/73
f 69/82/74 5/81/5 4/91/4 70/89/73
f 41/45/6 40/44/33 14/86/68 13/83/6 69/82/6 70/89/6
f 42/92/75 43/50/76 44/51/77
f 17/17/78 16/16/78 71/93/78 45/53/78
f 15/94/65 22/22/14 25/25/17 71/95/79 16/96/79
f 42/92/75 44/51/77 45/53/80 72/97/80
f 25/98/81 72/97/81 45/53/81 71/93/81
f 25/25/17 18/18/10 42/48/82 72/99/82
